<?xml version="1.0" encoding="utf-8"?>
<!-- Generator: Adobe Illustrator 19.0.0, SVG Export Plug-In . SVG Version: 6.00 Build 0)  -->
<svg version="1.1" id="Laag_1" xmlns="http://www.w3.org/2000/svg" xmlns:xlink="http://www.w3.org/1999/xlink" x="0px" y="0px"
	 viewBox="0 0 400 50" style="enable-background:new 0 0 400 50;" xml:space="preserve">
<style type="text/css">
	.st0{opacity:0.2;fill:#567B69;}
</style>
<path id="XMLID_4_" class="st0" d="M29.5,22.4c1.7,0,3.3,0.1,5,0.1c8,7.2,14.9,15.3,20.9,24.4c1,1.5,3.9,1.5,4.3-0.6
	c1.1-6.7,2.1-13.4,3-20.1c52.5,10.2,235.1,29.9,303.9-5.8c6.5-3.4,4.2-13.1-3.2-7.9c-43,37.1-248.6,19.8-300.2,9.4
	c0.6-5.6,1.2-11.2,1.7-16.8c0.1-1.7-2.2-3-3.5-2C53,9,44.1,13.4,34.5,16.3c-0.1-0.1-0.3-0.2-0.4-0.4c-1.7-1.4-3.8,0-4,1.6
	c-0.4,0.1-0.8,0.2-1.2,0.3C26.2,18.4,26.9,22.4,29.5,22.4z M56,39.6c-4.3-5.9-9-11.4-14.1-16.5c5.3,0.5,10.7,1.3,16.2,2.3
	C57.5,30.1,56.8,34.9,56,39.6z M42.5,18.5c6-2.3,11.8-5.2,17.2-8.7c-0.3,3.7-0.7,7.4-1.1,11.1C53.1,19.9,47.7,19.1,42.5,18.5z"/>
</svg>
