<?xml version="1.0" encoding="utf-8"?>
<!-- Generator: Adobe Illustrator 19.0.0, SVG Export Plug-In . SVG Version: 6.00 Build 0)  -->
<svg version="1.1" id="Laag_1" xmlns="http://www.w3.org/2000/svg" xmlns:xlink="http://www.w3.org/1999/xlink" x="0px" y="0px"
	 viewBox="0 0 200 160" style="enable-background:new 0 0 200 160;" xml:space="preserve">
<style type="text/css">
	.st0{opacity:0.2;fill:#567B69;}
</style>
<path id="XMLID_2_" class="st0" d="M7.9,1c28,70,94.4,128.5,172.5,114.6c-14.1-8.8-28.2-17.5-42.2-26.3c-5.2-3.3-0.6-11.3,4.8-8.3
	c16.9,9.3,33.8,18.6,50.7,27.9c2.2,1.2,2.7,3.3,2.2,5.1c2.7,1.9,3,6.4-0.2,8.1c-1.9,1-3.8,2.1-5.7,3.2
	c-13.4,9.1-24.9,19.6-35.4,32.2c-3.4,4.1-10.7-1.4-7.5-5.8c0.2-0.3,0.5-0.6,0.8-1l0,0c0,0,0,0,0,0c7-9.3,14.7-17.3,23.4-24.2
	C93.3,134.3,29,74.7,3.4,2.2"/>
</svg>
