<?xml version="1.0" encoding="utf-8"?>
<!-- Generator: Adobe Illustrator 19.0.0, SVG Export Plug-In . SVG Version: 6.00 Build 0)  -->
<svg version="1.1" id="Laag_1" xmlns="http://www.w3.org/2000/svg" xmlns:xlink="http://www.w3.org/1999/xlink" x="0px" y="0px"
	 viewBox="0 0 400 50" style="enable-background:new 0 0 400 50;" xml:space="preserve">
<style type="text/css">
	.st0{opacity:0.2;fill:#567B69;}
</style>
<path id="XMLID_4_" class="st0" d="M369.9,17.8c-0.4-0.1-0.8-0.2-1.2-0.3c-0.2-1.6-2.4-3-4-1.6c-0.1,0.1-0.3,0.2-0.4,0.4
	c-9.6-2.9-18.5-7.3-26.8-13.2c-1.4-1-3.7,0.3-3.5,2c0.4,5.6,1,11.2,1.7,16.8C284,32.3,164.9,6.4,35.4,12.4c-9,1.1-7.5,8.6-3.2,7.9
	c82.7-13.6,251.3,16,303.9,5.8c0.8,6.7,1.8,13.4,3,20.1c0.4,2.1,3.3,2.2,4.3,0.6c6-9.1,12.9-17.2,20.9-24.4c1.7-0.1,3.3-0.1,5-0.1
	C371.8,22.4,372.5,18.4,369.9,17.8z M340.7,25.3c5.5-1,10.9-1.8,16.2-2.3c-5.2,5.1-9.9,10.6-14.1,16.5
	C342,34.9,341.3,30.1,340.7,25.3z M340.2,20.9c-0.4-3.7-0.8-7.4-1.1-11.1c5.5,3.5,11.2,6.4,17.2,8.7C351,19.1,345.6,19.9,340.2,20.9
	z"/>
</svg>
