<?xml version="1.0" encoding="utf-8"?>
<!-- Generator: Adobe Illustrator 19.0.0, SVG Export Plug-In . SVG Version: 6.00 Build 0)  -->
<svg version="1.1" id="Laag_1" xmlns="http://www.w3.org/2000/svg" xmlns:xlink="http://www.w3.org/1999/xlink" x="0px" y="0px"
	 viewBox="0 0 400 190" style="enable-background:new 0 0 400 190;" xml:space="preserve">
<style type="text/css">
	.st0{fill:#FFFFFF;stroke:#000000;stroke-miterlimit:10;}
	.st1{fill:#F4F4F4;}
</style>
<rect id="XMLID_1_" x="120.1" y="-15.9" class="st0" width="0" height="0"/>
<path id="XMLID_4_" class="st1" d="M447.3,65.7c0,0-66-25-124.2-25s-94.4,22.1-135.8,22.1c-41.4,0-95.7-24-141-24s-93.1,25-93.1,25
	V30.1c0,0,47.9-25,93.1-25s99.6,24,141,24c41.4,0,77.6-22.1,135.8-22.1s124.2,25,124.2,25V65.7z"/>
<path id="XMLID_3_" class="st1" d="M434,122.6c-22.2-7.2-68.6-20.4-110.9-20.4c-58.2,0-94.4,22.1-135.8,22.1c-41.4,0-95.7-24-141-24
	c-36.6,0-74.8,16.3-88.2,22.6c-3.2,1.5-4.9-6.7-4.9-6.7V91.6c0,0,47.9-25,93.1-25s99.6,24,141,24c41.4,0,77.6-22.1,135.8-22.1
	s124.2,25,124.2,25v17.6C447.3,111.2,442.4,125.3,434,122.6z"/>
<path id="XMLID_2_" class="st1" d="M397.9,173.9c-5-1.2-10.2-2.4-15.5-3.5c-18.7-3.8-39.4-6.7-59.2-6.7
	c-58.2,0-94.4,22.1-135.8,22.1c-41.4,0-95.7-24-141-24c-18.3,0-37.1,4.9-53,9.8c-5.1-1.2-21.9-26.7-19.3-27.7
	c18.2-7.1,45.7-15.8,72.3-15.8c45.3,0,99.6,24,141,24c41.4,0,77.6-22.1,135.8-22.1c28.3,0,58.4,5.9,81.9,12
	C408.2,142.9,426.4,180.8,397.9,173.9z"/>
</svg>
