<?xml version="1.0" encoding="utf-8"?>
<!-- Generator: Adobe Illustrator 23.0.3, SVG Export Plug-In . SVG Version: 6.00 Build 0)  -->
<svg version="1.1" id="Laag_1" xmlns="http://www.w3.org/2000/svg" xmlns:xlink="http://www.w3.org/1999/xlink" x="0px" y="0px"
	 viewBox="0 0 1800 2400" style="enable-background:new 0 0 1800 2400;" xml:space="preserve">
<style type="text/css">
	.st0{fill:#F4F4F4;}
</style>
<path class="st0" d="M613.73,880.55c2.36,12.57,9.09,22.47,18.67,30.62c2.79-0.86,5.88-0.57,8.48-2.21
	c4.97-4.64,0.95-9.04-1.32-12.36c-3.5-5.13-5.15-10.47-5.65-16.43c-5.47-6.98-6.91-16.97-15.88-21.35
	c-4.28,1.86-3.56,5.85-3.99,9.35c-0.05,3.54,0.05,7.09-0.14,10.63C613.84,879.39,613.79,879.97,613.73,880.55z"/>
<path class="st0" d="M832.24,358c-0.91,0.8,5.31,4.25,4.4,5.04c-0.76,0.93-1.53,1.85-2.29,2.78c-1.07,4.4,1.02,7.99,2.93,11.63
	c2.98,1.1,6.01,0.95,9.06,0.37c1.73-1.67,4.62-2.61,5.19-5c-0.88-3.15-1.48-2.24-2.33-6.81C845.17,362.88,838.39,358.56,832.24,358z
	"/>
<path class="st0" d="M343.2,291.03c0.16,7.64-3.99,12.7-10.06,16.49c-2.62,1.64-5.66,2.31-8.5,0.7c-2.89-1.63-1.76-4.33-1.27-6.83
	c0.26-1.33-0.45-2.4-1.66-3.07c-2.49,4.49-5.12,8.96-5.99,14.08c-0.5,2.95,0.65,5.2,4.27,4.01c5.69-1.87,11.51-3.5,16.92-6.01
	C346.38,306.01,347.45,302.08,343.2,291.03z"/>
<path class="st0" d="M840.57,797.13c1.4,17.66,6.6,23.43,23.33,25.93c2.7-1.61,5.43-3.18,8.05-4.93c0.83-0.09,1.66-0.15,2.49-0.18
	c0.94-0.82,1.8-1.71,2.69-2.57l0.01-0.02c8.73-13.5,8.97-20.66,0.98-29.09c-9.43-9.93-21.08-9.66-30.81,0
	C844.03,789.51,844.05,794.31,840.57,797.13z"/>
<path class="st0" d="M144.61,769c-4.46,8.02-10.37,15.31-12.55,24.5c0.69,0.59,0.91,1.17,0.68,1.76c-0.23,0.58-0.46,0.87-0.69,0.87
	c0.23,3.75-0.47,7.21-3.1,10.08c0.22,2.87,0.22,5.74-0.04,8.61c2.14,4.77,7.89,5.69,10.58,9.88c2.6,1.8,4.6,0.28,6.63-1.17
	c1.71-1.81,3.05-3.77,2.49-6.45c-1.46-5.99-4.14-11.91-1.18-18.2c-0.66-7.25,0.63-14.23,3.05-21.04
	C149.77,774.06,148.48,770.67,144.61,769z"/>
<path class="st0" d="M89.89,737.69c1.39-0.11,2.79-0.21,4.18-0.32c1.17-0.49,2.34-0.61,3.65-0.58c13.27,0.35,13.27,0.32,9.87-13.1
	l0.16,0.24c-1.62-0.57-2.55-1.72-2.82-3.41c-0.21-1.28-1.03-1.8-2.25-1.83c-1.03-0.76-1.8-1.89-2.79-2.59
	c-3.17-2.24-3.54-9.38-8.92-6.99"/>
<path class="st0" d="M240.58,890.94c-0.84,1.55-1.67,3.1-2.51,4.66c0.79,0.91,1.66,1.73,2.61,2.46l0.83,0.56l1,0
	c5.35,1.91,11.08-0.2,16.45,1.51c7.89,0.05,13.03-5.2,18.69-9.56c3.8-2.93,3.7-6.57,2.16-10.28c-1.41-3.4-4.04-5.43-8.13-4.49
	c-4.14,0.96-8.59-0.09-12.59,1.87c-0.67,1.8-0.47,3.96,0.98,4.74c8.5,4.55,2.63,5.73-1.59,7.33c-2.57,0.76-5.08,1.75-7.78,1.99
	c-3.52,0.25-3.37-6.07-7.7-4.34l-0.06-0.14C242.46,888.67,240.43,889.11,240.58,890.94z"/>
<path class="st0" d="M310.27,920.32c-9.34-0.99-9.27-0.94-7.9-11.42c0.3-2.29-1.98-2.37-3.59-2.78c-3.73,4.14-11.37,6.43-7.84,14.18
	"/>
<path class="st0" d="M258.95,892.89c5.9-0.98,8.59-5.86,12.62-10.51c-5.92,1.83-10.06,0.45-12.47-4.73
	c-6.72,0.99-11.56,5.1-16.1,9.72c0.73,0.9,2.23,1.97,2.07,2.67c-1.3,5.88,2.36,5.66,6.21,5.34
	C253.23,892.7,254.5,887.92,258.95,892.89z"/>
<path class="st0" d="M155.42,848.52c-0.28,2.23,1.19,4.35,3.68,4.35c1.78-0.01,2.8-1.65,3.09-3.55c0.77-5.07-0.51-10.36,1.84-15.27
	c0.84-1.76-0.06-3.42-1.39-4.6c-1.49-1.33-2.66-3.82-5.18-2.79"/>
<path class="st0" d="M180.05,786.24c-0.53,4.65,0.53,8.63,5.47,10.12c3.31,1,5.86-1.05,7.39-3.7c2.67-4.62,2.44-8.92-2.58-12.04
	C184.92,778.86,179.04,776.25,180.05,786.24z"/>
<path class="st0" d="M255.25,819.21c-7.25-7.32-12.86-8.93-19.14-7.41c-2.46,0.6-4.9,2.37-4.16,5.64c0.63,2.79,2.46,4.66,5.53,4.54
	C242.75,821.78,247.23,818.43,255.25,819.21z"/>
<path class="st0" d="M177.34,811.54c-1.83,1.89-3.68,4.2-1.85,6.61c1.53,2.01,3.99,0.46,5.73-0.57c3.99-2.36,8.32-4.47,11.61-7.61
	c2.96-2.82,4.12-6.75-1.9-8.25c-2.27,1.88-5.64,0-7.78,2.28l-0.01,0.01C187.3,811.22,177.71,807.83,177.34,811.54z"/>
<path class="st0" d="M160.16,817.08c9.68-3.23,12.14-9.86,8.92-19.38C160.34,801.66,162.64,810.35,160.16,817.08z"/>
<path class="st0" d="M211.99,854.79c0.18-4.19-1.7-7.34-5-9.73c-1.21-0.87-2.53-0.46-3.37,0.5c-3.44,3.97-1.59,7.89,0.28,11.8
	c1.13,2.38,2.38,4.85,5.54,3.9C212.73,860.29,211.58,857.14,211.99,854.79z"/>
<path class="st0" d="M107.6,756.41c0,3.01,0,6.03,0,9.6c-3.37,3.71-10.18-1.28-13.52,4.07c0.35,0.24,0.67,0.56,1.05,0.7
	c5.47,1.96,11.6,5.72,16.27-0.01C115.84,765.33,109.34,761.14,107.6,756.41z"/>
<path class="st0" d="M177.32,847.5c0.59,3.85,1.84,7.27,5.86,8.84c2.18-2.07,2.29-4.93,2.85-7.61c0.93-4.85,3.19-10.63-5.92-8.45
	C178.93,842.59,177.2,844.69,177.32,847.5z"/>
<path class="st0" d="M180.12,840.28c6.29-0.21,5.36,4.64,5.92,8.45c2.7-2.63,1.39-6.91,3.6-9.47c1.95-2.27,3.33-3.77,0.51-6.2
	c-2.54-2.18-4.68-1.28-6.87,0.49C181.12,835.29,180.01,837.5,180.12,840.28z"/>
<path class="st0" d="M183.41,861.02c-4.37,6.16-4.88,12.24,0.38,18.21c0.91,0.9,1.81,0.89,2.69-0.04
	C187.33,872.81,182.95,867.32,183.41,861.02z"/>
<path class="st0" d="M248.62,830.12c-0.9,0.01-1.79,0.03-2.69,0.04c-0.88,1.74-1.77,3.47-2.65,5.21c3.48-0.9,6.95-1.81,10.43-2.71
	c2.74-0.5,5.83,0.21,8-2.29C257.37,829.16,253,829.62,248.62,830.12z"/>
<path class="st0" d="M127.71,779.7c0.73-6.8,6.11-5.1,10.28-5.62c-1.27-2.11-3.34-2.01-5.45-2.16
	C124.81,771.36,124.82,771.3,127.71,779.7z"/>
<path class="st0" d="M177.34,811.54c1.68-0.27,3.38-0.43,5.02-0.83c6.21-1.51,2.96-4.18,0.78-6.71
	C179.3,805.05,178.03,808.07,177.34,811.54z"/>
<path class="st0" d="M194.33,860.61c4.1-2.85,3.97-5.72,0.04-8.61C188.86,854.84,190.21,857.72,194.33,860.61z"/>
<path class="st0" d="M161.85,858.31c0.34,1.72,0.82,3.56,2.59,4.14c1.32,0.43,2.5-0.57,2.55-2.06c0.06-1.88-1.1-3.35-2.7-4
	C162.99,855.86,161.9,856.69,161.85,858.31z"/>
<path class="st0" d="M258.96,900.12c-5.2-3.58-10.88-1.94-16.45-1.51C247.79,901.3,253.35,901.02,258.96,900.12z"/>
<path class="st0" d="M214.56,865.89c0.34,1.22,0.31,3.22,2.74,2.8c1.29-0.22,2.25-1.23,2.11-2.56c-0.18-1.76-1.24-3.23-3.12-3.19
	C214.99,862.96,214.52,864.29,214.56,865.89z"/>
<path class="st0" d="M216.45,801.16c0.85,1.13,1.93,1.86,3.2,0.85c0.55-0.44,1.13-1.7,0.89-2.13c-0.71-1.22-2.02-1.41-3.35-0.85
	C216.18,799.47,215.94,800.2,216.45,801.16z"/>
<path class="st0" d="M183.15,804c2.87,0.18,5.8,0.56,7.78-2.28C188.1,801.68,185.22,801.47,183.15,804z"/>
<path class="st0" d="M227.11,892.67c2.27,0.42,4.25,0.01,5.67-1.98C230.45,890.09,228.65,891.01,227.11,892.67z"/>
<path class="st0" d="M204.63,816.9c0.14,0.31,0.23,0.85,0.44,0.9c0.79,0.21,1.19-0.3,0.96-1.27c-0.05-0.22-0.61-0.53-0.81-0.46
	C204.96,816.17,204.82,816.61,204.63,816.9z"/>
<path class="st0" d="M240.58,890.94c1.32-0.9,2.32-1.99,2.35-3.7c-1.81,0.91-3.61,1.81-5.42,2.72
	C238.54,890.28,239.56,890.61,240.58,890.94z"/>
<path class="st0" d="M225.98,808.52c-0.14,0.34-0.45,0.72-0.38,1c0.27,1.09,0.87,1.22,1.46,0.3c0.15-0.23,0-0.79-0.19-1.07
	C226.74,808.56,226.29,808.59,225.98,808.52z"/>
<path class="st0" d="M170.36,753.24c0.23,1.72,1.14,2.88,2.82,3.41C173.1,754.81,172.04,753.77,170.36,753.24z"/>
<path class="st0" d="M240.68,898.05c-0.87-0.82-1.74-1.64-2.61-2.46c-0.05,0.76-0.08,1.53-0.1,2.29
	C238.88,897.94,239.78,898,240.68,898.05z"/>
<path class="st0" d="M164.76,874.63c1.97-0.87,1.84-1.75,0.01-2.63C164.77,872.87,164.77,873.75,164.76,874.63z"/>
<path class="st0" d="M212.78,880.32c1.78-0.49,2.56-1.64,1.85-2.73c-0.53-0.8-2.03-1.31-3.11-1.32c-1.27-0.02-2.37,1-1.41,2.35
	C210.73,879.49,212.03,879.86,212.78,880.32z"/>
<path class="st0" d="M258.95,892.89c0.67-1.88,2.78-3.82,1.52-5.66c-1.9-2.79-3.21,0.62-4.85,0.99c-4.24,0.94-4.96,3.53-4.34,7.17
	C253.84,894.55,256.39,893.72,258.95,892.89z"/>
<path class="st0" d="M373.78,215.18c11.6-6.07,21.16-10.77,32.55-6.8c2.27,0.79,5.72,0.95,4.85,4.7c-0.56,2.4-2.92,3.16-5.21,2.89
	C396.16,214.78,386.38,220.87,373.78,215.18"/>
<path class="st0" d="M532.3,320.03c0.77-4.73,4.63-8.9,0.37-14.39c-3.12-4.01,0.35-8.1,5.86-8.96c6.24-0.97,5.3,10.12,12.46,7.01
	c0.5,1.86-0.24,3.43-1.46,4.66c-3.57,3.61-7.24,7.12-10.87,10.67C536.38,318.33,534.68,321.35,532.3,320.03z"/>
<path class="st0" d="M544.7,282.54c4.99-2.29,6.81-7.09,8.15-12.01c4.9,1.91,6.34,5.8,8.82,8.65c1.5,1.73,2.05,3.91,0.56,5.96
	c-1.44,1.98-3.57,2.35-5.81,1.68c-2.88-0.87-5.71-2.49-8.54,0.06c-1.64,1.91-2.95,1.97-3.75-0.69l-0.01,0.01
	C544.37,284.99,544.56,283.77,544.7,282.54z"/>
<path class="st0" d="M490.23,225.08c0.96,5.52,6.74,7.75,8.58,12.6c0.38,1-0.03,2.56-0.59,3.57c-0.61,1.1-2,1.58-3.25,0.86
	c-5.48-3.16-7.39-10.22-4.69-17.05L490.23,225.08z"/>
<path class="st0" d="M554.55,226.33c6.4-1.13,11.57-5.18,18.62-7.3C567.37,228.09,564.48,229.22,554.55,226.33z"/>
<path class="st0" d="M425.38,204.92c3.17,0.77,6.4,1.37,9.46,2.45c0.7,0.25,1.33,2.31,1.04,3.23c-0.27,0.86-1.8,1.84-2.8,1.87
	C428.71,212.61,426.95,208.93,425.38,204.92z"/>
<path class="st0" d="M445.7,215.29c-1.06-1.93,0.05-3.15,1.48-4.1c1.95-1.3,4.32-1.34,5.62,0.44c1.29,1.77,0.89,4.15-1.56,5.11
	C449.21,217.54,447.19,217.16,445.7,215.29z"/>
<path class="st0" d="M466.13,211.99c1.11-0.39,1.53-0.68,1.9-0.64c2.46,0.27,5.19,0.07,6.57,2.74c0.22,0.43-0.34,1.8-0.82,1.97
	c-2.72,0.97-4.69-0.84-6.74-2.18C466.77,213.7,466.7,213.2,466.13,211.99z"/>
<path class="st0" d="M490.29,225.06c-0.36-0.21-0.77-0.36-1.07-0.63c-1.89-1.71-6.54,0.19-6.04-4.54c0.05-0.49,1.34-1.36,1.66-1.21
	c2.77,1.27,7.06,1.39,5.39,6.41L490.29,225.06z"/>
<path class="st0" d="M528.11,258.27c-0.73-1.16-0.75-2.92,0.53-4.25c0.93-0.97,2.53-0.85,3.45,0.23c1.3,1.53,0.87,3.3-0.35,4.63
	C530.81,259.89,529.48,259.92,528.11,258.27z"/>
<path class="st0" d="M506.71,244.02c0.04,0.69,0.61,2.24,0.08,2.88c-1.38,1.67-2.9,0.74-3.96-0.69c-0.81-1.09-0.72-2.39,0.38-3.22
	C504.33,242.15,505.49,242.49,506.71,244.02z"/>
<path class="st0" d="M544.13,286.19c1.25,0.23,2.5,0.46,3.75,0.69c0.23,1.95,0.57,4.95-1.62,4.85
	C543.3,291.6,543.22,288.71,544.13,286.19z"/>
<path class="st0" d="M546.84,262.85c0.7,0.17,1.71,0.1,2.02,0.54c0.84,1.19,0.31,2.31-1.05,2.58c-0.53,0.11-1.58-0.61-1.78-1.17
	C545.85,264.32,546.53,263.52,546.84,262.85z"/>
<path class="st0" d="M518.86,252.94c-0.16,0.66-0.1,1.64-0.51,1.92c-1.13,0.78-2.22,0.3-2.5-1c-0.11-0.5,0.59-1.51,1.13-1.69
	C517.46,252,518.22,252.65,518.86,252.94z"/>
<path class="st0" d="M519.3,269.82c0.68,0.08,1.66-0.09,1.99,0.29c0.94,1.1,0.53,2.25-0.78,2.66c-0.48,0.15-1.53-0.49-1.8-1.03
	C518.5,271.3,519.07,270.48,519.3,269.82z"/>
<path class="st0" d="M424.28,212.01c-0.31,0.91-0.36,1.93-0.79,2.13c-1.47,0.7-3.07,0.81-3.95-0.92c-0.14-0.27,0.76-1.53,1.26-1.59
	C421.91,211.5,423.07,211.85,424.28,212.01z"/>
<path class="st0" d="M559.28,304.47c-0.16,0.68-0.09,1.68-0.52,1.99c-1.17,0.83-2.25,0.29-2.5-1.03c-0.1-0.53,0.58-1.55,1.13-1.76
	C557.85,303.49,558.64,304.17,559.28,304.47z"/>
<path class="st0" d="M398.24,224.23c-0.23,0.67-0.27,1.67-0.73,1.94c-1.2,0.69-2.28,0.12-2.44-1.23c-0.06-0.55,0.7-1.58,1.24-1.7
	C396.86,223.13,397.59,223.86,398.24,224.23z"/>
<path class="st0" d="M409.64,221.85c0.81,0.38,2.1,0.68,2.94,1.47c1.21,1.13,0.35,2.3-0.87,2.48c-1.08,0.16-2.28-0.47-3.43-0.75
	C408.57,224.38,408.86,223.71,409.64,221.85z"/>
<path class="st0" d="M466.63,226.6c-0.08,0.65,0.09,1.6-0.28,1.91c-1.1,0.93-2.23,0.5-2.73-0.74c-0.16-0.41,0.46-1.54,0.93-1.69
	C465.13,225.89,465.92,226.39,466.63,226.6z"/>
<path class="st0" d="M532.3,320.03c2.04-0.86,4.01-2.18,6.36-1c-1.14,1.06-2.14,2.35-3.44,3.14
	C532.84,323.64,531.62,323.01,532.3,320.03z"/>
<path class="st0" d="M477.49,221.85c-0.22,0.27-0.51,0.8-0.63,0.77c-0.36-0.1-0.65-0.44-0.96-0.68c0.22-0.27,0.51-0.8,0.64-0.77
	C476.88,221.27,477.17,221.61,477.49,221.85z"/>
<path class="st0" d="M538.29,263.39c-0.2,0.31-0.33,0.79-0.6,0.9c-1.07,0.42-1.52,0.01-1.11-1.01c0.11-0.26,0.65-0.47,1-0.48
	C537.81,262.79,538.05,263.18,538.29,263.39z"/>
<path class="st0" d="M544.7,282.54c-0.19,1.22-0.38,2.44-0.58,3.66C543.58,284.86,543.81,283.65,544.7,282.54z"/>
<path class="st0" d="M811.96,938.05c-0.05-12.86,1.09-25.73-2.46-38.45c-1.84-6.57-5.36-11.54-10.04-16.2
	c-2.65-2.65-5.14-4.72-8.95-3.51c-4.2,1.33-6.53,5.12-6.63,8.82c-0.21,8.16-0.93,17.31,4.58,23.72
	c7.94,9.24,11.92,19.49,13.11,31.24C802.89,937.83,811.16,944.83,811.96,938.05z"/>
<path class="st0" d="M768.56,954.88c0.38-2.21-1.01-4.97-2.56-7.6c-2.87-4.87-9.95-8.43-12.88-6.64c-3.2,1.95-3.22,8.57,0.04,14.21
	c1.09,1.88,2.22,3.77,3.54,5.49c2.08,2.72,4.19,6.64,8.19,4.86C768.38,963.66,767.97,959.34,768.56,954.88z"/>
<path class="st0" d="M792.34,592.79c-0.2-6.38-5.18-10.71-12.17-10.6c-4.36,0.07-8.27,4.3-7.93,8.58c0.42,5.27,6.11,9.8,12.03,9.59
	C790.5,600.13,792.51,598.25,792.34,592.79z"/>
<path class="st0" d="M864.84,707c-0.42,5.23,4.06,9.91,9.67,10.74c3.56,0.53,5.91-0.62,6.13-4.52c0.29-5.09-4.06-10.87-8.63-11.24
	C868.06,701.65,865.53,703.53,864.84,707z"/>
<path class="st0" d="M811.96,938.05c-1.56,0.6-3.86,2.18-4.56,1.65c-6.36-4.81-5.35,0.58-5.82,3.98c0.39,5.1,3.84,6.55,7.77,4.96
	C814.31,946.63,813.53,942.21,811.96,938.05z"/>
<path class="st0" d="M824.33,904.7c1.02-14.82,4.55-28.89-10.67-39.42c-3.47,7.71-6.76,13.79-0.22,21.3
	C817.72,891.47,819.14,898.55,824.33,904.7z"/>
<path id="XMLID_47_" class="st0" d="M863.14,614.28c-7.25,63.3-26.97,124.46-57.32,179.94c-30.42,55.48-71.08,105.45-120.26,147.82
	c6.72-0.19,13.48-0.69,20.38-1.74c1.19-0.71,2.4-1.41,3.57-2.15l3.44-2.32c2.29-1.57,4.58-3.14,6.88-4.72
	c21.51-22.78,40.54-47.28,57.78-72.37c17.27-25.11,32.79-50.78,47.81-76.62c2.75-4.62,4.93-9.5,7.27-14.29
	c2.27-4.82,4.6-9.61,6.45-14.58c1.94-4.92,3.83-9.86,5.65-14.79c1.66-4.99,3.18-10,4.7-14.99c0.74-2.5,1.54-4.97,2.19-7.48
	c0.62-2.52,1.23-5.04,1.85-7.55c1.17-5.03,2.49-9.99,3.44-15.01c1.84-10.05,3.79-19.96,4.92-29.87c0.33-2.47,0.66-4.93,0.99-7.38
	l0.5-3.67l0.33-3.68c0.47-4.89,0.93-9.74,1.39-14.57l0.36-3.6l0.21-3.61c0.15-2.4,0.3-4.79,0.45-7.17c0.17-2.38,0.34-4.75,0.5-7.11
	l0.27-3.53l0.14-3.53c0.32-9.38,1.1-18.61,1.32-27.71c0.18-4.55,0.51-9.07,0.78-13.57c0.15-4.48,0.37-8.94,0.69-13.38l0.39-6.97
	c0.15-2.32,0.12-4.64,0.21-6.96c0.12-4.64,0.29-9.29,0.51-13.94c0.21-9.37,0.42-18.64,0.63-27.75c-0.02-4.58,0.01-9.16,0.08-13.73
	c0.08-4.57,0.22-9.14,0.09-13.61c-0.04-4.49-0.04-8.98,0-13.44c0-2.22,0.1-4.47,0.05-6.66c-0.04-2.2-0.07-4.39-0.11-6.56
	c-1.91-5.51-3.74-11.01-5.69-16.46c-2.11-5.39-4.21-10.76-6.31-16.12c-15.21-35.82-34.95-69.31-58.04-100.25
	c-11.4-15.58-24.17-30.09-37.25-44.19c-3.35-3.46-6.8-6.81-10.2-10.22c-3.44-3.37-6.75-6.85-10.38-10
	c-7.14-6.43-14.16-12.99-21.71-18.94c-3.73-3.02-7.38-6.12-11.18-9.05l-11.54-8.58l-5.77-4.27l-5.96-4.01l-11.92-7.99
	c-4.02-2.58-8.16-4.99-12.24-7.49c-4.1-2.45-8.12-5.03-12.37-7.23c-8.39-4.56-16.72-9.23-25.39-13.24
	c-17.06-8.56-34.84-15.5-52.7-22.05c-18.06-6-36.27-11.61-54.88-15.53c-32.96-4.04-66.52-5.75-100.31-4.67
	c-33.79,1.21-67.77,5.27-101.34,12.41c-33.57,7.14-66.72,17.4-98.67,30.76c-31.9,13.41-62.61,29.94-91.44,49.35
	c25.89-19.85,53.67-37.15,82.87-51.76c29.22-14.62,59.95-26.54,91.72-35.45c-35.48,8.26-70.06,20.42-102.97,36.12
	c-32.89,15.68-64.34,34.89-93.26,57.67c-24.86,20.1-46.71,43.2-65.29,68.28c-18.59,25.08-33.9,52.13-45.97,80.34
	c0.8,3.93,1.35,8.19,1.53,12.83c0.11,2.33,0.06,4.72,0.03,7.27c-0.01,2.56-0.11,5.22-0.33,8c-0.22,2.77-0.54,5.66-0.99,8.68
	c-0.49,2.98-1.01,6.13-1.56,9.48c-0.57,3.32-1.28,6.78-2.12,10.39c-0.83,3.61-1.89,7.34-2.8,11.35
	c-6.47,24.63-11.86,49.18-14.61,74.18c-2.76,24.95-2.82,50.38,1.92,75.63c0,6.93-8.19,5.66-8.04,19.84
	c-0.21-4.94-0.1-9.77-0.31-14.5c-0.11-4.72-0.51-9.34-0.52-13.87c-0.18-9.05-0.97-17.76-1.27-26.15c-0.24-4.2-0.55-8.34-0.94-12.41
	c-0.31-4.07-0.51-8.06-0.88-12.01c-0.34-3.95-0.75-7.85-1.2-11.71c-0.3-3.83-0.66-7.63-1.06-11.38c-0.32,4.52-0.82,9-0.98,13.53
	c-0.15,4.52-0.3,9.04-0.45,13.58l-0.19,6.78l0.09,6.81c0.06,4.52,0.14,9.06,0.2,13.6c0.16,4.54,0.52,9.09,0.77,13.62
	c0.33,4.54,0.43,9.08,1.01,13.62c1.01,9.08,1.76,18.17,3.32,27.22c3.42,33.78,7.84,64.71,13.98,94.99
	C-15.7,738.45-7.76,768.07,3.92,798l2.54,4.5c0.87,1.48,1.81,2.93,2.71,4.4c1.81,2.92,3.63,5.85,5.45,8.79
	c18.19,29.08,42.39,54.86,69.48,76.34c-4.56-5.16-8.89-10.6-13.41-15.98c-2.3-2.66-4.37-5.54-6.53-8.4
	c-2.14-2.86-4.3-5.75-6.49-8.67c17,14.97,35.54,35.91,50.61,50.8c-8.39-5.45-16.18-11.68-24.19-17.75
	c22,24.75,45.58,46.38,74.24,67.19c-17.53-12.38-34.81-25.5-51.38-38.54c-4.12-3.3-8.21-6.58-12.25-9.81
	c-3.94-3.37-7.84-6.7-11.67-9.97c-1.93-1.64-3.85-3.26-5.75-4.87c-1.84-1.68-3.66-3.34-5.46-4.99c-3.63-3.31-7.18-6.55-10.65-9.71
	c3.35,3.76,6.68,7.5,10,11.22c1.68,1.83,3.28,3.74,5.03,5.5c1.75,1.76,3.49,3.52,5.23,5.27c3.49,3.49,6.93,7,10.44,10.41
	c3.63,3.3,7.24,6.58,10.84,9.85l5.4,4.89l5.6,4.63c3.73,3.07,7.45,6.15,11.16,9.21c3.83,2.91,7.66,5.81,11.48,8.71
	c3.82,2.9,7.61,5.82,11.6,8.47c31.31,22.04,64.25,41.24,100.09,58.77c-2.06-0.29-4.15-0.58-6.18-0.86
	c27.24,8.13,55.12,13.28,83.09,15.66c27.99,2.34,56.06,1.9,83.84-1.04c55.59-5.9,109.84-21.76,161.38-46.08
	c3.12-1.49,6.06-2.92,8.68-4.63c2.61-1.72,5-3.49,7.17-5.29c4.31-3.64,7.87-7.18,10.47-11.08c5.25-7.73,7.5-15.23,7.85-21.66
	c0.3-6.37-1.02-11.97-3.29-15.38c-1.13-1.72-2.46-2.95-3.89-3.55c-1.43-0.6-2.81-0.72-4.21-0.07c-46,27.66-98.18,44.45-151.37,49.2
	c-53.2,4.84-107.26-2.23-157.36-19.88c-50.12-17.69-96.18-45.99-134.63-82.15c-38.51-36.14-69.36-80.21-90.83-128.67
	c4.39,24.12,11.28,48.47,21.15,72.54c2.62,4.87,5.06,9.77,7.27,14.72c2.37,4.83,4.59,9.65,6.47,14.6c-2.49-4.9-5-9.7-7.32-14.56
	c-2.15-4.94-4.29-9.86-6.42-14.76c-1.84-3.25-3.45-6.72-5.22-10.1c-1.76-3.4-3.58-6.8-5.44-10.2c-1.83-3.42-3.46-7-5.24-10.51
	c-1.73-3.54-3.58-7.04-5.25-10.65c-1.58-3.65-3.16-7.31-4.75-10.99c-1.56-3.68-3.19-7.34-4.41-11.17
	c-2.58-7.61-5.25-15.15-6.77-23.03c0.14-1.63-0.15-3.96-0.81-6.6c-0.64-2.65-1.76-5.57-2.9-8.54c-2.42-5.9-6.18-11.58-11.1-14.1
	c-2.98-21.85-7.9-44.98-10.6-68.62c-2.76-23.55-3.23-47.55,1.24-68.81c0.28-2.55,2.98-6.71,6.14-11.39
	c1.71-26.83,6-53.63,12.81-80.03c5.02-18.37,11.28-36.35,18.73-53.79c7.74-17.29,16.56-34.05,26.54-50.03
	c2.55-3.96,5.23-7.82,7.84-11.74c1.33-1.94,2.58-3.94,3.98-5.82l4.23-5.63l4.23-5.63c1.4-1.89,2.8-3.77,4.34-5.53
	c3-3.6,6.01-7.19,9.01-10.78c1.46-1.83,3.09-3.51,4.68-5.23l4.77-5.13l4.77-5.13c1.6-1.7,3.34-3.27,4.99-4.91
	c3.35-3.23,6.71-6.47,10.06-9.7c3.51-3.05,7.02-6.1,10.53-9.15c56.74-48.01,127.09-78.38,198.45-85.93
	c-4.37,0.07-8.73,0.13-13.06,0.2c-4.34,0.16-8.64,0.51-12.97,0.72c-8.69,0.28-17.17,1.45-25.74,2.13c-4.27,0.37-8.44,1.1-12.67,1.6
	c-2.11,0.27-4.22,0.54-6.32,0.8c-2.11,0.24-4.21,0.51-6.27,0.9c-4.17,0.68-8.31,1.35-12.4,2.02c-2.06,0.34-4.15,0.61-6.19,0.98
	c-2.03,0.4-4.05,0.8-6.07,1.2c-11.21,1.53-24.71,6.17-39.26,13.49c-3.61,1.88-7.31,3.87-11.09,5.96c-0.94,0.53-1.89,1.06-2.85,1.59
	c-0.92,0.59-1.85,1.18-2.79,1.77c-1.86,1.2-3.75,2.43-5.65,3.65c-1.89,1.25-3.81,2.51-5.74,3.79c-1.93,1.28-3.89,2.56-5.74,4.03
	c-3.75,2.86-7.57,5.79-11.44,8.74c-0.96,0.75-1.93,1.49-2.89,2.24c-0.93,0.8-1.86,1.6-2.8,2.41c-1.86,1.62-3.73,3.25-5.61,4.89
	c-3.74,3.3-7.6,6.53-11.15,10.17c-3.61,3.55-7.25,7.13-10.9,10.71c-3.45,3.77-6.92,7.56-10.4,11.36c-3.54,3.7-6.71,7.77-10.01,11.69
	c-3.26,3.95-6.6,7.8-9.58,11.92c-3.06,4.04-6.11,8.05-9.13,12.04c-2.86,4.1-5.69,8.16-8.49,12.17c-2.67,4.17-5.16,7.82-7.97,10.94
	c-2.76,3.16-5.76,5.84-8.69,8.6c-2.86,2.81-5.8,5.58-8.71,8.69c-1.46,1.55-2.9,3.19-4.33,4.95c-1.36,1.8-2.65,3.76-3.91,5.87
	c0.46-2.24,0.96-4.49,1.51-6.74c0.63-2.21,1.33-4.41,2.05-6.62c1.47-4.42,3.08-8.87,4.88-13.32c1.97-4.33,4.09-8.67,6.35-13.01
	c1.15-2.15,2.24-4.38,3.53-6.48c1.31-2.09,2.63-4.19,3.96-6.3c1.37-2.09,2.74-4.19,4.13-6.3c1.39-2.1,2.81-4.21,4.4-6.19
	c3.09-4.03,6.28-8.05,9.55-12.05c3.27-3.99,6.93-7.7,10.47-11.54c1.8-1.89,3.61-3.79,5.42-5.69c1.91-1.8,3.84-3.6,5.76-5.4
	c1.94-1.78,3.87-3.58,5.82-5.37c1.95-1.78,3.87-3.61,5.95-5.26c4.11-3.35,8.22-6.71,12.34-10.07c4.13-3.34,8.55-6.33,12.8-9.51
	l6.42-4.7l6.63-4.38c17.45-11.99,35.7-22.26,53.3-32.44c23.68-13.05,51.77-23.74,82.1-30.81c30.33-7.13,62.82-10.65,95.37-10.76
	c32.59,0.09,65.15,3.6,96.38,9.16c31.29,5.46,61.13,13.43,89.4,21.34c23.43,6.41,44.28,18.17,61.43,32.47
	c4.42,3.38,8.35,7.32,12.3,11.03c1.93,1.9,3.85,3.78,5.76,5.65c1.86,1.92,3.59,3.95,5.34,5.92c3.45,3.98,6.88,7.81,9.98,11.81
	c3.06,4.06,6,8.05,8.84,11.94c-13.54-5.54-33.36-21.51-44-28.9c-47.02-33.67-101.9-56.94-159.45-67.63
	c-28.78-5.29-58.23-7.57-87.6-6.11c-29.36,1.38-58.6,6.17-86.89,14.34c30.19-5.17,60.19-7.91,89.93-7.78
	c29.73,0.25,59.18,3.27,87.87,9.44c28.66,6.21,56.66,15.36,82.86,28.29c26.2,12.86,50.72,29.12,72.28,48.63
	c-3.53-2.39-7.02-4.83-10.48-7.3c-3.56-2.33-7.11-4.65-10.65-6.97l-5.27-3.55l-5.41-3.31c-3.59-2.25-7.17-4.49-10.75-6.73
	c-3.67-2.09-7.34-4.17-10.99-6.26l-5.48-3.16l-5.61-2.87c-3.75-1.92-7.49-3.83-11.22-5.74c-3.83-1.7-7.66-3.4-11.48-5.1l-5.75-2.52
	l-5.86-2.2c-3.92-1.42-7.83-2.83-11.74-4.24c-3.96-1.23-7.96-2.34-11.94-3.45l-5.98-1.62c-2-0.52-4.03-0.86-6.05-1.28
	c-4.04-0.8-8.08-1.54-12.11-2.22c-4.05-0.62-8.14-0.92-12.2-1.29c-8.1-0.85-16.29-0.6-24.36-0.23c5.02,2.7,10.19,5.14,15.36,7.54
	c43.23,9.75,83.93,27.4,119.59,51.15c12.86,3.73,25.6,8.12,37.9,13.59c3.51,1.46,7.05,2.99,10.59,4.57
	c3.54,1.6,6.89,3.52,10.37,5.36c1.72,0.94,3.45,1.9,5.18,2.85c1.74,0.95,3.46,1.94,5.11,3.05c3.34,2.15,6.68,4.35,10.03,6.61
	c3.41,2.19,6.57,4.71,9.79,7.22c3.2,2.53,6.46,5.05,9.62,7.71c3.05,2.79,6.11,5.6,9.19,8.42c1.53,1.43,3.06,2.86,4.6,4.3
	c1.44,1.52,2.89,3.05,4.34,4.58c2.88,3.09,5.77,6.2,8.67,9.33c2.76,3.25,5.43,6.59,8.14,9.93c1.35,1.67,2.7,3.36,4.05,5.04
	c1.34,1.69,2.54,3.5,3.81,5.25c2.49,3.55,4.99,7.11,7.51,10.68c9.42,14.71,18.33,30.08,25.48,46.46
	c14.97,32.44,24.39,67.68,29.92,103.14c1.02,8.94,2.49,17.79,3.03,26.75l0.59,6.69c0.22,2.23,0.41,4.46,0.46,6.7l0.62,13.4
	c0.17,2.22,0.13,4.46,0.14,6.69l0.06,6.69l0.09,6.68c0.04,2.23-0.11,4.45-0.15,6.67c-0.1,4.45-0.2,8.89-0.29,13.33
	c-0.26,4.43-0.52,8.86-0.78,13.28c-0.16,1.45-0.21,3-0.16,4.65c0.01,1.64,0.01,3.38,0.13,5.21c0.22,3.66,0.72,7.68,1.34,12
	c0.66,4.32,1.02,8.89,1.59,13.7c0.25,2.41,0.5,4.86,0.75,7.35c0.22,2.49,0.24,4.99,0.32,7.53c5.42-22.92,9.45-46.17,11.34-69.74
	c1.88-23.55,1.62-47.43-1.67-71.11c-0.29,9.67-0.47,19.06-2.07,28.18c-0.75,4.55-1.36,8.99-2.52,13.35
	c-1.13,4.36-2.38,8.6-3.76,12.72c-0.65-21.77-0.1-41.55-0.69-61.68l-0.28-7.55l-0.16-3.79l-0.37-3.77
	c-0.49-5.04-1.05-10.13-1.71-15.28c-1.84-10.16-3.97-20.63-7.96-31.04c9.85,22.03,16.17,45.31,19.52,68.86
	c-0.08-28.96-6.16-59.38-14.82-89.05c1.82,3.31,3.7,6.6,5.15,10.02c1.46,3.42,2.82,6.87,4.08,10.34c2.7,6.89,4.35,14.04,5.97,21.13
	c3.1,14.24,4.35,28.67,5.16,42.99c0.32,3.56,0.29,7.18,0.41,10.76c0.1,3.58,0.23,7.17,0.4,10.74c0.18,7.16,0.2,14.34,0.72,21.54
	c0.09,7.22,0.64,14.46,1.33,21.82c0.25,3.68,0.62,7.39,1.11,11.14c0.54,3.77,1.09,7.56,1.64,11.38c0.66-12.74,1.32-25.54,1.97-38.18
	c-0.13,6.49,0.07,13-0.47,19.51l-0.57,9.74c-0.1,1.62-0.16,3.25-0.31,4.86l-0.52,4.85c-0.03-0.23-0.07-0.54-0.1-0.77
	c-0.34,4.87-0.6,9.74-0.8,14.63c-0.38,4.86-0.8,9.72-1.1,14.58c-0.19,2.43-0.24,4.87-0.5,7.28c-0.24,2.42-0.47,4.84-0.71,7.25
	c-0.21,2.42-0.43,4.83-0.64,7.24c-0.18,2.42-0.39,4.83-0.73,7.21c-0.55,4.8-1.11,9.57-1.66,14.31c-0.51,4.76-1.39,9.41-2.02,14.1
	c-0.33,2.34-0.67,4.67-1,7c-0.32,2.33-0.83,4.59-1.23,6.88c-0.84,4.59-1.67,9.12-2.49,13.6c11.11-32.63,20.84-64.14,27.09-96.72
	c6-32.52,8.32-66.14,3.65-100.51l-0.64-4.26l-0.85-4.22l-1.71-8.43c-0.58-2.8-1.13-5.61-1.77-8.39c-0.72-2.76-1.45-5.52-2.18-8.27
	c0.79,2.79,1.57,5.58,2.36,8.35c0.67,2.8,1.23,5.62,1.81,8.42c0.55,2.81,1.1,5.6,1.65,8.4l0.77,4.19l0.55,4.21l2.11,14.75
	c0.66,4.93,0.93,9.89,1.39,14.84l0.6,7.44c0.16,2.48,0.17,4.97,0.27,7.45c0.13,4.97,0.29,9.94,0.34,14.92
	c-0.33,9.94-0.34,19.91-1.4,29.8l-0.65,7.43l-0.33,3.72l-0.5,3.7l-2.09,14.77c-6.52,39.22-18.82,77.4-36.5,112.66l-3.25,6.64
	l-3.56,6.48c-2.4,4.3-4.72,8.64-7.2,12.88c-5.22,8.34-10.19,16.8-15.95,24.75l-4.18,6.03l-2.1,3.01l-2.23,2.91L759.35,834
	c-3.01,3.84-6.28,7.48-9.4,11.22l-4.73,5.57c-1.61,1.82-3.32,3.57-4.97,5.35l-9.98,10.62l-10.46,10.12c-1.76,1.66-3.42,3.42-5.27,5
	l-5.45,4.79c-3.67,3.15-7.18,6.47-10.96,9.48c-7.57,6.01-14.98,12.16-22.9,17.64l-5.84,4.23l-2.92,2.1l-3.02,1.97l-12.04,7.89
	c-1.86,1.57-3.84,2.99-5.82,4.41c-1.98,1.43-3.95,2.86-5.94,4.3c5.67,0.61,11.29,1.22,16.58,1.8
	c27.43-17.71,53.15-38.48,76.47-61.88c6-5.7,11.38-11.97,17.03-18.03c2.87-2.99,5.43-6.24,8.1-9.4l7.98-9.55l7.54-9.9
	c2.47-3.33,5.13-6.54,7.41-10.01l7.08-10.26c1.16-1.72,2.41-3.4,3.5-5.16l3.3-5.29c17.77-28.13,32.74-58.18,44.22-89.57
	C850.29,680.01,858.43,647.39,863.14,614.28"/>
<path class="st0" d="M1680.45,2123.18c2.27,12.13,8.77,21.68,18.02,29.55c2.69-0.83,5.68-0.55,8.18-2.14
	c4.8-4.47,0.92-8.72-1.27-11.93c-3.37-4.95-4.97-10.11-5.45-15.86c-5.28-6.73-6.67-16.38-15.33-20.6c-4.13,1.8-3.44,5.65-3.85,9.02
	c-0.05,3.42,0.04,6.84-0.14,10.26C1680.55,2122.05,1680.5,2122.62,1680.45,2123.18z"/>
<path class="st0" d="M1891.32,1618.88c-0.88,0.77,5.12,4.1,4.25,4.87c-0.74,0.89-1.48,1.79-2.21,2.68
	c-1.04,4.24,0.98,7.71,2.83,11.23c2.88,1.07,5.8,0.92,8.74,0.36c1.67-1.61,4.46-2.52,5.01-4.83c-0.85-3.04-1.43-2.16-2.25-6.57
	C1903.8,1623.58,1897.26,1619.41,1891.32,1618.88z"/>
<path class="st0" d="M1419.36,1554.24c0.15,7.37-3.85,12.26-9.71,15.91c-2.53,1.58-5.46,2.23-8.21,0.68
	c-2.79-1.57-1.7-4.18-1.23-6.59c0.25-1.28-0.44-2.31-1.6-2.96c-2.41,4.33-4.95,8.65-5.78,13.59c-0.48,2.85,0.63,5.02,4.12,3.87
	c5.49-1.8,11.11-3.37,16.33-5.8C1422.42,1568.7,1423.46,1564.9,1419.36,1554.24z"/>
<path class="st0" d="M1899.36,2042.67c1.35,17.04,6.37,22.62,22.52,25.02c2.61-1.56,5.24-3.07,7.77-4.76c0.8-0.08,1.6-0.14,2.4-0.17
	c0.9-0.79,1.74-1.65,2.59-2.48l0.01-0.02c8.43-13.03,8.66-19.94,0.94-28.07c-9.1-9.58-20.35-9.33-29.73,0
	C1902.7,2035.31,1902.72,2039.95,1899.36,2042.67z"/>
<path class="st0" d="M1227.71,2015.52c-4.3,7.74-10,14.77-12.11,23.64c0.66,0.57,0.88,1.13,0.66,1.7c-0.22,0.56-0.45,0.84-0.67,0.84
	c0.22,3.62-0.46,6.96-2.99,9.72c0.22,2.77,0.22,5.54-0.04,8.31c2.07,4.61,7.61,5.49,10.21,9.53c2.51,1.73,4.44,0.27,6.4-1.13
	c1.65-1.74,2.95-3.64,2.4-6.22c-1.41-5.78-3.99-11.5-1.14-17.57c-0.64-7,0.61-13.73,2.94-20.3
	C1232.69,2020.4,1231.44,2017.14,1227.71,2015.52z"/>
<path class="st0" d="M1174.89,1985.31c1.35-0.1,2.69-0.2,4.04-0.31c1.13-0.48,2.26-0.59,3.52-0.56c12.8,0.34,12.8,0.31,9.53-12.64
	l0.16,0.24c-1.57-0.55-2.46-1.66-2.72-3.29c-0.2-1.23-1-1.73-2.17-1.76c-0.99-0.74-1.74-1.83-2.69-2.5
	c-3.06-2.16-3.42-9.05-8.61-6.74"/>
<path class="st0" d="M1320.33,2133.2c-0.81,1.5-1.61,3-2.42,4.49c0.76,0.88,1.6,1.67,2.52,2.37l0.8,0.54l0.96,0
	c5.17,1.85,10.69-0.19,15.87,1.46c7.62,0.04,12.58-5.02,18.04-9.23c3.66-2.82,3.57-6.34,2.08-9.93c-1.36-3.28-3.9-5.24-7.84-4.33
	c-4,0.93-8.29-0.08-12.15,1.8c-0.65,1.74-0.45,3.83,0.94,4.57c8.21,4.4,2.54,5.53-1.54,7.07c-2.48,0.74-4.91,1.69-7.5,1.92
	c-3.4,0.24-3.26-5.86-7.43-4.19l-0.06-0.13C1322.14,2131.01,1320.18,2131.44,1320.33,2133.2z"/>
<path class="st0" d="M1387.57,2161.55c-9.02-0.95-8.94-0.9-7.62-11.02c0.29-2.21-1.91-2.29-3.47-2.68
	c-3.6,3.99-10.97,6.21-7.57,13.68"/>
<path class="st0" d="M1338.05,2135.09c5.7-0.95,8.29-5.66,12.18-10.14c-5.72,1.76-9.71,0.43-12.04-4.56
	c-6.49,0.96-11.16,4.93-15.53,9.38c0.71,0.87,2.15,1.9,2,2.58c-1.26,5.68,2.27,5.46,5.99,5.16
	C1332.53,2134.9,1333.76,2130.29,1338.05,2135.09z"/>
<path class="st0" d="M1238.13,2092.27c-0.27,2.15,1.14,4.2,3.55,4.19c1.71-0.01,2.71-1.6,2.98-3.43c0.74-4.89-0.49-10,1.78-14.74
	c0.81-1.7-0.06-3.3-1.34-4.44c-1.44-1.28-2.56-3.69-5-2.69"/>
<path class="st0" d="M1261.9,2032.16c-0.51,4.49,0.52,8.33,5.28,9.77c3.19,0.97,5.65-1.01,7.13-3.57c2.58-4.46,2.35-8.61-2.49-11.62
	C1266.6,2025.04,1260.93,2022.52,1261.9,2032.16z"/>
<path class="st0" d="M1334.48,2063.98c-7-7.07-12.42-8.62-18.47-7.15c-2.37,0.58-4.73,2.29-4.01,5.44c0.61,2.69,2.38,4.5,5.34,4.38
	C1322.42,2066.45,1326.74,2063.22,1334.48,2063.98z"/>
<path class="st0" d="M1259.29,2056.58c-1.76,1.82-3.55,4.06-1.79,6.38c1.48,1.94,3.85,0.44,5.53-0.55
	c3.86-2.27,8.03-4.31,11.21-7.34c2.86-2.72,3.98-6.51-1.83-7.96c-2.19,1.81-5.44,0-7.51,2.2l-0.01,0.01
	C1268.9,2056.26,1259.65,2052.99,1259.29,2056.58z"/>
<path class="st0" d="M1242.71,2061.93c9.34-3.12,11.72-9.51,8.61-18.71C1242.89,2047.04,1245.11,2055.43,1242.71,2061.93z"/>
<path class="st0" d="M1292.73,2098.32c0.17-4.05-1.64-7.09-4.82-9.39c-1.16-0.84-2.44-0.44-3.25,0.48
	c-3.32,3.83-1.53,7.61,0.27,11.38c1.1,2.29,2.3,4.68,5.35,3.77C1293.44,2103.62,1292.34,2100.59,1292.73,2098.32z"/>
<path class="st0" d="M1191.98,2003.37c0,2.91,0,5.81,0,9.27c-3.25,3.58-9.82-1.23-13.05,3.93c0.34,0.23,0.64,0.54,1.01,0.67
	c5.28,1.89,11.2,5.52,15.71-0.01C1199.94,2011.98,1193.66,2007.94,1191.98,2003.37z"/>
<path class="st0" d="M1259.27,2091.28c0.57,3.72,1.77,7.01,5.66,8.53c2.1-2,2.21-4.75,2.75-7.34c0.9-4.68,3.08-10.26-5.71-8.15
	C1260.83,2086.55,1259.16,2088.57,1259.27,2091.28z"/>
<path class="st0" d="M1261.97,2084.32c6.07-0.2,5.17,4.48,5.71,8.15c2.6-2.54,1.35-6.67,3.47-9.14c1.88-2.19,3.21-3.64,0.49-5.98
	c-2.45-2.11-4.52-1.23-6.63,0.48C1262.94,2079.5,1261.87,2081.63,1261.97,2084.32z"/>
<path class="st0" d="M1265.15,2104.33c-4.21,5.95-4.71,11.82,0.36,17.57c0.88,0.87,1.75,0.86,2.6-0.04
	C1268.93,2115.71,1264.71,2110.41,1265.15,2104.33z"/>
<path class="st0" d="M1328.09,2074.5c-0.87,0.01-1.73,0.03-2.6,0.04c-0.85,1.68-1.71,3.35-2.56,5.03c3.35-0.87,6.71-1.74,10.06-2.62
	c2.65-0.48,5.63,0.2,7.72-2.21C1336.52,2073.58,1332.3,2074.03,1328.09,2074.5z"/>
<path class="st0" d="M1211.4,2025.85c0.71-6.56,5.9-4.92,9.92-5.42c-1.23-2.03-3.22-1.94-5.26-2.09
	C1208.6,2017.8,1208.6,2017.74,1211.4,2025.85z"/>
<path class="st0" d="M1259.29,2056.58c1.62-0.26,3.26-0.41,4.85-0.8c5.99-1.45,2.85-4.04,0.75-6.47
	C1261.18,2050.31,1259.96,2053.23,1259.29,2056.58z"/>
<path class="st0" d="M1275.69,2103.93c3.96-2.75,3.83-5.52,0.04-8.31C1270.4,2098.37,1271.71,2101.14,1275.69,2103.93z"/>
<path class="st0" d="M1244.34,2101.71c0.33,1.66,0.79,3.43,2.5,3.99c1.27,0.41,2.41-0.55,2.46-1.99c0.06-1.82-1.06-3.23-2.61-3.86
	C1245.44,2099.35,1244.39,2100.15,1244.34,2101.71z"/>
<path class="st0" d="M1338.06,2142.06c-5.02-3.45-10.5-1.87-15.87-1.46C1327.28,2143.2,1332.64,2142.93,1338.06,2142.06z"/>
<path class="st0" d="M1295.21,2109.03c0.33,1.17,0.3,3.11,2.64,2.7c1.24-0.22,2.17-1.18,2.04-2.48c-0.18-1.7-1.19-3.11-3.01-3.08
	C1295.62,2106.21,1295.17,2107.48,1295.21,2109.03z"/>
<path class="st0" d="M1297.04,2046.56c0.82,1.09,1.86,1.8,3.09,0.82c0.53-0.42,1.09-1.64,0.85-2.05c-0.68-1.18-1.95-1.36-3.23-0.82
	C1296.77,2044.92,1296.54,2045.63,1297.04,2046.56z"/>
<path class="st0" d="M1264.9,2049.3c2.77,0.17,5.6,0.54,7.51-2.2C1269.68,2047.06,1266.9,2046.86,1264.9,2049.3z"/>
<path class="st0" d="M1307.32,2134.87c2.19,0.41,4.1,0.01,5.47-1.91C1310.54,2132.39,1308.81,2133.27,1307.32,2134.87z"/>
<path class="st0" d="M1285.63,2061.75c0.14,0.3,0.22,0.82,0.42,0.87c0.76,0.2,1.14-0.29,0.93-1.22c-0.05-0.21-0.59-0.52-0.78-0.44
	C1285.94,2061.05,1285.81,2061.47,1285.63,2061.75z"/>
<path class="st0" d="M1320.33,2133.2c1.27-0.86,2.24-1.92,2.27-3.57c-1.74,0.87-3.49,1.75-5.23,2.62
	C1318.35,2132.57,1319.34,2132.89,1320.33,2133.2z"/>
<path class="st0" d="M1306.23,2053.67c-0.13,0.32-0.43,0.69-0.37,0.96c0.26,1.05,0.84,1.17,1.41,0.29c0.14-0.23,0-0.76-0.19-1.03
	C1306.96,2053.7,1306.53,2053.73,1306.23,2053.67z"/>
<path class="st0" d="M1252.55,2000.32c0.23,1.66,1.1,2.78,2.72,3.29C1255.2,2001.82,1254.18,2000.82,1252.55,2000.32z"/>
<path class="st0" d="M1320.42,2140.07c-0.84-0.79-1.68-1.58-2.52-2.38c-0.05,0.74-0.08,1.47-0.09,2.21
	C1318.68,2139.96,1319.55,2140.02,1320.42,2140.07z"/>
<path class="st0" d="M1247.15,2117.46c1.9-0.84,1.77-1.68,0.01-2.54C1247.16,2115.77,1247.16,2116.62,1247.15,2117.46z"/>
<path class="st0" d="M1293.5,2122.95c1.72-0.47,2.47-1.58,1.78-2.63c-0.51-0.78-1.96-1.26-3-1.28c-1.23-0.01-2.29,0.97-1.36,2.27
	C1291.52,2122.15,1292.77,2122.52,1293.5,2122.95z"/>
<path class="st0" d="M1338.05,2135.09c0.65-1.81,2.68-3.68,1.47-5.46c-1.84-2.69-3.1,0.6-4.68,0.95c-4.09,0.91-4.79,3.41-4.19,6.92
	C1333.11,2136.69,1335.58,2135.89,1338.05,2135.09z"/>
<path class="st0" d="M1448.87,1481.04c11.19-5.86,20.42-10.4,31.41-6.56c2.19,0.76,5.52,0.92,4.68,4.54
	c-0.54,2.32-2.82,3.05-5.03,2.79C1470.47,1480.65,1461.03,1486.54,1448.87,1481.04"/>
<path class="st0" d="M1601.86,1582.23c0.75-4.56,4.47-8.59,0.35-13.88c-3.01-3.87,0.34-7.82,5.66-8.65
	c6.02-0.94,5.12,9.76,12.03,6.77c0.48,1.8-0.23,3.31-1.41,4.5c-3.44,3.49-6.99,6.87-10.49,10.3
	C1605.79,1580.59,1604.15,1583.51,1601.86,1582.23z"/>
<path class="st0" d="M1613.82,1546.05c4.82-2.21,6.57-6.84,7.86-11.59c4.73,1.85,6.12,5.59,8.51,8.35c1.45,1.67,1.98,3.77,0.54,5.75
	c-1.39,1.91-3.45,2.27-5.61,1.62c-2.78-0.84-5.51-2.41-8.24,0.06c-1.59,1.84-2.84,1.9-3.62-0.66l-0.01,0.01
	C1613.51,1548.41,1613.69,1547.24,1613.82,1546.05z"/>
<path class="st0" d="M1561.26,1490.59c0.93,5.32,6.5,7.48,8.28,12.16c0.37,0.96-0.03,2.47-0.57,3.45c-0.59,1.06-1.93,1.52-3.14,0.83
	c-5.29-3.05-7.13-9.86-4.52-16.46L1561.26,1490.59z"/>
<path class="st0" d="M1623.32,1491.81c6.17-1.09,11.17-5,17.97-7.04C1635.7,1493.5,1632.91,1494.59,1623.32,1491.81z"/>
<path class="st0" d="M1498.67,1471.14c3.06,0.75,6.17,1.32,9.13,2.36c0.67,0.24,1.28,2.23,1,3.12c-0.26,0.83-1.73,1.77-2.7,1.8
	C1501.89,1478.56,1500.18,1475.01,1498.67,1471.14z"/>
<path class="st0" d="M1518.28,1481.15c-1.02-1.86,0.05-3.04,1.43-3.96c1.88-1.26,4.17-1.29,5.42,0.42c1.25,1.71,0.86,4-1.5,4.93
	C1521.66,1483.32,1519.71,1482.95,1518.28,1481.15z"/>
<path class="st0" d="M1537.99,1477.96c1.07-0.37,1.47-0.66,1.84-0.62c2.38,0.26,5.01,0.07,6.34,2.64c0.21,0.42-0.33,1.74-0.79,1.91
	c-2.63,0.94-4.52-0.81-6.51-2.1C1538.61,1479.62,1538.55,1479.13,1537.99,1477.96z"/>
<path class="st0" d="M1561.31,1490.58c-0.35-0.2-0.74-0.35-1.03-0.61c-1.83-1.65-6.31,0.19-5.83-4.39c0.05-0.47,1.29-1.31,1.6-1.17
	c2.67,1.22,6.82,1.34,5.2,6.18L1561.31,1490.58z"/>
<path class="st0" d="M1597.81,1522.63c-0.7-1.12-0.72-2.82,0.52-4.1c0.9-0.93,2.44-0.82,3.33,0.23c1.25,1.47,0.84,3.19-0.33,4.46
	C1600.42,1524.19,1599.13,1524.22,1597.81,1522.63z"/>
<path class="st0" d="M1577.16,1508.87c0.04,0.67,0.59,2.16,0.08,2.78c-1.33,1.61-2.8,0.71-3.82-0.66c-0.78-1.05-0.7-2.3,0.37-3.1
	C1574.86,1507.07,1575.98,1507.4,1577.16,1508.87z"/>
<path class="st0" d="M1613.27,1549.57c1.21,0.22,2.41,0.44,3.62,0.66c0.23,1.88,0.55,4.78-1.56,4.69
	C1612.47,1554.79,1612.39,1552.01,1613.27,1549.57z"/>
<path class="st0" d="M1615.89,1527.05c0.67,0.16,1.65,0.1,1.95,0.52c0.81,1.15,0.3,2.23-1.01,2.49c-0.51,0.1-1.53-0.59-1.72-1.13
	C1614.93,1528.46,1615.59,1527.69,1615.89,1527.05z"/>
<path class="st0" d="M1588.88,1517.48c-0.15,0.64-0.09,1.58-0.49,1.85c-1.09,0.76-2.15,0.29-2.41-0.96
	c-0.1-0.48,0.57-1.45,1.09-1.64C1587.53,1516.58,1588.27,1517.2,1588.88,1517.48z"/>
<path class="st0" d="M1589.31,1533.77c0.66,0.08,1.61-0.09,1.92,0.28c0.9,1.06,0.51,2.17-0.75,2.57c-0.46,0.15-1.48-0.48-1.73-1
	C1588.54,1535.2,1589.09,1534.41,1589.31,1533.77z"/>
<path class="st0" d="M1497.61,1477.98c-0.3,0.88-0.35,1.86-0.76,2.06c-1.42,0.68-2.96,0.78-3.81-0.89
	c-0.14-0.26,0.73-1.48,1.22-1.53C1495.32,1477.49,1496.44,1477.83,1497.61,1477.98z"/>
<path class="st0" d="M1627.9,1567.21c-0.15,0.66-0.09,1.62-0.5,1.92c-1.13,0.81-2.17,0.28-2.42-1c-0.1-0.51,0.56-1.49,1.09-1.7
	C1626.52,1566.27,1627.28,1566.92,1627.9,1567.21z"/>
<path class="st0" d="M1472.48,1489.78c-0.22,0.65-0.26,1.62-0.7,1.87c-1.16,0.66-2.2,0.12-2.35-1.19c-0.06-0.53,0.68-1.52,1.19-1.64
	C1471.15,1488.71,1471.85,1489.42,1472.48,1489.78z"/>
<path class="st0" d="M1483.48,1487.48c0.78,0.37,2.02,0.66,2.83,1.42c1.17,1.09,0.34,2.22-0.84,2.39c-1.04,0.15-2.2-0.45-3.31-0.72
	C1482.45,1489.92,1482.72,1489.27,1483.48,1487.48z"/>
<path class="st0" d="M1538.47,1492.06c-0.07,0.63,0.08,1.54-0.27,1.84c-1.06,0.89-2.16,0.49-2.63-0.72
	c-0.16-0.39,0.45-1.48,0.9-1.63C1537.03,1491.38,1537.79,1491.86,1538.47,1492.06z"/>
<path class="st0" d="M1601.86,1582.23c1.97-0.83,3.87-2.11,6.14-0.96c-1.1,1.03-2.07,2.26-3.32,3.03
	C1602.37,1585.71,1601.19,1585.1,1601.86,1582.23z"/>
<path class="st0" d="M1548.96,1487.48c-0.21,0.26-0.49,0.77-0.61,0.74c-0.34-0.1-0.62-0.42-0.93-0.66c0.21-0.26,0.49-0.78,0.61-0.74
	C1548.37,1486.92,1548.65,1487.25,1548.96,1487.48z"/>
<path class="st0" d="M1607.64,1527.57c-0.19,0.3-0.32,0.76-0.58,0.87c-1.03,0.41-1.47,0.01-1.07-0.98c0.1-0.25,0.63-0.45,0.97-0.46
	C1607.17,1526.99,1607.41,1527.37,1607.64,1527.57z"/>
<path class="st0" d="M1613.82,1546.05c-0.19,1.18-0.37,2.35-0.56,3.53C1612.75,1548.29,1612.96,1547.12,1613.82,1546.05z"/>
<path class="st0" d="M1871.75,2178.67c-0.04-12.41,1.05-24.83-2.38-37.1c-1.77-6.34-5.17-11.13-9.69-15.64
	c-2.56-2.55-4.96-4.55-8.63-3.38c-4.05,1.29-6.3,4.94-6.39,8.52c-0.2,7.87-0.9,16.71,4.42,22.89c7.67,8.91,11.51,18.81,12.66,30.15
	C1862.99,2178.46,1870.98,2185.22,1871.75,2178.67z"/>
<path class="st0" d="M1829.86,2194.91c0.36-2.13-0.97-4.8-2.47-7.33c-2.77-4.7-9.6-8.13-12.43-6.41c-3.09,1.88-3.1,8.27,0.04,13.72
	c1.05,1.82,2.14,3.63,3.42,5.3c2.01,2.62,4.04,6.41,7.91,4.69C1829.69,2203.38,1829.3,2199.21,1829.86,2194.91z"/>
<path class="st0" d="M1852.81,1845.46c-0.19-6.16-5-10.34-11.74-10.23c-4.21,0.07-7.98,4.15-7.65,8.28c0.4,5.08,5.9,9.46,11.61,9.25
	C1851.04,1852.55,1852.98,1850.73,1852.81,1845.46z"/>
<path class="st0" d="M1922.78,1955.68c-0.41,5.05,3.91,9.56,9.33,10.36c3.44,0.51,5.7-0.6,5.91-4.36
	c0.28-4.92-3.92-10.49-8.33-10.85C1925.89,1950.53,1923.45,1952.34,1922.78,1955.68z"/>
<path class="st0" d="M1871.75,2178.67c-1.5,0.58-3.72,2.11-4.4,1.59c-6.14-4.64-5.16,0.56-5.62,3.84c0.38,4.93,3.71,6.32,7.5,4.78
	C1874.02,2186.95,1873.27,2182.68,1871.75,2178.67z"/>
<path class="st0" d="M1883.69,2146.49c0.98-14.3,4.39-27.88-10.29-38.04c-3.35,7.44-6.52,13.31-0.21,20.55
	C1877.3,2133.72,1878.68,2140.55,1883.69,2146.49z"/>
<path id="XMLID_1_" class="st0" d="M1921.14,1866.21c-7,61.09-26.03,120.12-55.32,173.65c-29.35,53.54-68.59,101.77-116.06,142.66
	c6.49-0.19,13.01-0.66,19.67-1.68c1.15-0.69,2.31-1.36,3.44-2.08l3.32-2.23c2.21-1.52,4.42-3.03,6.64-4.56
	c20.76-21.98,39.12-45.63,55.76-69.84c16.66-24.23,31.64-49.01,46.14-73.95c2.66-4.46,4.76-9.17,7.02-13.79
	c2.19-4.66,4.44-9.28,6.23-14.07c1.87-4.75,3.69-9.52,5.46-14.27c1.6-4.81,3.07-9.65,4.54-14.46c0.71-2.41,1.49-4.8,2.12-7.22
	c0.6-2.43,1.19-4.86,1.78-7.28c1.13-4.85,2.4-9.64,3.32-14.49c1.78-9.7,3.66-19.26,4.75-28.82c0.32-2.38,0.64-4.76,0.95-7.12
	l0.48-3.54l0.32-3.55c0.45-4.72,0.9-9.4,1.34-14.06l0.34-3.48l0.2-3.48c0.15-2.31,0.29-4.62,0.44-6.92c0.16-2.3,0.32-4.58,0.49-6.86
	l0.26-3.41l0.13-3.4c0.31-9.06,1.06-17.96,1.27-26.75c0.18-4.39,0.49-8.76,0.76-13.09c0.14-4.33,0.36-8.63,0.66-12.92l0.38-6.72
	c0.14-2.24,0.12-4.47,0.2-6.72c0.12-4.48,0.28-8.96,0.49-13.45c0.21-9.04,0.41-17.99,0.61-26.78c-0.02-4.42,0.01-8.84,0.07-13.25
	c0.08-4.41,0.21-8.82,0.09-13.14c-0.04-4.34-0.04-8.66,0-12.97c0-2.14,0.09-4.31,0.05-6.43c-0.04-2.13-0.07-4.23-0.11-6.33
	c-1.84-5.32-3.61-10.63-5.49-15.88c-2.04-5.2-4.07-10.39-6.09-15.56c-14.68-34.57-33.73-66.89-56.01-96.75
	c-11-15.04-23.32-29.04-35.95-42.64c-3.23-3.34-6.56-6.58-9.84-9.86c-3.32-3.25-6.52-6.61-10.02-9.66
	c-6.9-6.21-13.67-12.54-20.95-18.28c-3.6-2.91-7.13-5.91-10.79-8.74l-11.14-8.28l-5.57-4.12l-5.75-3.87l-11.5-7.72
	c-3.88-2.49-7.87-4.82-11.81-7.23c-3.96-2.36-7.84-4.85-11.94-6.98c-8.1-4.4-16.14-8.91-24.5-12.77
	c-16.46-8.26-33.62-14.96-50.86-21.28c-17.43-5.79-35-11.2-52.97-14.99c-31.81-3.9-64.2-5.55-96.8-4.51
	c-32.61,1.17-65.4,5.09-97.81,11.98c-32.4,6.89-64.39,16.79-95.23,29.68c-30.78,12.94-60.43,28.9-88.25,47.63
	c24.98-19.15,51.79-35.85,79.98-49.95c28.2-14.11,57.86-25.61,88.52-34.21c-34.24,7.97-67.62,19.71-99.37,34.85
	c-31.74,15.13-62.09,33.67-90,55.65c-23.99,19.4-45.08,41.69-63.01,65.89c-17.94,24.21-32.72,50.31-44.37,77.53
	c0.77,3.8,1.3,7.91,1.47,12.38c0.11,2.25,0.06,4.55,0.03,7.01c-0.01,2.47-0.11,5.04-0.32,7.72c-0.21,2.68-0.52,5.47-0.96,8.38
	c-0.47,2.87-0.98,5.92-1.51,9.15c-0.55,3.2-1.23,6.54-2.05,10.03c-0.8,3.49-1.82,7.08-2.7,10.95c-6.24,23.77-11.45,47.46-14.1,71.59
	c-2.66,24.08-2.72,48.63,1.85,72.99c0,6.69-7.9,5.46-7.76,19.14c-0.2-4.77-0.1-9.43-0.3-13.99c-0.1-4.56-0.49-9.02-0.5-13.38
	c-0.17-8.74-0.93-17.14-1.23-25.24c-0.23-4.05-0.54-8.04-0.91-11.98c-0.3-3.93-0.49-7.78-0.85-11.59c-0.33-3.81-0.73-7.58-1.16-11.3
	c-0.29-3.7-0.63-7.36-1.03-10.99c-0.31,4.36-0.79,8.69-0.94,13.06c-0.14,4.36-0.29,8.73-0.43,13.11l-0.19,6.55l0.09,6.57
	c0.06,4.37,0.13,8.74,0.2,13.13c0.15,4.38,0.5,8.77,0.74,13.15c0.31,4.38,0.41,8.76,0.98,13.14c0.98,8.76,1.7,17.53,3.2,26.27
	c3.3,32.6,7.57,62.45,13.49,91.67c5.97,29.18,13.63,57.76,24.91,86.65l2.45,4.34c0.83,1.43,1.75,2.83,2.62,4.24
	c1.75,2.82,3.5,5.65,5.26,8.48c17.55,28.06,40.91,52.95,67.05,73.67c-4.4-4.98-8.58-10.23-12.94-15.43c-2.22-2.57-4.22-5.35-6.3-8.1
	c-2.06-2.76-4.15-5.55-6.26-8.37c16.41,14.45,34.3,34.66,48.85,49.03c-8.1-5.26-15.62-11.27-23.34-17.13
	c21.23,23.89,43.99,44.76,71.65,64.84c-16.92-11.95-33.59-24.61-49.58-37.19c-3.98-3.19-7.92-6.35-11.82-9.47
	c-3.81-3.25-7.56-6.46-11.26-9.62c-1.87-1.58-3.72-3.15-5.55-4.7c-1.78-1.62-3.53-3.22-5.27-4.81c-3.5-3.19-6.93-6.32-10.28-9.37
	c3.23,3.63,6.45,7.24,9.65,10.83c1.62,1.77,3.17,3.61,4.86,5.31c1.69,1.7,3.37,3.39,5.05,5.09c3.37,3.37,6.69,6.76,10.08,10.05
	c3.5,3.18,6.98,6.35,10.46,9.5l5.21,4.72l5.4,4.47c3.6,2.97,7.19,5.93,10.77,8.89c3.7,2.8,7.39,5.6,11.08,8.4
	c3.68,2.8,7.34,5.62,11.19,8.18c30.22,21.27,62,39.8,96.59,56.72c-1.99-0.28-4.01-0.56-5.96-0.83
	c26.29,7.85,53.19,12.82,80.19,15.12c27.01,2.26,54.1,1.83,80.91-1.01c53.65-5.7,106-21,155.74-44.47c3.01-1.43,5.85-2.82,8.38-4.47
	c2.52-1.66,4.82-3.37,6.92-5.1c4.16-3.52,7.59-6.93,10.11-10.69c5.07-7.46,7.24-14.7,7.58-20.9c0.29-6.15-0.98-11.55-3.18-14.84
	c-1.09-1.66-2.38-2.84-3.76-3.43s-2.71-0.7-4.06-0.06c-44.39,26.69-94.75,42.89-146.08,47.48c-51.34,4.67-103.51-2.16-151.86-19.19
	c-48.37-17.07-92.82-44.39-129.93-79.28c-37.17-34.88-66.93-77.41-87.66-124.18c4.23,23.28,10.88,46.78,20.41,70.01
	c2.53,4.7,4.88,9.43,7.01,14.21c2.29,4.66,4.43,9.31,6.25,14.09c-2.4-4.73-4.83-9.36-7.06-14.06c-2.07-4.77-4.14-9.51-6.2-14.25
	c-1.78-3.14-3.33-6.48-5.04-9.75c-1.7-3.28-3.45-6.56-5.25-9.85c-1.77-3.3-3.34-6.76-5.06-10.14c-1.67-3.42-3.46-6.79-5.07-10.28
	c-1.52-3.52-3.05-7.06-4.59-10.61c-1.51-3.55-3.07-7.08-4.26-10.78c-2.49-7.34-5.07-14.62-6.53-22.22c0.13-1.57-0.14-3.82-0.78-6.37
	c-0.62-2.56-1.7-5.37-2.8-8.24c-2.34-5.69-5.97-11.18-10.72-13.6c-2.87-21.08-7.62-43.41-10.23-66.22
	c-2.66-22.73-3.12-45.89,1.19-66.41c0.27-2.46,2.88-6.47,5.93-10.99c1.65-25.89,5.79-51.76,12.36-77.24
	c4.85-17.73,10.88-35.08,18.07-51.91c7.47-16.69,15.98-32.86,25.61-48.29c2.46-3.82,5.05-7.55,7.57-11.33
	c1.29-1.87,2.49-3.8,3.84-5.62l4.08-5.44l4.08-5.43c1.35-1.82,2.7-3.64,4.19-5.34c2.9-3.47,5.8-6.94,8.69-10.4
	c1.41-1.77,2.98-3.39,4.51-5.04l4.61-4.96l4.6-4.95c1.55-1.64,3.22-3.15,4.82-4.74c3.24-3.12,6.47-6.25,9.7-9.37
	c3.39-2.95,6.78-5.89,10.16-8.83c54.76-46.33,122.65-75.64,191.52-82.93c-4.22,0.07-8.42,0.13-12.61,0.2
	c-4.19,0.16-8.34,0.49-12.52,0.7c-8.39,0.27-16.57,1.4-24.84,2.06c-4.12,0.36-8.15,1.06-12.22,1.54c-2.04,0.26-4.07,0.52-6.1,0.77
	c-2.04,0.23-4.06,0.49-6.05,0.87c-4.03,0.65-8.02,1.31-11.97,1.95c-1.99,0.32-4,0.59-5.97,0.94c-1.96,0.39-3.91,0.77-5.86,1.15
	c-10.82,1.47-23.85,5.95-37.89,13.02c-3.49,1.81-7.06,3.73-10.7,5.76c-0.91,0.51-1.83,1.02-2.75,1.54
	c-0.89,0.57-1.79,1.14-2.69,1.71c-1.8,1.16-3.62,2.34-5.45,3.53c-1.83,1.21-3.67,2.43-5.54,3.66c-1.86,1.24-3.75,2.47-5.54,3.88
	c-3.62,2.76-7.3,5.58-11.04,8.44c-0.93,0.72-1.86,1.44-2.79,2.17c-0.9,0.77-1.8,1.55-2.7,2.32c-1.79,1.56-3.6,3.14-5.41,4.72
	c-3.61,3.18-7.33,6.3-10.76,9.81c-3.48,3.42-6.99,6.88-10.52,10.34c-3.33,3.64-6.68,7.3-10.04,10.96c-3.42,3.57-6.48,7.5-9.66,11.28
	c-3.15,3.81-6.37,7.52-9.25,11.5c-2.96,3.89-5.89,7.77-8.81,11.62c-2.76,3.95-5.5,7.87-8.2,11.75c-2.58,4.03-4.98,7.55-7.69,10.56
	c-2.66,3.05-5.56,5.64-8.39,8.3c-2.76,2.71-5.6,5.39-8.41,8.38c-1.41,1.5-2.8,3.08-4.18,4.78c-1.32,1.74-2.55,3.63-3.77,5.67
	c0.44-2.16,0.93-4.33,1.46-6.5c0.61-2.13,1.28-4.25,1.98-6.39c1.41-4.26,2.97-8.56,4.71-12.85c1.9-4.18,3.95-8.37,6.13-12.56
	c1.11-2.08,2.16-4.23,3.41-6.25c1.27-2.02,2.54-4.04,3.82-6.08c1.32-2.02,2.65-4.04,3.98-6.08c1.34-2.03,2.72-4.06,4.24-5.97
	c2.99-3.89,6.06-7.77,9.22-11.63c3.16-3.85,6.69-7.43,10.11-11.14c1.74-1.82,3.48-3.65,5.23-5.49c1.85-1.73,3.7-3.47,5.56-5.21
	c1.87-1.72,3.74-3.45,5.62-5.19c1.89-1.72,3.73-3.49,5.75-5.07c3.96-3.24,7.93-6.48,11.91-9.72c3.99-3.22,8.25-6.11,12.35-9.18
	l6.2-4.53l6.4-4.22c16.84-11.57,34.45-21.49,51.43-31.3c22.86-12.59,49.96-22.91,79.23-29.74c29.27-6.88,60.63-10.28,92.04-10.39
	c31.45,0.09,62.87,3.47,93.01,8.84c30.2,5.27,59,12.96,86.28,20.59c22.61,6.19,42.74,17.53,59.28,31.33
	c4.27,3.26,8.06,7.07,11.87,10.65c1.87,1.83,3.72,3.65,5.55,5.45c1.79,1.85,3.47,3.82,5.15,5.71c3.33,3.84,6.64,7.53,9.63,11.4
	c2.96,3.91,5.79,7.76,8.54,11.52c-13.06-5.35-32.2-20.76-42.47-27.89c-45.38-32.5-98.34-54.95-153.89-65.27
	c-27.77-5.11-56.2-7.3-84.54-5.89c-28.33,1.33-56.56,5.95-83.85,13.83c29.14-4.99,58.09-7.64,86.79-7.51
	c28.69,0.24,57.11,3.16,84.81,9.11c27.66,5.99,54.68,14.83,79.97,27.3c25.29,12.41,48.95,28.1,69.76,46.93
	c-3.41-2.31-6.77-4.66-10.11-7.04c-3.43-2.25-6.86-4.49-10.27-6.73l-5.09-3.43l-5.22-3.2c-3.47-2.17-6.92-4.33-10.37-6.49
	c-3.54-2.01-7.08-4.03-10.6-6.04l-5.29-3.05l-5.42-2.77c-3.62-1.85-7.23-3.7-10.83-5.54c-3.7-1.64-7.39-3.28-11.08-4.93l-5.55-2.43
	l-5.65-2.12c-3.78-1.37-7.56-2.73-11.33-4.1c-3.82-1.19-7.68-2.26-11.52-3.33l-5.77-1.56c-1.93-0.5-3.89-0.83-5.84-1.24
	c-3.9-0.77-7.79-1.48-11.69-2.14c-3.91-0.6-7.86-0.89-11.77-1.25c-7.82-0.82-15.72-0.58-23.51-0.22c4.85,2.61,9.83,4.96,14.83,7.28
	c41.72,9.41,81,26.45,115.42,49.37c12.41,3.6,24.71,7.84,36.58,13.12c3.39,1.41,6.8,2.88,10.22,4.41c3.41,1.54,6.65,3.4,10.01,5.18
	c1.66,0.91,3.33,1.83,5,2.75c1.68,0.92,3.34,1.87,4.93,2.94c3.22,2.07,6.45,4.2,9.68,6.38c3.29,2.11,6.34,4.54,9.45,6.97
	c3.09,2.44,6.23,4.88,9.29,7.44c2.94,2.69,5.9,5.4,8.87,8.12c1.47,1.38,2.95,2.76,4.44,4.15c1.39,1.47,2.79,2.94,4.19,4.42
	c2.78,2.99,5.57,5.98,8.37,9c2.66,3.14,5.24,6.36,7.86,9.59c1.3,1.62,2.61,3.24,3.91,4.86c1.3,1.63,2.45,3.38,3.68,5.07
	c2.4,3.42,4.82,6.86,7.24,10.31c9.09,14.19,17.69,29.03,24.59,44.84c14.45,31.31,23.54,65.32,28.87,99.54
	c0.98,8.62,2.4,17.17,2.92,25.82l0.57,6.46c0.22,2.15,0.4,4.3,0.44,6.46l0.6,12.93c0.16,2.15,0.12,4.31,0.14,6.46l0.05,6.46
	l0.09,6.44c0.04,2.15-0.11,4.3-0.14,6.44c-0.09,4.29-0.19,8.58-0.28,12.86c-0.25,4.28-0.5,8.55-0.75,12.82
	c-0.15,1.39-0.2,2.89-0.16,4.48c0.01,1.59,0.01,3.26,0.13,5.03c0.21,3.53,0.69,7.41,1.29,11.58c0.64,4.17,0.98,8.58,1.54,13.22
	c0.24,2.33,0.48,4.69,0.73,7.1c0.21,2.4,0.23,4.81,0.31,7.27c5.23-22.12,9.12-44.56,10.95-67.3c1.81-22.73,1.56-45.78-1.61-68.62
	c-0.28,9.33-0.45,18.4-2,27.19c-0.72,4.39-1.31,8.68-2.43,12.89c-1.09,4.21-2.3,8.3-3.63,12.28c-0.63-21.01-0.1-40.1-0.67-59.52
	l-0.27-7.29l-0.16-3.66l-0.35-3.64c-0.48-4.87-1.01-9.78-1.65-14.74c-1.78-9.81-3.83-19.91-7.69-29.96
	c9.51,21.26,15.6,43.73,18.84,66.45c-0.08-27.95-5.95-57.3-14.3-85.94c1.75,3.19,3.57,6.37,4.97,9.67c1.41,3.3,2.72,6.63,3.94,9.98
	c2.6,6.65,4.2,13.55,5.76,20.39c3,13.74,4.2,27.67,4.98,41.49c0.31,3.44,0.28,6.93,0.4,10.38c0.1,3.46,0.22,6.92,0.39,10.36
	c0.17,6.91,0.19,13.84,0.69,20.79c0.09,6.96,0.62,13.96,1.28,21.06c0.24,3.55,0.6,7.13,1.07,10.75c0.52,3.64,1.05,7.3,1.58,10.98
	c0.64-12.29,1.27-24.64,1.9-36.85c-0.13,6.27,0.06,12.55-0.45,18.82l-0.55,9.4c-0.1,1.57-0.16,3.13-0.3,4.69l-0.5,4.68
	c-0.03-0.23-0.07-0.52-0.1-0.75c-0.33,4.7-0.58,9.4-0.77,14.12c-0.36,4.69-0.77,9.38-1.06,14.07c-0.18,2.34-0.23,4.7-0.48,7.03
	c-0.23,2.34-0.46,4.67-0.69,6.99c-0.21,2.33-0.41,4.67-0.62,6.99c-0.17,2.33-0.38,4.66-0.7,6.95c-0.53,4.63-1.07,9.24-1.6,13.81
	c-0.5,4.6-1.34,9.08-1.94,13.61c-0.32,2.26-0.65,4.51-0.96,6.75c-0.31,2.25-0.8,4.43-1.19,6.64c-0.81,4.43-1.61,8.81-2.41,13.13
	c10.72-31.5,20.11-61.9,26.15-93.35c5.79-31.38,8.03-63.83,3.53-97l-0.62-4.11l-0.82-4.07l-1.65-8.13c-0.56-2.7-1.09-5.41-1.71-8.1
	c-0.7-2.67-1.4-5.33-2.1-7.99c0.76,2.7,1.52,5.39,2.28,8.06c0.64,2.71,1.18,5.42,1.74,8.12c0.53,2.71,1.06,5.41,1.59,8.1l0.75,4.05
	l0.53,4.06l2.03,14.24c0.63,4.76,0.9,9.55,1.34,14.33l0.58,7.18c0.16,2.39,0.17,4.79,0.26,7.19c0.12,4.8,0.28,9.6,0.33,14.4
	c-0.32,9.59-0.33,19.21-1.35,28.76l-0.63,7.17l-0.32,3.59l-0.48,3.57l-2.02,14.25c-6.29,37.85-18.16,74.7-35.22,108.73l-3.14,6.4
	l-3.44,6.25c-2.32,4.15-4.56,8.34-6.95,12.43c-5.04,8.05-9.84,16.21-15.4,23.88l-4.04,5.82l-2.03,2.9l-2.16,2.81l-8.62,11.22
	c-2.9,3.71-6.06,7.22-9.07,10.82l-4.56,5.37c-1.56,1.76-3.2,3.44-4.8,5.16l-9.63,10.25l-10.09,9.77c-1.7,1.61-3.3,3.3-5.08,4.83
	l-5.26,4.63c-3.54,3.04-6.93,6.25-10.57,9.15c-7.3,5.8-14.45,11.74-22.1,17.02l-5.63,4.08l-2.82,2.03l-2.91,1.9l-11.62,7.61
	c-1.8,1.52-3.71,2.88-5.61,4.26c-1.91,1.38-3.82,2.76-5.73,4.15c5.47,0.59,10.9,1.18,16,1.73c26.48-17.09,51.3-37.14,73.8-59.72
	c5.79-5.5,10.98-11.56,16.44-17.4c2.77-2.88,5.24-6.03,7.82-9.08l7.7-9.21l7.28-9.55c2.38-3.21,4.95-6.31,7.15-9.67l6.83-9.9
	c1.12-1.66,2.32-3.28,3.38-4.98l3.19-5.11c17.15-27.15,31.6-56.15,42.67-86.44C1908.74,1929.64,1916.6,1898.16,1921.14,1866.21"/>
</svg>
