<?xml version="1.0" encoding="utf-8"?>
<!-- Generator: Adobe Illustrator 23.0.3, SVG Export Plug-In . SVG Version: 6.00 Build 0)  -->
<svg version="1.1" id="Laag_1" xmlns="http://www.w3.org/2000/svg" xmlns:xlink="http://www.w3.org/1999/xlink" x="0px" y="0px"
	 viewBox="0 0 1200 2600" style="enable-background:new 0 0 1200 2600;" xml:space="preserve">
<style type="text/css">
	.st0{fill:#F4F4F4;}
</style>
<path class="st0" d="M493.06,849.33c2.14,11.39,8.24,20.37,16.93,27.77c2.53-0.78,5.34-0.52,7.68-2.01c4.51-4.2,0.86-8.19-1.2-11.21
	c-3.17-4.65-4.67-9.5-5.12-14.9c-4.96-6.33-6.26-15.38-14.4-19.35c-3.88,1.69-3.23,5.31-3.62,8.48c-0.05,3.21,0.04,6.43-0.13,9.64
	C493.15,848.27,493.1,848.8,493.06,849.33z"/>
<path class="st0" d="M691.18,375.54c-0.82,0.72,4.81,3.85,3.99,4.57c-0.69,0.84-1.39,1.68-2.08,2.52
	c-0.97,3.99,0.93,7.25,2.65,10.55c2.7,1,5.45,0.86,8.21,0.34c1.57-1.51,4.19-2.36,4.7-4.54c-0.79-2.85-1.35-2.03-2.12-6.17
	C702.9,379.96,696.75,376.04,691.18,375.54z"/>
<path class="st0" d="M247.76,314.81c0.14,6.92-3.61,11.52-9.12,14.95c-2.38,1.48-5.13,2.09-7.71,0.64c-2.62-1.48-1.6-3.93-1.15-6.19
	c0.24-1.2-0.41-2.17-1.51-2.78c-2.26,4.07-4.65,8.13-5.43,12.77c-0.45,2.67,0.59,4.71,3.87,3.64c5.16-1.69,10.44-3.17,15.34-5.45
	C250.64,328.39,251.61,324.83,247.76,314.81z"/>
<path class="st0" d="M698.72,773.69c1.27,16.01,5.99,21.25,21.15,23.51c2.45-1.46,4.92-2.88,7.3-4.47c0.75-0.08,1.5-0.13,2.25-0.16
	c0.85-0.74,1.63-1.55,2.44-2.33l0.01-0.02c7.92-12.24,8.14-18.74,0.89-26.37c-8.55-9-19.12-8.76-27.94,0
	C701.87,766.78,701.88,771.14,698.72,773.69z"/>
<path class="st0" d="M67.7,748.18c-4.04,7.28-9.4,13.88-11.38,22.21c0.62,0.53,0.83,1.06,0.62,1.59c-0.21,0.53-0.42,0.79-0.63,0.79
	c0.21,3.4-0.43,6.54-2.81,9.14c0.2,2.6,0.2,5.21-0.04,7.81c1.94,4.33,7.15,5.16,9.59,8.95c2.36,1.63,4.17,0.26,6.01-1.06
	c1.55-1.64,2.77-3.42,2.25-5.85c-1.33-5.43-3.75-10.8-1.07-16.5c-0.6-6.58,0.57-12.9,2.76-19.07
	C72.38,752.77,71.21,749.7,67.7,748.18z"/>
<path class="st0" d="M18.09,719.8c1.26-0.1,2.53-0.19,3.79-0.29c1.06-0.45,2.12-0.56,3.31-0.52c12.03,0.32,12.03,0.29,8.95-11.88
	l0.15,0.22c-1.47-0.52-2.31-1.56-2.56-3.09c-0.19-1.16-0.94-1.63-2.04-1.66c-0.93-0.69-1.63-1.72-2.53-2.35
	c-2.88-2.03-3.21-8.5-8.09-6.34"/>
<path class="st0" d="M154.72,858.75c-0.76,1.41-1.52,2.81-2.27,4.22c0.71,0.82,1.5,1.57,2.37,2.23l0.75,0.5l0.9,0
	c4.85,1.74,10.04-0.18,14.91,1.37c7.15,0.04,11.82-4.71,16.95-8.67c3.44-2.65,3.36-5.95,1.96-9.32c-1.28-3.08-3.67-4.92-7.37-4.07
	c-3.76,0.87-7.79-0.08-11.41,1.69c-0.61,1.63-0.43,3.59,0.89,4.3c7.71,4.13,2.39,5.2-1.44,6.64c-2.33,0.69-4.61,1.58-7.05,1.81
	c-3.2,0.23-3.06-5.5-6.98-3.93l-0.05-0.12C156.42,856.69,154.58,857.09,154.72,858.75z"/>
<path class="st0" d="M217.9,885.39c-8.47-0.89-8.4-0.85-7.16-10.35c0.27-2.08-1.79-2.15-3.26-2.52c-3.39,3.75-10.31,5.83-7.11,12.86
	"/>
<path class="st0" d="M171.37,860.52c5.35-0.89,7.79-5.32,11.44-9.53c-5.37,1.66-9.12,0.41-11.31-4.29
	c-6.1,0.9-10.48,4.63-14.59,8.81c0.66,0.82,2.02,1.79,1.88,2.42c-1.18,5.33,2.14,5.13,5.63,4.84
	C166.19,860.34,167.34,856.01,171.37,860.52z"/>
<path class="st0" d="M77.5,820.29c-0.26,2.02,1.07,3.95,3.34,3.94c1.61-0.01,2.54-1.5,2.8-3.22c0.7-4.59-0.46-9.39,1.67-13.84
	c0.76-1.6-0.06-3.1-1.26-4.17c-1.35-1.21-2.41-3.46-4.7-2.53"/>
<path class="st0" d="M99.83,763.82c-0.48,4.22,0.48,7.83,4.96,9.18c3,0.91,5.31-0.95,6.7-3.36c2.42-4.19,2.21-8.09-2.34-10.92
	C104.24,757.13,98.92,754.76,99.83,763.82z"/>
<path class="st0" d="M168.02,793.71c-6.57-6.64-11.66-8.1-17.36-6.72c-2.23,0.54-4.44,2.15-3.77,5.11c0.57,2.53,2.23,4.23,5.01,4.12
	C156.69,796.04,160.75,793,168.02,793.71z"/>
<path class="st0" d="M97.37,786.76c-1.66,1.71-3.34,3.81-1.68,5.99c1.39,1.82,3.62,0.42,5.2-0.51c3.62-2.14,7.54-4.05,10.53-6.9
	c2.68-2.56,3.74-6.12-1.72-7.48c-2.05,1.71-5.11,0-7.06,2.07l-0.01,0.01C106.41,786.46,97.71,783.39,97.37,786.76z"/>
<path class="st0" d="M81.8,791.78c8.78-2.93,11.01-8.94,8.09-17.58C81.96,777.8,84.05,785.68,81.8,791.78z"/>
<path class="st0" d="M128.79,825.97c0.16-3.8-1.54-6.66-4.53-8.82c-1.09-0.79-2.3-0.42-3.05,0.45c-3.12,3.6-1.44,7.15,0.25,10.7
	c1.03,2.15,2.16,4.39,5.02,3.54C129.46,830.96,128.42,828.11,128.79,825.97z"/>
<path class="st0" d="M34.14,736.77c0,2.73,0,5.46,0,8.71c-3.06,3.37-9.23-1.16-12.26,3.69c0.32,0.22,0.6,0.51,0.95,0.63
	c4.96,1.77,10.52,5.19,14.75-0.01C41.62,744.86,35.72,741.06,34.14,736.77z"/>
<path class="st0" d="M97.36,819.36c0.54,3.49,1.66,6.59,5.31,8.01c1.98-1.88,2.07-4.47,2.58-6.9c0.84-4.4,2.89-9.64-5.37-7.66
	C98.82,814.91,97.25,816.81,97.36,819.36z"/>
<path class="st0" d="M99.89,812.82c5.7-0.19,4.86,4.21,5.37,7.66c2.44-2.39,1.26-6.27,3.26-8.59c1.77-2.06,3.02-3.42,0.46-5.62
	c-2.3-1.98-4.25-1.16-6.23,0.45C100.8,808.3,99.8,810.29,99.89,812.82z"/>
<path class="st0" d="M102.88,831.62c-3.96,5.59-4.43,11.1,0.34,16.51c0.83,0.82,1.64,0.81,2.44-0.04
	C106.44,842.31,102.47,837.34,102.88,831.62z"/>
<path class="st0" d="M162.01,803.6c-0.81,0.01-1.63,0.03-2.44,0.04c-0.8,1.58-1.6,3.15-2.41,4.73c3.15-0.82,6.3-1.64,9.45-2.46
	c2.49-0.45,5.29,0.19,7.25-2.08C169.94,802.74,165.97,803.16,162.01,803.6z"/>
<path class="st0" d="M52.38,757.89c0.67-6.17,5.54-4.62,9.32-5.09c-1.15-1.91-3.03-1.82-4.94-1.96
	C49.75,750.32,49.75,750.27,52.38,757.89z"/>
<path class="st0" d="M97.37,786.76c1.52-0.24,3.06-0.39,4.56-0.75c5.63-1.37,2.68-3.79,0.71-6.08
	C99.15,780.87,98,783.62,97.37,786.76z"/>
<path class="st0" d="M112.78,831.25c3.72-2.59,3.6-5.19,0.04-7.81C107.82,826.02,109.05,828.63,112.78,831.25z"/>
<path class="st0" d="M83.33,829.16c0.31,1.56,0.74,3.23,2.35,3.75c1.19,0.39,2.27-0.52,2.31-1.87c0.05-1.71-1-3.04-2.45-3.63
	C84.36,826.95,83.38,827.69,83.33,829.16z"/>
<path class="st0" d="M171.38,867.07c-4.72-3.24-9.86-1.76-14.91-1.37C161.25,868.14,166.29,867.89,171.38,867.07z"/>
<path class="st0" d="M131.12,836.04c0.31,1.1,0.28,2.92,2.48,2.54c1.17-0.2,2.04-1.11,1.92-2.33c-0.17-1.59-1.12-2.92-2.83-2.89
	C131.51,833.39,131.08,834.59,131.12,836.04z"/>
<path class="st0" d="M132.84,777.35c0.77,1.03,1.75,1.69,2.9,0.77c0.5-0.4,1.02-1.54,0.8-1.93c-0.64-1.11-1.83-1.28-3.04-0.77
	C132.59,775.81,132.38,776.47,132.84,777.35z"/>
<path class="st0" d="M102.64,779.92c2.6,0.16,5.26,0.51,7.06-2.07C107.13,777.82,104.52,777.63,102.64,779.92z"/>
<path class="st0" d="M142.5,860.32c2.06,0.38,3.85,0.01,5.14-1.8C145.53,857.98,143.9,858.81,142.5,860.32z"/>
<path class="st0" d="M122.12,791.62c0.13,0.28,0.2,0.77,0.4,0.82c0.72,0.19,1.08-0.27,0.87-1.15c-0.05-0.2-0.56-0.48-0.73-0.42
	C122.42,790.96,122.29,791.35,122.12,791.62z"/>
<path class="st0" d="M154.72,858.75c1.19-0.81,2.11-1.81,2.13-3.36c-1.64,0.82-3.28,1.64-4.91,2.46
	C152.87,858.15,153.79,858.45,154.72,858.75z"/>
<path class="st0" d="M141.48,784.02c-0.12,0.3-0.41,0.65-0.34,0.91c0.25,0.99,0.79,1.1,1.32,0.27c0.14-0.21,0-0.72-0.18-0.97
	C142.17,784.06,141.76,784.09,141.48,784.02z"/>
<path class="st0" d="M91.04,733.9c0.21,1.56,1.04,2.61,2.56,3.09C93.53,735.32,92.57,734.38,91.04,733.9z"/>
<path class="st0" d="M154.81,865.2c-0.79-0.74-1.58-1.49-2.37-2.23c-0.05,0.69-0.07,1.38-0.09,2.08
	C153.17,865.1,153.99,865.15,154.81,865.2z"/>
<path class="st0" d="M85.97,843.96c1.79-0.79,1.66-1.58,0.01-2.39C85.98,842.37,85.98,843.17,85.97,843.96z"/>
<path class="st0" d="M129.51,849.12c1.62-0.44,2.32-1.49,1.67-2.47c-0.48-0.73-1.84-1.19-2.82-1.2c-1.15-0.01-2.15,0.91-1.28,2.13
	C127.65,848.37,128.83,848.71,129.51,849.12z"/>
<path class="st0" d="M171.37,860.52c0.61-1.7,2.52-3.46,1.38-5.13c-1.72-2.53-2.91,0.56-4.4,0.89c-3.84,0.85-4.5,3.2-3.94,6.5
	C166.73,862.03,169.05,861.27,171.37,860.52z"/>
<path class="st0" d="M275.49,246.04c10.52-5.5,19.18-9.77,29.51-6.17c2.06,0.72,5.19,0.86,4.4,4.26c-0.51,2.18-2.65,2.87-4.72,2.62
	C295.78,245.67,286.91,251.2,275.49,246.04"/>
<path class="st0" d="M419.22,341.1c0.7-4.29,4.2-8.07,0.33-13.04c-2.83-3.63,0.32-7.35,5.32-8.12c5.66-0.88,4.81,9.17,11.3,6.36
	c0.45,1.69-0.22,3.11-1.32,4.23c-3.23,3.28-6.57,6.46-9.86,9.68C422.92,339.57,421.38,342.31,419.22,341.1z"/>
<path class="st0" d="M430.46,307.11c4.53-2.08,6.18-6.42,7.39-10.89c4.44,1.73,5.75,5.26,8,7.84c1.36,1.57,1.86,3.54,0.51,5.4
	c-1.3,1.79-3.24,2.13-5.27,1.52c-2.61-0.79-5.17-2.26-7.74,0.06c-1.49,1.73-2.67,1.79-3.4-0.62l0,0.01
	C430.17,309.33,430.34,308.23,430.46,307.11z"/>
<path class="st0" d="M381.08,255.01c0.87,5,6.11,7.02,7.78,11.42c0.34,0.9-0.03,2.32-0.54,3.24c-0.56,1-1.81,1.43-2.95,0.78
	c-4.97-2.86-6.7-9.27-4.25-15.46L381.08,255.01z"/>
<path class="st0" d="M439.39,256.15c5.8-1.02,10.49-4.7,16.88-6.62C451.02,257.74,448.4,258.77,439.39,256.15z"/>
<path class="st0" d="M322.28,236.73c2.87,0.7,5.8,1.24,8.57,2.22c0.63,0.22,1.21,2.09,0.94,2.93c-0.24,0.78-1.63,1.67-2.54,1.69
	C325.3,243.71,323.7,240.37,322.28,236.73z"/>
<path class="st0" d="M340.7,246.13c-0.96-1.75,0.04-2.85,1.34-3.72c1.77-1.18,3.92-1.21,5.1,0.4c1.17,1.6,0.81,3.76-1.41,4.63
	C343.88,248.17,342.05,247.83,340.7,246.13z"/>
<path class="st0" d="M359.22,243.14c1.01-0.35,1.38-0.62,1.73-0.58c2.23,0.24,4.71,0.06,5.96,2.48c0.2,0.39-0.31,1.64-0.74,1.79
	c-2.47,0.88-4.25-0.76-6.11-1.97C359.8,244.7,359.74,244.25,359.22,243.14z"/>
<path class="st0" d="M381.13,255c-0.33-0.19-0.7-0.33-0.97-0.57c-1.72-1.55-5.93,0.18-5.47-4.12c0.05-0.44,1.21-1.24,1.51-1.1
	c2.51,1.15,6.4,1.26,4.89,5.81L381.13,255z"/>
<path class="st0" d="M415.42,285.11c-0.66-1.05-0.68-2.65,0.48-3.86c0.85-0.88,2.3-0.77,3.13,0.21c1.18,1.38,0.79,2.99-0.31,4.19
	C417.87,286.58,416.66,286.6,415.42,285.11z"/>
<path class="st0" d="M396.02,272.18c0.04,0.63,0.55,2.03,0.07,2.61c-1.25,1.52-2.63,0.67-3.59-0.62c-0.73-0.99-0.66-2.16,0.34-2.92
	C393.86,270.49,394.91,270.8,396.02,272.18z"/>
<path class="st0" d="M429.94,310.42c1.13,0.21,2.27,0.41,3.4,0.62c0.21,1.77,0.52,4.49-1.46,4.4
	C429.19,315.33,429.12,312.71,429.94,310.42z"/>
<path class="st0" d="M432.4,289.26c0.63,0.15,1.55,0.09,1.83,0.49c0.76,1.08,0.28,2.09-0.95,2.34c-0.48,0.1-1.43-0.55-1.62-1.06
	C431.51,290.59,432.12,289.86,432.4,289.26z"/>
<path class="st0" d="M407.03,280.27c-0.14,0.6-0.09,1.48-0.46,1.74c-1.03,0.71-2.02,0.27-2.27-0.9c-0.1-0.45,0.54-1.37,1.03-1.54
	C405.76,279.42,406.45,280.01,407.03,280.27z"/>
<path class="st0" d="M407.43,295.58c0.62,0.07,1.51-0.08,1.81,0.27c0.85,1,0.48,2.04-0.71,2.42c-0.43,0.14-1.39-0.45-1.63-0.94
	C406.71,296.92,407.22,296.17,407.43,295.58z"/>
<path class="st0" d="M321.28,243.16c-0.29,0.83-0.33,1.75-0.72,1.93c-1.33,0.64-2.78,0.73-3.58-0.84c-0.13-0.25,0.69-1.39,1.15-1.44
	C319.13,242.7,320.18,243.02,321.28,243.16z"/>
<path class="st0" d="M443.68,326.99c-0.14,0.62-0.08,1.52-0.47,1.8c-1.06,0.76-2.04,0.26-2.27-0.93c-0.09-0.48,0.53-1.4,1.03-1.59
	C442.39,326.11,443.1,326.72,443.68,326.99z"/>
<path class="st0" d="M297.67,254.24c-0.21,0.61-0.24,1.52-0.66,1.76c-1.09,0.62-2.07,0.11-2.21-1.12c-0.06-0.5,0.63-1.43,1.12-1.54
	C296.42,253.24,297.08,253.91,297.67,254.24z"/>
<path class="st0" d="M308.01,252.09c0.73,0.35,1.9,0.62,2.66,1.33c1.1,1.02,0.32,2.09-0.79,2.25c-0.98,0.14-2.07-0.42-3.11-0.68
	C307.03,254.38,307.29,253.77,308.01,252.09z"/>
<path class="st0" d="M359.67,256.39c-0.07,0.59,0.08,1.45-0.25,1.73c-1,0.84-2.03,0.46-2.47-0.67c-0.15-0.37,0.42-1.39,0.84-1.53
	C358.31,255.75,359.03,256.2,359.67,256.39z"/>
<path class="st0" d="M419.22,341.1c1.85-0.78,3.63-1.98,5.77-0.91c-1.03,0.96-1.94,2.13-3.12,2.85
	C419.7,344.38,418.6,343.8,419.22,341.1z"/>
<path class="st0" d="M369.52,252.09c-0.2,0.25-0.46,0.73-0.58,0.69c-0.32-0.09-0.59-0.4-0.87-0.62c0.2-0.25,0.46-0.73,0.58-0.69
	C368.97,251.56,369.23,251.87,369.52,252.09z"/>
<path class="st0" d="M424.65,289.75c-0.18,0.28-0.3,0.72-0.55,0.82c-0.97,0.38-1.38,0.01-1.01-0.92c0.1-0.24,0.59-0.42,0.91-0.43
	C424.22,289.21,424.44,289.56,424.65,289.75z"/>
<path class="st0" d="M430.46,307.11c-0.17,1.11-0.35,2.21-0.52,3.32C429.45,309.22,429.66,308.12,430.46,307.11z"/>
<path class="st0" d="M672.79,901.47c-0.04-11.66,0.99-23.33-2.23-34.86c-1.66-5.96-4.86-10.46-9.1-14.69
	c-2.4-2.4-4.66-4.28-8.11-3.18c-3.8,1.21-5.92,4.64-6.01,8c-0.19,7.4-0.84,15.7,4.15,21.51c7.2,8.37,10.81,17.68,11.89,28.33
	C664.56,901.27,672.06,907.62,672.79,901.47z"/>
<path class="st0" d="M633.43,916.72c0.34-2-0.91-4.51-2.32-6.89c-2.6-4.41-9.02-7.64-11.68-6.02c-2.9,1.77-2.92,7.77,0.03,12.89
	c0.98,1.71,2.01,3.41,3.21,4.98c1.89,2.46,3.8,6.02,7.43,4.41C633.27,924.68,632.9,920.76,633.43,916.72z"/>
<path class="st0" d="M655,588.41c-0.18-5.78-4.69-9.71-11.03-9.61c-3.96,0.07-7.5,3.9-7.19,7.78c0.38,4.78,5.54,8.89,10.91,8.69
	C653.33,595.07,655.15,593.36,655,588.41z"/>
<path class="st0" d="M720.73,691.97c-0.38,4.74,3.68,8.98,8.76,9.74c3.23,0.48,5.35-0.57,5.55-4.1c0.26-4.62-3.68-9.85-7.82-10.19
	C723.65,687.12,721.36,688.83,720.73,691.97z"/>
<path class="st0" d="M672.79,901.47c-1.41,0.55-3.5,1.98-4.14,1.5c-5.77-4.36-4.85,0.52-5.28,3.61c0.36,4.63,3.48,5.94,7.05,4.49
	C674.92,909.24,674.21,905.23,672.79,901.47z"/>
<path class="st0" d="M684.01,871.23c0.92-13.44,4.13-26.19-9.67-35.74c-3.15,6.99-6.13,12.5-0.2,19.31
	C678.01,859.23,679.3,865.65,684.01,871.23z"/>
<path id="XMLID_47_" class="st0" d="M719.19,607.91c-6.57,57.39-24.45,112.85-51.97,163.15c-27.58,50.3-64.45,95.62-109.04,134.03
	c6.1-0.18,12.22-0.62,18.48-1.58c1.08-0.65,2.17-1.28,3.24-1.95l3.12-2.1c2.07-1.43,4.15-2.85,6.24-4.28
	c19.5-20.65,36.75-42.87,52.39-65.62c15.66-22.77,29.73-46.05,43.35-69.47c2.49-4.19,4.47-8.62,6.59-12.96
	c2.06-4.37,4.17-8.72,5.85-13.22c1.76-4.46,3.47-8.94,5.13-13.41c1.51-4.52,2.89-9.07,4.27-13.59c0.67-2.27,1.4-4.51,1.99-6.79
	c0.56-2.28,1.12-4.57,1.68-6.84c1.06-4.56,2.26-9.06,3.12-13.61c1.67-9.12,3.44-18.09,4.46-27.08c0.3-2.24,0.6-4.47,0.9-6.69
	l0.45-3.33l0.3-3.34c0.42-4.43,0.84-8.84,1.26-13.21l0.32-3.27l0.19-3.27c0.14-2.17,0.27-4.34,0.41-6.5c0.15-2.16,0.3-4.3,0.46-6.45
	l0.25-3.2l0.12-3.2c0.29-8.51,1-16.87,1.19-25.13c0.17-4.13,0.46-8.23,0.71-12.3c0.13-4.07,0.34-8.11,0.62-12.13l0.35-6.32
	c0.13-2.11,0.11-4.2,0.19-6.31c0.11-4.21,0.26-8.42,0.46-12.64c0.19-8.49,0.39-16.9,0.57-25.16c-0.01-4.15,0.01-8.3,0.07-12.45
	c0.07-4.15,0.2-8.28,0.09-12.34c-0.04-4.07-0.04-8.14,0-12.18c0-2.01,0.09-4.05,0.04-6.04c-0.03-2-0.07-3.98-0.1-5.94
	c-1.73-4.99-3.39-9.99-5.16-14.92c-1.91-4.88-3.82-9.76-5.72-14.62c-13.79-32.48-31.69-62.85-52.62-90.9
	c-10.34-14.13-21.91-27.28-33.77-40.06c-3.04-3.13-6.17-6.18-9.25-9.26c-3.12-3.05-6.12-6.21-9.41-9.07
	c-6.48-5.83-12.84-11.78-19.68-17.17c-3.38-2.74-6.69-5.55-10.13-8.21l-10.46-7.78l-5.23-3.88l-5.4-3.64l-10.81-7.25
	c-3.65-2.34-7.4-4.53-11.09-6.79c-3.72-2.22-7.37-4.56-11.21-6.56c-7.61-4.13-15.16-8.37-23.02-12c-15.47-7.76-31.59-14.05-47.79-20
	c-16.38-5.44-32.88-10.52-49.76-14.08c-29.89-3.66-60.31-5.21-90.95-4.24c-30.64,1.09-61.45,4.78-91.89,11.26
	c-30.44,6.47-60.49,15.77-89.47,27.89c-28.92,12.15-56.77,27.15-82.91,44.75c23.47-17.99,48.66-33.68,75.14-46.93
	c26.49-13.26,54.36-24.07,83.17-32.14c-32.17,7.49-63.53,18.52-93.36,32.75c-29.82,14.22-58.33,31.63-84.56,52.29
	c-22.54,18.23-42.35,39.17-59.2,61.91c-16.85,22.74-30.74,47.27-41.68,72.84c0.73,3.57,1.22,7.43,1.38,11.63
	c0.1,2.11,0.05,4.28,0.03,6.59c-0.01,2.32-0.1,4.73-0.3,7.25c-0.2,2.52-0.49,5.13-0.9,7.87c-0.45,2.7-0.92,5.56-1.42,8.59
	c-0.52,3.01-1.16,6.15-1.92,9.42c-0.75,3.28-1.71,6.66-2.53,10.29c-5.86,22.33-10.75,44.59-13.25,67.25
	c-2.5,22.62-2.56,45.68,1.74,68.57c0,6.28-7.42,5.13-7.29,17.99c-0.19-4.48-0.09-8.86-0.28-13.14c-0.1-4.28-0.46-8.47-0.47-12.57
	c-0.16-8.21-0.88-16.1-1.15-23.71c-0.22-3.81-0.5-7.56-0.85-11.25c-0.28-3.69-0.46-7.31-0.8-10.89c-0.31-3.58-0.68-7.12-1.09-10.62
	c-0.27-3.48-0.59-6.92-0.96-10.32c-0.29,4.1-0.74,8.16-0.89,12.27c-0.13,4.1-0.27,8.2-0.41,12.31l-0.18,6.15l0.09,6.17
	c0.06,4.1,0.12,8.21,0.18,12.33c0.14,4.11,0.47,8.24,0.7,12.35c0.29,4.12,0.39,8.23,0.92,12.35c0.92,8.23,1.59,16.47,3.01,24.68
	c3.1,30.63,7.11,58.67,12.67,86.13c5.61,27.41,12.81,54.27,23.4,81.41l2.3,4.08c0.78,1.35,1.64,2.66,2.46,3.99
	c1.65,2.65,3.29,5.31,4.94,7.97c16.49,26.37,38.44,49.74,63,69.22c-4.14-4.68-8.06-9.61-12.16-14.49c-2.08-2.41-3.97-5.02-5.92-7.61
	c-1.94-2.6-3.9-5.21-5.88-7.86c15.42,13.57,32.23,32.56,45.89,46.06c-7.61-4.94-14.67-10.59-21.93-16.1
	c19.95,22.44,41.33,42.05,67.32,60.92c-15.9-11.22-31.56-23.12-46.58-34.94c-3.74-3-7.44-5.96-11.1-8.89
	c-3.58-3.05-7.11-6.07-10.58-9.04c-1.75-1.49-3.49-2.96-5.21-4.41c-1.67-1.52-3.32-3.03-4.95-4.52c-3.29-3-6.51-5.94-9.65-8.81
	c3.04,3.41,6.06,6.8,9.07,10.17c1.53,1.66,2.97,3.39,4.56,4.99c1.58,1.6,3.16,3.19,4.74,4.78c3.16,3.17,6.28,6.35,9.47,9.44
	c3.29,2.99,6.56,5.96,9.82,8.93l4.9,4.43l5.08,4.2c3.38,2.79,6.75,5.57,10.11,8.35c3.48,2.63,6.94,5.26,10.41,7.89
	c3.46,2.63,6.9,5.28,10.52,7.68c28.39,19.98,58.25,37.4,90.75,53.29c-1.87-0.26-3.76-0.52-5.6-0.78
	c24.7,7.37,49.98,12.04,75.34,14.2c25.37,2.12,50.83,1.72,76.01-0.95c50.41-5.35,99.59-19.73,146.32-41.78
	c2.83-1.35,5.49-2.65,7.87-4.2c2.37-1.56,4.53-3.17,6.5-4.79c3.91-3.3,7.13-6.51,9.49-10.04c4.76-7.01,6.8-13.81,7.12-19.64
	c0.28-5.78-0.92-10.85-2.99-13.94c-1.02-1.56-2.23-2.67-3.53-3.22c-1.3-0.55-2.55-0.66-3.81-0.06
	c-41.71,25.08-89.02,40.3-137.25,44.61c-48.24,4.39-97.25-2.02-142.68-18.03c-45.45-16.04-87.2-41.7-122.07-74.49
	c-34.92-32.77-62.88-72.73-82.36-116.67c3.98,21.87,10.22,43.95,19.18,65.77c2.38,4.42,4.59,8.86,6.59,13.35
	c2.15,4.38,4.16,8.75,5.87,13.24c-2.26-4.44-4.53-8.79-6.63-13.21c-1.95-4.48-3.89-8.94-5.82-13.38c-1.67-2.95-3.13-6.09-4.73-9.16
	c-1.59-3.08-3.24-6.17-4.93-9.25c-1.66-3.1-3.13-6.35-4.75-9.53c-1.57-3.21-3.25-6.38-4.76-9.65c-1.43-3.31-2.87-6.63-4.31-9.96
	c-1.42-3.33-2.89-6.65-4-10.12c-2.34-6.9-4.76-13.73-6.14-20.88c0.12-1.48-0.13-3.59-0.73-5.98c-0.58-2.4-1.6-5.05-2.63-7.74
	c-2.19-5.35-5.61-10.5-10.07-12.78c-2.7-19.81-7.16-40.79-9.61-62.22c-2.5-21.36-2.93-43.12,1.12-62.39
	c0.26-2.32,2.7-6.08,5.57-10.32c1.55-24.32,5.44-48.63,11.62-72.57c4.55-16.66,10.23-32.95,16.98-48.77
	c7.02-15.68,15.01-30.87,24.06-45.37c2.31-3.59,4.75-7.09,7.11-10.64c1.21-1.76,2.34-3.57,3.61-5.28l3.83-5.11l3.83-5.1
	c1.27-1.71,2.54-3.42,3.94-5.02c2.72-3.26,5.45-6.52,8.17-9.77c1.32-1.66,2.8-3.18,4.24-4.74l4.33-4.66l4.32-4.65
	c1.45-1.54,3.02-2.96,4.53-4.45c3.04-2.93,6.08-5.87,9.12-8.8c3.18-2.77,6.37-5.53,9.55-8.3c51.45-43.53,115.23-71.07,179.94-77.91
	c-3.96,0.06-7.91,0.12-11.84,0.18c-3.93,0.15-7.84,0.46-11.76,0.65c-7.88,0.26-15.56,1.32-23.34,1.93c-3.87,0.34-7.65,1-11.49,1.45
	c-1.92,0.24-3.83,0.49-5.73,0.73c-1.91,0.22-3.82,0.46-5.68,0.81c-3.78,0.61-7.53,1.23-11.25,1.83c-1.87,0.3-3.76,0.55-5.61,0.89
	c-1.84,0.36-3.68,0.72-5.5,1.08c-10.16,1.38-22.41,5.59-35.6,12.23c-3.27,1.7-6.63,3.51-10.05,5.41c-0.86,0.48-1.72,0.96-2.58,1.44
	c-0.84,0.53-1.68,1.07-2.53,1.61c-1.69,1.09-3.4,2.2-5.12,3.31c-1.72,1.13-3.45,2.28-5.2,3.44c-1.75,1.16-3.53,2.32-5.21,3.65
	c-3.4,2.6-6.86,5.25-10.37,7.93c-0.87,0.68-1.75,1.35-2.62,2.03c-0.84,0.72-1.69,1.45-2.54,2.18c-1.68,1.47-3.38,2.95-5.09,4.43
	c-3.39,2.99-6.89,5.92-10.11,9.22c-3.27,3.22-6.57,6.46-9.88,9.71c-3.13,3.42-6.28,6.85-9.43,10.3c-3.21,3.36-6.09,7.04-9.07,10.6
	c-2.96,3.58-5.99,7.07-8.69,10.81c-2.78,3.66-5.54,7.3-8.28,10.91c-2.59,3.71-5.16,7.4-7.7,11.04c-2.42,3.78-4.68,7.09-7.22,9.92
	c-2.5,2.86-5.23,5.3-7.88,7.8c-2.6,2.54-5.26,5.06-7.9,7.88c-1.32,1.41-2.63,2.89-3.92,4.49c-1.24,1.63-2.4,3.41-3.54,5.32
	c0.41-2.03,0.87-4.07,1.37-6.11c0.58-2,1.2-4,1.86-6c1.33-4.01,2.79-8.04,4.43-12.07c1.79-3.92,3.71-7.86,5.76-11.8
	c1.04-1.95,2.03-3.98,3.2-5.88c1.19-1.9,2.38-3.8,3.59-5.71c1.24-1.89,2.49-3.8,3.74-5.71c1.26-1.91,2.55-3.81,3.99-5.61
	c2.81-3.65,5.7-7.3,8.66-10.93c2.97-3.62,6.28-6.98,9.5-10.47c1.64-1.71,3.27-3.43,4.91-5.16c1.74-1.63,3.48-3.26,5.22-4.9
	c1.76-1.62,3.51-3.25,5.28-4.87c1.77-1.62,3.51-3.28,5.4-4.77c3.72-3.04,7.45-6.08,11.19-9.13c3.75-3.03,7.75-5.74,11.6-8.62
	l5.82-4.26l6.01-3.97c15.82-10.87,32.37-20.19,48.32-29.41c21.47-11.83,46.94-21.52,74.44-27.94c27.5-6.47,56.96-9.66,86.47-9.76
	c29.55,0.08,59.07,3.26,87.39,8.3c28.37,4.95,55.43,12.18,81.06,19.35c21.25,5.81,40.15,16.47,55.7,29.44
	c4.01,3.06,7.57,6.64,11.15,10c1.75,1.72,3.49,3.43,5.22,5.12c1.68,1.74,3.26,3.58,4.84,5.37c3.13,3.61,6.23,7.08,9.04,10.71
	c2.78,3.68,5.44,7.29,8.02,10.82c-12.27-5.03-30.25-19.5-39.9-26.2c-42.63-30.53-92.39-51.63-144.58-61.32
	c-26.09-4.8-52.8-6.86-79.43-5.54c-26.62,1.25-53.13,5.59-78.78,13c27.38-4.69,54.57-7.18,81.54-7.05
	c26.96,0.22,53.66,2.97,79.68,8.56c25.99,5.63,51.37,13.93,75.13,25.65c23.76,11.66,45.98,26.4,65.54,44.1
	c-3.2-2.17-6.36-4.38-9.5-6.62c-3.23-2.11-6.44-4.22-9.65-6.32l-4.78-3.22l-4.9-3.01c-3.26-2.04-6.5-4.07-9.75-6.1
	c-3.33-1.89-6.65-3.78-9.96-5.67l-4.97-2.86l-5.09-2.6c-3.4-1.74-6.79-3.47-10.18-5.21c-3.48-1.54-6.94-3.09-10.41-4.63l-5.21-2.28
	l-5.31-1.99c-3.55-1.29-7.1-2.57-10.64-3.85c-3.59-1.12-7.22-2.12-10.83-3.13l-5.42-1.47c-1.81-0.47-3.66-0.78-5.49-1.16
	c-3.66-0.72-7.32-1.39-10.98-2.01c-3.67-0.56-7.38-0.84-11.06-1.17c-7.34-0.77-14.77-0.54-22.08-0.21
	c4.55,2.45,9.24,4.66,13.93,6.84c39.2,8.84,76.1,24.85,108.44,46.38c11.66,3.38,23.21,7.37,34.37,12.32
	c3.19,1.32,6.39,2.71,9.61,4.14c3.21,1.45,6.25,3.2,9.4,4.86c1.56,0.86,3.13,1.72,4.7,2.59c1.58,0.86,3.14,1.76,4.63,2.76
	c3.03,1.95,6.06,3.95,9.1,5.99c3.09,1.99,5.96,4.27,8.88,6.55c2.91,2.29,5.86,4.58,8.73,6.99c2.76,2.53,5.54,5.07,8.33,7.63
	c1.38,1.3,2.77,2.59,4.17,3.9c1.31,1.38,2.62,2.77,3.94,4.15c2.61,2.81,5.23,5.62,7.86,8.46c2.5,2.95,4.93,5.98,7.38,9.01
	c1.22,1.52,2.45,3.04,3.67,4.57c1.22,1.53,2.3,3.17,3.45,4.76c2.26,3.22,4.53,6.45,6.8,9.69c8.54,13.33,16.62,27.27,23.1,42.12
	c13.57,29.42,22.12,61.37,27.13,93.52c0.92,8.1,2.26,16.13,2.75,24.26l0.53,6.07c0.2,2.02,0.37,4.04,0.42,6.07l0.57,12.15
	c0.15,2.02,0.11,4.05,0.13,6.07l0.05,6.07l0.09,6.05c0.04,2.02-0.1,4.04-0.13,6.05c-0.09,4.03-0.18,8.06-0.26,12.08
	c-0.24,4.02-0.47,8.03-0.71,12.04c-0.15,1.31-0.19,2.72-0.15,4.21c0.01,1.49,0.01,3.07,0.12,4.72c0.2,3.32,0.65,6.96,1.21,10.88
	c0.6,3.92,0.93,8.06,1.45,12.42c0.22,2.19,0.45,4.41,0.68,6.67c0.2,2.26,0.22,4.52,0.29,6.83c4.91-20.78,8.57-41.86,10.28-63.23
	c1.7-21.35,1.47-43.01-1.51-64.47c-0.26,8.77-0.42,17.29-1.88,25.55c-0.68,4.12-1.23,8.15-2.28,12.11
	c-1.03,3.95-2.16,7.8-3.41,11.54c-0.59-19.74-0.09-37.67-0.63-55.92l-0.25-6.85l-0.15-3.44l-0.33-3.42
	c-0.45-4.57-0.95-9.18-1.55-13.85c-1.67-9.22-3.6-18.7-7.22-28.15c8.94,19.97,14.66,41.08,17.7,62.43
	c-0.07-26.26-5.59-53.84-13.43-80.74c1.65,3,3.35,5.98,4.67,9.09c1.32,3.1,2.56,6.23,3.7,9.37c2.45,6.24,3.94,12.73,5.41,19.16
	c2.81,12.91,3.94,25.99,4.68,38.98c0.29,3.23,0.26,6.51,0.37,9.75c0.09,3.25,0.21,6.5,0.36,9.74c0.16,6.49,0.18,13.01,0.65,19.53
	c0.08,6.54,0.58,13.11,1.2,19.79c0.23,3.34,0.56,6.7,1,10.1c0.49,3.42,0.99,6.86,1.49,10.32c0.6-11.55,1.19-23.15,1.78-34.62
	c-0.12,5.89,0.06,11.79-0.42,17.69l-0.52,8.83c-0.09,1.47-0.15,2.94-0.28,4.41l-0.47,4.39c-0.03-0.21-0.06-0.49-0.09-0.7
	c-0.31,4.42-0.54,8.84-0.73,13.26c-0.34,4.41-0.72,8.81-1,13.22c-0.17,2.2-0.21,4.42-0.45,6.6c-0.22,2.2-0.43,4.38-0.64,6.57
	c-0.19,2.19-0.39,4.38-0.58,6.56c-0.16,2.19-0.35,4.38-0.66,6.53c-0.5,4.35-1,8.68-1.5,12.97c-0.47,4.32-1.26,8.53-1.83,12.78
	c-0.3,2.12-0.61,4.24-0.91,6.34c-0.29,2.11-0.75,4.16-1.12,6.24c-0.76,4.16-1.52,8.27-2.26,12.33
	c10.07-29.59,18.89-58.15,24.57-87.7c5.44-29.48,7.55-59.96,3.31-91.13l-0.58-3.86l-0.77-3.83l-1.55-7.64
	c-0.53-2.54-1.02-5.08-1.6-7.61c-0.66-2.51-1.32-5.01-1.97-7.5c0.72,2.53,1.43,5.06,2.14,7.58c0.6,2.54,1.11,5.09,1.64,7.63
	c0.5,2.55,1,5.08,1.49,7.61l0.7,3.8l0.5,3.81l1.91,13.37c0.59,4.47,0.85,8.97,1.26,13.46l0.55,6.74c0.15,2.25,0.16,4.5,0.24,6.76
	c0.12,4.51,0.26,9.02,0.31,13.53c-0.3,9.01-0.31,18.05-1.27,27.02l-0.59,6.74l-0.3,3.37l-0.45,3.35l-1.89,13.39
	c-5.91,35.56-17.06,70.18-33.09,102.15l-2.95,6.02l-3.23,5.87c-2.18,3.9-4.28,7.83-6.53,11.68c-4.73,7.56-9.24,15.23-14.46,22.44
	l-3.79,5.47l-1.91,2.72l-2.03,2.64l-8.1,10.54c-2.73,3.48-5.7,6.78-8.52,10.17l-4.29,5.05c-1.46,1.65-3.01,3.23-4.51,4.85
	l-9.05,9.63l-9.48,9.18c-1.6,1.51-3.1,3.1-4.77,4.53l-4.94,4.35c-3.33,2.86-6.51,5.87-9.93,8.6c-6.86,5.45-13.58,11.03-20.76,16
	l-5.29,3.84l-2.65,1.91l-2.74,1.79l-10.92,7.15c-1.69,1.43-3.48,2.71-5.27,4c-1.79,1.3-3.59,2.6-5.39,3.9
	c5.14,0.56,10.24,1.11,15.03,1.63c24.87-16.06,48.19-34.89,69.33-56.11c5.44-5.17,10.31-10.86,15.44-16.35
	c2.6-2.71,4.92-5.66,7.35-8.53l7.23-8.66l6.84-8.98c2.24-3.02,4.65-5.93,6.72-9.08l6.42-9.3c1.05-1.56,2.18-3.08,3.18-4.68l3-4.8
	c16.11-25.5,29.69-52.75,40.09-81.21C707.54,667.5,714.93,637.92,719.19,607.91"/>
<path class="st0" d="M942.91,2153.19c2.14,11.39,8.24,20.37,16.93,27.77c2.53-0.78,5.34-0.52,7.68-2.01
	c4.51-4.2,0.86-8.19-1.2-11.21c-3.17-4.65-4.67-9.5-5.12-14.9c-4.96-6.33-6.26-15.39-14.4-19.35c-3.88,1.69-3.23,5.31-3.62,8.48
	c-0.05,3.21,0.04,6.43-0.13,9.64C943.01,2152.13,942.96,2152.66,942.91,2153.19z"/>
<path class="st0" d="M1141.03,1679.4c-0.82,0.72,4.81,3.85,3.99,4.57c-0.69,0.84-1.39,1.68-2.08,2.52
	c-0.97,3.99,0.92,7.25,2.65,10.55c2.7,1,5.45,0.86,8.21,0.34c1.57-1.51,4.19-2.36,4.7-4.54c-0.79-2.85-1.35-2.03-2.12-6.17
	C1152.75,1683.82,1146.61,1679.9,1141.03,1679.4z"/>
<path class="st0" d="M697.62,1618.67c0.14,6.92-3.61,11.52-9.12,14.95c-2.38,1.48-5.13,2.09-7.71,0.64
	c-2.62-1.48-1.6-3.93-1.15-6.19c0.24-1.2-0.41-2.17-1.51-2.78c-2.26,4.07-4.65,8.13-5.43,12.77c-0.45,2.67,0.59,4.71,3.87,3.64
	c5.16-1.69,10.44-3.17,15.34-5.45C700.5,1632.25,701.47,1628.69,697.62,1618.67z"/>
<path class="st0" d="M1148.58,2077.55c1.27,16.01,5.99,21.25,21.15,23.51c2.45-1.46,4.92-2.88,7.3-4.47
	c0.75-0.08,1.5-0.13,2.25-0.16c0.85-0.74,1.63-1.55,2.44-2.33l0.01-0.02c7.92-12.24,8.14-18.74,0.89-26.37
	c-8.55-9-19.12-8.76-27.94,0C1151.72,2070.64,1151.74,2075,1148.58,2077.55z"/>
<path class="st0" d="M517.56,2052.04c-4.04,7.28-9.4,13.88-11.38,22.21c0.62,0.53,0.83,1.06,0.62,1.59
	c-0.21,0.53-0.42,0.79-0.63,0.79c0.21,3.4-0.43,6.54-2.81,9.14c0.2,2.6,0.2,5.21-0.04,7.81c1.94,4.33,7.15,5.16,9.59,8.95
	c2.36,1.63,4.17,0.26,6.01-1.06c1.55-1.64,2.77-3.42,2.25-5.85c-1.33-5.43-3.75-10.8-1.07-16.5c-0.6-6.58,0.57-12.9,2.76-19.07
	C522.24,2056.63,521.07,2053.56,517.56,2052.04z"/>
<path class="st0" d="M467.94,2023.66c1.26-0.1,2.53-0.19,3.79-0.29c1.06-0.45,2.12-0.56,3.31-0.52c12.03,0.32,12.03,0.29,8.95-11.88
	l0.15,0.22c-1.47-0.52-2.31-1.56-2.56-3.09c-0.19-1.16-0.94-1.63-2.04-1.66c-0.93-0.69-1.63-1.72-2.53-2.35
	c-2.88-2.03-3.21-8.5-8.09-6.34"/>
<path class="st0" d="M604.58,2162.61c-0.76,1.41-1.52,2.81-2.27,4.22c0.71,0.82,1.5,1.57,2.37,2.23l0.75,0.5l0.9,0
	c4.85,1.74,10.04-0.18,14.91,1.37c7.15,0.04,11.82-4.71,16.95-8.67c3.44-2.65,3.36-5.95,1.96-9.32c-1.28-3.08-3.67-4.92-7.37-4.07
	c-3.76,0.87-7.79-0.08-11.41,1.69c-0.61,1.63-0.43,3.59,0.89,4.3c7.71,4.13,2.39,5.2-1.44,6.64c-2.33,0.69-4.61,1.58-7.05,1.81
	c-3.2,0.23-3.06-5.5-6.98-3.93l-0.05-0.12C606.28,2160.55,604.44,2160.95,604.58,2162.61z"/>
<path class="st0" d="M667.76,2189.25c-8.47-0.89-8.4-0.85-7.16-10.35c0.27-2.08-1.79-2.15-3.26-2.52
	c-3.39,3.75-10.31,5.83-7.11,12.86"/>
<path class="st0" d="M621.22,2164.38c5.35-0.89,7.79-5.32,11.44-9.53c-5.37,1.66-9.12,0.41-11.31-4.29
	c-6.1,0.9-10.48,4.63-14.59,8.81c0.66,0.82,2.02,1.79,1.88,2.42c-1.18,5.33,2.14,5.13,5.63,4.84
	C616.04,2164.2,617.2,2159.87,621.22,2164.38z"/>
<path class="st0" d="M527.36,2124.15c-0.26,2.02,1.07,3.95,3.34,3.94c1.61-0.01,2.54-1.5,2.8-3.22c0.7-4.59-0.46-9.39,1.67-13.84
	c0.76-1.59-0.06-3.1-1.26-4.17c-1.35-1.21-2.41-3.46-4.7-2.53"/>
<path class="st0" d="M549.69,2067.68c-0.48,4.22,0.48,7.83,4.96,9.18c3,0.91,5.31-0.95,6.7-3.36c2.42-4.19,2.21-8.09-2.34-10.92
	C554.1,2060.99,548.77,2058.62,549.69,2067.68z"/>
<path class="st0" d="M617.88,2097.57c-6.57-6.64-11.66-8.1-17.36-6.72c-2.23,0.54-4.44,2.15-3.77,5.11
	c0.57,2.53,2.23,4.23,5.01,4.12C606.54,2099.9,610.61,2096.86,617.88,2097.57z"/>
<path class="st0" d="M547.23,2090.62c-1.66,1.71-3.34,3.81-1.68,5.99c1.39,1.82,3.62,0.42,5.2-0.51c3.62-2.14,7.54-4.05,10.53-6.9
	c2.68-2.56,3.74-6.12-1.72-7.48c-2.05,1.7-5.11,0-7.06,2.07l-0.01,0.01C556.26,2090.32,547.57,2087.25,547.23,2090.62z"/>
<path class="st0" d="M531.65,2095.64c8.78-2.93,11.01-8.94,8.09-17.58C531.82,2081.65,533.91,2089.54,531.65,2095.64z"/>
<path class="st0" d="M578.65,2129.83c0.16-3.8-1.54-6.66-4.53-8.82c-1.09-0.79-2.3-0.42-3.05,0.45c-3.12,3.6-1.44,7.15,0.25,10.7
	c1.03,2.15,2.16,4.39,5.02,3.54C579.32,2134.82,578.28,2131.96,578.65,2129.83z"/>
<path class="st0" d="M484,2040.63c0,2.73,0,5.46,0,8.71c-3.06,3.37-9.23-1.16-12.26,3.69c0.32,0.22,0.6,0.51,0.95,0.63
	c4.96,1.77,10.52,5.19,14.75-0.01C491.47,2048.72,485.57,2044.92,484,2040.63z"/>
<path class="st0" d="M547.22,2123.22c0.54,3.49,1.66,6.59,5.31,8.01c1.98-1.88,2.07-4.47,2.58-6.9c0.84-4.4,2.89-9.64-5.37-7.66
	C548.68,2118.77,547.11,2120.67,547.22,2123.22z"/>
<path class="st0" d="M549.75,2116.68c5.7-0.19,4.86,4.21,5.37,7.66c2.44-2.39,1.26-6.27,3.26-8.59c1.77-2.06,3.02-3.42,0.46-5.62
	c-2.3-1.98-4.25-1.16-6.23,0.45C550.66,2112.16,549.65,2114.15,549.75,2116.68z"/>
<path class="st0" d="M552.73,2135.48c-3.96,5.59-4.43,11.1,0.34,16.51c0.83,0.82,1.64,0.81,2.44-0.04
	C556.29,2146.17,552.32,2141.2,552.73,2135.48z"/>
<path class="st0" d="M611.87,2107.46c-0.81,0.01-1.63,0.03-2.44,0.04c-0.8,1.58-1.6,3.15-2.41,4.73c3.15-0.82,6.3-1.64,9.45-2.46
	c2.49-0.45,5.29,0.19,7.25-2.08C619.79,2106.59,615.83,2107.01,611.87,2107.46z"/>
<path class="st0" d="M502.24,2061.75c0.67-6.17,5.54-4.62,9.32-5.09c-1.15-1.91-3.03-1.82-4.94-1.96
	C499.6,2054.18,499.61,2054.13,502.24,2061.75z"/>
<path class="st0" d="M547.23,2090.62c1.52-0.24,3.06-0.39,4.56-0.75c5.63-1.37,2.68-3.79,0.71-6.08
	C549.01,2084.73,547.86,2087.48,547.23,2090.62z"/>
<path class="st0" d="M562.64,2135.11c3.72-2.59,3.6-5.19,0.04-7.81C557.67,2129.88,558.91,2132.49,562.64,2135.11z"/>
<path class="st0" d="M533.19,2133.02c0.31,1.56,0.74,3.23,2.35,3.75c1.19,0.39,2.27-0.52,2.31-1.87c0.05-1.71-1-3.04-2.45-3.63
	C534.22,2130.8,533.24,2131.55,533.19,2133.02z"/>
<path class="st0" d="M621.24,2170.93c-4.72-3.24-9.86-1.76-14.91-1.37C611.11,2172,616.15,2171.75,621.24,2170.93z"/>
<path class="st0" d="M580.98,2139.9c0.31,1.1,0.28,2.92,2.48,2.54c1.17-0.2,2.04-1.11,1.92-2.33c-0.17-1.59-1.12-2.92-2.83-2.89
	C581.37,2137.24,580.94,2138.45,580.98,2139.9z"/>
<path class="st0" d="M582.7,2081.21c0.77,1.03,1.75,1.69,2.9,0.77c0.5-0.4,1.02-1.54,0.8-1.93c-0.64-1.11-1.83-1.28-3.04-0.77
	C582.45,2079.67,582.23,2080.33,582.7,2081.21z"/>
<path class="st0" d="M552.5,2083.78c2.6,0.16,5.26,0.51,7.06-2.07C556.99,2081.68,554.38,2081.49,552.5,2083.78z"/>
<path class="st0" d="M592.36,2164.18c2.06,0.38,3.85,0.01,5.14-1.8C595.39,2161.84,593.75,2162.67,592.36,2164.18z"/>
<path class="st0" d="M571.98,2095.47c0.13,0.28,0.2,0.77,0.4,0.82c0.72,0.19,1.08-0.27,0.87-1.15c-0.05-0.2-0.56-0.48-0.73-0.42
	C572.27,2094.82,572.15,2095.21,571.98,2095.47z"/>
<path class="st0" d="M604.58,2162.61c1.19-0.81,2.11-1.81,2.13-3.36c-1.64,0.82-3.28,1.64-4.91,2.46
	C602.72,2162.01,603.65,2162.31,604.58,2162.61z"/>
<path class="st0" d="M591.34,2087.88c-0.12,0.3-0.41,0.65-0.34,0.91c0.25,0.99,0.79,1.1,1.32,0.27c0.14-0.21,0-0.71-0.18-0.97
	C592.02,2087.92,591.61,2087.94,591.34,2087.88z"/>
<path class="st0" d="M540.9,2037.76c0.21,1.56,1.04,2.61,2.56,3.09C543.39,2039.18,542.43,2038.24,540.9,2037.76z"/>
<path class="st0" d="M604.67,2169.06c-0.79-0.74-1.58-1.49-2.37-2.23c-0.05,0.69-0.07,1.38-0.09,2.08
	C603.03,2168.96,603.85,2169.01,604.67,2169.06z"/>
<path class="st0" d="M535.83,2147.82c1.79-0.79,1.66-1.58,0.01-2.39C535.84,2146.23,535.83,2147.02,535.83,2147.82z"/>
<path class="st0" d="M579.37,2152.98c1.62-0.44,2.32-1.49,1.67-2.47c-0.48-0.73-1.84-1.19-2.82-1.2c-1.15-0.01-2.15,0.91-1.28,2.13
	C577.51,2152.22,578.69,2152.57,579.37,2152.98z"/>
<path class="st0" d="M621.22,2164.38c0.61-1.7,2.52-3.46,1.38-5.13c-1.72-2.53-2.91,0.56-4.4,0.89c-3.84,0.85-4.5,3.2-3.94,6.5
	C616.59,2165.89,618.91,2165.13,621.22,2164.38z"/>
<path class="st0" d="M725.35,1549.9c10.52-5.5,19.18-9.77,29.51-6.17c2.06,0.72,5.19,0.86,4.4,4.26c-0.51,2.18-2.65,2.87-4.72,2.62
	C745.64,1549.53,736.77,1555.06,725.35,1549.9"/>
<path class="st0" d="M869.08,1644.96c0.7-4.29,4.2-8.07,0.33-13.04c-2.83-3.63,0.32-7.35,5.32-8.12c5.66-0.88,4.81,9.17,11.3,6.36
	c0.45,1.69-0.22,3.11-1.32,4.23c-3.23,3.28-6.57,6.46-9.86,9.68C872.78,1643.43,871.24,1646.16,869.08,1644.96z"/>
<path class="st0" d="M880.32,1610.97c4.53-2.08,6.18-6.42,7.39-10.89c4.44,1.73,5.75,5.26,8,7.84c1.36,1.57,1.86,3.54,0.51,5.4
	c-1.3,1.79-3.24,2.13-5.27,1.52c-2.61-0.79-5.17-2.26-7.74,0.06c-1.49,1.73-2.67,1.79-3.4-0.62l0,0.01
	C880.02,1613.19,880.2,1612.09,880.32,1610.97z"/>
<path class="st0" d="M830.93,1558.87c0.87,5,6.11,7.02,7.78,11.42c0.34,0.9-0.03,2.32-0.54,3.24c-0.56,1-1.81,1.43-2.95,0.78
	c-4.97-2.86-6.7-9.27-4.25-15.46L830.93,1558.87z"/>
<path class="st0" d="M889.25,1560.01c5.8-1.02,10.49-4.7,16.88-6.62C900.88,1561.6,898.26,1562.63,889.25,1560.01z"/>
<path class="st0" d="M772.13,1540.59c2.87,0.7,5.8,1.24,8.57,2.22c0.63,0.22,1.21,2.09,0.94,2.93c-0.24,0.78-1.63,1.67-2.54,1.69
	C775.15,1547.56,773.55,1544.23,772.13,1540.59z"/>
<path class="st0" d="M790.56,1549.99c-0.96-1.75,0.04-2.85,1.34-3.72c1.77-1.18,3.92-1.21,5.1,0.4c1.17,1.6,0.81,3.76-1.41,4.63
	C793.73,1552.03,791.9,1551.69,790.56,1549.99z"/>
<path class="st0" d="M809.08,1547c1.01-0.35,1.38-0.62,1.73-0.58c2.23,0.24,4.71,0.06,5.96,2.48c0.2,0.39-0.31,1.64-0.74,1.79
	c-2.47,0.88-4.25-0.76-6.11-1.97C809.66,1548.56,809.6,1548.1,809.08,1547z"/>
<path class="st0" d="M830.98,1558.85c-0.33-0.19-0.7-0.33-0.97-0.57c-1.72-1.55-5.93,0.18-5.47-4.12c0.05-0.44,1.21-1.24,1.51-1.1
	c2.51,1.15,6.4,1.26,4.89,5.81L830.98,1558.85z"/>
<path class="st0" d="M865.27,1588.97c-0.66-1.05-0.68-2.65,0.48-3.86c0.85-0.88,2.3-0.77,3.13,0.21c1.18,1.38,0.79,2.99-0.31,4.19
	C867.73,1590.44,866.52,1590.46,865.27,1588.97z"/>
<path class="st0" d="M845.87,1576.04c0.04,0.63,0.55,2.03,0.07,2.61c-1.25,1.52-2.63,0.67-3.59-0.62c-0.73-0.99-0.66-2.16,0.34-2.92
	C843.72,1574.35,844.77,1574.66,845.87,1576.04z"/>
<path class="st0" d="M879.8,1614.28c1.13,0.21,2.27,0.41,3.4,0.62c0.21,1.77,0.52,4.49-1.46,4.4
	C879.05,1619.19,878.97,1616.57,879.8,1614.28z"/>
<path class="st0" d="M882.26,1593.12c0.63,0.15,1.55,0.09,1.83,0.49c0.76,1.08,0.28,2.09-0.95,2.34c-0.48,0.1-1.43-0.55-1.62-1.06
	C881.36,1594.45,881.98,1593.72,882.26,1593.12z"/>
<path class="st0" d="M856.89,1584.13c-0.14,0.6-0.09,1.48-0.46,1.74c-1.03,0.71-2.02,0.27-2.27-0.9c-0.1-0.45,0.54-1.37,1.03-1.54
	C855.62,1583.28,856.31,1583.87,856.89,1584.13z"/>
<path class="st0" d="M857.29,1599.44c0.62,0.07,1.51-0.08,1.81,0.27c0.85,1,0.48,2.04-0.71,2.42c-0.43,0.14-1.39-0.45-1.63-0.94
	C856.56,1600.78,857.08,1600.03,857.29,1599.44z"/>
<path class="st0" d="M771.14,1547.02c-0.29,0.83-0.33,1.75-0.72,1.93c-1.33,0.64-2.78,0.73-3.58-0.84
	c-0.13-0.25,0.69-1.39,1.15-1.44C768.99,1546.56,770.04,1546.88,771.14,1547.02z"/>
<path class="st0" d="M893.54,1630.85c-0.14,0.62-0.08,1.52-0.47,1.8c-1.06,0.76-2.04,0.26-2.27-0.93c-0.09-0.48,0.53-1.4,1.03-1.59
	C892.25,1629.97,892.96,1630.58,893.54,1630.85z"/>
<path class="st0" d="M747.53,1558.1c-0.21,0.61-0.24,1.52-0.66,1.76c-1.09,0.62-2.07,0.11-2.21-1.12c-0.06-0.5,0.63-1.43,1.12-1.54
	C746.27,1557.1,746.94,1557.77,747.53,1558.1z"/>
<path class="st0" d="M757.86,1555.95c0.73,0.35,1.9,0.62,2.66,1.33c1.1,1.02,0.32,2.09-0.79,2.25c-0.98,0.14-2.07-0.42-3.11-0.68
	C756.89,1558.24,757.15,1557.63,757.86,1555.95z"/>
<path class="st0" d="M809.53,1560.25c-0.07,0.59,0.08,1.45-0.25,1.73c-1,0.84-2.03,0.46-2.47-0.67c-0.15-0.37,0.42-1.39,0.84-1.53
	C808.17,1559.61,808.89,1560.06,809.53,1560.25z"/>
<path class="st0" d="M869.08,1644.96c1.85-0.78,3.63-1.98,5.77-0.91c-1.03,0.96-1.94,2.13-3.12,2.85
	C869.56,1648.23,868.46,1647.66,869.08,1644.96z"/>
<path class="st0" d="M819.38,1555.95c-0.2,0.25-0.46,0.73-0.58,0.69c-0.32-0.09-0.59-0.4-0.87-0.62c0.2-0.25,0.46-0.73,0.58-0.69
	C818.83,1555.42,819.09,1555.72,819.38,1555.95z"/>
<path class="st0" d="M874.51,1593.61c-0.18,0.28-0.3,0.72-0.55,0.82c-0.97,0.38-1.38,0.01-1.01-0.92c0.1-0.24,0.59-0.42,0.91-0.43
	C874.07,1593.07,874.29,1593.42,874.51,1593.61z"/>
<path class="st0" d="M880.32,1610.97c-0.17,1.11-0.35,2.21-0.52,3.32C879.31,1613.08,879.51,1611.98,880.32,1610.97z"/>
<path class="st0" d="M1122.64,2205.33c-0.04-11.66,0.99-23.33-2.23-34.86c-1.67-5.96-4.86-10.46-9.1-14.69
	c-2.4-2.4-4.66-4.28-8.11-3.18c-3.8,1.21-5.92,4.64-6.01,8c-0.19,7.4-0.84,15.7,4.15,21.51c7.2,8.37,10.81,17.68,11.89,28.33
	C1114.42,2205.13,1121.92,2211.48,1122.64,2205.33z"/>
<path class="st0" d="M1083.29,2220.58c0.34-2-0.91-4.51-2.32-6.89c-2.6-4.41-9.02-7.64-11.68-6.02c-2.9,1.77-2.92,7.77,0.03,12.89
	c0.98,1.71,2.01,3.41,3.21,4.97c1.89,2.46,3.8,6.02,7.43,4.41C1083.13,2228.54,1082.76,2224.62,1083.29,2220.58z"/>
<path class="st0" d="M1104.85,1892.27c-0.18-5.78-4.69-9.71-11.03-9.61c-3.96,0.07-7.5,3.9-7.19,7.78
	c0.38,4.78,5.54,8.89,10.91,8.69C1103.19,1898.93,1105.01,1897.22,1104.85,1892.27z"/>
<path class="st0" d="M1170.59,1995.83c-0.38,4.74,3.68,8.98,8.76,9.74c3.23,0.48,5.35-0.57,5.55-4.1c0.26-4.62-3.68-9.85-7.82-10.19
	C1173.51,1990.98,1171.21,1992.69,1170.59,1995.83z"/>
<path class="st0" d="M1122.64,2205.33c-1.41,0.55-3.5,1.98-4.14,1.5c-5.77-4.36-4.85,0.52-5.28,3.61c0.35,4.63,3.48,5.94,7.05,4.49
	C1124.78,2213.1,1124.07,2209.09,1122.64,2205.33z"/>
<path class="st0" d="M1133.86,2175.09c0.92-13.44,4.13-26.19-9.67-35.74c-3.15,6.99-6.13,12.5-0.2,19.31
	C1127.86,2163.09,1129.16,2169.51,1133.86,2175.09z"/>
<path id="XMLID_1_" class="st0" d="M1169.05,1911.76c-6.57,57.39-24.45,112.85-51.97,163.15c-27.58,50.3-64.45,95.62-109.04,134.03
	c6.1-0.18,12.22-0.62,18.48-1.58c1.08-0.65,2.17-1.28,3.24-1.95l3.12-2.1c2.07-1.43,4.15-2.85,6.24-4.28
	c19.5-20.65,36.75-42.87,52.39-65.62c15.65-22.77,29.73-46.05,43.35-69.47c2.49-4.19,4.47-8.61,6.59-12.96
	c2.06-4.37,4.17-8.72,5.85-13.22c1.76-4.46,3.47-8.94,5.13-13.41c1.51-4.52,2.89-9.07,4.27-13.59c0.67-2.27,1.4-4.51,1.99-6.79
	c0.56-2.28,1.12-4.57,1.68-6.84c1.06-4.56,2.26-9.06,3.12-13.61c1.67-9.12,3.44-18.09,4.46-27.08c0.3-2.24,0.6-4.47,0.9-6.69
	l0.45-3.33l0.3-3.34c0.42-4.43,0.84-8.84,1.26-13.21l0.32-3.27l0.19-3.27c0.14-2.17,0.27-4.34,0.41-6.5
	c0.15-2.16,0.31-4.3,0.46-6.45l0.25-3.2l0.12-3.2c0.29-8.51,1-16.87,1.19-25.13c0.17-4.13,0.46-8.23,0.71-12.3
	c0.13-4.07,0.34-8.11,0.62-12.13l0.35-6.32c0.13-2.11,0.11-4.2,0.19-6.31c0.11-4.21,0.26-8.42,0.46-12.64
	c0.19-8.49,0.39-16.9,0.57-25.16c-0.01-4.15,0.01-8.3,0.07-12.45c0.07-4.15,0.2-8.28,0.09-12.34c-0.04-4.07-0.04-8.14,0-12.18
	c0-2.01,0.09-4.05,0.04-6.04c-0.03-2-0.07-3.98-0.1-5.94c-1.73-4.99-3.39-9.99-5.16-14.92c-1.91-4.88-3.82-9.76-5.72-14.62
	c-13.79-32.48-31.69-62.85-52.62-90.9c-10.34-14.13-21.91-27.28-33.77-40.06c-3.04-3.13-6.17-6.18-9.25-9.26
	c-3.12-3.05-6.12-6.21-9.41-9.07c-6.48-5.83-12.84-11.78-19.68-17.17c-3.38-2.74-6.69-5.55-10.13-8.21l-10.46-7.78l-5.23-3.88
	l-5.4-3.64l-10.81-7.25c-3.65-2.34-7.4-4.53-11.09-6.79c-3.72-2.22-7.37-4.56-11.21-6.56c-7.61-4.13-15.16-8.37-23.02-12
	c-15.47-7.76-31.59-14.05-47.79-20c-16.38-5.44-32.88-10.52-49.76-14.08c-29.89-3.66-60.31-5.21-90.95-4.24
	c-30.64,1.09-61.45,4.78-91.89,11.26c-30.44,6.47-60.49,15.77-89.47,27.89c-28.92,12.15-56.77,27.15-82.91,44.75
	c23.47-17.99,48.66-33.68,75.14-46.93c26.49-13.26,54.36-24.07,83.17-32.14c-32.17,7.49-63.53,18.52-93.36,32.75
	c-29.82,14.22-58.33,31.63-84.56,52.29c-22.54,18.23-42.35,39.17-59.2,61.91c-16.85,22.74-30.74,47.27-41.68,72.84
	c0.73,3.57,1.22,7.43,1.38,11.63c0.1,2.11,0.05,4.28,0.03,6.59c-0.01,2.32-0.1,4.73-0.3,7.25c-0.2,2.52-0.49,5.13-0.9,7.87
	c-0.45,2.7-0.92,5.56-1.42,8.59c-0.52,3.01-1.16,6.15-1.92,9.42c-0.75,3.28-1.71,6.66-2.53,10.29
	c-5.86,22.33-10.75,44.59-13.25,67.25c-2.5,22.62-2.56,45.68,1.74,68.57c0,6.28-7.42,5.13-7.29,17.99
	c-0.19-4.48-0.09-8.86-0.28-13.14c-0.1-4.28-0.46-8.47-0.47-12.57c-0.16-8.21-0.88-16.1-1.15-23.71c-0.22-3.81-0.5-7.56-0.85-11.25
	c-0.28-3.69-0.46-7.31-0.8-10.89c-0.31-3.58-0.68-7.12-1.09-10.62c-0.27-3.48-0.59-6.92-0.96-10.32c-0.29,4.1-0.74,8.16-0.89,12.27
	c-0.13,4.1-0.27,8.2-0.41,12.31l-0.18,6.15l0.09,6.17c0.06,4.1,0.12,8.21,0.18,12.33c0.14,4.11,0.47,8.24,0.7,12.35
	c0.29,4.12,0.39,8.23,0.92,12.35c0.92,8.23,1.59,16.47,3.01,24.68c3.1,30.63,7.11,58.67,12.67,86.13
	c5.61,27.41,12.81,54.27,23.4,81.41l2.3,4.08c0.78,1.35,1.64,2.66,2.46,3.99c1.65,2.65,3.29,5.31,4.94,7.97
	c16.49,26.37,38.44,49.74,63,69.22c-4.14-4.68-8.06-9.61-12.16-14.49c-2.08-2.41-3.97-5.02-5.92-7.61c-1.94-2.6-3.9-5.21-5.88-7.86
	c15.42,13.57,32.23,32.56,45.89,46.06c-7.61-4.94-14.67-10.59-21.93-16.1c19.95,22.44,41.33,42.05,67.32,60.92
	c-15.9-11.22-31.56-23.12-46.58-34.94c-3.74-3-7.44-5.96-11.1-8.89c-3.58-3.05-7.11-6.07-10.58-9.04c-1.75-1.49-3.49-2.96-5.21-4.42
	c-1.67-1.52-3.32-3.03-4.95-4.52c-3.29-3-6.51-5.94-9.65-8.81c3.04,3.41,6.06,6.8,9.07,10.17c1.53,1.66,2.97,3.39,4.56,4.99
	c1.58,1.6,3.16,3.19,4.74,4.78c3.16,3.17,6.28,6.35,9.47,9.44c3.29,2.99,6.56,5.96,9.82,8.93l4.9,4.43l5.08,4.2
	c3.38,2.79,6.75,5.57,10.11,8.35c3.48,2.63,6.94,5.26,10.41,7.89c3.46,2.63,6.9,5.28,10.52,7.68c28.39,19.98,58.25,37.4,90.75,53.29
	c-1.87-0.26-3.76-0.52-5.6-0.78c24.7,7.37,49.98,12.04,75.34,14.2c25.37,2.12,50.83,1.72,76.01-0.95
	c50.41-5.35,99.59-19.73,146.32-41.78c2.83-1.35,5.49-2.65,7.87-4.2c2.37-1.56,4.53-3.17,6.5-4.79c3.91-3.3,7.13-6.51,9.49-10.04
	c4.76-7.01,6.8-13.81,7.12-19.64c0.28-5.78-0.92-10.85-2.99-13.94c-1.02-1.56-2.23-2.67-3.53-3.22c-1.3-0.55-2.55-0.66-3.81-0.06
	c-41.71,25.08-89.02,40.3-137.25,44.61c-48.24,4.39-97.25-2.02-142.68-18.03c-45.45-16.04-87.2-41.7-122.07-74.49
	c-34.92-32.77-62.88-72.73-82.36-116.67c3.98,21.87,10.22,43.95,19.18,65.77c2.38,4.42,4.59,8.86,6.59,13.35
	c2.15,4.38,4.16,8.75,5.87,13.24c-2.26-4.44-4.53-8.79-6.63-13.21c-1.95-4.48-3.89-8.94-5.82-13.39c-1.67-2.95-3.13-6.09-4.73-9.16
	c-1.59-3.08-3.24-6.17-4.93-9.25c-1.66-3.1-3.13-6.35-4.75-9.53c-1.57-3.21-3.25-6.38-4.76-9.65c-1.43-3.31-2.87-6.63-4.31-9.96
	c-1.42-3.33-2.89-6.65-4-10.12c-2.34-6.9-4.76-13.73-6.14-20.88c0.12-1.48-0.13-3.59-0.73-5.98c-0.58-2.4-1.6-5.05-2.63-7.74
	c-2.19-5.35-5.61-10.5-10.07-12.78c-2.7-19.81-7.16-40.79-9.61-62.22c-2.5-21.36-2.93-43.12,1.12-62.39
	c0.26-2.32,2.7-6.08,5.57-10.32c1.55-24.32,5.44-48.63,11.62-72.57c4.55-16.66,10.23-32.95,16.98-48.77
	c7.02-15.68,15.01-30.87,24.06-45.37c2.31-3.59,4.75-7.09,7.11-10.64c1.21-1.76,2.34-3.57,3.61-5.28l3.83-5.11l3.83-5.1
	c1.27-1.71,2.54-3.42,3.94-5.02c2.72-3.26,5.45-6.52,8.17-9.77c1.32-1.66,2.8-3.18,4.24-4.74l4.33-4.66l4.32-4.65
	c1.45-1.54,3.02-2.96,4.53-4.45c3.04-2.93,6.08-5.87,9.12-8.8c3.18-2.77,6.37-5.53,9.55-8.3c51.45-43.53,115.23-71.07,179.94-77.91
	c-3.96,0.06-7.91,0.12-11.84,0.18c-3.93,0.15-7.84,0.46-11.76,0.65c-7.88,0.26-15.56,1.32-23.34,1.93c-3.87,0.34-7.65,1-11.49,1.45
	c-1.92,0.24-3.83,0.49-5.73,0.73c-1.91,0.22-3.82,0.46-5.68,0.81c-3.78,0.61-7.53,1.23-11.25,1.83c-1.87,0.3-3.76,0.55-5.61,0.89
	c-1.84,0.36-3.68,0.72-5.5,1.08c-10.16,1.38-22.41,5.59-35.6,12.23c-3.27,1.7-6.63,3.51-10.05,5.41c-0.86,0.48-1.72,0.96-2.58,1.44
	c-0.84,0.53-1.68,1.07-2.53,1.6c-1.69,1.09-3.4,2.2-5.12,3.31c-1.72,1.13-3.45,2.28-5.2,3.44c-1.75,1.16-3.53,2.32-5.21,3.65
	c-3.4,2.6-6.86,5.25-10.37,7.93c-0.87,0.68-1.75,1.35-2.62,2.03c-0.84,0.72-1.69,1.45-2.54,2.18c-1.68,1.47-3.38,2.95-5.09,4.43
	c-3.39,2.99-6.89,5.92-10.11,9.22c-3.27,3.22-6.57,6.46-9.88,9.71c-3.13,3.42-6.28,6.85-9.43,10.3c-3.21,3.36-6.09,7.04-9.07,10.6
	c-2.96,3.58-5.99,7.07-8.69,10.81c-2.78,3.66-5.54,7.3-8.28,10.91c-2.59,3.72-5.16,7.4-7.7,11.04c-2.42,3.78-4.68,7.09-7.22,9.92
	c-2.5,2.86-5.23,5.3-7.88,7.8c-2.6,2.54-5.26,5.06-7.9,7.88c-1.32,1.41-2.63,2.89-3.92,4.49c-1.24,1.63-2.4,3.41-3.54,5.32
	c0.41-2.03,0.87-4.07,1.37-6.11c0.58-2,1.2-4,1.86-6c1.33-4.01,2.79-8.04,4.43-12.07c1.79-3.92,3.71-7.86,5.76-11.8
	c1.04-1.95,2.03-3.98,3.2-5.88c1.19-1.9,2.38-3.8,3.59-5.71c1.24-1.89,2.49-3.8,3.74-5.71c1.26-1.91,2.55-3.81,3.99-5.61
	c2.81-3.65,5.7-7.3,8.66-10.93c2.97-3.62,6.28-6.98,9.5-10.47c1.64-1.71,3.27-3.43,4.91-5.16c1.74-1.63,3.48-3.26,5.22-4.9
	c1.76-1.62,3.51-3.25,5.28-4.87c1.77-1.62,3.51-3.28,5.4-4.77c3.72-3.04,7.45-6.08,11.19-9.13c3.75-3.03,7.75-5.74,11.6-8.62
	l5.82-4.26l6.01-3.97c15.82-10.87,32.37-20.19,48.32-29.41c21.47-11.83,46.94-21.52,74.44-27.94c27.5-6.47,56.96-9.66,86.47-9.76
	c29.55,0.08,59.07,3.26,87.39,8.3c28.37,4.95,55.43,12.18,81.06,19.35c21.25,5.81,40.15,16.47,55.7,29.44
	c4.01,3.06,7.57,6.64,11.15,10c1.75,1.72,3.49,3.43,5.22,5.12c1.68,1.74,3.26,3.58,4.84,5.37c3.13,3.61,6.23,7.08,9.04,10.71
	c2.78,3.68,5.44,7.29,8.02,10.82c-12.27-5.03-30.25-19.5-39.9-26.2c-42.63-30.53-92.39-51.63-144.58-61.32
	c-26.09-4.8-52.8-6.86-79.43-5.54c-26.62,1.25-53.13,5.59-78.78,13c27.38-4.69,54.57-7.18,81.54-7.05
	c26.96,0.22,53.66,2.97,79.68,8.56c25.99,5.63,51.37,13.93,75.13,25.65c23.76,11.66,45.98,26.4,65.54,44.1
	c-3.2-2.17-6.36-4.38-9.5-6.62c-3.23-2.11-6.44-4.22-9.65-6.32l-4.78-3.22l-4.9-3.01c-3.26-2.04-6.5-4.07-9.75-6.1
	c-3.33-1.89-6.65-3.78-9.96-5.67l-4.97-2.86l-5.09-2.6c-3.4-1.74-6.79-3.47-10.18-5.21c-3.48-1.54-6.94-3.09-10.41-4.63l-5.21-2.28
	l-5.31-1.99c-3.55-1.29-7.1-2.57-10.64-3.85c-3.59-1.12-7.22-2.12-10.83-3.13l-5.42-1.47c-1.81-0.47-3.66-0.78-5.49-1.16
	c-3.66-0.72-7.32-1.39-10.98-2.01c-3.67-0.56-7.38-0.84-11.06-1.17c-7.34-0.77-14.77-0.54-22.08-0.21
	c4.55,2.45,9.24,4.66,13.93,6.84c39.2,8.84,76.1,24.85,108.44,46.38c11.66,3.38,23.21,7.37,34.37,12.32
	c3.19,1.32,6.39,2.71,9.61,4.14c3.21,1.45,6.25,3.2,9.4,4.86c1.56,0.86,3.13,1.72,4.7,2.59c1.58,0.86,3.14,1.76,4.63,2.76
	c3.03,1.95,6.06,3.95,9.1,5.99c3.09,1.99,5.96,4.27,8.88,6.55c2.91,2.29,5.86,4.58,8.73,6.99c2.76,2.53,5.54,5.07,8.33,7.63
	c1.38,1.3,2.77,2.59,4.17,3.9c1.31,1.38,2.62,2.77,3.94,4.15c2.61,2.81,5.23,5.62,7.86,8.45c2.5,2.95,4.93,5.98,7.38,9.01
	c1.22,1.52,2.45,3.04,3.67,4.57c1.22,1.53,2.3,3.17,3.45,4.76c2.26,3.22,4.53,6.45,6.8,9.69c8.54,13.33,16.62,27.27,23.1,42.12
	c13.57,29.42,22.12,61.37,27.13,93.52c0.92,8.1,2.26,16.13,2.75,24.26l0.53,6.07c0.2,2.02,0.37,4.04,0.42,6.07l0.57,12.15
	c0.15,2.02,0.11,4.05,0.13,6.06l0.05,6.07l0.09,6.05c0.04,2.02-0.1,4.04-0.13,6.05c-0.09,4.03-0.18,8.06-0.26,12.08
	c-0.24,4.02-0.47,8.03-0.71,12.04c-0.15,1.31-0.19,2.72-0.15,4.21c0.01,1.49,0.01,3.07,0.12,4.72c0.2,3.32,0.65,6.96,1.21,10.88
	c0.6,3.92,0.93,8.06,1.45,12.42c0.22,2.19,0.45,4.41,0.68,6.67c0.2,2.26,0.22,4.52,0.29,6.83c4.91-20.78,8.57-41.86,10.28-63.23
	c1.7-21.35,1.47-43.01-1.51-64.47c-0.26,8.77-0.42,17.29-1.88,25.55c-0.68,4.12-1.23,8.15-2.28,12.11
	c-1.03,3.95-2.16,7.8-3.41,11.54c-0.59-19.74-0.09-37.67-0.63-55.92l-0.25-6.85l-0.15-3.44l-0.33-3.42
	c-0.45-4.57-0.95-9.18-1.55-13.85c-1.67-9.22-3.6-18.7-7.22-28.15c8.94,19.97,14.66,41.08,17.7,62.43
	c-0.07-26.26-5.59-53.84-13.43-80.74c1.65,3,3.35,5.98,4.67,9.09c1.32,3.1,2.56,6.23,3.7,9.37c2.45,6.24,3.94,12.73,5.41,19.16
	c2.81,12.91,3.94,25.99,4.68,38.98c0.29,3.23,0.26,6.51,0.37,9.75c0.09,3.25,0.21,6.5,0.36,9.74c0.16,6.49,0.18,13.01,0.65,19.53
	c0.08,6.54,0.58,13.11,1.2,19.79c0.23,3.34,0.56,6.7,1,10.1c0.49,3.42,0.99,6.86,1.49,10.32c0.6-11.55,1.19-23.15,1.78-34.62
	c-0.12,5.89,0.06,11.79-0.42,17.69l-0.52,8.83c-0.09,1.47-0.15,2.94-0.28,4.41l-0.47,4.39c-0.03-0.21-0.06-0.49-0.09-0.7
	c-0.31,4.42-0.54,8.84-0.73,13.26c-0.34,4.41-0.72,8.81-1,13.22c-0.17,2.2-0.21,4.42-0.45,6.6c-0.22,2.2-0.43,4.38-0.64,6.57
	c-0.19,2.19-0.39,4.38-0.58,6.56c-0.16,2.19-0.35,4.38-0.66,6.53c-0.5,4.35-1,8.68-1.5,12.97c-0.47,4.32-1.26,8.53-1.83,12.78
	c-0.3,2.12-0.61,4.24-0.91,6.34c-0.29,2.11-0.75,4.16-1.12,6.24c-0.76,4.16-1.52,8.27-2.26,12.33
	c10.07-29.59,18.89-58.15,24.57-87.7c5.44-29.48,7.55-59.97,3.31-91.13l-0.58-3.86l-0.77-3.83l-1.55-7.64
	c-0.53-2.54-1.02-5.08-1.6-7.61c-0.66-2.51-1.32-5.01-1.97-7.5c0.72,2.53,1.43,5.06,2.14,7.58c0.6,2.54,1.11,5.09,1.64,7.63
	c0.5,2.55,1,5.08,1.49,7.61l0.7,3.8l0.5,3.81l1.91,13.37c0.59,4.47,0.85,8.97,1.26,13.46l0.55,6.74c0.15,2.25,0.16,4.5,0.24,6.76
	c0.12,4.51,0.26,9.02,0.31,13.53c-0.3,9.01-0.31,18.05-1.27,27.02l-0.59,6.74l-0.3,3.37l-0.45,3.35l-1.89,13.39
	c-5.91,35.56-17.06,70.18-33.09,102.15l-2.95,6.02l-3.23,5.87c-2.18,3.9-4.28,7.83-6.53,11.68c-4.73,7.56-9.24,15.23-14.46,22.44
	l-3.79,5.47l-1.91,2.73l-2.03,2.64l-8.1,10.54c-2.73,3.48-5.7,6.78-8.52,10.17l-4.29,5.05c-1.46,1.65-3.01,3.23-4.51,4.85
	l-9.05,9.63l-9.48,9.18c-1.6,1.51-3.1,3.1-4.77,4.53l-4.94,4.35c-3.33,2.86-6.51,5.87-9.93,8.6c-6.86,5.45-13.58,11.03-20.76,16
	l-5.29,3.84l-2.65,1.91l-2.74,1.79l-10.92,7.15c-1.69,1.43-3.48,2.71-5.27,4c-1.79,1.3-3.59,2.6-5.39,3.9
	c5.14,0.56,10.24,1.11,15.03,1.63c24.87-16.06,48.19-34.89,69.33-56.11c5.44-5.17,10.31-10.86,15.44-16.35
	c2.6-2.71,4.92-5.66,7.35-8.53l7.23-8.66l6.84-8.98c2.24-3.02,4.65-5.93,6.72-9.08l6.42-9.3c1.05-1.56,2.18-3.08,3.18-4.68l3-4.8
	c16.11-25.5,29.69-52.75,40.09-81.21C1157.4,1971.36,1164.78,1941.78,1169.05,1911.76"/>
</svg>
