<?xml version="1.0" encoding="utf-8"?>
<!-- Generator: Adobe Illustrator 19.0.0, SVG Export Plug-In . SVG Version: 6.00 Build 0)  -->
<svg version="1.1" id="Laag_1" xmlns="http://www.w3.org/2000/svg" xmlns:xlink="http://www.w3.org/1999/xlink" x="0px" y="0px"
	 viewBox="0 0 840 280" style="enable-background:new 0 0 840 280;" xml:space="preserve">
<style type="text/css">
	.st0{fill:#577D6A;}
</style>
<g id="XMLID_31_">
	<path id="XMLID_53_" class="st0" d="M48,88.3c0.2,1.7-0.5,2.8-1.9,3.1c-4.2,0.9-8.6,0.6-13.3-0.8c-4.7-1.4-8.9-3.6-12.7-6.5
		c-1.8-0.9-3.4-2-4.9-3.4c-1.4-1.4-2.7-2.8-3.8-4.2c-3.1-4-5.4-8.4-6.9-13.3c-1.5-4.9-2.2-9.8-2-14.8c0.2-5,1.2-9.8,3-14.6
		c1.8-4.8,4.5-9.1,8.1-12.9c4.2-4.5,8.8-7.9,14-10.2s10.2-3.2,15-2.7c4.9,0.5,9.4,2.3,13.5,5.7s7.3,8.3,9.5,14.8
		c3.1,8.9,4.8,18.4,5.3,28.7c0.5,10.3,0.5,20.8,0.3,31.6c-0.3,10.7-0.4,21.4-0.3,31.8s1.2,20.3,3.4,29.5c1.3,5.4,2.8,7.7,4.6,6.9
		c1.8-0.8,3.8-3.7,6-8.5c2.2-4.9,4.4-11.4,6.8-19.5c2.3-8.1,4.7-16.8,7-26s4.6-18.6,6.6-28c2.1-9.5,4-18.1,5.7-25.9
		c1.7-7.8,3.1-14.1,4.2-19.1s1.7-7.6,1.9-8c1.6-1.6,3.9-2.3,6.8-2c2.9,0.3,5,0.9,6.2,2c0.2,6.1-0.1,13.2-0.8,21.1
		c-0.7,7.9-1.5,16.3-2.4,25.1c-0.9,8.8-1.8,17.6-2.6,26.6c-0.8,8.9-1.1,17.4-0.9,25.3c0.2,7.9,0.9,15.2,2.3,21.8
		c1.4,6.6,3.7,11.9,7.2,15.9c2,2.7,4,3.8,6.1,3.4c2.1-0.5,4-1.8,5.8-3.9c3.3-4,6.4-9.3,9.3-15.9c3-6.6,5.7-13.9,8.3-21.9
		s4.9-16.5,7-25.5c2.2-8.9,4.1-17.7,5.7-26.3c1.6-8.6,2.9-16.7,3.9-24.4c1-7.7,1.8-14.3,2.3-19.9c0-1.3,0.8-2.2,2.4-2.7
		c1.6-0.5,3.3-0.7,5-0.5c1.7,0.2,3.3,0.7,4.6,1.5c1.4,0.8,1.8,1.9,1.2,3.4c-0.9,9.6-2.2,20.3-3.9,32.1c-1.7,11.8-4,23.8-6.8,35.9
		c-2.8,12.1-6.2,23.8-10.3,35s-8.8,20.9-14.2,29c-3.6,5.4-7.5,9.3-11.8,11.5s-8.4,3.1-12.5,2.4c-4.1-0.6-7.9-2.7-11.4-6.1
		s-6.3-8.3-8.3-14.6c-1.3-4-2.2-8.3-2.8-12.9c-0.6-4.6-1.1-9.2-1.4-13.8c-0.3-4.6-0.4-9-0.4-13.1c0-4.2,0.1-7.8,0.3-10.8
		c-1.3,6.7-2.8,14-4.6,21.9s-3.9,15.4-6.2,22.5c-2.3,7-5.1,13.1-8.1,18.2c-3.1,5.1-6.4,8.1-10,9.2c-3.6,0.9-6.7,0.6-9.2-0.8
		c-2.5-1.4-4.7-3.6-6.4-6.4c-1.7-2.8-3.1-6.1-4.2-9.9c-1.1-3.8-1.9-7.6-2.6-11.4c-0.6-3.8-1.1-7.4-1.4-10.7c-0.3-3.3-0.4-6-0.4-8
		c-0.4-13-0.3-26.5,0.1-40.5c0.5-14-0.3-27.2-2.3-39.7c-1.3-8.7-3.5-15.2-6.6-19.6c-3.2-4.4-6.7-7.2-10.6-8.3
		c-3.9-1.1-7.9-0.7-11.9,1.2s-7.6,4.7-10.7,8.5c-4.7,6-7.4,12.5-8.1,19.6c-0.7,7.1,0.3,13.8,3,19.9c2.7,6.1,7,11.2,12.9,15.2
		s13,5.8,21.3,5.4C46.8,85.8,47.8,86.6,48,88.3z"/>
	<path id="XMLID_50_" class="st0" d="M216.8,121.1c-0.5,4.4-0.9,9-1.2,13.8c-0.3,4.8-0.3,9.4,0,14c0.3,4.5,1.2,8.2,2.8,11.1
		c2,3.6,4.7,5.1,8.1,4.3c2-0.5,3.8-1.7,5.6-3.5c1.7-1.8,3.3-4,4.9-6.5c1.5-2.5,2.9-5.2,4.1-8.1c1.2-2.9,2.2-5.6,3.1-8.1
		c0.5-1.4,1.5-2,2.8-1.8c1.4,0.3,1.9,0.9,1.5,1.8c-0.9,2.5-1.9,5.4-2.8,8.5c-1,3.2-2.2,6.2-3.5,9.2c-1.4,3-3,5.7-4.9,8.3
		c-1.9,2.5-4,4.5-6.4,6c-2.5,1.4-4.7,2.3-6.6,2.4c-1.9,0.2-3.6,0.3-5,0.3c-3.4,0-6.3-1.1-8.7-3.3c-2.3-2.2-4.3-4.9-5.8-8.3
		c-1.5-3.3-2.6-7-3.3-11.1c-0.6-4.1-0.9-8.1-0.9-12.1c0-4.5,0.5-9.6,1.4-15.2c0.9-5.6,1.6-9.8,2.2-12.7c0-0.5,0.1-1,0.3-1.4
		c0.4-0.5,1.3-1,2.7-1.5c1.4-0.5,3-0.7,4.6-0.7c1.6,0,3.1,0.3,4.3,0.8s1.9,1.5,1.9,3C217.7,113.1,217.3,116.7,216.8,121.1z
		 M217.6,94c1.6,1.2,2.4,2.6,2.4,4.2c0,1.6-0.8,3-2.4,4.2c-1.6,1.2-3.6,1.8-6,1.8c-2.2,0-4.1-0.6-5.7-1.8c-1.6-1.2-2.4-2.6-2.4-4.2
		c0-1.6,0.8-3,2.4-4.2c1.6-1.2,3.5-1.8,5.7-1.8C214,92.2,215.9,92.8,217.6,94z"/>
	<path id="XMLID_46_" class="st0" d="M238.2,107.5c1.3-0.8,2.8-1.4,4.6-1.8c1.8-0.4,3.5-0.4,5.1-0.1c1.6,0.3,2.6,0.9,3,2
		c2,7,4.2,15.3,6.5,24.8c2.3,9.5,4.4,19.6,6.2,30.5c2.7-4,5.3-8,7.7-12.1c2.4-4.1,4.6-8.4,6.4-12.9c0.9-2,2-2.7,3.3-2.2
		c1.3,0.5,1.6,1.3,1.1,2.2c-2.2,5.2-4.8,10.4-7.9,15.6c-3.1,5.1-6.3,10.3-9.8,15.3c0.9,7.6,1.6,15.2,2.2,22.8
		c0.5,7.6,0.7,15,0.4,22.2c-0.3,7.2-1,14.1-2.3,20.7c-1.3,6.6-3.3,12.5-6,17.7c-2.9,5.4-6.3,9.9-10.3,13.4c-4,3.5-8.1,6.1-12.3,7.6
		c-4.2,1.5-8.3,2.1-12.2,1.6c-3.9-0.5-7-2-9.5-4.6c-2.4-2.6-3.9-6.4-4.3-11.2c-0.5-4.9,0.7-11,3.4-18.4
		c4.3-11.2,10.1-21.9,17.2-32.2c7.1-10.3,14.1-20,21-29.3c-0.7-4.9-1.6-10.5-2.7-16.8c-1.1-6.3-2.3-12.6-3.7-19
		c-1.4-6.3-2.8-12.4-4.2-18.3c-1.4-5.9-2.9-10.8-4.3-14.8C236.4,109.3,236.9,108.4,238.2,107.5z M217,258c1.4,3.3,3.8,5.1,7,5.6
		c3.3,0.5,6.8-0.3,10.7-2.2c3.9-1.9,7.1-4.7,9.6-8.5c2.5-3.8,4.5-8.3,6-13.4c1.4-5.1,2.4-10.7,3-16.5c0.5-5.9,0.7-12,0.5-18.3
		c-0.2-6.3-0.6-12.6-1.4-19c-6.7,10.3-13.2,20-19.6,29.1c-6.4,9.1-11.3,18.7-14.8,28.6C215.9,249.9,215.6,254.8,217,258z
		 M247.5,93.5c1.7,1.2,2.5,2.6,2.3,4.2c0,1.6-0.8,3-2.4,4.2c-1.6,1.2-3.6,1.8-6,1.8s-4.2-0.6-5.7-1.9c-1.4-1.3-2.3-2.7-2.4-4.3
		c0.2-1.6,1-3,2.4-4.1c1.4-1.1,3.3-1.6,5.7-1.6S245.8,92.3,247.5,93.5z"/>
	<path id="XMLID_44_" class="st0" d="M290.4,156.4l4.1-12.2c1.6-4.9,3.4-9.6,5.4-14.1c2-4.5,4.3-8.4,7-11.5c2.7-3.2,5.7-4.7,8.9-4.7
		c2.2,0,3.9,0.7,5.3,2.2c1.4,1.4,2.4,3.3,3.1,5.6c0.7,2.3,1.2,4.7,1.5,7.5c0.3,2.7,0.3,5.2,0.1,7.6c0,1.8,0,4.1-0.1,6.8
		c-0.1,2.7-0.1,5.5-0.1,8.4c0,2.9,0.1,5.6,0.4,8.3c0.3,2.6,0.7,4.7,1.2,6.1c1.1,2.7,2.7,3.3,4.9,1.8c2.2-1.5,4.4-4.1,6.8-7.7
		s4.5-7.5,6.5-11.8c2-4.2,3.3-7.7,4.1-10.4c0.7-2.3,1.7-3.2,2.8-2.4c1.2,0.7,1.7,1.5,1.5,2.4c-1.1,3.4-2.5,7.3-4.2,11.7
		c-1.7,4.3-3.7,8.4-6.1,12.3c-2.3,3.9-5.1,7.3-8.1,10.3c-3.1,3-6.5,4.8-10.3,5.6c-3.4,0.5-6-0.2-7.7-2.2c-1.7-2-2.9-4.7-3.5-8.1
		c-0.6-3.4-0.9-7.3-0.8-11.7c0.1-4.3,0.3-8.5,0.5-12.5c0.3-4,0.4-7.5,0.4-10.7c0-3.2-0.4-5.3-1.1-6.4c-0.4-0.5-1.1,0.1-2.3,2
		c-1.2,1.9-2.5,4.5-4.1,7.7c-1.5,3.3-3.1,6.9-4.7,10.8c-1.6,4-3.1,7.7-4.5,11.1c-1.4,3.4-2.5,6.3-3.4,8.7c-0.9,2.3-1.4,3.6-1.4,3.8
		c0,0.4-0.6,0.6-1.8,0.8c-1.2,0.2-2.5,0.3-4.1,0.4c-1.5,0.1-3,0-4.3-0.1c-1.4-0.2-2.2-0.5-2.6-0.8c-0.7-0.7-1.3-2.5-1.6-5.4
		c-0.4-2.9-0.6-6.4-0.7-10.6c-0.1-4.2,0-8.6,0.1-13.4c0.2-4.8,0.4-9.3,0.7-13.7c0.3-4.3,0.6-8.2,0.9-11.5c0.4-3.3,0.7-5.6,1.1-6.9
		c0-1.3,0.7-2.2,2-2.7c1.4-0.5,2.8-0.8,4.5-0.8c1.6,0,3.1,0.3,4.5,0.9c1.4,0.6,2,1.6,2,2.8L290.4,156.4z"/>
	<path id="XMLID_41_" class="st0" d="M449.6,149c-1.5,3-3.3,5.3-5.1,6.9c-1.9,1.6-4.1,2.2-6.5,1.8c-2.4-0.5-5.3-2.4-8.5-5.8
		c-0.5,3.6-1.4,7.2-2.7,10.7c-1.3,3.5-2.9,6.7-5,9.6c-2.1,2.9-4.6,5.2-7.6,6.9c-3,1.7-6.5,2.5-10.4,2.3c-4.7-0.2-8.4-1.4-11.2-3.5
		c-2.8-2.2-4.9-4.9-6.4-8.1c-1.4-3.3-2.4-6.8-3-10.7c-0.5-3.9-0.9-7.6-1.1-11.2c-0.5,0-1.4,1-2.4,3.1c-1.1,2.1-2.4,4.5-4.1,7.2
		c-1.6,2.7-3.4,5.5-5.3,8.4c-1.9,2.9-3.9,5.1-6,6.8c-2.1,1.6-4.2,2.3-6.2,2c-2.1-0.3-4.1-2.2-6.1-5.8c-1.6-2.9-2.6-7-3-12.3
		c-0.4-5.3-0.4-10.9-0.1-16.8c0.3-5.9,0.8-11.5,1.5-16.9c0.7-5.4,1.3-9.8,1.6-13c0-1.4,0.7-2.5,2.2-3.1c1.4-0.6,3.1-0.8,4.9-0.5
		c1.8,0.3,3.4,0.9,4.7,1.8c1.4,0.9,1.9,2.1,1.8,3.5c-0.2,1.6-0.6,5.1-1.2,10.6c-0.6,5.4-1.1,11.2-1.5,17.2
		c-0.4,6.1-0.5,11.6-0.3,16.5c0.2,5,1,7.7,2.4,8.3c0.9,0.4,2-0.3,3.4-2c1.4-1.7,2.8-3.8,4.2-6.2c1.4-2.4,2.8-4.8,4.1-7.2
		c1.3-2.3,2.3-4,3-4.9c2-2,4.2-3.2,6.6-3.7c2.4-0.5,4.6,0.9,6.4,3.9c1.4,2.3,2.1,5.6,1.9,9.8c0,2.2,0.5,4.7,1.4,7.5
		c0.9,2.8,2.1,5.4,3.7,7.7c1.5,2.3,3.3,4.2,5.4,5.4c2.1,1.3,4.3,1.4,6.6,0.5c4.7-2.2,8-5.9,10-11.1c2-5.2,3.3-10.8,4.1-16.8
		l-1.6-2.6c-1.1-1.7-2.3-3.8-3.8-6.4c-1.4-2.5-2.9-5.2-4.3-8.1c-1.4-2.9-2.5-5.6-3.1-8.3c-0.6-2.6-0.7-4.8-0.3-6.5s1.9-2.8,4.2-3.1
		c3.3-0.4,5.8,0.8,7.7,3.4s3.3,5.8,4.2,9.6c0.9,3.8,1.4,7.6,1.6,11.4c0.2,3.8,0.2,6.8,0,8.9c2.9,3.6,5.3,5.7,7.3,6.4
		c2,0.6,3.7,0.3,5.1-0.9c1.4-1.3,2.8-3.1,3.9-5.6c1.2-2.4,2.4-5,3.7-7.7c0.4-0.7,1.2-0.9,2.6-0.5c1.4,0.4,1.8,1,1.2,1.9
		C452.6,142.8,451.2,146,449.6,149z M425.5,134.4c-0.3-2.6-0.7-5.2-1.4-7.9c-0.6-2.6-1.5-4.9-2.6-6.8c-1.1-1.9-2.5-2.8-4.3-2.6
		c-0.9,0-1,1.1-0.3,3.4c0.7,2.3,1.7,4.7,3,7.5c1.3,2.7,2.5,5.3,3.8,7.7c1.3,2.4,2,3.8,2.2,4.2C425.9,138.8,425.8,137,425.5,134.4z"
		/>
	<path id="XMLID_39_" class="st0" d="M486.5,113.6c1.4-0.7,2.9-1.1,4.6-1.2c1.7-0.1,3.4,0.1,5,0.7c1.6,0.5,2.4,1.6,2.4,3.3
		c0.2,2.7,0.2,6.1,0.1,10.2c-0.1,4.1-0.1,8.3,0,12.6c0.1,4.3,0.4,8.4,0.9,12.3c0.5,3.9,1.5,6.9,3,9.1c1.4,2.5,3.2,3.3,5.3,2.3
		c2.1-1,4.2-2.8,6.2-5.6c2.1-2.7,4-5.9,5.8-9.5c1.8-3.6,3.3-6.9,4.3-9.8c0.5-1.4,1.5-2.2,2.8-2.3c1.4-0.1,1.9,0.5,1.5,1.8
		c-0.5,2.5-1.7,5.7-3.4,9.6c-1.7,3.9-3.7,7.7-6.1,11.5c-2.3,3.8-4.9,7.1-7.7,10c-2.8,2.9-5.6,4.6-8.5,5.1c-3.3,0.7-5.9-0.2-7.9-2.8
		c-2-2.6-3.6-5.8-4.7-9.5c-1.2-3.7-2-7.4-2.6-11.1c-0.5-3.7-0.9-6.3-1.1-7.7c-0.4,2.5-0.8,5.4-1.4,8.7c-0.5,3.3-1.4,6.3-2.6,9.1
		c-1.2,2.8-2.9,5.3-5.1,7.5s-5.2,3.4-8.8,3.8c-3.4,0.4-6.4-0.5-8.8-2.7s-4.4-5.1-5.8-8.7c-1.4-3.6-2.5-7.8-3.3-12.5
		c-0.7-4.7-1.1-9.3-1.2-13.8c-0.1-4.5,0-8.8,0.4-12.7c0.4-4,0.9-7.1,1.6-9.5v-0.3c0-1.6,0.7-2.8,2.2-3.5c1.4-0.7,3-1,4.7-0.9
		c1.7,0.1,3.3,0.5,4.9,1.2c1.5,0.7,2.3,1.6,2.3,2.7c0.2,2.3,0.2,6.1,0,11.2c-0.2,5.1-0.2,10.5,0,16.1c0.2,5.6,0.7,10.7,1.5,15.4
		c0.8,4.7,2.3,7.7,4.5,8.9c1.3,0.9,2.4,0.5,3.5-1.4c1.1-1.8,2.1-4.3,3.1-7.5c1-3.2,1.9-6.8,2.7-10.8c0.8-4.1,1.5-7.9,2-11.7
		c0.5-3.7,1-7,1.4-9.8c0.4-2.8,0.5-4.6,0.5-5.3C484.6,115.3,485.1,114.4,486.5,113.6z"/>
	<path id="XMLID_37_" class="st0" d="M560.4,113.6c1.4-0.7,2.9-1.1,4.6-1.2c1.7-0.1,3.4,0.1,5,0.7c1.6,0.5,2.4,1.6,2.4,3.3
		c0.2,2.7,0.2,6.1,0.1,10.2c-0.1,4.1-0.1,8.3,0,12.6c0.1,4.3,0.4,8.4,0.9,12.3c0.5,3.9,1.5,6.9,3,9.1c1.4,2.5,3.2,3.3,5.3,2.3
		c2.1-1,4.2-2.8,6.2-5.6c2.1-2.7,4-5.9,5.8-9.5c1.8-3.6,3.3-6.9,4.3-9.8c0.5-1.4,1.5-2.2,2.8-2.3c1.4-0.1,1.9,0.5,1.5,1.8
		c-0.5,2.5-1.7,5.7-3.4,9.6c-1.7,3.9-3.7,7.7-6.1,11.5c-2.3,3.8-4.9,7.1-7.7,10c-2.8,2.9-5.6,4.6-8.5,5.1c-3.3,0.7-5.9-0.2-7.9-2.8
		c-2-2.6-3.6-5.8-4.7-9.5c-1.2-3.7-2-7.4-2.6-11.1c-0.5-3.7-0.9-6.3-1.1-7.7c-0.4,2.5-0.8,5.4-1.4,8.7c-0.5,3.3-1.4,6.3-2.6,9.1
		c-1.2,2.8-2.9,5.3-5.1,7.5c-2.3,2.2-5.2,3.4-8.8,3.8c-3.4,0.4-6.4-0.5-8.8-2.7c-2.4-2.2-4.4-5.1-5.8-8.7c-1.4-3.6-2.5-7.8-3.3-12.5
		s-1.1-9.3-1.2-13.8c-0.1-4.5,0-8.8,0.4-12.7c0.4-4,0.9-7.1,1.6-9.5v-0.3c0-1.6,0.7-2.8,2.2-3.5c1.4-0.7,3-1,4.7-0.9
		s3.3,0.5,4.9,1.2c1.5,0.7,2.3,1.6,2.3,2.7c0.2,2.3,0.2,6.1,0,11.2c-0.2,5.1-0.2,10.5,0,16.1c0.2,5.6,0.7,10.7,1.5,15.4
		c0.8,4.7,2.3,7.7,4.5,8.9c1.3,0.9,2.4,0.5,3.5-1.4c1.1-1.8,2.1-4.3,3.1-7.5c1-3.2,1.9-6.8,2.7-10.8c0.8-4.1,1.5-7.9,2-11.7
		c0.5-3.7,1-7,1.4-9.8c0.4-2.8,0.5-4.6,0.5-5.3C558.6,115.3,559.1,114.4,560.4,113.6z"/>
	<path id="XMLID_32_" class="st0" d="M680.7,135.9c1.2,0.7,1.6,1.4,1.2,2.2c-3.3,9.2-7.5,16.4-12.7,21.7c-5.2,5.2-11.5,7.4-18.7,6.5
		c0.9,2.2,1.8,5.1,2.7,8.9c0.9,3.8,1.7,7.9,2.3,12.3c0.6,4.4,1.1,9.1,1.4,14s0.2,9.6-0.1,14.1c-0.7,8.1-2.7,14.2-6,18.3
		c-3.3,4.1-7,6.4-11.4,6.9c-4.3,0.5-8.8-0.7-13.4-3.7c-4.6-3-8.6-7.5-12.1-13.7c-3.3-6.1-6-12.8-8.1-20.1c-2.2-7.2-3.8-14.7-5-22.4
		c-1.2-7.7-1.9-15.3-2.3-22.9c-0.4-7.6-0.5-14.8-0.5-21.7c0-4.9,0.3-11.2,0.8-19c0.5-7.8,1.5-16.1,2.8-25.1
		c1.4-8.9,3.2-17.9,5.6-26.8c2.3-8.9,5.3-17,8.8-24.2c3.5-7.2,7.8-13.1,12.9-17.5c5.1-4.4,11-6.6,17.9-6.6c5.2,0.2,9,1.7,11.2,4.5
		c2.3,2.8,3.4,6.6,3.5,11.4c0.1,4.8-0.8,10.3-2.6,16.4c-1.8,6.1-4.2,12.5-7,19c-2.9,6.5-6.1,13.1-9.8,19.6
		c-3.6,6.6-7.3,12.7-11,18.3c-3.7,5.6-7.2,10.5-10.6,14.6c-3.3,4.2-6.1,7.1-8.3,8.9l-0.3,6.2c8.1,2,15.3,4.8,21.4,8.4
		c6.1,3.6,11,8.9,14.6,15.7c2,0.2,4.2,0.2,6.8,0.1c2.5-0.1,5.1-0.8,7.6-2.2c2.5-1.4,5.1-3.6,7.7-6.8c2.6-3.2,5.1-7.6,7.5-13.4
		C678.5,135.9,679.5,135.1,680.7,135.9z M628.8,147.6c-5.2-3-10.7-5.3-16.5-6.9l-0.3,2.7c4.2,3.4,9,6.6,14.5,9.5
		c5.5,2.9,10.6,5.1,15.3,6.8C638.4,154.6,634.1,150.6,628.8,147.6z M621.1,114c3.5-4.8,7.2-10.4,11-16.9c3.8-6.5,7.5-13.5,11-20.9
		c3.5-7.4,6.5-14.5,8.8-21.3c2.3-6.8,3.7-12.9,4.2-18.4c0.5-5.5-0.5-9.5-2.8-12.1c-2.2-2.3-5.5-2.3-10,0c-4,2.5-7.5,6.2-10.4,11
		c-3,4.8-5.6,10.2-7.7,16.3c-2.2,6.1-4,12.5-5.6,19.2c-1.5,6.8-2.8,13.4-3.8,19.8c-1,6.4-1.7,12.5-2.2,18.3s-0.8,10.6-0.9,14.4
		C614.7,121.9,617.6,118.8,621.1,114z M628.6,162c-5.4-1.7-10.7-4-16-6.9c0.2,4.7,0.5,9.7,1.1,15c0.5,5.3,1.3,10.7,2.3,16.1
		c1,5.4,2.3,10.7,3.8,15.9c1.5,5.1,3.4,9.8,5.6,14c2.7,5.4,5.6,9.6,8.5,12.5c3,2.9,5.7,4.3,8.3,4.3c2.5,0,4.7-1.6,6.6-4.7
		c1.9-3.2,3.1-8,3.7-14.5c0.4-4.3,0.4-8.9,0-13.5c-0.4-4.7-0.9-9.3-1.6-13.7c-0.7-4.4-1.6-8.4-2.6-11.9s-1.9-6.3-2.8-8.3
		C639.6,165.1,634,163.7,628.6,162z"/>
</g>
<path id="XMLID_7_" class="st0" d="M831.6,92.4c0,0-15-5.7-28.2-5.7c-13.2,0-21.5,5-30.9,5c-9.4,0-21.8-5.5-32.1-5.5
	s-21.2,5.7-21.2,5.7v-7.6c0,0,10.9-5.7,21.2-5.7s22.6,5.5,32.1,5.5c9.4,0,17.6-5,30.9-5c13.2,0,28.2,5.7,28.2,5.7V92.4z"/>
<path id="XMLID_6_" class="st0" d="M828.6,105.3c-5-1.6-15.6-4.6-25.2-4.6c-13.2,0-21.5,5-30.9,5c-9.4,0-21.8-5.5-32.1-5.5
	c-8.3,0-17,3.7-20.1,5.1c-0.7,0.3-1.1-1.5-1.1-1.5v-5.6c0,0,10.9-5.7,21.2-5.7s22.6,5.5,32.1,5.5c9.4,0,17.6-5,30.9-5
	c13.2,0,28.2,5.7,28.2,5.7v4C831.6,102.7,830.5,105.9,828.6,105.3z"/>
<path id="XMLID_5_" class="st0" d="M820.3,117c-1.1-0.3-2.3-0.5-3.5-0.8c-4.3-0.9-9-1.5-13.5-1.5c-13.2,0-21.5,5-30.9,5
	c-9.4,0-21.8-5.5-32.1-5.5c-4.2,0-8.4,1.1-12,2.2c-1.2-0.3-5-6.1-4.4-6.3c4.1-1.6,10.4-3.6,16.4-3.6c10.3,0,22.6,5.5,32.1,5.5
	c9.4,0,17.6-5,30.9-5c6.4,0,13.3,1.3,18.6,2.7C822.7,109.9,826.8,118.5,820.3,117z"/>
<g id="layer1_1_" transform="translate(-165.55 -53.201)">
	<path id="path4157_1_" class="st0" d="M895.3,58.1c-2.6,4.3-5.4,11.3-7.9,17.3c-1.4,3.3-2.6,6.4-3.4,9c-3.6,11.6-6.1,23.7-6.7,35.9
		c-0.4,8.2,0.5,16.5,2.4,24.4c1.5,6.5,3.8,13,7.2,18.8c1,1.7,2.6,3.8,4.3,5.8c0.1,0.1,0.2,0.2,0.2,0.3c1,0.7,4.4-0.4,3.8-1.5
		c-2.4-7.2-6-16.5-7.2-22.7c-1.8-9.5-2-19.3-1.7-28.9c0.2-7.9,1.4-15.7,2.7-23.4c0.8-4.6,2.1-10.6,3.5-16.6c1.5-6.5,3.2-13.1,4.4-18
		C896.8,57.4,895.7,57.7,895.3,58.1z M983.6,59.9c1.3,4.8,3,10.7,4,14.6c1.9,7.1,4.2,14,5.3,21.3c1.5,9.2,2.8,18.5,1.9,27.8
		c-1.1,11-2.6,22.3-7.7,32.1c-5.3,10.2-13.7,18.6-23.4,24.6c-6.1,3.8-17,8.4-19.9,11.9c-2.3,2.7-6.4,5.3-4.3,26.3
		c1.1,10.7,9.8,54.9,19.4,66.7c0.6,0.7,2.5-0.2,2.1-1c-23.5-55.5-16.2-85-16.2-85s8.9-3.9,13.3-6c5.2-2.6,10.5-4.8,15.2-8.2
		c5.8-4.2,11.2-9.1,15.7-14.7c4.2-5.3,7.9-11.3,10.1-17.6c2.6-7.4,3.3-15.4,3.7-23.2c0.3-4.7,0.3-9.3-0.3-14
		c-1.5-13.3-4.6-26.6-9.2-39.2c-1.7-4.7-5.3-11.7-8-17C984.7,57.9,983.2,58.3,983.6,59.9z M910,284.3c-5.1,0.5-10.3,1.2-15.2,2.9
		c-2.7,1-5.5,2.1-7.5,4.1c-1.1,1-2.3,2.4-2.3,3.9c0,1.3,1.1,2.4,2.1,3.3c1.9,1.7,4.6,2.5,7,3.3c5.4,1.8,11,2.9,16.6,3.7
		c8.7,1.3,17,1.5,25.8,1.5c4.5,0,9-0.2,13.5-0.4c8.8-0.5,17.7-0.7,26.4-2c3.9-0.6,7.8-1.2,11.5-2.6c2.1-0.8,4.1-1.9,5.8-3.3
		c1-0.8,1.8-1.8,2.4-3c0.3-0.7,0.7-1.4,0.5-2.2c-0.2-1.1-1.2-2-2.1-2.8c-2.5-2-5.7-3.1-8.7-4c-4-1.3-8.2-2-12.4-2.4
		c-2.5,0.2-1.8,2.4-0.9,2.6c3.1,0.8,6.2,1.7,9.2,2.9c1.6,0.6,3.2,1.2,4.6,2.2c1.1,0.7,2.9,1.3,3,2.7c0.1,1.1-1.3,2-2.2,2.6
		c-2.3,1.4-5.3,1.5-8,1.9c-7.5,1.1-15.2,1.3-22.8,1.5c-8.9,0.3-17.8,0.3-26.6,0.1c-6.5-0.2-12.9-0.3-19.4-1
		c-4.4-0.4-8.9-0.8-13.2-1.9c-1.7-0.4-3.5-0.8-5-1.7c-0.7-0.5-1.9-0.9-1.9-1.8c0-1.2,1.5-1.9,2.5-2.5c3.2-2,7.1-2.7,10.8-3.7
		c3.2-0.9,6.4-1.6,9.7-2.2c1.1-0.3,0.7-1.8-0.2-1.8C911.8,284.2,910.6,284.2,910,284.3z"/>
</g>
<path id="XMLID_1_" class="st0" d="M719.2,121.4"/>
</svg>
