<?xml version="1.0" encoding="utf-8"?>
<!-- Generator: Adobe Illustrator 19.0.0, SVG Export Plug-In . SVG Version: 6.00 Build 0)  -->
<svg version="1.1" id="Laag_1" xmlns="http://www.w3.org/2000/svg" xmlns:xlink="http://www.w3.org/1999/xlink" x="0px" y="0px"
	 viewBox="0 0 400 190" style="enable-background:new 0 0 400 190;" xml:space="preserve">
<style type="text/css">
	.st0{fill:#FFFFFF;}
</style>
<g id="XMLID_31_">
	<path id="XMLID_53_" class="st0" d="M26,70.1c0.1,0.8-0.2,1.3-0.9,1.5c-2,0.4-4,0.3-6.2-0.4c-2.2-0.7-4.2-1.7-6-3.1
		c-0.8-0.4-1.6-1-2.3-1.6c-0.7-0.6-1.3-1.3-1.8-2c-1.4-1.9-2.5-4-3.3-6.2c-0.7-2.3-1-4.6-1-6.9c0.1-2.3,0.6-4.6,1.4-6.9
		c0.8-2.3,2.1-4.3,3.8-6.1c2-2.1,4.1-3.7,6.6-4.8c2.4-1.1,4.8-1.5,7.1-1.3c2.3,0.2,4.4,1.1,6.4,2.7s3.4,3.9,4.5,6.9
		c1.4,4.2,2.3,8.7,2.5,13.5c0.2,4.8,0.3,9.8,0.1,14.9c-0.1,5.1-0.2,10.1-0.1,15s0.6,9.6,1.6,13.9c0.6,2.6,1.3,3.6,2.2,3.3
		c0.8-0.4,1.8-1.7,2.8-4c1-2.3,2.1-5.4,3.2-9.2s2.2-7.9,3.3-12.2c1.1-4.3,2.1-8.7,3.1-13.2c1-4.5,1.9-8.5,2.7-12.2
		c0.8-3.7,1.5-6.7,2-9s0.8-3.6,0.9-3.8c0.8-0.8,1.8-1.1,3.2-1c1.4,0.1,2.3,0.4,2.9,1c0.1,2.9,0,6.2-0.4,9.9
		c-0.3,3.7-0.7,7.7-1.1,11.8c-0.4,4.1-0.8,8.3-1.2,12.5c-0.4,4.2-0.5,8.2-0.4,11.9c0.1,3.7,0.4,7.2,1.1,10.3
		c0.6,3.1,1.8,5.6,3.4,7.5c0.9,1.3,1.9,1.8,2.9,1.6c1-0.2,1.9-0.8,2.7-1.8c1.5-1.9,3-4.4,4.4-7.5c1.4-3.1,2.7-6.5,3.9-10.3
		c1.2-3.8,2.3-7.8,3.3-12c1-4.2,1.9-8.3,2.7-12.4c0.8-4,1.4-7.9,1.8-11.5c0.5-3.6,0.8-6.7,1.1-9.4c0-0.6,0.4-1,1.1-1.3
		c0.8-0.3,1.6-0.3,2.4-0.3c0.8,0.1,1.5,0.3,2.2,0.7c0.6,0.4,0.8,0.9,0.6,1.6c-0.4,4.5-1,9.5-1.8,15.1c-0.8,5.6-1.9,11.2-3.2,16.9
		c-1.3,5.7-2.9,11.2-4.8,16.4c-1.9,5.3-4.1,9.8-6.7,13.6c-1.7,2.6-3.5,4.4-5.5,5.4c-2,1.1-4,1.4-5.9,1.1c-1.9-0.3-3.7-1.3-5.4-2.9
		s-3-3.9-3.9-6.9c-0.6-1.9-1-3.9-1.3-6.1c-0.3-2.2-0.5-4.3-0.6-6.5c-0.1-2.2-0.2-4.2-0.2-6.2c0-2,0-3.7,0.1-5.1
		c-0.6,3.1-1.3,6.6-2.2,10.3s-1.8,7.3-2.9,10.6c-1.1,3.3-2.4,6.2-3.8,8.5c-1.4,2.4-3,3.8-4.7,4.3c-1.7,0.4-3.1,0.3-4.3-0.4
		c-1.2-0.7-2.2-1.7-3-3s-1.5-2.9-2-4.7c-0.5-1.8-0.9-3.6-1.2-5.4c-0.3-1.8-0.5-3.5-0.6-5c-0.1-1.6-0.2-2.8-0.2-3.8
		c-0.2-6.1-0.1-12.5,0.1-19.1c0.2-6.6-0.1-12.8-1.1-18.7c-0.6-4.1-1.6-7.2-3.1-9.2c-1.5-2.1-3.1-3.4-5-3.9c-1.8-0.5-3.7-0.3-5.6,0.6
		s-3.6,2.2-5,4c-2.2,2.8-3.5,5.9-3.8,9.2c-0.3,3.4,0.1,6.5,1.4,9.4c1.3,2.9,3.3,5.3,6.1,7.1c2.8,1.9,6.1,2.7,10,2.5
		C25.4,69,25.9,69.3,26,70.1z"/>
	<path id="XMLID_50_" class="st0" d="M105.4,85.6c-0.3,2.1-0.4,4.2-0.6,6.5c-0.1,2.3-0.1,4.4,0,6.6c0.1,2.1,0.6,3.9,1.3,5.2
		c0.9,1.7,2.2,2.4,3.8,2c0.9-0.3,1.8-0.8,2.6-1.7c0.8-0.8,1.6-1.9,2.3-3.1c0.7-1.2,1.4-2.5,1.9-3.8s1-2.6,1.5-3.8
		c0.3-0.7,0.7-1,1.3-0.8c0.6,0.1,0.9,0.4,0.7,0.8c-0.4,1.2-0.9,2.5-1.3,4c-0.5,1.5-1,2.9-1.7,4.3c-0.6,1.4-1.4,2.7-2.3,3.9
		c-0.9,1.2-1.9,2.1-3,2.8c-1.2,0.7-2.2,1.1-3.1,1.1c-0.9,0.1-1.7,0.1-2.4,0.1c-1.6,0-3-0.5-4.1-1.5c-1.1-1-2-2.3-2.7-3.9
		c-0.7-1.6-1.2-3.3-1.5-5.2c-0.3-1.9-0.4-3.8-0.4-5.7c0-2.1,0.2-4.5,0.6-7.1c0.4-2.6,0.8-4.6,1-6c0-0.3,0-0.5,0.1-0.6
		c0.2-0.3,0.6-0.5,1.3-0.7c0.7-0.2,1.4-0.3,2.2-0.3c0.8,0,1.4,0.1,2,0.4c0.6,0.3,0.9,0.7,0.9,1.4C105.8,81.8,105.7,83.5,105.4,85.6z
		 M105.8,72.8c0.8,0.6,1.1,1.2,1.1,2c0,0.8-0.4,1.4-1.1,2c-0.8,0.6-1.7,0.8-2.8,0.8c-1,0-1.9-0.3-2.7-0.8c-0.8-0.6-1.1-1.2-1.1-2
		c0-0.8,0.4-1.4,1.1-2c0.8-0.6,1.7-0.8,2.7-0.8C104.1,72,105,72.3,105.8,72.8z"/>
	<path id="XMLID_46_" class="st0" d="M115.5,79.2c0.6-0.4,1.3-0.7,2.2-0.8c0.8-0.2,1.7-0.2,2.4-0.1c0.8,0.1,1.2,0.4,1.4,1
		c0.9,3.3,2,7.2,3.1,11.7c1.1,4.5,2.1,9.2,2.9,14.3c1.3-1.9,2.5-3.8,3.6-5.7c1.1-1.9,2.1-3.9,3-6.1c0.4-0.9,0.9-1.3,1.5-1
		c0.6,0.3,0.8,0.6,0.5,1c-1,2.5-2.3,4.9-3.7,7.3s-3,4.8-4.6,7.2c0.4,3.6,0.8,7.1,1,10.7s0.3,7.1,0.2,10.5c-0.1,3.4-0.5,6.7-1.1,9.8
		c-0.6,3.1-1.5,5.9-2.8,8.4c-1.4,2.6-3,4.7-4.8,6.3c-1.9,1.7-3.8,2.8-5.8,3.6c-2,0.7-3.9,1-5.7,0.8c-1.8-0.2-3.3-0.9-4.5-2.2
		c-1.1-1.2-1.8-3-2-5.3c-0.2-2.3,0.3-5.2,1.6-8.7c2-5.3,4.7-10.3,8.1-15.2c3.4-4.8,6.7-9.4,9.9-13.8c-0.3-2.3-0.8-4.9-1.3-7.9
		c-0.5-3-1.1-6-1.7-8.9c-0.6-3-1.3-5.8-2-8.6c-0.7-2.8-1.4-5.1-2-6.9C114.7,80,114.9,79.6,115.5,79.2z M105.5,150
		c0.7,1.5,1.8,2.4,3.3,2.6c1.5,0.2,3.2-0.1,5-1c1.8-0.9,3.3-2.2,4.5-4c1.2-1.8,2.1-3.9,2.8-6.3c0.7-2.4,1.1-5,1.4-7.8
		c0.3-2.8,0.3-5.6,0.3-8.6c-0.1-3-0.3-6-0.6-8.9c-3.1,4.8-6.2,9.4-9.2,13.7s-5.3,8.8-6.9,13.5C105,146.2,104.9,148.5,105.5,150z
		 M119.9,72.6c0.8,0.6,1.2,1.2,1.1,2c0,0.8-0.4,1.4-1.1,2c-0.8,0.6-1.7,0.8-2.8,0.8c-1.1,0-2-0.3-2.7-0.9c-0.7-0.6-1.1-1.3-1.1-2
		c0.1-0.8,0.5-1.4,1.1-1.9c0.7-0.5,1.6-0.8,2.7-0.8C118.1,71.7,119.1,72,119.9,72.6z"/>
	<path id="XMLID_44_" class="st0" d="M140.1,102.2l1.9-5.7c0.8-2.3,1.6-4.5,2.5-6.6c0.9-2.1,2-3.9,3.3-5.4c1.3-1.5,2.7-2.2,4.2-2.2
		c1,0,1.8,0.3,2.5,1c0.6,0.7,1.1,1.6,1.5,2.6c0.3,1.1,0.6,2.2,0.7,3.5c0.1,1.3,0.1,2.5,0.1,3.6c0,0.8,0,1.9-0.1,3.2
		c0,1.3-0.1,2.6-0.1,4s0.1,2.7,0.2,3.9c0.1,1.2,0.3,2.2,0.6,2.9c0.5,1.3,1.3,1.6,2.3,0.8c1-0.7,2.1-1.9,3.2-3.6s2.1-3.5,3.1-5.5
		c0.9-2,1.6-3.6,1.9-4.9c0.3-1.1,0.8-1.5,1.3-1.1s0.8,0.7,0.7,1.1c-0.5,1.6-1.2,3.4-2,5.5c-0.8,2-1.8,4-2.9,5.8
		c-1.1,1.8-2.4,3.4-3.8,4.8c-1.4,1.4-3.1,2.3-4.8,2.6c-1.6,0.3-2.8-0.1-3.6-1c-0.8-0.9-1.4-2.2-1.7-3.8c-0.3-1.6-0.4-3.4-0.4-5.5
		c0-2,0.1-4,0.3-5.9c0.1-1.9,0.2-3.5,0.2-5c0-1.5-0.2-2.5-0.5-3c-0.2-0.3-0.5,0.1-1.1,1c-0.6,0.9-1.2,2.1-1.9,3.6
		c-0.7,1.5-1.5,3.2-2.2,5.1s-1.5,3.6-2.1,5.2c-0.6,1.6-1.2,3-1.6,4.1c-0.4,1.1-0.6,1.7-0.6,1.8c0,0.2-0.3,0.3-0.8,0.4
		s-1.2,0.1-1.9,0.2c-0.7,0-1.4,0-2-0.1c-0.6-0.1-1-0.2-1.2-0.4c-0.3-0.3-0.6-1.2-0.8-2.5c-0.2-1.4-0.3-3-0.3-5c0-2,0-4.1,0.1-6.3
		c0.1-2.3,0.2-4.4,0.3-6.4c0.1-2,0.3-3.8,0.4-5.4c0.2-1.6,0.3-2.7,0.5-3.3c0-0.6,0.3-1,1-1.3c0.6-0.3,1.3-0.4,2.1-0.4
		s1.5,0.1,2.1,0.4c0.6,0.3,1,0.7,1,1.3L140.1,102.2z"/>
	<path id="XMLID_41_" class="st0" d="M215,98.7c-0.7,1.4-1.5,2.5-2.4,3.3c-0.9,0.8-1.9,1-3.1,0.8c-1.1-0.2-2.5-1.1-4-2.7
		c-0.3,1.7-0.7,3.4-1.3,5c-0.6,1.7-1.4,3.2-2.4,4.5c-1,1.4-2.2,2.4-3.6,3.3c-1.4,0.8-3,1.2-4.9,1.1c-2.2-0.1-4-0.6-5.3-1.7
		c-1.3-1-2.3-2.3-3-3.8c-0.7-1.5-1.1-3.2-1.4-5c-0.3-1.8-0.4-3.6-0.5-5.3c-0.3,0-0.6,0.5-1.1,1.5c-0.5,1-1.1,2.1-1.9,3.4
		c-0.8,1.3-1.6,2.6-2.5,4c-0.9,1.4-1.8,2.4-2.8,3.2c-1,0.8-2,1.1-2.9,1c-1-0.1-1.9-1-2.9-2.7c-0.8-1.4-1.2-3.3-1.4-5.8
		c-0.2-2.5-0.2-5.1-0.1-7.9c0.1-2.8,0.4-5.4,0.7-8c0.3-2.5,0.6-4.6,0.8-6.1c0-0.7,0.3-1.2,1-1.5c0.7-0.3,1.4-0.4,2.3-0.3
		c0.9,0.1,1.6,0.4,2.2,0.8c0.6,0.4,0.9,1,0.8,1.7c-0.1,0.8-0.3,2.4-0.6,5c-0.3,2.5-0.5,5.2-0.7,8.1c-0.2,2.8-0.2,5.4-0.1,7.8
		c0.1,2.3,0.5,3.6,1.1,3.9c0.4,0.2,1-0.1,1.6-1c0.6-0.8,1.3-1.8,2-2.9c0.7-1.1,1.3-2.3,1.9-3.4c0.6-1.1,1.1-1.9,1.4-2.3
		c0.9-0.9,2-1.5,3.1-1.7c1.1-0.2,2.1,0.4,3,1.8c0.7,1.1,1,2.6,0.9,4.6c0,1,0.2,2.2,0.6,3.5c0.4,1.3,1,2.5,1.7,3.6
		c0.7,1.1,1.6,2,2.5,2.5c1,0.6,2,0.7,3.1,0.3c2.2-1,3.8-2.8,4.7-5.2c0.9-2.5,1.6-5.1,1.9-7.9l-0.8-1.2c-0.5-0.8-1.1-1.8-1.8-3
		c-0.7-1.2-1.4-2.5-2-3.8c-0.7-1.4-1.2-2.7-1.5-3.9c-0.3-1.2-0.3-2.3-0.1-3.1s0.9-1.3,2-1.5c1.5-0.2,2.7,0.4,3.6,1.6
		c0.9,1.2,1.6,2.7,2,4.5c0.4,1.8,0.7,3.6,0.8,5.4c0.1,1.8,0.1,3.2,0,4.2c1.4,1.7,2.5,2.7,3.4,3c0.9,0.3,1.7,0.1,2.4-0.4
		c0.7-0.6,1.3-1.5,1.8-2.6s1.1-2.4,1.7-3.6c0.2-0.3,0.6-0.4,1.2-0.3c0.6,0.2,0.8,0.5,0.6,0.9C216.4,95.8,215.7,97.3,215,98.7z
		 M203.7,91.8c-0.1-1.2-0.3-2.5-0.6-3.7c-0.3-1.2-0.7-2.3-1.2-3.2s-1.2-1.3-2-1.2c-0.4,0-0.5,0.5-0.1,1.6c0.3,1.1,0.8,2.2,1.4,3.5
		c0.6,1.3,1.2,2.5,1.8,3.6c0.6,1.1,0.9,1.8,1,2C203.9,93.9,203.8,93.1,203.7,91.8z"/>
	<path id="XMLID_39_" class="st0" d="M232.3,82.1c0.6-0.3,1.4-0.5,2.2-0.6c0.8,0,1.6,0.1,2.4,0.3c0.8,0.3,1.1,0.8,1.1,1.5
		c0.1,1.3,0.1,2.9,0.1,4.8c0,1.9,0,3.9,0,5.9c0,2,0.2,4,0.4,5.8s0.7,3.3,1.4,4.3c0.7,1.2,1.5,1.6,2.5,1.1c1-0.5,2-1.3,2.9-2.6
		c1-1.3,1.9-2.8,2.7-4.5c0.9-1.7,1.5-3.2,2-4.6c0.3-0.7,0.7-1,1.3-1.1c0.6,0,0.9,0.2,0.7,0.8c-0.3,1.2-0.8,2.7-1.6,4.5
		c-0.8,1.8-1.8,3.6-2.9,5.4s-2.3,3.4-3.6,4.7s-2.7,2.2-4,2.4c-1.5,0.3-2.8-0.1-3.7-1.3c-0.9-1.2-1.7-2.7-2.2-4.5
		c-0.6-1.7-1-3.5-1.2-5.2c-0.3-1.7-0.4-3-0.5-3.6c-0.2,1.2-0.4,2.6-0.6,4.1c-0.3,1.5-0.7,3-1.2,4.3c-0.6,1.3-1.4,2.5-2.4,3.5
		c-1.1,1-2.4,1.6-4.1,1.8c-1.6,0.2-3-0.3-4.1-1.3c-1.1-1-2.1-2.4-2.7-4.1c-0.7-1.7-1.2-3.7-1.5-5.9c-0.3-2.2-0.5-4.4-0.6-6.5
		c0-2.1,0-4.1,0.2-6c0.2-1.9,0.4-3.4,0.8-4.5V81c0-0.8,0.3-1.3,1-1.7c0.7-0.3,1.4-0.5,2.2-0.4c0.8,0,1.6,0.2,2.3,0.6
		c0.7,0.3,1.1,0.8,1.1,1.3c0.1,1.1,0.1,2.9,0,5.3c-0.1,2.4-0.1,5,0,7.6c0.1,2.6,0.3,5.1,0.7,7.3c0.4,2.2,1.1,3.6,2.1,4.2
		c0.6,0.4,1.1,0.2,1.7-0.6c0.5-0.8,1-2,1.5-3.5c0.5-1.5,0.9-3.2,1.3-5.1c0.4-1.9,0.7-3.7,1-5.5c0.3-1.7,0.5-3.3,0.6-4.6
		c0.2-1.3,0.3-2.1,0.3-2.5C231.5,82.8,231.7,82.4,232.3,82.1z"/>
	<path id="XMLID_37_" class="st0" d="M267.2,82.1c0.6-0.3,1.4-0.5,2.2-0.6c0.8,0,1.6,0.1,2.4,0.3s1.1,0.8,1.1,1.5
		c0.1,1.3,0.1,2.9,0.1,4.8c0,1.9,0,3.9,0,5.9c0,2,0.2,4,0.4,5.8c0.3,1.8,0.7,3.3,1.4,4.3c0.7,1.2,1.5,1.6,2.5,1.1s2-1.3,2.9-2.6
		c1-1.3,1.9-2.8,2.7-4.5c0.9-1.7,1.5-3.2,2-4.6c0.3-0.7,0.7-1,1.3-1.1c0.6,0,0.9,0.2,0.7,0.8c-0.3,1.2-0.8,2.7-1.6,4.5
		c-0.8,1.8-1.8,3.6-2.9,5.4s-2.3,3.4-3.6,4.7s-2.7,2.2-4,2.4c-1.5,0.3-2.8-0.1-3.7-1.3c-0.9-1.2-1.7-2.7-2.2-4.5
		c-0.6-1.7-1-3.5-1.2-5.2c-0.3-1.7-0.4-3-0.5-3.6c-0.2,1.2-0.4,2.6-0.6,4.1c-0.3,1.5-0.7,3-1.2,4.3c-0.6,1.3-1.4,2.5-2.4,3.5
		c-1.1,1-2.4,1.6-4.1,1.8c-1.6,0.2-3-0.3-4.1-1.3c-1.1-1-2.1-2.4-2.7-4.1c-0.7-1.7-1.2-3.7-1.5-5.9c-0.3-2.2-0.5-4.4-0.6-6.5
		c0-2.1,0-4.1,0.2-6c0.2-1.9,0.4-3.4,0.8-4.5V81c0-0.8,0.3-1.3,1-1.7c0.7-0.3,1.4-0.5,2.2-0.4c0.8,0,1.6,0.2,2.3,0.6
		c0.7,0.3,1.1,0.8,1.1,1.3c0.1,1.1,0.1,2.9,0,5.3c-0.1,2.4-0.1,5,0,7.6c0.1,2.6,0.3,5.1,0.7,7.3c0.4,2.2,1.1,3.6,2.1,4.2
		c0.6,0.4,1.1,0.2,1.7-0.6c0.5-0.8,1-2,1.5-3.5c0.5-1.5,0.9-3.2,1.3-5.1c0.4-1.9,0.7-3.7,1-5.5c0.3-1.7,0.5-3.3,0.6-4.6
		c0.2-1.3,0.3-2.1,0.3-2.5C266.3,82.8,266.5,82.4,267.2,82.1z"/>
	<path id="XMLID_32_" class="st0" d="M323.8,92.5c0.6,0.3,0.7,0.7,0.6,1c-1.5,4.3-3.5,7.7-6,10.2c-2.5,2.5-5.4,3.5-8.8,3.1
		c0.4,1,0.9,2.4,1.3,4.2c0.4,1.8,0.8,3.7,1.1,5.8c0.3,2.1,0.5,4.3,0.6,6.6s0.1,4.5-0.1,6.6c-0.3,3.8-1.3,6.7-2.8,8.6
		c-1.5,1.9-3.3,3-5.4,3.3c-2,0.3-4.1-0.3-6.3-1.7c-2.2-1.4-4.1-3.5-5.7-6.4c-1.5-2.9-2.8-6-3.8-9.4c-1-3.4-1.8-6.9-2.4-10.5
		c-0.6-3.6-0.9-7.2-1.1-10.8c-0.2-3.6-0.3-7-0.3-10.2c0-2.3,0.1-5.3,0.4-8.9c0.3-3.7,0.7-7.6,1.3-11.8c0.6-4.2,1.5-8.4,2.6-12.6
		c1.1-4.2,2.5-8,4.1-11.4c1.7-3.4,3.7-6.1,6.1-8.2c2.4-2.1,5.2-3.1,8.4-3.1c2.5,0.1,4.2,0.8,5.3,2.1c1.1,1.3,1.6,3.1,1.7,5.4
		c0,2.3-0.4,4.8-1.2,7.7c-0.8,2.9-2,5.9-3.3,8.9c-1.4,3.1-2.9,6.1-4.6,9.2c-1.7,3.1-3.4,6-5.2,8.6c-1.7,2.6-3.4,4.9-5,6.9
		c-1.6,2-2.9,3.4-3.9,4.2l-0.1,2.9c3.8,0.9,7.2,2.3,10.1,4c2.9,1.7,5.2,4.2,6.9,7.4c0.9,0.1,2,0.1,3.2,0.1c1.2,0,2.4-0.4,3.6-1
		c1.2-0.6,2.4-1.7,3.6-3.2c1.2-1.5,2.4-3.6,3.5-6.3C322.7,92.5,323.2,92.2,323.8,92.5z M299.4,98.1c-2.5-1.4-5.1-2.5-7.8-3.3
		l-0.1,1.3c2,1.6,4.2,3.1,6.8,4.5c2.6,1.4,5,2.4,7.2,3.2C303.9,101.4,301.8,99.5,299.4,98.1z M295.7,82.3c1.7-2.3,3.4-4.9,5.2-8
		c1.8-3.1,3.5-6.3,5.2-9.8c1.7-3.5,3-6.8,4.1-10c1.1-3.2,1.8-6.1,2-8.7c0.2-2.6-0.2-4.5-1.3-5.7c-1-1.1-2.6-1.1-4.7,0
		c-1.9,1.2-3.5,2.9-4.9,5.2c-1.4,2.3-2.6,4.8-3.6,7.7c-1,2.8-1.9,5.9-2.6,9.1c-0.7,3.2-1.3,6.3-1.8,9.3c-0.5,3-0.8,5.9-1,8.6
		c-0.2,2.7-0.4,5-0.4,6.8C292.7,86,294.1,84.5,295.7,82.3z M299.2,104.8c-2.6-0.8-5.1-1.9-7.5-3.3c0.1,2.2,0.3,4.6,0.5,7.1
		c0.3,2.5,0.6,5,1.1,7.6c0.5,2.5,1.1,5,1.8,7.5c0.7,2.4,1.6,4.6,2.6,6.6c1.3,2.6,2.6,4.5,4,5.9c1.4,1.4,2.7,2,3.9,2s2.2-0.7,3.1-2.2
		c0.9-1.5,1.5-3.8,1.7-6.8c0.2-2,0.2-4.2,0-6.4c-0.2-2.2-0.4-4.4-0.8-6.4c-0.3-2.1-0.7-4-1.2-5.6c-0.5-1.7-0.9-3-1.3-3.9
		C304.4,106.3,301.8,105.6,299.2,104.8z"/>
</g>
<path id="XMLID_7_" class="st0" d="M394.8,72.1c0,0-7.1-2.7-13.3-2.7c-6.2,0-10.1,2.4-14.5,2.4c-4.4,0-10.2-2.6-15.1-2.6
	s-10,2.7-10,2.7v-3.6c0,0,5.1-2.7,10-2.7s10.7,2.6,15.1,2.6c4.4,0,8.3-2.4,14.5-2.4c6.2,0,13.3,2.7,13.3,2.7V72.1z"/>
<path id="XMLID_6_" class="st0" d="M393.4,78.1C391,77.4,386,76,381.5,76c-6.2,0-10.1,2.4-14.5,2.4c-4.4,0-10.2-2.6-15.1-2.6
	c-3.9,0-8,1.7-9.4,2.4c-0.3,0.2-0.5-0.7-0.5-0.7v-2.6c0,0,5.1-2.7,10-2.7s10.7,2.6,15.1,2.6c4.4,0,8.3-2.4,14.5-2.4
	c6.2,0,13.3,2.7,13.3,2.7v1.9C394.8,76.9,394.2,78.4,393.4,78.1z"/>
<path id="XMLID_5_" class="st0" d="M389.5,83.6c-0.5-0.1-1.1-0.3-1.7-0.4c-2-0.4-4.2-0.7-6.3-0.7c-6.2,0-10.1,2.4-14.5,2.4
	c-4.4,0-10.2-2.6-15.1-2.6c-2,0-4,0.5-5.7,1.1c-0.5-0.1-2.3-2.9-2.1-3c1.9-0.8,4.9-1.7,7.7-1.7c4.8,0,10.7,2.6,15.1,2.6
	c4.4,0,8.3-2.4,14.5-2.4c3,0,6.2,0.6,8.8,1.3C390.6,80.3,392.5,84.4,389.5,83.6z"/>
<g id="layer1_1_" transform="translate(-165.55 -53.201)">
	<path id="path4157_1_" class="st0" d="M512.4,84.1c-1.2,2-2.5,5.3-3.7,8.1c-0.6,1.5-1.2,3-1.6,4.2c-1.7,5.5-2.9,11.2-3.1,16.9
		c-0.2,3.9,0.2,7.8,1.1,11.5c0.7,3.1,1.8,6.1,3.4,8.9c0.5,0.8,1.2,1.8,2,2.7c0,0,0.1,0.1,0.1,0.1c0.5,0.4,2.1-0.2,1.8-0.7
		c-1.1-3.4-2.8-7.7-3.4-10.7c-0.9-4.5-0.9-9.1-0.8-13.6c0.1-3.7,0.6-7.4,1.3-11c0.4-2.2,1-5,1.7-7.8c0.7-3.1,1.5-6.2,2.1-8.5
		C513.1,83.8,512.6,83.9,512.4,84.1z M554,84.9c0.6,2.3,1.4,5,1.9,6.9c0.9,3.3,2,6.6,2.5,10c0.7,4.3,1.3,8.7,0.9,13.1
		c-0.5,5.2-1.2,10.5-3.6,15.1c-2.5,4.8-6.4,8.7-11,11.6c-2.9,1.8-8,4-9.4,5.6c-1.1,1.3-3,2.5-2,12.4c0.5,5,4.6,25.8,9.1,31.4
		c0.3,0.3,1.2-0.1,1-0.5c-11.1-26.1-7.6-40-7.6-40s4.2-1.8,6.3-2.8c2.4-1.2,5-2.3,7.2-3.9c2.7-2,5.3-4.3,7.4-6.9
		c2-2.5,3.7-5.3,4.8-8.3c1.2-3.5,1.5-7.3,1.7-10.9c0.1-2.2,0.1-4.4-0.1-6.6c-0.7-6.3-2.1-12.5-4.3-18.4c-0.8-2.2-2.5-5.5-3.8-8
		C554.5,84,553.8,84.2,554,84.9z M519.3,190.5c-2.4,0.2-4.9,0.5-7.2,1.4c-1.3,0.5-2.6,1-3.6,1.9c-0.5,0.5-1.1,1.1-1.1,1.8
		c0,0.6,0.5,1.1,1,1.5c0.9,0.8,2.1,1.2,3.3,1.6c2.5,0.9,5.2,1.4,7.8,1.8c4.1,0.6,8,0.7,12.1,0.7c2.1,0,4.3-0.1,6.4-0.2
		c4.2-0.3,8.3-0.3,12.4-0.9c1.8-0.3,3.7-0.6,5.4-1.2c1-0.4,1.9-0.9,2.7-1.6c0.4-0.4,0.8-0.9,1.1-1.4c0.2-0.3,0.3-0.7,0.3-1
		c-0.1-0.5-0.6-1-1-1.3c-1.2-0.9-2.7-1.4-4.1-1.9c-1.9-0.6-3.9-1-5.8-1.1c-1.2,0.1-0.9,1.1-0.4,1.2c1.5,0.4,2.9,0.8,4.3,1.3
		c0.8,0.3,1.5,0.6,2.2,1c0.5,0.3,1.4,0.6,1.4,1.3c0,0.5-0.6,0.9-1.1,1.2c-1.1,0.7-2.5,0.7-3.8,0.9c-3.5,0.5-7.1,0.6-10.7,0.7
		c-4.2,0.1-8.4,0.1-12.5,0c-3-0.1-6.1-0.2-9.1-0.5c-2.1-0.2-4.2-0.4-6.2-0.9c-0.8-0.2-1.6-0.4-2.4-0.8c-0.3-0.2-0.9-0.4-0.9-0.9
		c0-0.6,0.7-0.9,1.2-1.2c1.5-1,3.4-1.3,5.1-1.8c1.5-0.4,3-0.7,4.5-1c0.5-0.1,0.3-0.8-0.1-0.8C520.2,190.5,519.6,190.5,519.3,190.5z"
		/>
</g>
<path id="XMLID_1_" class="st0" d="M341.9,85.7"/>
</svg>
