<?xml version="1.0" encoding="utf-8"?>
<!-- Generator: Adobe Illustrator 23.0.3, SVG Export Plug-In . SVG Version: 6.00 Build 0)  -->
<svg version="1.1" id="Laag_1" xmlns="http://www.w3.org/2000/svg" xmlns:xlink="http://www.w3.org/1999/xlink" x="0px" y="0px"
	 viewBox="0 0 400 904" style="enable-background:new 0 0 400 904;" xml:space="preserve">
<style type="text/css">
	.st0{fill:#F4F4F4;}
</style>
<path class="st0" d="M163.97,286.6c0.72,3.84,2.78,6.87,5.71,9.36c0.85-0.26,1.8-0.17,2.59-0.68c1.52-1.42,0.29-2.76-0.4-3.78
	c-1.07-1.57-1.58-3.2-1.73-5.02c-1.67-2.13-2.11-5.19-4.86-6.53c-1.31,0.57-1.09,1.79-1.22,2.86c-0.02,1.08,0.01,2.17-0.04,3.25
	C164,286.24,163.99,286.42,163.97,286.6z"/>
<path class="st0" d="M230.77,126.85c-0.28,0.24,1.62,1.3,1.35,1.54c-0.23,0.28-0.47,0.57-0.7,0.85c-0.33,1.34,0.31,2.44,0.89,3.56
	c0.91,0.34,1.84,0.29,2.77,0.11c0.53-0.51,1.41-0.8,1.59-1.53c-0.27-0.96-0.45-0.68-0.71-2.08
	C234.72,128.34,232.65,127.02,230.77,126.85z"/>
<path class="st0" d="M81.26,106.37c0.05,2.33-1.22,3.88-3.07,5.04c-0.8,0.5-1.73,0.71-2.6,0.22c-0.88-0.5-0.54-1.32-0.39-2.09
	c0.08-0.41-0.14-0.73-0.51-0.94c-0.76,1.37-1.57,2.74-1.83,4.3c-0.15,0.9,0.2,1.59,1.3,1.23c1.74-0.57,3.52-1.07,5.17-1.84
	C82.24,110.95,82.56,109.75,81.26,106.37z"/>
<path class="st0" d="M233.32,261.09c0.43,5.4,2.02,7.16,7.13,7.93c0.83-0.49,1.66-0.97,2.46-1.51c0.25-0.03,0.51-0.04,0.76-0.06
	c0.29-0.25,0.55-0.52,0.82-0.79l0-0.01c2.67-4.13,2.74-6.32,0.3-8.89c-2.88-3.04-6.45-2.95-9.42,0
	C234.38,258.76,234.38,260.23,233.32,261.09z"/>
<path class="st0" d="M20.55,252.49c-1.36,2.45-3.17,4.68-3.84,7.49c0.21,0.18,0.28,0.36,0.21,0.54c-0.07,0.18-0.14,0.27-0.21,0.27
	c0.07,1.15-0.15,2.2-0.95,3.08c0.07,0.88,0.07,1.76-0.01,2.63c0.66,1.46,2.41,1.74,3.23,3.02c0.79,0.55,1.41,0.09,2.03-0.36
	c0.52-0.55,0.93-1.15,0.76-1.97c-0.45-1.83-1.26-3.64-0.36-5.56c-0.2-2.22,0.19-4.35,0.93-6.43
	C22.13,254.04,21.74,253.01,20.55,252.49z"/>
<path class="st0" d="M3.82,242.92c0.43-0.03,0.85-0.06,1.28-0.1c0.36-0.15,0.72-0.19,1.12-0.18c4.06,0.11,4.06,0.1,3.02-4l0.05,0.07
	c-0.5-0.18-0.78-0.53-0.86-1.04c-0.06-0.39-0.32-0.55-0.69-0.56c-0.31-0.23-0.55-0.58-0.85-0.79c-0.97-0.69-1.08-2.87-2.73-2.14"/>
<path class="st0" d="M49.89,289.77c-0.26,0.47-0.51,0.95-0.77,1.42c0.24,0.28,0.51,0.53,0.8,0.75l0.25,0.17l0.3,0
	c1.64,0.59,3.39-0.06,5.03,0.46c2.41,0.01,3.98-1.59,5.71-2.92c1.16-0.89,1.13-2.01,0.66-3.14c-0.43-1.04-1.24-1.66-2.48-1.37
	c-1.27,0.29-2.63-0.03-3.85,0.57c-0.21,0.55-0.14,1.21,0.3,1.45c2.6,1.39,0.8,1.75-0.49,2.24c-0.78,0.23-1.55,0.53-2.38,0.61
	c-1.08,0.08-1.03-1.86-2.36-1.33l-0.02-0.04C50.47,289.08,49.85,289.21,49.89,289.77z"/>
<path class="st0" d="M71.2,298.76c-2.86-0.3-2.83-0.29-2.41-3.49c0.09-0.7-0.6-0.72-1.1-0.85c-1.14,1.26-3.48,1.97-2.4,4.33"/>
<path class="st0" d="M55.51,290.37c1.8-0.3,2.63-1.79,3.86-3.21c-1.81,0.56-3.07,0.14-3.81-1.45c-2.06,0.3-3.53,1.56-4.92,2.97
	c0.22,0.27,0.68,0.6,0.63,0.82c-0.4,1.8,0.72,1.73,1.9,1.63C53.76,290.31,54.15,288.85,55.51,290.37z"/>
<path class="st0" d="M23.86,276.81c-0.09,0.68,0.36,1.33,1.13,1.33c0.54,0,0.86-0.51,0.95-1.09c0.24-1.55-0.16-3.17,0.56-4.67
	c0.26-0.54-0.02-1.05-0.42-1.41c-0.45-0.41-0.81-1.17-1.58-0.85"/>
<path class="st0" d="M31.39,257.77c-0.16,1.42,0.16,2.64,1.67,3.1c1.01,0.31,1.79-0.32,2.26-1.13c0.82-1.41,0.74-2.73-0.79-3.68
	C32.87,255.51,31.08,254.71,31.39,257.77z"/>
<path class="st0" d="M54.38,267.85c-2.22-2.24-3.93-2.73-5.85-2.26c-0.75,0.18-1.5,0.72-1.27,1.72c0.19,0.85,0.75,1.43,1.69,1.39
	C50.56,268.63,51.93,267.61,54.38,267.85z"/>
<path class="st0" d="M30.56,265.5c-0.56,0.58-1.13,1.29-0.57,2.02c0.47,0.61,1.22,0.14,1.75-0.17c1.22-0.72,2.54-1.37,3.55-2.33
	c0.9-0.86,1.26-2.06-0.58-2.52c-0.69,0.57-1.72,0-2.38,0.7l0,0C33.6,265.4,30.67,264.37,30.56,265.5z"/>
<path class="st0" d="M25.31,267.2c2.96-0.99,3.71-3.01,2.73-5.93C25.36,262.48,26.06,265.14,25.31,267.2z"/>
<path class="st0" d="M41.15,278.72c0.05-1.28-0.52-2.25-1.53-2.97c-0.37-0.27-0.77-0.14-1.03,0.15c-1.05,1.21-0.49,2.41,0.09,3.61
	c0.35,0.73,0.73,1.48,1.69,1.19C41.38,280.4,41.03,279.44,41.15,278.72z"/>
<path class="st0" d="M9.24,248.65c0,0.92,0,1.84,0,2.94c-1.03,1.13-3.11-0.39-4.13,1.25c0.11,0.07,0.2,0.17,0.32,0.21
	c1.67,0.6,3.55,1.75,4.98,0C11.76,251.37,9.77,250.09,9.24,248.65z"/>
<path class="st0" d="M30.55,276.49c0.18,1.18,0.56,2.22,1.79,2.7c0.67-0.63,0.7-1.51,0.87-2.33c0.28-1.48,0.97-3.25-1.81-2.58
	C31.05,274.99,30.52,275.63,30.55,276.49z"/>
<path class="st0" d="M31.41,274.29c1.92-0.06,1.64,1.42,1.81,2.58c0.82-0.81,0.43-2.11,1.1-2.9c0.6-0.69,1.02-1.15,0.15-1.89
	c-0.78-0.67-1.43-0.39-2.1,0.15C31.71,272.76,31.37,273.44,31.41,274.29z"/>
<path class="st0" d="M32.41,280.63c-1.33,1.88-1.49,3.74,0.12,5.57c0.28,0.28,0.55,0.27,0.82-0.01
	C33.61,284.23,32.27,282.55,32.41,280.63z"/>
<path class="st0" d="M52.35,271.18c-0.27,0-0.55,0.01-0.82,0.01c-0.27,0.53-0.54,1.06-0.81,1.59c1.06-0.28,2.13-0.55,3.19-0.83
	c0.84-0.15,1.78,0.06,2.45-0.7C55.02,270.89,53.69,271.03,52.35,271.18z"/>
<path class="st0" d="M15.39,255.77c0.22-2.08,1.87-1.56,3.14-1.72c-0.39-0.64-1.02-0.61-1.67-0.66
	C14.5,253.22,14.5,253.2,15.39,255.77z"/>
<path class="st0" d="M30.56,265.5c0.51-0.08,1.03-0.13,1.54-0.25c1.9-0.46,0.9-1.28,0.24-2.05
	C31.16,263.52,30.77,264.44,30.56,265.5z"/>
<path class="st0" d="M35.75,280.5c1.25-0.87,1.21-1.75,0.01-2.63C34.08,278.74,34.49,279.62,35.75,280.5z"/>
<path class="st0" d="M25.82,279.8c0.1,0.52,0.25,1.09,0.79,1.26c0.4,0.13,0.76-0.18,0.78-0.63c0.02-0.58-0.34-1.02-0.83-1.22
	C26.17,279.05,25.84,279.3,25.82,279.8z"/>
<path class="st0" d="M55.51,292.58c-1.59-1.09-3.33-0.59-5.03-0.46C52.1,292.94,53.79,292.86,55.51,292.58z"/>
<path class="st0" d="M41.94,282.12c0.1,0.37,0.09,0.99,0.84,0.86c0.39-0.07,0.69-0.37,0.65-0.78c-0.06-0.54-0.38-0.99-0.95-0.98
	C42.07,281.22,41.92,281.63,41.94,282.12z"/>
<path class="st0" d="M42.52,262.33c0.26,0.35,0.59,0.57,0.98,0.26c0.17-0.13,0.35-0.52,0.27-0.65c-0.22-0.37-0.62-0.43-1.02-0.26
	C42.43,261.81,42.36,262.03,42.52,262.33z"/>
<path class="st0" d="M32.33,263.2c0.88,0.06,1.77,0.17,2.38-0.7C33.85,262.49,32.97,262.42,32.33,263.2z"/>
<path class="st0" d="M45.77,290.3c0.69,0.13,1.3,0,1.73-0.61C46.79,289.52,46.24,289.79,45.77,290.3z"/>
<path class="st0" d="M38.9,267.14c0.04,0.1,0.07,0.26,0.13,0.28c0.24,0.06,0.36-0.09,0.29-0.39c-0.02-0.07-0.19-0.16-0.25-0.14
	C39,266.92,38.96,267.05,38.9,267.14z"/>
<path class="st0" d="M49.89,289.77c0.4-0.27,0.71-0.61,0.72-1.13c-0.55,0.28-1.1,0.55-1.66,0.83
	C49.27,289.57,49.58,289.67,49.89,289.77z"/>
<path class="st0" d="M45.43,264.58c-0.04,0.1-0.14,0.22-0.12,0.31c0.08,0.33,0.27,0.37,0.45,0.09c0.05-0.07,0-0.24-0.06-0.33
	C45.66,264.59,45.52,264.6,45.43,264.58z"/>
<path class="st0" d="M28.42,247.68c0.07,0.53,0.35,0.88,0.86,1.04C29.26,248.16,28.94,247.84,28.42,247.68z"/>
<path class="st0" d="M49.92,291.95c-0.27-0.25-0.53-0.5-0.8-0.75c-0.02,0.23-0.03,0.47-0.03,0.7
	C49.37,291.91,49.65,291.93,49.92,291.95z"/>
<path class="st0" d="M26.71,284.79c0.6-0.27,0.56-0.53,0-0.8C26.72,284.25,26.71,284.52,26.71,284.79z"/>
<path class="st0" d="M41.39,286.53c0.55-0.15,0.78-0.5,0.56-0.83c-0.16-0.25-0.62-0.4-0.95-0.4c-0.39,0-0.73,0.31-0.43,0.72
	C40.77,286.27,41.16,286.39,41.39,286.53z"/>
<path class="st0" d="M55.51,290.37c0.21-0.57,0.85-1.17,0.47-1.73c-0.58-0.85-0.98,0.19-1.48,0.3c-1.3,0.29-1.52,1.08-1.33,2.19
	C53.94,290.88,54.73,290.63,55.51,290.37z"/>
<path class="st0" d="M90.61,83.18c3.55-1.86,6.47-3.29,9.95-2.08c0.69,0.24,1.75,0.29,1.48,1.44c-0.17,0.73-0.89,0.97-1.59,0.88
	C97.46,83.06,94.46,84.92,90.61,83.18"/>
<path class="st0" d="M139.08,115.24c0.24-1.45,1.42-2.72,0.11-4.4c-0.95-1.22,0.11-2.48,1.79-2.74c1.91-0.3,1.62,3.09,3.81,2.14
	c0.15,0.57-0.07,1.05-0.45,1.43c-1.09,1.1-2.21,2.18-3.32,3.26C140.32,114.72,139.8,115.64,139.08,115.24z"/>
<path class="st0" d="M142.87,103.78c1.53-0.7,2.08-2.17,2.49-3.67c1.5,0.58,1.94,1.77,2.7,2.64c0.46,0.53,0.63,1.19,0.17,1.82
	c-0.44,0.6-1.09,0.72-1.78,0.51c-0.88-0.27-1.74-0.76-2.61,0.02c-0.5,0.58-0.9,0.6-1.15-0.21l0,0
	C142.77,104.53,142.82,104.15,142.87,103.78z"/>
<path class="st0" d="M126.22,86.21c0.29,1.69,2.06,2.37,2.62,3.85c0.12,0.3-0.01,0.78-0.18,1.09c-0.19,0.34-0.61,0.48-0.99,0.26
	c-1.67-0.97-2.26-3.13-1.43-5.21L126.22,86.21z"/>
<path class="st0" d="M145.88,86.59c1.96-0.35,3.54-1.58,5.69-2.23C149.8,87.13,148.91,87.48,145.88,86.59z"/>
<path class="st0" d="M106.39,80.05c0.97,0.24,1.96,0.42,2.89,0.75c0.21,0.07,0.41,0.71,0.32,0.99c-0.08,0.26-0.55,0.56-0.86,0.57
	C107.41,82.4,106.87,81.27,106.39,80.05z"/>
<path class="st0" d="M112.6,83.22c-0.32-0.59,0.01-0.96,0.45-1.25c0.6-0.4,1.32-0.41,1.72,0.13c0.39,0.54,0.27,1.27-0.48,1.56
	C113.67,83.9,113.05,83.79,112.6,83.22z"/>
<path class="st0" d="M118.85,82.21c0.34-0.12,0.47-0.21,0.58-0.2c0.75,0.08,1.59,0.02,2.01,0.84c0.07,0.13-0.1,0.55-0.25,0.6
	c-0.83,0.3-1.43-0.26-2.06-0.67C119.04,82.73,119.02,82.58,118.85,82.21z"/>
<path class="st0" d="M126.23,86.2c-0.11-0.06-0.23-0.11-0.33-0.19c-0.58-0.52-2,0.06-1.85-1.39c0.02-0.15,0.41-0.42,0.51-0.37
	c0.85,0.39,2.16,0.42,1.65,1.96L126.23,86.2z"/>
<path class="st0" d="M137.79,96.36c-0.22-0.35-0.23-0.89,0.16-1.3c0.29-0.3,0.77-0.26,1.06,0.07c0.4,0.47,0.27,1.01-0.11,1.41
	C138.62,96.85,138.21,96.86,137.79,96.36z"/>
<path class="st0" d="M131.25,92c0.01,0.21,0.19,0.68,0.02,0.88c-0.42,0.51-0.89,0.23-1.21-0.21c-0.25-0.33-0.22-0.73,0.12-0.98
	C130.53,91.43,130.88,91.53,131.25,92z"/>
<path class="st0" d="M142.69,104.89c0.38,0.07,0.76,0.14,1.15,0.21c0.07,0.6,0.18,1.51-0.49,1.48
	C142.44,106.55,142.41,105.66,142.69,104.89z"/>
<path class="st0" d="M143.52,97.76c0.21,0.05,0.52,0.03,0.62,0.17c0.26,0.36,0.09,0.71-0.32,0.79c-0.16,0.03-0.48-0.19-0.55-0.36
	C143.22,98.2,143.43,97.96,143.52,97.76z"/>
<path class="st0" d="M134.97,94.73c-0.05,0.2-0.03,0.5-0.16,0.59c-0.35,0.24-0.68,0.09-0.76-0.3c-0.03-0.15,0.18-0.46,0.35-0.52
	C134.54,94.44,134.77,94.64,134.97,94.73z"/>
<path class="st0" d="M135.1,99.89c0.21,0.02,0.51-0.03,0.61,0.09c0.29,0.34,0.16,0.69-0.24,0.81c-0.15,0.05-0.47-0.15-0.55-0.32
	C134.86,100.34,135.03,100.09,135.1,99.89z"/>
<path class="st0" d="M106.05,82.21c-0.1,0.28-0.11,0.59-0.24,0.65c-0.45,0.22-0.94,0.25-1.21-0.28c-0.04-0.08,0.23-0.47,0.39-0.49
	C105.33,82.06,105.68,82.17,106.05,82.21z"/>
<path class="st0" d="M147.32,110.48c-0.05,0.21-0.03,0.51-0.16,0.61c-0.36,0.26-0.69,0.09-0.77-0.32c-0.03-0.16,0.18-0.47,0.35-0.54
	C146.89,110.18,147.13,110.39,147.32,110.48z"/>
<path class="st0" d="M98.09,85.95c-0.07,0.2-0.08,0.51-0.22,0.59c-0.37,0.21-0.7,0.04-0.74-0.38c-0.02-0.17,0.21-0.48,0.38-0.52
	C97.67,85.61,97.89,85.84,98.09,85.95z"/>
<path class="st0" d="M101.58,85.22c0.25,0.12,0.64,0.21,0.9,0.45c0.37,0.35,0.11,0.7-0.27,0.76c-0.33,0.05-0.7-0.14-1.05-0.23
	C101.25,86,101.34,85.79,101.58,85.22z"/>
<path class="st0" d="M119,86.67c-0.02,0.2,0.03,0.49-0.09,0.58c-0.34,0.28-0.68,0.15-0.83-0.23c-0.05-0.12,0.14-0.47,0.28-0.52
	C118.54,86.46,118.78,86.61,119,86.67z"/>
<path class="st0" d="M139.08,115.24c0.62-0.26,1.22-0.67,1.95-0.31c-0.35,0.33-0.65,0.72-1.05,0.96
	C139.24,116.34,138.87,116.15,139.08,115.24z"/>
<path class="st0" d="M122.32,85.22c-0.07,0.08-0.15,0.25-0.19,0.23c-0.11-0.03-0.2-0.13-0.29-0.21c0.07-0.08,0.16-0.25,0.19-0.23
	C122.13,85.05,122.22,85.15,122.32,85.22z"/>
<path class="st0" d="M140.91,97.92c-0.06,0.09-0.1,0.24-0.18,0.28c-0.33,0.13-0.47,0-0.34-0.31c0.03-0.08,0.2-0.14,0.31-0.15
	C140.76,97.74,140.83,97.86,140.91,97.92z"/>
<path class="st0" d="M142.87,103.78c-0.06,0.37-0.12,0.75-0.18,1.12C142.53,104.49,142.59,104.12,142.87,103.78z"/>
<path class="st0" d="M224.57,304.18c-0.01-3.93,0.33-7.87-0.75-11.75c-0.56-2.01-1.64-3.53-3.07-4.95
	c-0.81-0.81-1.57-1.44-2.74-1.07c-1.28,0.41-2,1.57-2.03,2.7c-0.06,2.49-0.28,5.29,1.4,7.25c2.43,2.82,3.64,5.96,4.01,9.55
	C221.8,304.11,224.33,306.25,224.57,304.18z"/>
<path class="st0" d="M211.3,309.32c0.12-0.68-0.31-1.52-0.78-2.32c-0.88-1.49-3.04-2.58-3.94-2.03c-0.98,0.6-0.98,2.62,0.01,4.35
	c0.33,0.58,0.68,1.15,1.08,1.68c0.64,0.83,1.28,2.03,2.5,1.49C211.25,312.01,211.12,310.68,211.3,309.32z"/>
<path class="st0" d="M218.57,198.62c-0.06-1.95-1.58-3.28-3.72-3.24c-1.33,0.02-2.53,1.31-2.42,2.62c0.13,1.61,1.87,3,3.68,2.93
	C218.01,200.87,218.63,200.29,218.57,198.62z"/>
<path class="st0" d="M240.74,233.54c-0.13,1.6,1.24,3.03,2.96,3.28c1.09,0.16,1.81-0.19,1.87-1.38c0.09-1.56-1.24-3.32-2.64-3.44
	C241.72,231.91,240.95,232.48,240.74,233.54z"/>
<path class="st0" d="M224.57,304.18c-0.48,0.18-1.18,0.67-1.39,0.5c-1.94-1.47-1.63,0.18-1.78,1.22c0.12,1.56,1.17,2,2.38,1.52
	C225.29,306.8,225.05,305.45,224.57,304.18z"/>
<path class="st0" d="M228.36,293.98c0.31-4.53,1.39-8.83-3.26-12.05c-1.06,2.36-2.07,4.22-0.07,6.51
	C226.33,289.94,226.77,292.1,228.36,293.98z"/>
<path id="XMLID_47_" class="st0" d="M240.22,205.2c-2.22,19.35-8.25,38.05-17.52,55.01c-9.3,16.96-21.73,32.24-36.76,45.19
	c2.06-0.06,4.12-0.21,6.23-0.53c0.36-0.22,0.73-0.43,1.09-0.66l1.05-0.71c0.7-0.48,1.4-0.96,2.1-1.44
	c6.58-6.96,12.39-14.45,17.66-22.12c5.28-7.68,10.02-15.53,14.61-23.42c0.84-1.41,1.51-2.9,2.22-4.37c0.69-1.48,1.41-2.94,1.97-4.46
	c0.59-1.51,1.17-3.01,1.73-4.52c0.51-1.52,0.97-3.06,1.44-4.58c0.23-0.76,0.47-1.52,0.67-2.29c0.19-0.77,0.38-1.54,0.56-2.31
	c0.36-1.54,0.76-3.05,1.05-4.59c0.56-3.07,1.16-6.1,1.5-9.13c0.1-0.75,0.2-1.51,0.3-2.26l0.15-1.12l0.1-1.13
	c0.14-1.49,0.28-2.98,0.42-4.45l0.11-1.1l0.06-1.1c0.05-0.73,0.09-1.46,0.14-2.19c0.05-0.73,0.1-1.45,0.15-2.17l0.08-1.08l0.04-1.08
	c0.1-2.87,0.34-5.69,0.4-8.47c0.06-1.39,0.15-2.77,0.24-4.15c0.04-1.37,0.11-2.73,0.21-4.09l0.12-2.13
	c0.04-0.71,0.04-1.42,0.06-2.13c0.04-1.42,0.09-2.84,0.16-4.26c0.07-2.86,0.13-5.7,0.19-8.48c0-1.4,0-2.8,0.02-4.2
	c0.02-1.4,0.07-2.79,0.03-4.16c-0.01-1.37-0.01-2.74,0-4.11c0-0.68,0.03-1.37,0.01-2.04c-0.01-0.67-0.02-1.34-0.03-2
	c-0.58-1.68-1.14-3.37-1.74-5.03c-0.64-1.65-1.29-3.29-1.93-4.93c-4.65-10.95-10.68-21.19-17.74-30.65
	c-3.49-4.76-7.39-9.2-11.39-13.51c-1.02-1.06-2.08-2.08-3.12-3.12c-1.05-1.03-2.06-2.09-3.17-3.06c-2.18-1.97-4.33-3.97-6.64-5.79
	c-1.14-0.92-2.26-1.87-3.42-2.77l-3.53-2.62l-1.77-1.31l-1.82-1.23l-3.64-2.44c-1.23-0.79-2.49-1.53-3.74-2.29
	c-1.25-0.75-2.48-1.54-3.78-2.21c-2.57-1.39-5.11-2.82-7.76-4.05c-5.21-2.62-10.65-4.74-16.11-6.74
	c-5.52-1.83-11.09-3.55-16.78-4.75c-10.08-1.23-20.34-1.76-30.67-1.43c-10.33,0.37-20.72,1.61-30.98,3.8
	c-10.26,2.18-20.4,5.32-30.17,9.4c-9.75,4.1-19.14,9.15-27.95,15.09C22.9,76.66,31.4,71.37,40.33,66.9
	c8.93-4.47,18.33-8.11,28.04-10.84c-10.85,2.53-21.42,6.24-31.48,11.04C26.83,71.9,17.22,77.77,8.38,84.73
	c-7.6,6.15-14.28,13.21-19.96,20.87c-5.68,7.67-10.36,15.94-14.06,24.56c0.25,1.2,0.41,2.5,0.47,3.92c0.03,0.71,0.02,1.44,0.01,2.22
	c0,0.78-0.03,1.6-0.1,2.44c-0.07,0.85-0.17,1.73-0.3,2.65c-0.15,0.91-0.31,1.87-0.48,2.9c-0.18,1.02-0.39,2.07-0.65,3.18
	c-0.25,1.1-0.58,2.24-0.85,3.47c-1.98,7.53-3.63,15.04-4.47,22.68c-0.84,7.63-0.86,15.4,0.59,23.12c0,2.12-2.5,1.73-2.46,6.06
	c-0.06-1.51-0.03-2.99-0.09-4.43c-0.03-1.44-0.15-2.86-0.16-4.24c-0.06-2.77-0.3-5.43-0.39-8c-0.07-1.28-0.17-2.55-0.29-3.79
	c-0.09-1.24-0.16-2.46-0.27-3.67c-0.1-1.21-0.23-2.4-0.37-3.58c-0.09-1.17-0.2-2.33-0.33-3.48c-0.1,1.38-0.25,2.75-0.3,4.14
	c-0.04,1.38-0.09,2.76-0.14,4.15l-0.06,2.07l0.03,2.08c0.02,1.38,0.04,2.77,0.06,4.16c0.05,1.39,0.16,2.78,0.23,4.16
	c0.1,1.39,0.13,2.78,0.31,4.16c0.31,2.78,0.54,5.55,1.01,8.32c1.05,10.33,2.4,19.78,4.27,29.04c1.89,9.24,4.32,18.3,7.89,27.45
	l0.78,1.38c0.26,0.45,0.55,0.9,0.83,1.34c0.55,0.89,1.11,1.79,1.67,2.69c5.56,8.89,12.96,16.77,21.24,23.34
	c-1.4-1.58-2.72-3.24-4.1-4.89c-0.7-0.81-1.34-1.69-2-2.57c-0.65-0.88-1.31-1.76-1.98-2.65c5.2,4.58,10.87,10.98,15.47,15.53
	c-2.56-1.67-4.95-3.57-7.39-5.43c6.73,7.57,13.94,14.18,22.7,20.54c-5.36-3.78-10.64-7.8-15.71-11.78c-1.26-1.01-2.51-2.01-3.74-3
	c-1.21-1.03-2.4-2.05-3.57-3.05c-0.59-0.5-1.18-1-1.76-1.49c-0.56-0.51-1.12-1.02-1.67-1.52c-1.11-1.01-2.2-2-3.26-2.97
	c1.02,1.15,2.04,2.29,3.06,3.43c0.51,0.56,1,1.14,1.54,1.68c0.53,0.54,1.07,1.08,1.6,1.61c1.07,1.07,2.12,2.14,3.19,3.18
	c1.11,1.01,2.21,2.01,3.31,3.01l1.65,1.49l1.71,1.42c1.14,0.94,2.28,1.88,3.41,2.82c1.17,0.89,2.34,1.77,3.51,2.66
	c1.17,0.89,2.33,1.78,3.55,2.59c9.57,6.74,19.64,12.61,30.6,17.97c-0.63-0.09-1.27-0.18-1.89-0.26c8.33,2.49,16.85,4.06,25.4,4.79
	c8.56,0.71,17.14,0.58,25.63-0.32c17-1.8,33.58-6.65,49.34-14.09c0.95-0.45,1.85-0.89,2.65-1.42c0.8-0.53,1.53-1.07,2.19-1.62
	c1.32-1.11,2.4-2.2,3.2-3.39c1.61-2.36,2.29-4.66,2.4-6.62c0.09-1.95-0.31-3.66-1.01-4.7c-0.34-0.53-0.75-0.9-1.19-1.09
	c-0.44-0.18-0.86-0.22-1.29-0.02c-14.06,8.46-30.02,13.59-46.28,15.04c-16.26,1.48-32.79-0.68-48.11-6.08
	c-15.32-5.41-29.4-14.06-41.16-25.12c-11.77-11.05-21.2-24.52-27.77-39.34c1.34,7.37,3.45,14.82,6.47,22.18
	c0.8,1.49,1.55,2.99,2.22,4.5c0.73,1.48,1.4,2.95,1.98,4.46c-0.76-1.5-1.53-2.96-2.24-4.45c-0.66-1.51-1.31-3.01-1.96-4.51
	c-0.56-0.99-1.05-2.05-1.6-3.09c-0.54-1.04-1.09-2.08-1.66-3.12c-0.56-1.05-1.06-2.14-1.6-3.21c-0.53-1.08-1.1-2.15-1.61-3.26
	c-0.48-1.12-0.97-2.23-1.45-3.36c-0.48-1.12-0.97-2.24-1.35-3.41c-0.79-2.33-1.61-4.63-2.07-7.04c0.04-0.5-0.04-1.21-0.25-2.02
	c-0.2-0.81-0.54-1.7-0.89-2.61c-0.74-1.8-1.89-3.54-3.39-4.31c-0.91-6.68-2.41-13.75-3.24-20.98c-0.84-7.2-0.99-14.54,0.38-21.04
	c0.09-0.78,0.91-2.05,1.88-3.48c0.52-8.2,1.83-16.4,3.92-24.47c1.54-5.62,3.45-11.11,5.72-16.44c2.37-5.29,5.06-10.41,8.11-15.3
	c0.78-1.21,1.6-2.39,2.4-3.59c0.41-0.59,0.79-1.2,1.22-1.78l1.29-1.72l1.29-1.72c0.43-0.58,0.86-1.15,1.33-1.69
	c0.92-1.1,1.84-2.2,2.75-3.3c0.45-0.56,0.95-1.07,1.43-1.6l1.46-1.57l1.46-1.57c0.49-0.52,1.02-1,1.53-1.5
	c1.03-0.99,2.05-1.98,3.07-2.97c1.07-0.93,2.15-1.87,3.22-2.8C41.47,89.05,62.98,79.77,84.8,77.46c-1.34,0.02-2.67,0.04-3.99,0.06
	c-1.33,0.05-2.64,0.15-3.97,0.22c-2.66,0.09-5.25,0.44-7.87,0.65c-1.31,0.11-2.58,0.34-3.87,0.49c-0.65,0.08-1.29,0.16-1.93,0.25
	c-0.65,0.07-1.29,0.16-1.92,0.27c-1.28,0.21-2.54,0.41-3.79,0.62c-0.63,0.1-1.27,0.19-1.89,0.3c-0.62,0.12-1.24,0.24-1.86,0.37
	c-3.43,0.47-7.56,1.89-12,4.12c-1.1,0.57-2.24,1.18-3.39,1.82c-0.29,0.16-0.58,0.32-0.87,0.49c-0.28,0.18-0.57,0.36-0.85,0.54
	c-0.57,0.37-1.15,0.74-1.73,1.12c-0.58,0.38-1.16,0.77-1.75,1.16c-0.59,0.39-1.19,0.78-1.76,1.23c-1.15,0.88-2.31,1.77-3.5,2.67
	c-0.29,0.23-0.59,0.46-0.88,0.69c-0.28,0.24-0.57,0.49-0.86,0.74c-0.57,0.5-1.14,0.99-1.72,1.49c-1.14,1.01-2.32,2-3.41,3.11
	c-1.1,1.08-2.22,2.18-3.33,3.28c-1.06,1.15-2.12,2.31-3.18,3.47c-1.08,1.13-2.05,2.38-3.06,3.57c-1,1.21-2.02,2.38-2.93,3.64
	c-0.94,1.23-1.87,2.46-2.79,3.68c-0.87,1.25-1.74,2.49-2.6,3.72c-0.82,1.28-1.58,2.39-2.44,3.35c-0.84,0.96-1.76,1.79-2.66,2.63
	c-0.88,0.86-1.77,1.71-2.66,2.66c-0.45,0.47-0.89,0.98-1.32,1.51c-0.42,0.55-0.81,1.15-1.2,1.8c0.14-0.68,0.29-1.37,0.46-2.06
	c0.19-0.67,0.41-1.35,0.63-2.02c0.45-1.35,0.94-2.71,1.49-4.07c0.6-1.32,1.25-2.65,1.94-3.98c0.35-0.66,0.68-1.34,1.08-1.98
	c0.4-0.64,0.8-1.28,1.21-1.93c0.42-0.64,0.84-1.28,1.26-1.92c0.43-0.64,0.86-1.29,1.34-1.89c0.95-1.23,1.92-2.46,2.92-3.68
	c1-1.22,2.12-2.35,3.2-3.53c0.55-0.58,1.1-1.16,1.66-1.74c0.59-0.55,1.17-1.1,1.76-1.65c0.59-0.55,1.18-1.09,1.78-1.64
	c0.6-0.55,1.18-1.1,1.82-1.61c1.26-1.02,2.51-2.05,3.77-3.08c1.26-1.02,2.61-1.94,3.91-2.91l1.96-1.44l2.03-1.34
	c5.33-3.66,10.91-6.81,16.29-9.92c7.24-3.99,15.83-7.26,25.1-9.42c9.27-2.18,19.21-3.26,29.16-3.29c9.96,0.03,19.92,1.1,29.46,2.8
	c9.57,1.67,18.69,4.11,27.33,6.52c7.16,1.96,13.54,5.55,18.78,9.93c1.35,1.03,2.55,2.24,3.76,3.37c0.59,0.58,1.18,1.16,1.76,1.73
	c0.57,0.59,1.1,1.21,1.63,1.81c1.06,1.22,2.1,2.39,3.05,3.61c0.94,1.24,1.84,2.46,2.7,3.65c-4.14-1.69-10.2-6.58-13.45-8.84
	c-14.38-10.29-31.15-17.41-48.75-20.68c-8.8-1.62-17.8-2.31-26.78-1.87C88.14,70.53,79.2,72,70.56,74.49
	c9.23-1.58,18.4-2.42,27.49-2.38c9.09,0.08,18.09,1,26.86,2.88c8.76,1.9,17.32,4.7,25.33,8.65c8.01,3.93,15.5,8.9,22.1,14.87
	c-1.08-0.73-2.15-1.48-3.2-2.23c-1.09-0.71-2.17-1.42-3.25-2.13l-1.61-1.09l-1.65-1.01c-1.1-0.69-2.19-1.37-3.29-2.06
	c-1.12-0.64-2.24-1.28-3.36-1.91l-1.68-0.96l-1.72-0.88c-1.15-0.59-2.29-1.17-3.43-1.76c-1.17-0.52-2.34-1.04-3.51-1.56l-1.76-0.77
	l-1.79-0.67c-1.2-0.43-2.39-0.87-3.59-1.3c-1.21-0.38-2.43-0.72-3.65-1.06l-1.83-0.49c-0.61-0.16-1.23-0.26-1.85-0.39
	c-1.23-0.24-2.47-0.47-3.7-0.68c-1.24-0.19-2.49-0.28-3.73-0.39c-2.48-0.26-4.98-0.18-7.45-0.07c1.54,0.83,3.11,1.57,4.7,2.31
	c13.22,2.98,25.66,8.38,36.56,15.64c3.93,1.14,7.83,2.48,11.59,4.15c1.07,0.45,2.15,0.91,3.24,1.4c1.08,0.49,2.11,1.08,3.17,1.64
	c0.53,0.29,1.05,0.58,1.58,0.87c0.53,0.29,1.06,0.59,1.56,0.93c1.02,0.66,2.04,1.33,3.07,2.02c1.04,0.67,2.01,1.44,2.99,2.21
	c0.98,0.77,1.98,1.54,2.94,2.36c0.93,0.85,1.87,1.71,2.81,2.57c0.47,0.44,0.94,0.87,1.41,1.31c0.44,0.47,0.88,0.93,1.33,1.4
	c0.88,0.95,1.76,1.9,2.65,2.85c0.84,0.99,1.66,2.02,2.49,3.04c0.41,0.51,0.83,1.03,1.24,1.54c0.41,0.52,0.78,1.07,1.16,1.61
	c0.76,1.08,1.53,2.17,2.29,3.27c2.88,4.5,5.61,9.19,7.79,14.2c4.58,9.92,7.46,20.69,9.15,31.53c0.31,2.73,0.76,5.44,0.93,8.18
	l0.18,2.05c0.07,0.68,0.13,1.36,0.14,2.05l0.19,4.1c0.05,0.68,0.04,1.36,0.04,2.04l0.02,2.05l0.03,2.04
	c0.01,0.68-0.03,1.36-0.05,2.04c-0.03,1.36-0.06,2.72-0.09,4.07c-0.08,1.36-0.16,2.71-0.24,4.06c-0.05,0.44-0.06,0.92-0.05,1.42
	c0,0.5,0,1.03,0.04,1.59c0.07,1.12,0.22,2.35,0.41,3.67c0.2,1.32,0.31,2.72,0.49,4.19c0.08,0.74,0.15,1.49,0.23,2.25
	c0.07,0.76,0.07,1.52,0.1,2.3c1.66-7.01,2.89-14.11,3.47-21.32c0.57-7.2,0.49-14.5-0.51-21.74c-0.09,2.96-0.14,5.83-0.63,8.61
	c-0.23,1.39-0.42,2.75-0.77,4.08c-0.35,1.33-0.73,2.63-1.15,3.89c-0.2-6.66-0.03-12.7-0.21-18.86l-0.08-2.31l-0.05-1.16l-0.11-1.15
	c-0.15-1.54-0.32-3.1-0.52-4.67c-0.56-3.11-1.21-6.31-2.43-9.49c3.01,6.73,4.94,13.85,5.97,21.05c-0.02-8.85-1.88-18.15-4.53-27.22
	c0.56,1.01,1.13,2.02,1.58,3.06c0.45,1.05,0.86,2.1,1.25,3.16c0.82,2.11,1.33,4.29,1.82,6.46c0.95,4.35,1.33,8.76,1.58,13.14
	c0.1,1.09,0.09,2.19,0.13,3.29c0.03,1.1,0.07,2.19,0.12,3.28c0.05,2.19,0.06,4.39,0.22,6.58c0.03,2.21,0.2,4.42,0.41,6.67
	c0.08,1.12,0.19,2.26,0.34,3.41c0.17,1.15,0.33,2.31,0.5,3.48c0.2-3.89,0.4-7.81,0.6-11.67c-0.04,1.99,0.02,3.98-0.14,5.96
	l-0.17,2.98c-0.03,0.5-0.05,0.99-0.09,1.49l-0.16,1.48c-0.01-0.07-0.02-0.17-0.03-0.24c-0.1,1.49-0.18,2.98-0.25,4.47
	c-0.12,1.49-0.24,2.97-0.34,4.46c-0.06,0.74-0.07,1.49-0.15,2.23c-0.07,0.74-0.14,1.48-0.22,2.21c-0.07,0.74-0.13,1.48-0.19,2.21
	c-0.06,0.74-0.12,1.48-0.22,2.2c-0.17,1.47-0.34,2.93-0.51,4.37c-0.16,1.46-0.42,2.88-0.62,4.31c-0.1,0.72-0.2,1.43-0.31,2.14
	c-0.1,0.71-0.25,1.4-0.38,2.1c-0.26,1.4-0.51,2.79-0.76,4.16c3.4-9.98,6.37-19.61,8.28-29.57c1.83-9.94,2.55-20.22,1.12-30.73
	l-0.2-1.3l-0.26-1.29l-0.52-2.58c-0.18-0.86-0.34-1.71-0.54-2.56c-0.22-0.84-0.44-1.69-0.67-2.53c0.24,0.85,0.48,1.71,0.72,2.55
	c0.2,0.86,0.38,1.72,0.55,2.57c0.17,0.86,0.34,1.71,0.5,2.57l0.24,1.28l0.17,1.29l0.64,4.51c0.2,1.51,0.29,3.02,0.42,4.54l0.18,2.27
	c0.05,0.76,0.05,1.52,0.08,2.28c0.04,1.52,0.09,3.04,0.11,4.56c-0.1,3.04-0.1,6.09-0.43,9.11l-0.2,2.27l-0.1,1.14l-0.15,1.13
	l-0.64,4.51c-1.99,11.99-5.75,23.66-11.16,34.44l-0.99,2.03l-1.09,1.98c-0.74,1.31-1.44,2.64-2.2,3.94
	c-1.6,2.55-3.12,5.13-4.88,7.57l-1.28,1.84l-0.64,0.92l-0.68,0.89l-2.73,3.55c-0.92,1.17-1.92,2.29-2.87,3.43l-1.45,1.7
	c-0.49,0.56-1.01,1.09-1.52,1.64l-3.05,3.25l-3.2,3.09c-0.54,0.51-1.05,1.05-1.61,1.53l-1.67,1.47c-1.12,0.96-2.19,1.98-3.35,2.9
	c-2.31,1.84-4.58,3.72-7,5.39l-1.78,1.29l-0.89,0.64l-0.92,0.6l-3.68,2.41c-0.57,0.48-1.17,0.91-1.78,1.35
	c-0.6,0.44-1.21,0.88-1.82,1.31c1.73,0.19,3.45,0.37,5.07,0.55c8.39-5.41,16.25-11.76,23.38-18.92c1.83-1.74,3.48-3.66,5.21-5.51
	c0.88-0.91,1.66-1.91,2.48-2.87l2.44-2.92l2.31-3.03c0.75-1.02,1.57-2,2.27-3.06l2.16-3.14c0.35-0.53,0.74-1.04,1.07-1.58l1.01-1.62
	c5.43-8.6,10.01-17.79,13.52-27.38C236.29,225.29,238.78,215.32,240.22,205.2"/>
<path class="st0" d="M372.97,729.6c0.72,3.84,2.78,6.87,5.71,9.36c0.85-0.26,1.8-0.17,2.59-0.68c1.52-1.42,0.29-2.76-0.4-3.78
	c-1.07-1.57-1.58-3.2-1.73-5.02c-1.67-2.13-2.11-5.19-4.86-6.53c-1.31,0.57-1.09,1.79-1.22,2.86c-0.02,1.08,0.01,2.17-0.04,3.25
	C373,729.24,372.99,729.42,372.97,729.6z"/>
<path class="st0" d="M439.77,569.85c-0.28,0.24,1.62,1.3,1.35,1.54c-0.23,0.28-0.47,0.57-0.7,0.85c-0.33,1.34,0.31,2.44,0.89,3.56
	c0.91,0.34,1.84,0.29,2.77,0.11c0.53-0.51,1.41-0.8,1.59-1.53c-0.27-0.96-0.45-0.68-0.71-2.08
	C443.72,571.34,441.65,570.02,439.77,569.85z"/>
<path class="st0" d="M290.26,549.37c0.05,2.33-1.22,3.88-3.07,5.04c-0.8,0.5-1.73,0.71-2.6,0.22c-0.88-0.5-0.54-1.32-0.39-2.09
	c0.08-0.41-0.14-0.73-0.51-0.94c-0.76,1.37-1.57,2.74-1.83,4.3c-0.15,0.9,0.2,1.59,1.3,1.23c1.74-0.57,3.52-1.07,5.17-1.84
	C291.24,553.95,291.56,552.75,290.26,549.37z"/>
<path class="st0" d="M442.32,704.09c0.43,5.4,2.02,7.16,7.13,7.93c0.83-0.49,1.66-0.97,2.46-1.51c0.25-0.03,0.51-0.04,0.76-0.06
	c0.29-0.25,0.55-0.52,0.82-0.79l0-0.01c2.67-4.13,2.74-6.32,0.3-8.89c-2.88-3.04-6.45-2.95-9.42,0
	C443.38,701.76,443.38,703.23,442.32,704.09z"/>
<path class="st0" d="M229.55,695.49c-1.36,2.45-3.17,4.68-3.84,7.49c0.21,0.18,0.28,0.36,0.21,0.54c-0.07,0.18-0.14,0.27-0.21,0.27
	c0.07,1.15-0.15,2.2-0.95,3.08c0.07,0.88,0.07,1.76-0.01,2.63c0.66,1.46,2.41,1.74,3.24,3.02c0.79,0.55,1.41,0.09,2.03-0.36
	c0.52-0.55,0.93-1.15,0.76-1.97c-0.45-1.83-1.26-3.64-0.36-5.56c-0.2-2.22,0.19-4.35,0.93-6.43
	C231.13,697.04,230.74,696.01,229.55,695.49z"/>
<path class="st0" d="M212.82,685.92c0.43-0.03,0.85-0.06,1.28-0.1c0.36-0.15,0.72-0.19,1.12-0.18c4.06,0.11,4.06,0.1,3.02-4
	l0.05,0.07c-0.5-0.18-0.78-0.53-0.86-1.04c-0.06-0.39-0.32-0.55-0.69-0.56c-0.31-0.23-0.55-0.58-0.85-0.79
	c-0.97-0.69-1.08-2.87-2.73-2.14"/>
<path class="st0" d="M258.89,732.77c-0.26,0.47-0.51,0.95-0.77,1.42c0.24,0.28,0.51,0.53,0.8,0.75l0.25,0.17l0.3,0
	c1.64,0.59,3.39-0.06,5.03,0.46c2.41,0.01,3.98-1.59,5.71-2.92c1.16-0.89,1.13-2.01,0.66-3.14c-0.43-1.04-1.24-1.66-2.48-1.37
	c-1.27,0.29-2.63-0.03-3.85,0.57c-0.21,0.55-0.14,1.21,0.3,1.45c2.6,1.39,0.8,1.75-0.49,2.24c-0.78,0.23-1.55,0.53-2.38,0.61
	c-1.08,0.08-1.03-1.86-2.36-1.33l-0.02-0.04C259.47,732.08,258.85,732.21,258.89,732.77z"/>
<path class="st0" d="M280.2,741.76c-2.86-0.3-2.83-0.29-2.41-3.49c0.09-0.7-0.6-0.72-1.1-0.85c-1.14,1.26-3.48,1.97-2.4,4.33"/>
<path class="st0" d="M264.51,733.37c1.8-0.3,2.63-1.79,3.86-3.21c-1.81,0.56-3.07,0.14-3.81-1.45c-2.06,0.3-3.53,1.56-4.92,2.97
	c0.22,0.27,0.68,0.6,0.63,0.82c-0.4,1.8,0.72,1.73,1.9,1.63C262.76,733.31,263.15,731.85,264.51,733.37z"/>
<path class="st0" d="M232.86,719.81c-0.09,0.68,0.36,1.33,1.13,1.33c0.54,0,0.86-0.51,0.95-1.09c0.24-1.55-0.16-3.17,0.56-4.67
	c0.26-0.54-0.02-1.05-0.42-1.41c-0.45-0.41-0.81-1.17-1.58-0.85"/>
<path class="st0" d="M240.39,700.77c-0.16,1.42,0.16,2.64,1.67,3.1c1.01,0.31,1.79-0.32,2.26-1.13c0.82-1.41,0.74-2.73-0.79-3.68
	C241.87,698.51,240.08,697.71,240.39,700.77z"/>
<path class="st0" d="M263.38,710.85c-2.22-2.24-3.93-2.73-5.85-2.26c-0.75,0.18-1.5,0.72-1.27,1.72c0.19,0.85,0.75,1.42,1.69,1.39
	C259.56,711.63,260.93,710.61,263.38,710.85z"/>
<path class="st0" d="M239.56,708.5c-0.56,0.58-1.13,1.29-0.57,2.02c0.47,0.61,1.22,0.14,1.75-0.17c1.22-0.72,2.54-1.37,3.55-2.33
	c0.9-0.86,1.26-2.06-0.58-2.52c-0.69,0.57-1.72,0-2.38,0.7l0,0C242.6,708.4,239.67,707.37,239.56,708.5z"/>
<path class="st0" d="M234.31,710.2c2.96-0.99,3.71-3.01,2.73-5.93C234.36,705.48,235.06,708.14,234.31,710.2z"/>
<path class="st0" d="M250.15,721.72c0.05-1.28-0.52-2.25-1.53-2.97c-0.37-0.27-0.77-0.14-1.03,0.15c-1.05,1.21-0.49,2.41,0.09,3.61
	c0.35,0.73,0.73,1.48,1.69,1.19C250.38,723.4,250.03,722.44,250.15,721.72z"/>
<path class="st0" d="M218.24,691.65c0,0.92,0,1.84,0,2.94c-1.03,1.13-3.11-0.39-4.13,1.25c0.11,0.07,0.2,0.17,0.32,0.21
	c1.67,0.6,3.55,1.75,4.98,0C220.76,694.37,218.77,693.09,218.24,691.65z"/>
<path class="st0" d="M239.55,719.49c0.18,1.18,0.56,2.22,1.79,2.7c0.67-0.63,0.7-1.51,0.87-2.33c0.28-1.48,0.97-3.25-1.81-2.58
	C240.05,717.99,239.52,718.63,239.55,719.49z"/>
<path class="st0" d="M240.41,717.29c1.92-0.06,1.64,1.42,1.81,2.58c0.82-0.8,0.43-2.11,1.1-2.9c0.6-0.69,1.02-1.15,0.15-1.89
	c-0.78-0.67-1.43-0.39-2.1,0.15C240.71,715.76,240.37,716.44,240.41,717.29z"/>
<path class="st0" d="M241.41,723.63c-1.33,1.88-1.49,3.74,0.12,5.57c0.28,0.28,0.55,0.27,0.82-0.01
	C242.61,727.23,241.27,725.55,241.41,723.63z"/>
<path class="st0" d="M261.35,714.18c-0.27,0-0.55,0.01-0.82,0.01c-0.27,0.53-0.54,1.06-0.81,1.59c1.06-0.28,2.12-0.55,3.19-0.83
	c0.84-0.15,1.78,0.06,2.45-0.7C264.02,713.89,262.69,714.03,261.35,714.18z"/>
<path class="st0" d="M224.39,698.77c0.22-2.08,1.87-1.56,3.14-1.72c-0.39-0.64-1.02-0.61-1.67-0.66
	C223.5,696.22,223.5,696.2,224.39,698.77z"/>
<path class="st0" d="M239.56,708.5c0.51-0.08,1.03-0.13,1.54-0.25c1.9-0.46,0.9-1.28,0.24-2.05
	C240.16,706.52,239.77,707.44,239.56,708.5z"/>
<path class="st0" d="M244.75,723.5c1.25-0.87,1.21-1.75,0.01-2.63C243.08,721.74,243.49,722.62,244.75,723.5z"/>
<path class="st0" d="M234.82,722.8c0.1,0.52,0.25,1.09,0.79,1.26c0.4,0.13,0.76-0.18,0.78-0.63c0.02-0.58-0.34-1.02-0.83-1.22
	C235.17,722.05,234.84,722.3,234.82,722.8z"/>
<path class="st0" d="M264.51,735.58c-1.59-1.09-3.33-0.59-5.03-0.46C261.1,735.94,262.79,735.86,264.51,735.58z"/>
<path class="st0" d="M250.94,725.12c0.1,0.37,0.09,0.99,0.84,0.86c0.39-0.07,0.69-0.37,0.65-0.78c-0.06-0.54-0.38-0.99-0.95-0.98
	C251.07,724.22,250.92,724.63,250.94,725.12z"/>
<path class="st0" d="M251.52,705.33c0.26,0.35,0.59,0.57,0.98,0.26c0.17-0.13,0.35-0.52,0.27-0.65c-0.22-0.37-0.62-0.43-1.02-0.26
	C251.43,704.81,251.36,705.03,251.52,705.33z"/>
<path class="st0" d="M241.33,706.2c0.88,0.06,1.77,0.17,2.38-0.7C242.85,705.49,241.97,705.42,241.33,706.2z"/>
<path class="st0" d="M254.77,733.3c0.69,0.13,1.3,0,1.73-0.61C255.79,732.52,255.24,732.79,254.77,733.3z"/>
<path class="st0" d="M247.9,710.14c0.04,0.1,0.07,0.26,0.13,0.28c0.24,0.06,0.36-0.09,0.29-0.39c-0.02-0.07-0.19-0.16-0.25-0.14
	C248,709.92,247.96,710.05,247.9,710.14z"/>
<path class="st0" d="M258.89,732.77c0.4-0.27,0.71-0.61,0.72-1.13c-0.55,0.28-1.1,0.55-1.66,0.83
	C258.27,732.57,258.58,732.67,258.89,732.77z"/>
<path class="st0" d="M254.43,707.58c-0.04,0.1-0.14,0.22-0.12,0.31c0.08,0.33,0.27,0.37,0.45,0.09c0.05-0.07,0-0.24-0.06-0.33
	C254.66,707.59,254.52,707.6,254.43,707.58z"/>
<path class="st0" d="M237.42,690.68c0.07,0.53,0.35,0.88,0.86,1.04C238.26,691.16,237.94,690.84,237.42,690.68z"/>
<path class="st0" d="M258.92,734.95c-0.27-0.25-0.53-0.5-0.8-0.75c-0.02,0.23-0.03,0.47-0.03,0.7
	C258.37,734.91,258.65,734.93,258.92,734.95z"/>
<path class="st0" d="M235.71,727.79c0.6-0.27,0.56-0.53,0-0.8C235.72,727.25,235.71,727.52,235.71,727.79z"/>
<path class="st0" d="M250.39,729.53c0.55-0.15,0.78-0.5,0.56-0.83c-0.16-0.25-0.62-0.4-0.95-0.4c-0.39,0-0.73,0.31-0.43,0.72
	C249.77,729.27,250.16,729.39,250.39,729.53z"/>
<path class="st0" d="M264.51,733.37c0.21-0.57,0.85-1.17,0.47-1.73c-0.58-0.85-0.98,0.19-1.48,0.3c-1.3,0.29-1.52,1.08-1.33,2.19
	C262.94,733.88,263.73,733.63,264.51,733.37z"/>
<path class="st0" d="M299.61,526.18c3.55-1.86,6.47-3.29,9.95-2.08c0.69,0.24,1.75,0.29,1.48,1.44c-0.17,0.73-0.89,0.97-1.59,0.88
	C306.46,526.06,303.46,527.92,299.61,526.18"/>
<path class="st0" d="M348.08,558.24c0.24-1.45,1.42-2.72,0.11-4.4c-0.95-1.22,0.11-2.48,1.79-2.74c1.91-0.3,1.62,3.09,3.81,2.14
	c0.15,0.57-0.07,1.05-0.45,1.43c-1.09,1.1-2.21,2.18-3.32,3.26C349.32,557.72,348.8,558.64,348.08,558.24z"/>
<path class="st0" d="M351.87,546.78c1.53-0.7,2.08-2.17,2.49-3.67c1.5,0.58,1.94,1.77,2.7,2.64c0.46,0.53,0.63,1.19,0.17,1.82
	c-0.44,0.6-1.09,0.72-1.78,0.51c-0.88-0.27-1.74-0.76-2.61,0.02c-0.5,0.58-0.9,0.6-1.15-0.21l0,0
	C351.77,547.53,351.82,547.15,351.87,546.78z"/>
<path class="st0" d="M335.22,529.21c0.29,1.69,2.06,2.37,2.62,3.85c0.12,0.3-0.01,0.78-0.18,1.09c-0.19,0.34-0.61,0.48-0.99,0.26
	c-1.67-0.97-2.26-3.13-1.43-5.21L335.22,529.21z"/>
<path class="st0" d="M354.88,529.59c1.96-0.35,3.54-1.58,5.69-2.23C358.8,530.13,357.91,530.48,354.88,529.59z"/>
<path class="st0" d="M315.39,523.05c0.97,0.24,1.96,0.42,2.89,0.75c0.21,0.07,0.41,0.71,0.32,0.99c-0.08,0.26-0.55,0.56-0.86,0.57
	C316.41,525.4,315.87,524.27,315.39,523.05z"/>
<path class="st0" d="M321.6,526.22c-0.32-0.59,0.01-0.96,0.45-1.25c0.6-0.4,1.32-0.41,1.72,0.13c0.39,0.54,0.27,1.27-0.48,1.56
	C322.67,526.9,322.05,526.79,321.6,526.22z"/>
<path class="st0" d="M327.85,525.21c0.34-0.12,0.47-0.21,0.58-0.2c0.75,0.08,1.59,0.02,2.01,0.84c0.07,0.13-0.1,0.55-0.25,0.6
	c-0.83,0.3-1.43-0.26-2.06-0.67C328.04,525.73,328.02,525.58,327.85,525.21z"/>
<path class="st0" d="M335.23,529.2c-0.11-0.06-0.23-0.11-0.33-0.19c-0.58-0.52-2,0.06-1.85-1.39c0.02-0.15,0.41-0.42,0.51-0.37
	c0.85,0.39,2.16,0.42,1.65,1.96L335.23,529.2z"/>
<path class="st0" d="M346.79,539.36c-0.22-0.35-0.23-0.89,0.16-1.3c0.29-0.3,0.77-0.26,1.06,0.07c0.4,0.47,0.27,1.01-0.11,1.41
	C347.62,539.85,347.21,539.86,346.79,539.36z"/>
<path class="st0" d="M340.25,535c0.01,0.21,0.19,0.68,0.02,0.88c-0.42,0.51-0.89,0.23-1.21-0.21c-0.25-0.33-0.22-0.73,0.12-0.98
	C339.53,534.43,339.88,534.53,340.25,535z"/>
<path class="st0" d="M351.69,547.89c0.38,0.07,0.76,0.14,1.15,0.21c0.07,0.6,0.18,1.51-0.49,1.48
	C351.44,549.55,351.41,548.66,351.69,547.89z"/>
<path class="st0" d="M352.52,540.76c0.21,0.05,0.52,0.03,0.62,0.17c0.26,0.36,0.09,0.71-0.32,0.79c-0.16,0.03-0.48-0.19-0.55-0.36
	C352.22,541.2,352.43,540.96,352.52,540.76z"/>
<path class="st0" d="M343.97,537.73c-0.05,0.2-0.03,0.5-0.16,0.59c-0.35,0.24-0.68,0.09-0.76-0.3c-0.03-0.15,0.18-0.46,0.35-0.52
	C343.54,537.44,343.77,537.64,343.97,537.73z"/>
<path class="st0" d="M344.1,542.89c0.21,0.02,0.51-0.03,0.61,0.09c0.29,0.34,0.16,0.69-0.24,0.81c-0.15,0.05-0.47-0.15-0.55-0.32
	C343.86,543.34,344.03,543.09,344.1,542.89z"/>
<path class="st0" d="M315.05,525.21c-0.1,0.28-0.11,0.59-0.24,0.65c-0.45,0.22-0.94,0.25-1.21-0.28c-0.04-0.08,0.23-0.47,0.39-0.49
	C314.33,525.06,314.68,525.17,315.05,525.21z"/>
<path class="st0" d="M356.32,553.48c-0.05,0.21-0.03,0.51-0.16,0.61c-0.36,0.26-0.69,0.09-0.77-0.32c-0.03-0.16,0.18-0.47,0.35-0.54
	C355.89,553.18,356.13,553.39,356.32,553.48z"/>
<path class="st0" d="M307.09,528.95c-0.07,0.2-0.08,0.51-0.22,0.59c-0.37,0.21-0.7,0.04-0.74-0.38c-0.02-0.17,0.21-0.48,0.38-0.52
	C306.67,528.61,306.89,528.84,307.09,528.95z"/>
<path class="st0" d="M310.58,528.22c0.25,0.12,0.64,0.21,0.9,0.45c0.37,0.35,0.11,0.7-0.27,0.76c-0.33,0.05-0.7-0.14-1.05-0.23
	C310.25,529,310.34,528.79,310.58,528.22z"/>
<path class="st0" d="M328,529.67c-0.02,0.2,0.03,0.49-0.09,0.58c-0.34,0.28-0.68,0.15-0.83-0.23c-0.05-0.12,0.14-0.47,0.28-0.52
	C327.54,529.46,327.78,529.61,328,529.67z"/>
<path class="st0" d="M348.08,558.24c0.62-0.26,1.22-0.67,1.95-0.31c-0.35,0.33-0.65,0.72-1.05,0.96
	C348.24,559.34,347.87,559.15,348.08,558.24z"/>
<path class="st0" d="M331.32,528.22c-0.07,0.08-0.15,0.25-0.19,0.23c-0.11-0.03-0.2-0.13-0.29-0.21c0.07-0.08,0.16-0.25,0.19-0.23
	C331.13,528.05,331.22,528.15,331.32,528.22z"/>
<path class="st0" d="M349.91,540.92c-0.06,0.09-0.1,0.24-0.18,0.28c-0.33,0.13-0.47,0-0.34-0.31c0.03-0.08,0.2-0.14,0.31-0.15
	C349.76,540.74,349.83,540.86,349.91,540.92z"/>
<path class="st0" d="M351.87,546.78c-0.06,0.37-0.12,0.75-0.18,1.12C351.53,547.49,351.59,547.12,351.87,546.78z"/>
<path class="st0" d="M433.57,747.18c-0.01-3.93,0.33-7.87-0.75-11.75c-0.56-2.01-1.64-3.53-3.07-4.95
	c-0.81-0.81-1.57-1.44-2.74-1.07c-1.28,0.41-2,1.57-2.03,2.7c-0.06,2.49-0.28,5.29,1.4,7.25c2.43,2.82,3.64,5.96,4.01,9.55
	C430.8,747.11,433.33,749.25,433.57,747.18z"/>
<path class="st0" d="M420.3,752.32c0.12-0.68-0.31-1.52-0.78-2.32c-0.88-1.49-3.04-2.58-3.94-2.03c-0.98,0.6-0.98,2.62,0.01,4.35
	c0.33,0.58,0.68,1.15,1.08,1.68c0.64,0.83,1.28,2.03,2.5,1.49C420.25,755.01,420.12,753.68,420.3,752.32z"/>
<path class="st0" d="M427.57,641.62c-0.06-1.95-1.58-3.28-3.72-3.24c-1.33,0.02-2.53,1.31-2.42,2.62c0.13,1.61,1.87,3,3.68,2.93
	C427.01,643.87,427.63,643.29,427.57,641.62z"/>
<path class="st0" d="M449.74,676.54c-0.13,1.6,1.24,3.03,2.96,3.28c1.09,0.16,1.81-0.19,1.87-1.38c0.09-1.56-1.24-3.32-2.64-3.44
	C450.72,674.91,449.95,675.48,449.74,676.54z"/>
<path class="st0" d="M433.57,747.18c-0.48,0.18-1.18,0.67-1.39,0.5c-1.94-1.47-1.63,0.18-1.78,1.22c0.12,1.56,1.17,2,2.38,1.52
	C434.29,749.8,434.05,748.45,433.57,747.18z"/>
<path class="st0" d="M437.36,736.98c0.31-4.53,1.39-8.83-3.26-12.05c-1.06,2.36-2.07,4.22-0.07,6.51
	C435.33,732.94,435.77,735.1,437.36,736.98z"/>
<path id="XMLID_1_" class="st0" d="M449.22,648.2c-2.22,19.35-8.25,38.05-17.52,55.01c-9.3,16.96-21.73,32.24-36.76,45.19
	c2.06-0.06,4.12-0.21,6.23-0.53c0.36-0.22,0.73-0.43,1.09-0.66l1.05-0.71c0.7-0.48,1.4-0.96,2.1-1.44
	c6.58-6.96,12.39-14.45,17.66-22.12c5.28-7.68,10.02-15.53,14.61-23.42c0.84-1.41,1.51-2.9,2.22-4.37c0.69-1.48,1.41-2.94,1.97-4.46
	c0.59-1.51,1.17-3.01,1.73-4.52c0.51-1.52,0.97-3.06,1.44-4.58c0.23-0.76,0.47-1.52,0.67-2.29c0.19-0.77,0.38-1.54,0.56-2.31
	c0.36-1.54,0.76-3.05,1.05-4.59c0.56-3.07,1.16-6.1,1.5-9.13c0.1-0.75,0.2-1.51,0.3-2.26l0.15-1.12l0.1-1.13
	c0.14-1.49,0.28-2.98,0.42-4.45l0.11-1.1l0.06-1.1c0.05-0.73,0.09-1.46,0.14-2.19c0.05-0.73,0.1-1.45,0.15-2.17l0.08-1.08l0.04-1.08
	c0.1-2.87,0.34-5.69,0.4-8.47c0.06-1.39,0.15-2.77,0.24-4.15c0.04-1.37,0.11-2.73,0.21-4.09l0.12-2.13
	c0.04-0.71,0.04-1.42,0.06-2.13c0.04-1.42,0.09-2.84,0.16-4.26c0.07-2.86,0.13-5.7,0.19-8.48c0-1.4,0-2.8,0.02-4.2
	c0.02-1.4,0.07-2.79,0.03-4.16c-0.01-1.37-0.01-2.74,0-4.11c0-0.68,0.03-1.37,0.01-2.04c-0.01-0.67-0.02-1.34-0.03-2
	c-0.58-1.68-1.14-3.37-1.74-5.03c-0.64-1.65-1.29-3.29-1.93-4.93c-4.65-10.95-10.68-21.19-17.74-30.65
	c-3.49-4.76-7.39-9.2-11.39-13.51c-1.02-1.06-2.08-2.08-3.12-3.12c-1.05-1.03-2.06-2.09-3.17-3.06c-2.18-1.97-4.33-3.97-6.64-5.79
	c-1.14-0.92-2.26-1.87-3.42-2.77l-3.53-2.62l-1.77-1.31l-1.82-1.23l-3.64-2.44c-1.23-0.79-2.49-1.53-3.74-2.29
	c-1.25-0.75-2.48-1.54-3.78-2.21c-2.57-1.39-5.11-2.82-7.76-4.05c-5.21-2.62-10.65-4.74-16.11-6.74
	c-5.52-1.83-11.09-3.55-16.78-4.75c-10.08-1.23-20.34-1.76-30.67-1.43c-10.33,0.37-20.72,1.61-30.98,3.8
	c-10.26,2.18-20.4,5.32-30.17,9.4c-9.75,4.1-19.14,9.15-27.95,15.09c7.91-6.07,16.41-11.36,25.34-15.82
	c8.93-4.47,18.33-8.11,28.04-10.84c-10.85,2.53-21.42,6.24-31.48,11.04c-10.06,4.79-19.67,10.67-28.51,17.63
	c-7.6,6.15-14.28,13.21-19.96,20.87c-5.68,7.67-10.36,15.94-14.06,24.56c0.25,1.2,0.41,2.5,0.47,3.92c0.03,0.71,0.02,1.44,0.01,2.22
	c0,0.78-0.03,1.6-0.1,2.44c-0.07,0.85-0.17,1.73-0.3,2.65c-0.15,0.91-0.31,1.87-0.48,2.9c-0.18,1.02-0.39,2.07-0.65,3.18
	c-0.25,1.1-0.58,2.24-0.85,3.47c-1.98,7.53-3.63,15.04-4.47,22.68c-0.84,7.63-0.86,15.4,0.59,23.12c0,2.12-2.5,1.73-2.46,6.06
	c-0.06-1.51-0.03-2.99-0.09-4.43c-0.03-1.44-0.15-2.86-0.16-4.24c-0.06-2.77-0.3-5.43-0.39-8c-0.07-1.28-0.17-2.55-0.29-3.79
	c-0.09-1.24-0.16-2.46-0.27-3.67c-0.1-1.21-0.23-2.4-0.37-3.58c-0.09-1.17-0.2-2.33-0.33-3.48c-0.1,1.38-0.25,2.75-0.3,4.14
	c-0.04,1.38-0.09,2.76-0.14,4.15l-0.06,2.07l0.03,2.08c0.02,1.38,0.04,2.77,0.06,4.16c0.05,1.39,0.16,2.78,0.23,4.16
	c0.1,1.39,0.13,2.78,0.31,4.16c0.31,2.78,0.54,5.55,1.01,8.32c1.05,10.33,2.4,19.78,4.27,29.04c1.89,9.24,4.32,18.3,7.89,27.45
	l0.78,1.38c0.26,0.45,0.55,0.9,0.83,1.34c0.55,0.89,1.11,1.79,1.67,2.69c5.56,8.89,12.96,16.77,21.24,23.34
	c-1.4-1.58-2.72-3.24-4.1-4.89c-0.7-0.81-1.34-1.69-2-2.57c-0.65-0.88-1.31-1.76-1.98-2.65c5.2,4.58,10.87,10.98,15.47,15.53
	c-2.56-1.67-4.95-3.57-7.39-5.43c6.73,7.57,13.94,14.18,22.7,20.54c-5.36-3.78-10.64-7.8-15.71-11.78c-1.26-1.01-2.51-2.01-3.74-3
	c-1.21-1.03-2.4-2.05-3.57-3.05c-0.59-0.5-1.18-1-1.76-1.49c-0.56-0.51-1.12-1.02-1.67-1.52c-1.11-1.01-2.2-2-3.26-2.97
	c1.02,1.15,2.04,2.29,3.06,3.43c0.51,0.56,1,1.14,1.54,1.68c0.53,0.54,1.07,1.08,1.6,1.61c1.07,1.07,2.12,2.14,3.19,3.18
	c1.11,1.01,2.21,2.01,3.31,3.01l1.65,1.49l1.71,1.42c1.14,0.94,2.28,1.88,3.41,2.82c1.17,0.89,2.34,1.77,3.51,2.66
	c1.17,0.89,2.33,1.78,3.55,2.59c9.57,6.74,19.64,12.61,30.6,17.97c-0.63-0.09-1.27-0.18-1.89-0.26c8.33,2.49,16.85,4.06,25.4,4.79
	c8.56,0.71,17.14,0.58,25.63-0.32c17-1.8,33.58-6.65,49.34-14.09c0.95-0.45,1.85-0.89,2.65-1.42c0.8-0.53,1.53-1.07,2.19-1.62
	c1.32-1.11,2.4-2.2,3.2-3.39c1.61-2.36,2.29-4.66,2.4-6.62c0.09-1.95-0.31-3.66-1.01-4.7c-0.34-0.53-0.75-0.9-1.19-1.09
	s-0.86-0.22-1.29-0.02c-14.06,8.46-30.02,13.59-46.28,15.04c-16.26,1.48-32.79-0.68-48.11-6.08c-15.32-5.41-29.4-14.06-41.16-25.12
	c-11.77-11.05-21.2-24.52-27.77-39.34c1.34,7.37,3.45,14.82,6.47,22.18c0.8,1.49,1.55,2.99,2.22,4.5c0.73,1.48,1.4,2.95,1.98,4.46
	c-0.76-1.5-1.53-2.96-2.24-4.45c-0.66-1.51-1.31-3.01-1.96-4.51c-0.56-0.99-1.05-2.05-1.6-3.09c-0.54-1.04-1.09-2.08-1.66-3.12
	c-0.56-1.05-1.06-2.14-1.6-3.21c-0.53-1.08-1.1-2.15-1.61-3.26c-0.48-1.12-0.97-2.23-1.45-3.36c-0.48-1.12-0.97-2.24-1.35-3.41
	c-0.79-2.33-1.61-4.63-2.07-7.04c0.04-0.5-0.04-1.21-0.25-2.02c-0.2-0.81-0.54-1.7-0.89-2.61c-0.74-1.8-1.89-3.54-3.39-4.31
	c-0.91-6.68-2.41-13.75-3.24-20.98c-0.84-7.2-0.99-14.54,0.38-21.04c0.09-0.78,0.91-2.05,1.88-3.48c0.52-8.2,1.83-16.4,3.92-24.47
	c1.54-5.62,3.45-11.11,5.72-16.44c2.37-5.29,5.06-10.41,8.11-15.3c0.78-1.21,1.6-2.39,2.4-3.59c0.41-0.59,0.79-1.2,1.22-1.78
	l1.29-1.72l1.29-1.72c0.43-0.58,0.86-1.15,1.33-1.69c0.92-1.1,1.84-2.2,2.75-3.3c0.45-0.56,0.95-1.07,1.43-1.6l1.46-1.57l1.46-1.57
	c0.49-0.52,1.02-1,1.53-1.5c1.03-0.99,2.05-1.98,3.07-2.97c1.07-0.93,2.15-1.87,3.22-2.8c17.35-14.68,38.85-23.96,60.67-26.27
	c-1.34,0.02-2.67,0.04-3.99,0.06c-1.33,0.05-2.64,0.15-3.97,0.22c-2.66,0.09-5.25,0.44-7.87,0.65c-1.31,0.11-2.58,0.34-3.87,0.49
	c-0.65,0.08-1.29,0.16-1.93,0.25c-0.65,0.07-1.29,0.16-1.92,0.27c-1.28,0.21-2.54,0.41-3.79,0.62c-0.63,0.1-1.27,0.19-1.89,0.3
	c-0.62,0.12-1.24,0.24-1.86,0.37c-3.43,0.47-7.56,1.89-12,4.12c-1.1,0.57-2.24,1.18-3.39,1.82c-0.29,0.16-0.58,0.32-0.87,0.49
	c-0.28,0.18-0.57,0.36-0.85,0.54c-0.57,0.37-1.15,0.74-1.73,1.12c-0.58,0.38-1.16,0.77-1.75,1.16c-0.59,0.39-1.19,0.78-1.76,1.23
	c-1.15,0.88-2.31,1.77-3.5,2.67c-0.29,0.23-0.59,0.46-0.88,0.69c-0.28,0.24-0.57,0.49-0.86,0.74c-0.57,0.49-1.14,0.99-1.72,1.49
	c-1.14,1.01-2.32,2-3.41,3.11c-1.1,1.08-2.22,2.18-3.33,3.28c-1.06,1.15-2.12,2.31-3.18,3.47c-1.08,1.13-2.05,2.38-3.06,3.57
	c-1,1.21-2.02,2.38-2.93,3.64c-0.94,1.23-1.87,2.46-2.79,3.68c-0.87,1.25-1.74,2.49-2.6,3.72c-0.82,1.28-1.58,2.39-2.44,3.35
	c-0.84,0.96-1.76,1.79-2.66,2.63c-0.88,0.86-1.77,1.71-2.66,2.66c-0.45,0.47-0.89,0.98-1.32,1.51c-0.42,0.55-0.81,1.15-1.2,1.8
	c0.14-0.68,0.29-1.37,0.46-2.06c0.19-0.67,0.41-1.35,0.63-2.02c0.45-1.35,0.94-2.71,1.49-4.07c0.6-1.32,1.25-2.65,1.94-3.98
	c0.35-0.66,0.68-1.34,1.08-1.98c0.4-0.64,0.8-1.28,1.21-1.93c0.42-0.64,0.84-1.28,1.26-1.92c0.43-0.64,0.86-1.29,1.34-1.89
	c0.95-1.23,1.92-2.46,2.92-3.68c1-1.22,2.12-2.35,3.2-3.53c0.55-0.58,1.1-1.16,1.66-1.74c0.59-0.55,1.17-1.1,1.76-1.65
	c0.59-0.55,1.18-1.09,1.78-1.64c0.6-0.55,1.18-1.1,1.82-1.61c1.26-1.02,2.51-2.05,3.77-3.08c1.26-1.02,2.61-1.94,3.91-2.91
	l1.96-1.44l2.03-1.34c5.33-3.66,10.91-6.81,16.29-9.92c7.24-3.99,15.83-7.26,25.1-9.42c9.27-2.18,19.21-3.26,29.16-3.29
	c9.96,0.03,19.92,1.1,29.46,2.8c9.57,1.67,18.69,4.11,27.33,6.52c7.16,1.96,13.54,5.55,18.78,9.93c1.35,1.03,2.55,2.24,3.76,3.37
	c0.59,0.58,1.18,1.16,1.76,1.73c0.57,0.59,1.1,1.21,1.63,1.81c1.06,1.22,2.1,2.39,3.05,3.61c0.94,1.24,1.84,2.46,2.7,3.65
	c-4.14-1.69-10.2-6.58-13.45-8.84c-14.38-10.29-31.15-17.41-48.75-20.68c-8.8-1.62-17.8-2.31-26.78-1.87
	c-8.97,0.42-17.92,1.88-26.56,4.38c9.23-1.58,18.4-2.42,27.49-2.38c9.09,0.08,18.09,1,26.86,2.88c8.76,1.9,17.32,4.7,25.33,8.65
	c8.01,3.93,15.5,8.9,22.1,14.87c-1.08-0.73-2.15-1.48-3.2-2.23c-1.09-0.71-2.17-1.42-3.25-2.13l-1.61-1.09l-1.65-1.01
	c-1.1-0.69-2.19-1.37-3.29-2.06c-1.12-0.64-2.24-1.28-3.36-1.91l-1.68-0.96l-1.72-0.88c-1.15-0.59-2.29-1.17-3.43-1.76
	c-1.17-0.52-2.34-1.04-3.51-1.56l-1.76-0.77l-1.79-0.67c-1.2-0.43-2.39-0.87-3.59-1.3c-1.21-0.38-2.43-0.72-3.65-1.06l-1.83-0.49
	c-0.61-0.16-1.23-0.26-1.85-0.39c-1.23-0.24-2.47-0.47-3.7-0.68c-1.24-0.19-2.49-0.28-3.73-0.39c-2.48-0.26-4.98-0.18-7.45-0.07
	c1.54,0.83,3.11,1.57,4.7,2.31c13.22,2.98,25.66,8.38,36.56,15.64c3.93,1.14,7.83,2.48,11.59,4.15c1.07,0.45,2.15,0.91,3.24,1.4
	c1.08,0.49,2.11,1.08,3.17,1.64c0.53,0.29,1.05,0.58,1.58,0.87c0.53,0.29,1.06,0.59,1.56,0.93c1.02,0.66,2.04,1.33,3.07,2.02
	c1.04,0.67,2.01,1.44,2.99,2.21c0.98,0.77,1.98,1.54,2.94,2.36c0.93,0.85,1.87,1.71,2.81,2.57c0.47,0.44,0.94,0.87,1.41,1.31
	c0.44,0.47,0.88,0.93,1.33,1.4c0.88,0.95,1.76,1.9,2.65,2.85c0.84,0.99,1.66,2.02,2.49,3.04c0.41,0.51,0.83,1.03,1.24,1.54
	c0.41,0.52,0.78,1.07,1.16,1.61c0.76,1.08,1.53,2.17,2.29,3.27c2.88,4.5,5.61,9.19,7.79,14.2c4.58,9.92,7.46,20.69,9.15,31.53
	c0.31,2.73,0.76,5.44,0.93,8.18l0.18,2.05c0.07,0.68,0.13,1.36,0.14,2.05l0.19,4.1c0.05,0.68,0.04,1.36,0.04,2.04l0.02,2.05
	l0.03,2.04c0.01,0.68-0.03,1.36-0.05,2.04c-0.03,1.36-0.06,2.72-0.09,4.07c-0.08,1.36-0.16,2.71-0.24,4.06
	c-0.05,0.44-0.06,0.92-0.05,1.42c0,0.5,0,1.03,0.04,1.59c0.07,1.12,0.22,2.35,0.41,3.67c0.2,1.32,0.31,2.72,0.49,4.19
	c0.08,0.74,0.15,1.49,0.23,2.25c0.07,0.76,0.07,1.52,0.1,2.3c1.66-7.01,2.89-14.11,3.47-21.32c0.57-7.2,0.49-14.5-0.51-21.74
	c-0.09,2.96-0.14,5.83-0.63,8.61c-0.23,1.39-0.42,2.75-0.77,4.08c-0.35,1.33-0.73,2.63-1.15,3.89c-0.2-6.66-0.03-12.7-0.21-18.86
	l-0.08-2.31l-0.05-1.16l-0.11-1.15c-0.15-1.54-0.32-3.1-0.52-4.67c-0.56-3.11-1.21-6.31-2.43-9.49c3.01,6.73,4.94,13.85,5.97,21.05
	c-0.02-8.85-1.88-18.15-4.53-27.22c0.56,1.01,1.13,2.02,1.58,3.06c0.45,1.05,0.86,2.1,1.25,3.16c0.82,2.11,1.33,4.29,1.82,6.46
	c0.95,4.35,1.33,8.76,1.58,13.14c0.1,1.09,0.09,2.19,0.13,3.29c0.03,1.1,0.07,2.19,0.12,3.28c0.05,2.19,0.06,4.39,0.22,6.58
	c0.03,2.21,0.2,4.42,0.41,6.67c0.08,1.12,0.19,2.26,0.34,3.41c0.17,1.15,0.33,2.31,0.5,3.48c0.2-3.89,0.4-7.81,0.6-11.67
	c-0.04,1.99,0.02,3.98-0.14,5.96l-0.17,2.98c-0.03,0.5-0.05,0.99-0.09,1.49l-0.16,1.48c-0.01-0.07-0.02-0.17-0.03-0.24
	c-0.1,1.49-0.18,2.98-0.25,4.47c-0.12,1.49-0.24,2.97-0.34,4.46c-0.06,0.74-0.07,1.49-0.15,2.23c-0.07,0.74-0.14,1.48-0.22,2.22
	c-0.07,0.74-0.13,1.48-0.2,2.21c-0.06,0.74-0.12,1.48-0.22,2.2c-0.17,1.47-0.34,2.93-0.51,4.37c-0.16,1.46-0.42,2.88-0.62,4.31
	c-0.1,0.72-0.2,1.43-0.31,2.14c-0.1,0.71-0.25,1.4-0.38,2.1c-0.26,1.4-0.51,2.79-0.76,4.16c3.4-9.98,6.37-19.61,8.28-29.57
	c1.83-9.94,2.55-20.22,1.12-30.73l-0.2-1.3l-0.26-1.29l-0.52-2.58c-0.18-0.86-0.34-1.71-0.54-2.56c-0.22-0.84-0.44-1.69-0.67-2.53
	c0.24,0.85,0.48,1.71,0.72,2.55c0.2,0.86,0.38,1.72,0.55,2.57c0.17,0.86,0.34,1.71,0.5,2.57l0.24,1.28l0.17,1.29l0.64,4.51
	c0.2,1.51,0.29,3.02,0.42,4.54l0.18,2.27c0.05,0.76,0.05,1.52,0.08,2.28c0.04,1.52,0.09,3.04,0.11,4.56
	c-0.1,3.04-0.1,6.09-0.43,9.11l-0.2,2.27l-0.1,1.14l-0.15,1.13l-0.64,4.51c-1.99,11.99-5.75,23.66-11.16,34.44l-0.99,2.03
	l-1.09,1.98c-0.74,1.31-1.44,2.64-2.2,3.94c-1.6,2.55-3.12,5.13-4.88,7.57l-1.28,1.84l-0.64,0.92l-0.68,0.89l-2.73,3.55
	c-0.92,1.17-1.92,2.29-2.87,3.43l-1.45,1.7c-0.49,0.56-1.01,1.09-1.52,1.64l-3.05,3.25l-3.2,3.09c-0.54,0.51-1.05,1.05-1.61,1.53
	l-1.67,1.47c-1.12,0.96-2.19,1.98-3.35,2.9c-2.31,1.84-4.58,3.72-7,5.39l-1.78,1.29l-0.89,0.64l-0.92,0.6l-3.68,2.41
	c-0.57,0.48-1.17,0.91-1.78,1.35c-0.6,0.44-1.21,0.88-1.82,1.31c1.73,0.19,3.45,0.37,5.07,0.55c8.39-5.41,16.25-11.76,23.38-18.92
	c1.83-1.74,3.48-3.66,5.21-5.51c0.88-0.91,1.66-1.91,2.48-2.87l2.44-2.92l2.31-3.03c0.75-1.02,1.57-2,2.27-3.06l2.16-3.14
	c0.35-0.53,0.74-1.04,1.07-1.58l1.01-1.62c5.43-8.6,10.01-17.79,13.52-27.38C445.29,668.29,447.78,658.32,449.22,648.2"/>
</svg>
