<?xml version="1.0" encoding="utf-8"?>
<!-- Generator: Adobe Illustrator 23.0.3, SVG Export Plug-In . SVG Version: 6.00 Build 0)  -->
<svg version="1.1" id="Laag_1" xmlns="http://www.w3.org/2000/svg" xmlns:xlink="http://www.w3.org/1999/xlink" x="0px" y="0px"
	 viewBox="0 0 400 904" style="enable-background:new 0 0 400 904;" xml:space="preserve">
<style type="text/css">
	.st0{fill:#F4F4F4;}
</style>
<path class="st0" d="M120.45,236.12c0.56,3.01,2.17,5.38,4.47,7.33c0.67-0.2,1.41-0.14,2.03-0.53c1.19-1.11,0.23-2.16-0.32-2.96
	c-0.84-1.23-1.23-2.51-1.35-3.93c-1.31-1.67-1.65-4.06-3.8-5.11c-1.02,0.45-0.85,1.4-0.95,2.24c-0.01,0.85,0.01,1.7-0.03,2.54
	C120.47,235.84,120.46,235.98,120.45,236.12z"/>
<path class="st0" d="M172.73,111.09c-0.22,0.19,1.27,1.02,1.05,1.21c-0.18,0.22-0.37,0.44-0.55,0.66c-0.26,1.05,0.24,1.91,0.7,2.78
	c0.71,0.26,1.44,0.23,2.17,0.09c0.41-0.4,1.1-0.62,1.24-1.2c-0.21-0.75-0.36-0.54-0.56-1.63
	C175.82,112.26,174.2,111.22,172.73,111.09z"/>
<path class="st0" d="M55.72,95.06c0.04,1.83-0.95,3.04-2.41,3.95c-0.63,0.39-1.35,0.55-2.03,0.17c-0.69-0.39-0.42-1.04-0.3-1.63
	c0.06-0.32-0.11-0.57-0.4-0.73c-0.6,1.07-1.23,2.14-1.43,3.37c-0.12,0.71,0.16,1.24,1.02,0.96c1.36-0.45,2.75-0.84,4.05-1.44
	C56.48,98.65,56.73,97.71,55.72,95.06z"/>
<path class="st0" d="M174.72,216.16c0.34,4.22,1.58,5.61,5.58,6.2c0.65-0.39,1.3-0.76,1.93-1.18c0.2-0.02,0.4-0.04,0.59-0.04
	c0.22-0.2,0.43-0.41,0.64-0.62l0,0c2.09-3.23,2.15-4.94,0.23-6.96c-2.26-2.38-5.04-2.31-7.37,0
	C175.55,214.33,175.56,215.48,174.72,216.16z"/>
<path class="st0" d="M8.2,209.43c-1.07,1.92-2.48,3.66-3,5.86c0.16,0.14,0.22,0.28,0.16,0.42c-0.06,0.14-0.11,0.21-0.17,0.21
	c0.06,0.9-0.11,1.72-0.74,2.41c0.05,0.69,0.05,1.37-0.01,2.06c0.51,1.14,1.89,1.36,2.53,2.36c0.62,0.43,1.1,0.07,1.59-0.28
	c0.41-0.43,0.73-0.9,0.59-1.54c-0.35-1.43-0.99-2.85-0.28-4.35c-0.16-1.74,0.15-3.4,0.73-5.03C9.44,210.64,9.13,209.83,8.2,209.43z"
	/>
<path class="st0" d="M-4.89,201.94c0.33-0.03,0.67-0.05,1-0.08c0.28-0.12,0.56-0.15,0.87-0.14c3.17,0.08,3.17,0.08,2.36-3.13
	l0.04,0.06c-0.39-0.14-0.61-0.41-0.68-0.82c-0.05-0.31-0.25-0.43-0.54-0.44c-0.25-0.18-0.43-0.45-0.67-0.62
	c-0.76-0.54-0.85-2.24-2.14-1.67"/>
<path class="st0" d="M31.17,238.6c-0.2,0.37-0.4,0.74-0.6,1.11c0.19,0.22,0.4,0.41,0.62,0.59l0.2,0.13l0.24,0
	c1.28,0.46,2.65-0.05,3.94,0.36c1.89,0.01,3.12-1.24,4.47-2.29c0.91-0.7,0.89-1.57,0.52-2.46c-0.34-0.81-0.97-1.3-1.94-1.07
	c-0.99,0.23-2.06-0.02-3.01,0.45c-0.16,0.43-0.11,0.95,0.23,1.13c2.03,1.09,0.63,1.37-0.38,1.75c-0.61,0.18-1.22,0.42-1.86,0.48
	c-0.84,0.06-0.81-1.45-1.84-1.04l-0.01-0.03C31.61,238.06,31.13,238.17,31.17,238.6z"/>
<path class="st0" d="M47.84,245.63c-2.24-0.24-2.22-0.22-1.89-2.73c0.07-0.55-0.47-0.57-0.86-0.66c-0.89,0.99-2.72,1.54-1.88,3.39"
	/>
<path class="st0" d="M35.56,239.07c1.41-0.23,2.06-1.4,3.02-2.52c-1.42,0.44-2.41,0.11-2.98-1.13c-1.61,0.24-2.77,1.22-3.85,2.33
	c0.17,0.22,0.53,0.47,0.5,0.64c-0.31,1.41,0.56,1.35,1.49,1.28C34.19,239.02,34.5,237.88,35.56,239.07z"/>
<path class="st0" d="M10.79,228.45c-0.07,0.53,0.28,1.04,0.88,1.04c0.42,0,0.67-0.4,0.74-0.85c0.18-1.21-0.12-2.48,0.44-3.65
	c0.2-0.42-0.01-0.82-0.33-1.1c-0.36-0.32-0.64-0.91-1.24-0.67"/>
<path class="st0" d="M16.68,213.55c-0.13,1.11,0.13,2.06,1.31,2.42c0.79,0.24,1.4-0.25,1.77-0.89c0.64-1.11,0.58-2.13-0.62-2.88
	C17.85,211.79,16.44,211.16,16.68,213.55z"/>
<path class="st0" d="M34.68,221.44c-1.73-1.75-3.08-2.14-4.58-1.77c-0.59,0.14-1.17,0.57-1,1.35c0.15,0.67,0.59,1.12,1.32,1.09
	C31.68,222.05,32.76,221.25,34.68,221.44z"/>
<path class="st0" d="M16.03,219.61c-0.44,0.45-0.88,1.01-0.44,1.58c0.37,0.48,0.95,0.11,1.37-0.14c0.96-0.56,1.99-1.07,2.78-1.82
	c0.71-0.68,0.99-1.61-0.45-1.97c-0.54,0.45-1.35,0-1.86,0.55l0,0C18.42,219.53,16.12,218.72,16.03,219.61z"/>
<path class="st0" d="M11.92,220.93c2.32-0.77,2.91-2.36,2.13-4.64C11.97,217.24,12.52,219.32,11.92,220.93z"/>
<path class="st0" d="M24.32,229.95c0.04-1-0.41-1.76-1.2-2.33c-0.29-0.21-0.61-0.11-0.81,0.12c-0.82,0.95-0.38,1.89,0.07,2.82
	c0.27,0.57,0.57,1.16,1.33,0.93C24.5,231.27,24.23,230.52,24.32,229.95z"/>
<path class="st0" d="M-0.65,206.42c0,0.72,0,1.44,0,2.3c-0.81,0.89-2.43-0.31-3.24,0.97c0.08,0.06,0.16,0.13,0.25,0.17
	c1.31,0.47,2.78,1.37,3.89,0C1.32,208.55-0.24,207.55-0.65,206.42z"/>
<path class="st0" d="M16.03,228.21c0.14,0.92,0.44,1.74,1.4,2.11c0.52-0.5,0.55-1.18,0.68-1.82c0.22-1.16,0.76-2.54-1.42-2.02
	C16.41,227.04,16,227.54,16.03,228.21z"/>
<path class="st0" d="M16.7,226.48c1.5-0.05,1.28,1.11,1.42,2.02c0.64-0.63,0.33-1.65,0.86-2.27c0.47-0.54,0.8-0.9,0.12-1.48
	c-0.61-0.52-1.12-0.31-1.64,0.12C16.94,225.29,16.67,225.82,16.7,226.48z"/>
<path class="st0" d="M17.49,231.44c-1.04,1.47-1.17,2.93,0.09,4.36c0.22,0.22,0.43,0.21,0.64-0.01
	C18.42,234.27,17.38,232.95,17.49,231.44z"/>
<path class="st0" d="M33.09,224.05c-0.21,0-0.43,0.01-0.64,0.01c-0.21,0.42-0.42,0.83-0.63,1.25c0.83-0.22,1.66-0.43,2.49-0.65
	c0.66-0.12,1.4,0.05,1.91-0.55C35.18,223.82,34.14,223.93,33.09,224.05z"/>
<path class="st0" d="M4.16,211.99c0.18-1.63,1.46-1.22,2.46-1.34c-0.3-0.5-0.8-0.48-1.3-0.52C3.46,209.99,3.47,209.98,4.16,211.99z"
	/>
<path class="st0" d="M16.03,219.61c0.4-0.06,0.81-0.1,1.2-0.2c1.49-0.36,0.71-1,0.19-1.6C16.5,218.05,16.2,218.78,16.03,219.61z"/>
<path class="st0" d="M20.1,231.35c0.98-0.68,0.95-1.37,0.01-2.06C18.79,229.97,19.11,230.65,20.1,231.35z"/>
<path class="st0" d="M12.33,230.8c0.08,0.41,0.2,0.85,0.62,0.99c0.31,0.1,0.6-0.14,0.61-0.49c0.01-0.45-0.26-0.8-0.65-0.96
	C12.6,230.21,12.34,230.41,12.33,230.8z"/>
<path class="st0" d="M35.56,240.8c-1.24-0.86-2.6-0.46-3.94-0.36C32.89,241.08,34.22,241.02,35.56,240.8z"/>
<path class="st0" d="M24.94,232.61c0.08,0.29,0.07,0.77,0.66,0.67c0.31-0.05,0.54-0.29,0.51-0.61c-0.04-0.42-0.3-0.77-0.75-0.76
	C25.04,231.91,24.93,232.23,24.94,232.61z"/>
<path class="st0" d="M25.39,217.12c0.2,0.27,0.46,0.45,0.76,0.2c0.13-0.11,0.27-0.41,0.21-0.51c-0.17-0.29-0.48-0.34-0.8-0.2
	C25.33,216.72,25.27,216.89,25.39,217.12z"/>
<path class="st0" d="M17.42,217.8c0.69,0.04,1.39,0.13,1.86-0.55C18.61,217.25,17.92,217.2,17.42,217.8z"/>
<path class="st0" d="M27.94,239.02c0.54,0.1,1.02,0,1.36-0.47C28.74,238.4,28.31,238.62,27.94,239.02z"/>
<path class="st0" d="M22.56,220.89c0.03,0.08,0.05,0.2,0.1,0.22c0.19,0.05,0.28-0.07,0.23-0.3c-0.01-0.05-0.15-0.13-0.19-0.11
	C22.64,220.71,22.61,220.82,22.56,220.89z"/>
<path class="st0" d="M31.17,238.6c0.32-0.21,0.56-0.48,0.56-0.89c-0.43,0.22-0.86,0.43-1.3,0.65
	C30.68,238.45,30.92,238.52,31.17,238.6z"/>
<path class="st0" d="M27.67,218.88c-0.03,0.08-0.11,0.17-0.09,0.24c0.07,0.26,0.21,0.29,0.35,0.07c0.04-0.06,0-0.19-0.05-0.26
	C27.85,218.89,27.75,218.9,27.67,218.88z"/>
<path class="st0" d="M14.36,205.66c0.06,0.41,0.27,0.69,0.67,0.82C15.02,206.03,14.77,205.78,14.36,205.66z"/>
<path class="st0" d="M31.19,240.31c-0.21-0.2-0.42-0.39-0.62-0.59c-0.01,0.18-0.02,0.37-0.02,0.55
	C30.76,240.28,30.97,240.29,31.19,240.31z"/>
<path class="st0" d="M13.02,234.7c0.47-0.21,0.44-0.42,0-0.63C13.03,234.28,13.03,234.49,13.02,234.7z"/>
<path class="st0" d="M24.51,236.06c0.43-0.12,0.61-0.39,0.44-0.65c-0.13-0.19-0.49-0.31-0.74-0.32c-0.3,0-0.57,0.24-0.34,0.56
	C24.02,235.86,24.33,235.95,24.51,236.06z"/>
<path class="st0" d="M35.56,239.07c0.16-0.45,0.67-0.91,0.36-1.35c-0.46-0.67-0.77,0.15-1.16,0.24c-1.01,0.23-1.19,0.85-1.04,1.72
	C34.34,239.47,34.95,239.27,35.56,239.07z"/>
<path class="st0" d="M63.04,76.91c2.78-1.45,5.06-2.58,7.79-1.63c0.54,0.19,1.37,0.23,1.16,1.12c-0.13,0.57-0.7,0.76-1.25,0.69
	C68.39,76.82,66.05,78.28,63.04,76.91"/>
<path class="st0" d="M100.96,102c0.18-1.13,1.11-2.13,0.09-3.44c-0.75-0.96,0.08-1.94,1.4-2.14c1.49-0.23,1.27,2.42,2.98,1.68
	c0.12,0.45-0.06,0.82-0.35,1.12c-0.85,0.86-1.73,1.7-2.6,2.55C101.94,101.6,101.53,102.32,100.96,102z"/>
<path class="st0" d="M103.93,93.03c1.19-0.55,1.63-1.7,1.95-2.87c1.17,0.46,1.52,1.39,2.11,2.07c0.36,0.41,0.49,0.93,0.13,1.43
	c-0.34,0.47-0.85,0.56-1.39,0.4c-0.69-0.21-1.37-0.6-2.04,0.01c-0.39,0.46-0.71,0.47-0.9-0.16l0,0
	C103.85,93.62,103.9,93.33,103.93,93.03z"/>
<path class="st0" d="M90.9,79.28c0.23,1.32,1.61,1.85,2.05,3.01c0.09,0.24-0.01,0.61-0.14,0.86c-0.15,0.26-0.48,0.38-0.78,0.21
	c-1.31-0.76-1.77-2.45-1.12-4.08L90.9,79.28z"/>
<path class="st0" d="M106.29,79.58c1.53-0.27,2.77-1.24,4.46-1.75C109.36,80,108.66,80.28,106.29,79.58z"/>
<path class="st0" d="M75.38,74.46c0.76,0.18,1.53,0.33,2.26,0.59c0.17,0.06,0.32,0.55,0.25,0.77c-0.06,0.21-0.43,0.44-0.67,0.45
	C76.18,76.3,75.76,75.42,75.38,74.46z"/>
<path class="st0" d="M80.24,76.94c-0.25-0.46,0.01-0.75,0.35-0.98c0.47-0.31,1.03-0.32,1.34,0.11c0.31,0.42,0.21,0.99-0.37,1.22
	C81.08,77.48,80.6,77.39,80.24,76.94z"/>
<path class="st0" d="M85.13,76.15c0.27-0.09,0.37-0.16,0.46-0.15c0.59,0.06,1.24,0.02,1.57,0.66c0.05,0.1-0.08,0.43-0.2,0.47
	c-0.65,0.23-1.12-0.2-1.61-0.52C85.28,76.56,85.27,76.44,85.13,76.15z"/>
<path class="st0" d="M90.91,79.28c-0.09-0.05-0.18-0.09-0.26-0.15c-0.45-0.41-1.56,0.05-1.44-1.09c0.01-0.12,0.32-0.33,0.4-0.29
	c0.66,0.3,1.69,0.33,1.29,1.53L90.91,79.28z"/>
<path class="st0" d="M99.96,87.22c-0.17-0.28-0.18-0.7,0.13-1.02c0.22-0.23,0.61-0.2,0.83,0.06c0.31,0.36,0.21,0.79-0.08,1.11
	C100.61,87.61,100.29,87.62,99.96,87.22z"/>
<path class="st0" d="M94.84,83.81c0.01,0.17,0.15,0.54,0.02,0.69c-0.33,0.4-0.69,0.18-0.95-0.16c-0.19-0.26-0.17-0.57,0.09-0.77
	C94.27,83.37,94.55,83.45,94.84,83.81z"/>
<path class="st0" d="M103.79,93.9c0.3,0.05,0.6,0.11,0.9,0.16c0.06,0.47,0.14,1.18-0.39,1.16C103.6,95.2,103.58,94.51,103.79,93.9z"
	/>
<path class="st0" d="M104.44,88.32c0.17,0.04,0.41,0.02,0.48,0.13c0.2,0.28,0.07,0.55-0.25,0.62c-0.13,0.03-0.38-0.15-0.43-0.28
	C104.21,88.67,104.37,88.48,104.44,88.32z"/>
<path class="st0" d="M97.75,85.95c-0.04,0.16-0.02,0.39-0.12,0.46c-0.27,0.19-0.53,0.07-0.6-0.24c-0.03-0.12,0.14-0.36,0.27-0.41
	C97.41,85.72,97.6,85.88,97.75,85.95z"/>
<path class="st0" d="M97.85,89.99c0.16,0.02,0.4-0.02,0.48,0.07c0.22,0.26,0.13,0.54-0.19,0.64c-0.11,0.04-0.37-0.12-0.43-0.25
	C97.66,90.34,97.8,90.15,97.85,89.99z"/>
<path class="st0" d="M75.12,76.16c-0.08,0.22-0.09,0.46-0.19,0.51c-0.35,0.17-0.73,0.19-0.94-0.22c-0.03-0.07,0.18-0.37,0.3-0.38
	C74.55,76.03,74.83,76.12,75.12,76.16z"/>
<path class="st0" d="M107.42,98.28c-0.04,0.16-0.02,0.4-0.12,0.48c-0.28,0.2-0.54,0.07-0.6-0.25c-0.02-0.13,0.14-0.37,0.27-0.42
	C107.08,98.04,107.27,98.21,107.42,98.28z"/>
<path class="st0" d="M68.89,79.08c-0.06,0.16-0.06,0.4-0.17,0.46c-0.29,0.16-0.55,0.03-0.58-0.29c-0.01-0.13,0.17-0.38,0.3-0.41
	C68.56,78.82,68.73,78.99,68.89,79.08z"/>
<path class="st0" d="M71.62,78.51c0.19,0.09,0.5,0.16,0.7,0.35c0.29,0.27,0.08,0.55-0.21,0.59c-0.26,0.04-0.55-0.11-0.82-0.18
	C71.36,79.12,71.43,78.96,71.62,78.51z"/>
<path class="st0" d="M85.25,79.65c-0.02,0.16,0.02,0.38-0.07,0.46c-0.26,0.22-0.53,0.12-0.65-0.18c-0.04-0.1,0.11-0.37,0.22-0.4
	C84.89,79.48,85.08,79.6,85.25,79.65z"/>
<path class="st0" d="M100.96,102c0.49-0.21,0.96-0.52,1.52-0.24c-0.27,0.25-0.51,0.56-0.82,0.75
	C101.09,102.87,100.8,102.71,100.96,102z"/>
<path class="st0" d="M87.85,78.51c-0.05,0.06-0.12,0.19-0.15,0.18c-0.09-0.02-0.15-0.11-0.23-0.16c0.05-0.07,0.12-0.19,0.15-0.18
	C87.7,78.37,87.77,78.45,87.85,78.51z"/>
<path class="st0" d="M102.4,88.45c-0.05,0.07-0.08,0.19-0.14,0.22c-0.26,0.1-0.36,0-0.27-0.24c0.03-0.06,0.16-0.11,0.24-0.11
	C102.28,88.31,102.34,88.4,102.4,88.45z"/>
<path class="st0" d="M103.93,93.03c-0.05,0.29-0.09,0.58-0.14,0.88C103.66,93.59,103.72,93.3,103.93,93.03z"/>
<path class="st0" d="M167.88,249.88c-0.01-3.08,0.26-6.16-0.59-9.2c-0.44-1.57-1.28-2.76-2.4-3.88c-0.63-0.63-1.23-1.13-2.14-0.84
	c-1,0.32-1.56,1.23-1.59,2.11c-0.05,1.95-0.22,4.14,1.1,5.68c1.9,2.21,2.85,4.66,3.14,7.48
	C165.71,249.82,167.69,251.5,167.88,249.88z"/>
<path class="st0" d="M157.49,253.9c0.09-0.53-0.24-1.19-0.61-1.82c-0.69-1.16-2.38-2.02-3.08-1.59c-0.77,0.47-0.77,2.05,0.01,3.4
	c0.26,0.45,0.53,0.9,0.85,1.31c0.5,0.65,1,1.59,1.96,1.16C157.45,256,157.35,254.97,157.49,253.9z"/>
<path class="st0" d="M163.18,167.26c-0.05-1.53-1.24-2.56-2.91-2.54c-1.04,0.02-1.98,1.03-1.9,2.05c0.1,1.26,1.46,2.35,2.88,2.29
	C162.74,169.02,163.22,168.57,163.18,167.26z"/>
<path class="st0" d="M180.53,194.59c-0.1,1.25,0.97,2.37,2.31,2.57c0.85,0.13,1.41-0.15,1.47-1.08c0.07-1.22-0.97-2.6-2.06-2.69
	C181.3,193.31,180.7,193.76,180.53,194.59z"/>
<path class="st0" d="M167.88,249.88c-0.37,0.14-0.92,0.52-1.09,0.4c-1.52-1.15-1.28,0.14-1.39,0.95c0.09,1.22,0.92,1.57,1.86,1.19
	C168.44,251.93,168.25,250.87,167.88,249.88z"/>
<path class="st0" d="M170.84,241.9c0.24-3.55,1.09-6.91-2.55-9.43c-0.83,1.84-1.62,3.3-0.05,5.1
	C169.26,238.73,169.6,240.43,170.84,241.9z"/>
<path id="XMLID_47_" class="st0" d="M180.12,172.41c-1.73,15.15-6.45,29.78-13.72,43.05c-7.28,13.27-17.01,25.23-28.77,35.37
	c1.61-0.05,3.22-0.16,4.88-0.42c0.29-0.17,0.57-0.34,0.85-0.51l0.82-0.55c0.55-0.38,1.1-0.75,1.65-1.13
	c5.15-5.45,9.7-11.31,13.82-17.32c4.13-6.01,7.85-12.15,11.44-18.33c0.66-1.1,1.18-2.27,1.74-3.42c0.54-1.15,1.1-2.3,1.54-3.49
	c0.46-1.18,0.92-2.36,1.35-3.54c0.4-1.19,0.76-2.39,1.13-3.59c0.18-0.6,0.37-1.19,0.52-1.79c0.15-0.6,0.3-1.21,0.44-1.81
	c0.28-1.2,0.6-2.39,0.82-3.59c0.44-2.41,0.91-4.77,1.18-7.15c0.08-0.59,0.16-1.18,0.24-1.77l0.12-0.88l0.08-0.88
	c0.11-1.17,0.22-2.33,0.33-3.49l0.09-0.86l0.05-0.86c0.04-0.57,0.07-1.15,0.11-1.71c0.04-0.57,0.08-1.14,0.12-1.7l0.07-0.84
	l0.03-0.84c0.08-2.25,0.26-4.45,0.32-6.63c0.04-1.09,0.12-2.17,0.19-3.25c0.03-1.07,0.09-2.14,0.16-3.2l0.09-1.67
	c0.03-0.56,0.03-1.11,0.05-1.66c0.03-1.11,0.07-2.22,0.12-3.33c0.05-2.24,0.1-4.46,0.15-6.64c0-1.1,0-2.19,0.02-3.28
	c0.02-1.09,0.05-2.19,0.02-3.26c-0.01-1.08-0.01-2.15,0-3.22c0-0.53,0.02-1.07,0.01-1.59c-0.01-0.53-0.02-1.05-0.03-1.57
	c-0.46-1.32-0.9-2.64-1.36-3.94c-0.5-1.29-1.01-2.57-1.51-3.86c-3.64-8.57-8.36-16.58-13.89-23.99c-2.73-3.73-5.78-7.2-8.91-10.57
	c-0.8-0.83-1.63-1.63-2.44-2.44c-0.82-0.81-1.62-1.64-2.48-2.39c-1.71-1.54-3.39-3.11-5.19-4.53c-0.89-0.72-1.77-1.47-2.67-2.17
	l-2.76-2.05l-1.38-1.02l-1.43-0.96l-2.85-1.91c-0.96-0.62-1.95-1.19-2.93-1.79c-0.98-0.59-1.94-1.2-2.96-1.73
	c-2.01-1.09-4-2.21-6.07-3.17c-4.08-2.05-8.34-3.71-12.61-5.28c-4.32-1.43-8.68-2.78-13.13-3.72c-7.89-0.97-15.92-1.37-24-1.12
	c-8.08,0.29-16.22,1.26-24.25,2.97c-8.03,1.71-15.96,4.16-23.61,7.36c-7.63,3.21-14.98,7.16-21.88,11.81
	c6.19-4.75,12.84-8.89,19.83-12.38c6.99-3.5,14.35-6.35,21.95-8.48c-8.49,1.98-16.76,4.89-24.64,8.64
	c-7.87,3.75-15.39,8.35-22.31,13.8c-5.95,4.81-11.18,10.34-15.62,16.34c-4.45,6-8.11,12.47-11,19.22c0.19,0.94,0.32,1.96,0.37,3.07
	c0.03,0.56,0.01,1.13,0.01,1.74c0,0.61-0.03,1.25-0.08,1.91c-0.05,0.66-0.13,1.36-0.24,2.08c-0.12,0.71-0.24,1.47-0.37,2.27
	c-0.14,0.79-0.31,1.62-0.51,2.49c-0.2,0.86-0.45,1.76-0.67,2.71c-1.55,5.89-2.84,11.77-3.5,17.75c-0.66,5.97-0.67,12.06,0.46,18.1
	c0,1.66-1.96,1.35-1.92,4.75c-0.05-1.18-0.02-2.34-0.07-3.47c-0.03-1.13-0.12-2.24-0.12-3.32c-0.04-2.17-0.23-4.25-0.3-6.26
	c-0.06-1-0.13-1.99-0.22-2.97c-0.07-0.97-0.12-1.93-0.21-2.87c-0.08-0.95-0.18-1.88-0.29-2.8c-0.07-0.92-0.16-1.83-0.25-2.72
	c-0.08,1.08-0.2,2.15-0.23,3.24c-0.04,1.08-0.07,2.16-0.11,3.25l-0.05,1.62l0.02,1.63c0.02,1.08,0.03,2.17,0.05,3.25
	c0.04,1.09,0.12,2.17,0.18,3.26c0.08,1.09,0.1,2.17,0.24,3.26c0.24,2.17,0.42,4.35,0.79,6.51c0.82,8.08,1.88,15.48,3.34,22.73
	c1.48,7.23,3.38,14.32,6.18,21.48l0.61,1.08c0.21,0.36,0.43,0.7,0.65,1.05c0.43,0.7,0.87,1.4,1.3,2.1
	c4.35,6.96,10.14,13.13,16.62,18.27c-1.09-1.23-2.13-2.54-3.21-3.82c-0.55-0.64-1.05-1.33-1.56-2.01c-0.51-0.69-1.03-1.38-1.55-2.07
	c4.07,3.58,8.5,8.59,12.11,12.16c-2.01-1.3-3.87-2.79-5.79-4.25c5.26,5.92,10.91,11.1,17.76,16.08c-4.19-2.96-8.33-6.1-12.29-9.22
	c-0.99-0.79-1.96-1.57-2.93-2.35c-0.94-0.81-1.87-1.6-2.79-2.38c-0.46-0.39-0.92-0.78-1.38-1.17c-0.44-0.4-0.88-0.8-1.31-1.19
	c-0.87-0.79-1.72-1.57-2.55-2.32c0.8,0.9,1.6,1.79,2.39,2.68c0.4,0.44,0.78,0.9,1.2,1.32c0.42,0.42,0.83,0.84,1.25,1.26
	c0.83,0.84,1.66,1.68,2.5,2.49c0.87,0.79,1.73,1.57,2.59,2.36l1.29,1.17l1.34,1.11c0.89,0.74,1.78,1.47,2.67,2.2
	c0.92,0.7,1.83,1.39,2.75,2.08c0.91,0.69,1.82,1.39,2.77,2.03c7.49,5.27,15.37,9.87,23.95,14.06c-0.49-0.07-0.99-0.14-1.48-0.2
	c6.52,1.95,13.19,3.18,19.88,3.75c6.7,0.56,13.41,0.45,20.06-0.25c13.3-1.41,26.28-5.21,38.61-11.02c0.75-0.36,1.45-0.7,2.08-1.11
	c0.63-0.41,1.2-0.84,1.72-1.26c1.03-0.87,1.88-1.72,2.51-2.65c1.26-1.85,1.79-3.64,1.88-5.18c0.07-1.53-0.24-2.86-0.79-3.68
	c-0.27-0.41-0.59-0.71-0.93-0.85c-0.34-0.14-0.67-0.17-1.01-0.02c-11.01,6.62-23.49,10.63-36.22,11.77
	c-12.73,1.16-25.66-0.53-37.65-4.76c-11.99-4.23-23.01-11-32.21-19.66c-9.22-8.65-16.59-19.19-21.73-30.79
	c1.05,5.77,2.7,11.6,5.06,17.36c0.63,1.17,1.21,2.34,1.74,3.52c0.57,1.16,1.1,2.31,1.55,3.49c-0.6-1.17-1.2-2.32-1.75-3.48
	c-0.51-1.18-1.03-2.36-1.54-3.53c-0.44-0.78-0.83-1.61-1.25-2.42c-0.42-0.81-0.86-1.63-1.3-2.44c-0.44-0.82-0.83-1.68-1.25-2.51
	c-0.41-0.85-0.86-1.68-1.26-2.55c-0.38-0.87-0.76-1.75-1.14-2.63c-0.37-0.88-0.76-1.76-1.06-2.67c-0.62-1.82-1.26-3.62-1.62-5.51
	c0.03-0.39-0.04-0.95-0.19-1.58c-0.15-0.63-0.42-1.33-0.69-2.04c-0.58-1.41-1.48-2.77-2.66-3.37c-0.71-5.23-1.89-10.76-2.54-16.42
	c-0.66-5.64-0.77-11.38,0.3-16.46c0.07-0.61,0.71-1.6,1.47-2.72c0.41-6.42,1.44-12.83,3.07-19.15c1.2-4.4,2.7-8.7,4.48-12.87
	c1.85-4.14,3.96-8.15,6.35-11.97c0.61-0.95,1.25-1.87,1.88-2.81c0.32-0.46,0.62-0.94,0.95-1.39l1.01-1.35l1.01-1.35
	c0.33-0.45,0.67-0.9,1.04-1.32c0.72-0.86,1.44-1.72,2.16-2.58c0.35-0.44,0.74-0.84,1.12-1.25l1.14-1.23l1.14-1.23
	c0.38-0.41,0.8-0.78,1.19-1.17c0.8-0.77,1.6-1.55,2.41-2.32C9.32,94.46,10.16,93.73,11,93c13.58-11.49,30.41-18.75,47.48-20.56
	c-1.05,0.02-2.09,0.03-3.13,0.05c-1.04,0.04-2.07,0.12-3.1,0.17c-2.08,0.07-4.11,0.35-6.16,0.51c-1.02,0.09-2.02,0.26-3.03,0.38
	c-0.51,0.06-1.01,0.13-1.51,0.19c-0.51,0.06-1.01,0.12-1.5,0.21c-1,0.16-1.99,0.32-2.97,0.48c-0.49,0.08-0.99,0.15-1.48,0.23
	c-0.49,0.1-0.97,0.19-1.45,0.29c-2.68,0.37-5.91,1.48-9.39,3.23c-0.86,0.45-1.75,0.93-2.65,1.43c-0.23,0.13-0.45,0.25-0.68,0.38
	c-0.22,0.14-0.44,0.28-0.67,0.42c-0.45,0.29-0.9,0.58-1.35,0.87c-0.45,0.3-0.91,0.6-1.37,0.91c-0.46,0.31-0.93,0.61-1.37,0.96
	c-0.9,0.69-1.81,1.38-2.74,2.09c-0.23,0.18-0.46,0.36-0.69,0.54c-0.22,0.19-0.45,0.38-0.67,0.58c-0.44,0.39-0.89,0.78-1.34,1.17
	c-0.9,0.79-1.82,1.56-2.67,2.43c-0.86,0.85-1.73,1.71-2.61,2.56c-0.83,0.9-1.66,1.81-2.49,2.72c-0.85,0.89-1.61,1.86-2.39,2.8
	c-0.78,0.94-1.58,1.87-2.29,2.85c-0.73,0.97-1.46,1.93-2.18,2.88c-0.68,0.98-1.36,1.95-2.03,2.91c-0.64,1-1.23,1.87-1.91,2.62
	c-0.66,0.76-1.38,1.4-2.08,2.06c-0.68,0.67-1.39,1.34-2.08,2.08c-0.35,0.37-0.69,0.76-1.04,1.18c-0.33,0.43-0.63,0.9-0.94,1.4
	c0.11-0.54,0.23-1.07,0.36-1.61c0.15-0.53,0.32-1.05,0.49-1.58c0.35-1.06,0.74-2.12,1.17-3.19c0.47-1.04,0.98-2.07,1.52-3.11
	c0.28-0.52,0.54-1.05,0.84-1.55c0.31-0.5,0.63-1,0.95-1.51c0.33-0.5,0.66-1,0.99-1.51c0.33-0.5,0.67-1.01,1.05-1.48
	c0.74-0.96,1.5-1.93,2.28-2.88c0.78-0.96,1.66-1.84,2.51-2.76c0.43-0.45,0.86-0.91,1.3-1.36c0.46-0.43,0.92-0.86,1.38-1.29
	c0.46-0.43,0.93-0.86,1.39-1.29c0.47-0.43,0.93-0.86,1.42-1.26c0.98-0.8,1.97-1.61,2.95-2.41c0.99-0.8,2.04-1.52,3.06-2.27
	l1.54-1.12l1.59-1.05c4.17-2.87,8.54-5.33,12.75-7.76c5.67-3.12,12.39-5.68,19.64-7.37c7.26-1.71,15.03-2.55,22.82-2.58
	c7.8,0.02,15.59,0.86,23.06,2.19c7.49,1.31,14.63,3.21,21.39,5.11c5.61,1.53,10.6,4.35,14.7,7.77c1.06,0.81,2,1.75,2.94,2.64
	c0.46,0.45,0.92,0.9,1.38,1.35c0.44,0.46,0.86,0.95,1.28,1.42c0.83,0.95,1.65,1.87,2.39,2.83c0.73,0.97,1.44,1.92,2.12,2.86
	c-3.24-1.33-7.98-5.15-10.53-6.91c-11.25-8.06-24.38-13.62-38.15-16.18c-6.89-1.27-13.93-1.81-20.96-1.46
	c-7.02,0.33-14.02,1.48-20.79,3.43c7.22-1.24,14.4-1.89,21.52-1.86c7.11,0.06,14.16,0.78,21.03,2.26
	c6.86,1.49,13.56,3.68,19.83,6.77c6.27,3.08,12.14,6.97,17.3,11.64c-0.84-0.57-1.68-1.15-2.51-1.75c-0.85-0.56-1.7-1.11-2.55-1.67
	l-1.26-0.85l-1.29-0.79c-0.86-0.54-1.72-1.07-2.57-1.61c-0.88-0.5-1.76-1-2.63-1.5L112.88,80l-1.34-0.69
	c-0.9-0.46-1.79-0.92-2.69-1.37c-0.92-0.41-1.83-0.81-2.75-1.22l-1.38-0.6l-1.4-0.53c-0.94-0.34-1.87-0.68-2.81-1.02
	c-0.95-0.3-1.9-0.56-2.86-0.83l-1.43-0.39c-0.48-0.12-0.97-0.21-1.45-0.31c-0.97-0.19-1.93-0.37-2.9-0.53
	c-0.97-0.15-1.95-0.22-2.92-0.31c-1.94-0.2-3.9-0.14-5.83-0.05c1.2,0.65,2.44,1.23,3.68,1.8c10.34,2.33,20.08,6.56,28.62,12.24
	c3.08,0.89,6.13,1.94,9.07,3.25c0.84,0.35,1.69,0.71,2.53,1.09c0.85,0.38,1.65,0.84,2.48,1.28c0.41,0.23,0.83,0.45,1.24,0.68
	c0.42,0.23,0.83,0.46,1.22,0.73c0.8,0.51,1.6,1.04,2.4,1.58c0.82,0.52,1.57,1.13,2.34,1.73c0.77,0.6,1.55,1.21,2.3,1.84
	c0.73,0.67,1.46,1.34,2.2,2.01c0.37,0.34,0.73,0.68,1.1,1.03c0.34,0.36,0.69,0.73,1.04,1.1c0.69,0.74,1.38,1.48,2.07,2.23
	c0.66,0.78,1.3,1.58,1.95,2.38c0.32,0.4,0.65,0.8,0.97,1.21c0.32,0.4,0.61,0.84,0.91,1.26c0.6,0.85,1.19,1.7,1.8,2.56
	c2.25,3.52,4.39,7.2,6.1,11.12c3.58,7.76,5.84,16.19,7.16,24.68c0.24,2.14,0.6,4.26,0.73,6.4l0.14,1.6c0.05,0.53,0.1,1.07,0.11,1.6
	l0.15,3.21c0.04,0.53,0.03,1.07,0.03,1.6l0.01,1.6l0.02,1.6c0.01,0.53-0.03,1.07-0.04,1.6c-0.02,1.06-0.05,2.13-0.07,3.19
	c-0.06,1.06-0.12,2.12-0.19,3.18c-0.04,0.35-0.05,0.72-0.04,1.11c0,0.39,0,0.81,0.03,1.25c0.05,0.88,0.17,1.84,0.32,2.87
	c0.16,1.03,0.24,2.13,0.38,3.28c0.06,0.58,0.12,1.16,0.18,1.76c0.05,0.6,0.06,1.19,0.08,1.8c1.3-5.48,2.26-11.05,2.71-16.69
	c0.45-5.63,0.39-11.35-0.4-17.01c-0.07,2.31-0.11,4.56-0.49,6.74c-0.18,1.09-0.32,2.15-0.6,3.19c-0.27,1.04-0.57,2.06-0.9,3.04
	c-0.16-5.21-0.02-9.94-0.17-14.76l-0.07-1.81l-0.04-0.91l-0.09-0.9c-0.12-1.21-0.25-2.42-0.41-3.65c-0.44-2.43-0.95-4.94-1.91-7.43
	c2.36,5.27,3.87,10.84,4.67,16.48c-0.02-6.93-1.47-14.21-3.54-21.31c0.44,0.79,0.89,1.58,1.23,2.4c0.35,0.82,0.67,1.64,0.98,2.47
	c0.65,1.65,1.04,3.36,1.43,5.06c0.74,3.41,1.04,6.86,1.23,10.29c0.08,0.85,0.07,1.72,0.1,2.57c0.02,0.86,0.05,1.71,0.1,2.57
	c0.04,1.71,0.05,3.43,0.17,5.15c0.02,1.73,0.15,3.46,0.32,5.22c0.06,0.88,0.15,1.77,0.26,2.67c0.13,0.9,0.26,1.81,0.39,2.72
	c0.16-3.05,0.32-6.11,0.47-9.14c-0.03,1.55,0.02,3.11-0.11,4.67l-0.14,2.33c-0.02,0.39-0.04,0.78-0.07,1.16l-0.12,1.16
	c-0.01-0.06-0.02-0.13-0.02-0.19c-0.08,1.17-0.14,2.33-0.19,3.5c-0.09,1.16-0.19,2.32-0.26,3.49c-0.05,0.58-0.06,1.17-0.12,1.74
	c-0.06,0.58-0.11,1.16-0.17,1.73c-0.05,0.58-0.1,1.16-0.15,1.73c-0.04,0.58-0.09,1.15-0.17,1.72c-0.13,1.15-0.26,2.29-0.4,3.42
	c-0.12,1.14-0.33,2.25-0.48,3.37c-0.08,0.56-0.16,1.12-0.24,1.67c-0.08,0.56-0.2,1.1-0.29,1.65c-0.2,1.1-0.4,2.18-0.6,3.26
	c2.66-7.81,4.99-15.35,6.48-23.14c1.43-7.78,1.99-15.82,0.87-24.05l-0.15-1.02l-0.2-1.01l-0.41-2.02c-0.14-0.67-0.27-1.34-0.42-2.01
	c-0.17-0.66-0.35-1.32-0.52-1.98c0.19,0.67,0.38,1.34,0.56,2c0.16,0.67,0.29,1.34,0.43,2.01c0.13,0.67,0.26,1.34,0.39,2.01l0.19,1
	l0.13,1.01l0.5,3.53c0.16,1.18,0.22,2.37,0.33,3.55l0.14,1.78c0.04,0.59,0.04,1.19,0.06,1.78c0.03,1.19,0.07,2.38,0.08,3.57
	c-0.08,2.38-0.08,4.76-0.33,7.13l-0.16,1.78l-0.08,0.89l-0.12,0.88l-0.5,3.53c-1.56,9.39-4.5,18.52-8.73,26.96l-0.78,1.59
	l-0.85,1.55c-0.58,1.03-1.13,2.07-1.72,3.08c-1.25,2-2.44,4.02-3.82,5.92l-1,1.44l-0.5,0.72l-0.53,0.7l-2.14,2.78
	c-0.72,0.92-1.5,1.79-2.25,2.68l-1.13,1.33c-0.39,0.44-0.79,0.85-1.19,1.28l-2.39,2.54l-2.5,2.42c-0.42,0.4-0.82,0.82-1.26,1.2
	l-1.3,1.15c-0.88,0.75-1.72,1.55-2.62,2.27c-1.81,1.44-3.58,2.91-5.48,4.22l-1.4,1.01l-0.7,0.5l-0.72,0.47l-2.88,1.89
	c-0.45,0.38-0.92,0.71-1.39,1.06c-0.47,0.34-0.95,0.69-1.42,1.03c1.36,0.15,2.7,0.29,3.97,0.43c6.56-4.24,12.72-9.21,18.3-14.81
	c1.44-1.36,2.72-2.87,4.08-4.31c0.69-0.72,1.3-1.49,1.94-2.25l1.91-2.28l1.8-2.37c0.59-0.8,1.23-1.57,1.77-2.4l1.69-2.45
	c0.28-0.41,0.58-0.81,0.84-1.24l0.79-1.27c4.25-6.73,7.83-13.92,10.58-21.43C177.05,188.14,179,180.33,180.12,172.41"/>
<path class="st0" d="M377.81,577.22c0.56,2.98,2.15,5.32,4.42,7.25c0.66-0.2,1.39-0.14,2.01-0.52c1.18-1.1,0.22-2.14-0.31-2.93
	c-0.83-1.21-1.22-2.48-1.34-3.89c-1.3-1.65-1.64-4.02-3.76-5.05c-1.01,0.44-0.84,1.39-0.94,2.21c-0.01,0.84,0.01,1.68-0.03,2.52
	C377.84,576.94,377.82,577.08,377.81,577.22z"/>
<path class="st0" d="M429.55,453.5c-0.21,0.19,1.26,1.01,1.04,1.19c-0.18,0.22-0.36,0.44-0.54,0.66c-0.25,1.04,0.24,1.89,0.69,2.75
	c0.71,0.26,1.42,0.23,2.14,0.09c0.41-0.4,1.09-0.62,1.23-1.18c-0.21-0.75-0.35-0.53-0.55-1.61
	C432.61,454.65,431,453.63,429.55,453.5z"/>
<path class="st0" d="M313.76,437.64c0.04,1.81-0.94,3.01-2.38,3.9c-0.62,0.39-1.34,0.55-2.01,0.17c-0.68-0.39-0.42-1.03-0.3-1.62
	c0.06-0.31-0.11-0.57-0.39-0.73c-0.59,1.06-1.21,2.12-1.42,3.33c-0.12,0.7,0.15,1.23,1.01,0.95c1.35-0.44,2.73-0.83,4.01-1.42
	C314.51,441.18,314.76,440.25,313.76,437.64z"/>
<path class="st0" d="M431.52,557.47c0.33,4.18,1.56,5.55,5.52,6.14c0.64-0.38,1.29-0.75,1.91-1.17c0.2-0.02,0.39-0.03,0.59-0.04
	c0.22-0.19,0.43-0.4,0.64-0.61l0,0c2.07-3.2,2.12-4.89,0.23-6.89c-2.23-2.35-4.99-2.29-7.3,0
	C432.34,555.66,432.34,556.8,431.52,557.47z"/>
<path class="st0" d="M266.74,550.81c-1.06,1.9-2.45,3.62-2.97,5.8c0.16,0.14,0.22,0.28,0.16,0.42c-0.05,0.14-0.11,0.21-0.16,0.21
	c0.05,0.89-0.11,1.71-0.73,2.39c0.05,0.68,0.05,1.36-0.01,2.04c0.51,1.13,1.87,1.35,2.51,2.34c0.61,0.43,1.09,0.07,1.57-0.28
	c0.41-0.43,0.72-0.89,0.59-1.53c-0.35-1.42-0.98-2.82-0.28-4.31c-0.16-1.72,0.15-3.37,0.72-4.98
	C267.96,552,267.65,551.2,266.74,550.81z"/>
<path class="st0" d="M253.78,543.39c0.33-0.03,0.66-0.05,0.99-0.08c0.28-0.12,0.55-0.15,0.86-0.14c3.14,0.08,3.14,0.08,2.34-3.1
	l0.04,0.06c-0.38-0.14-0.6-0.41-0.67-0.81c-0.05-0.3-0.24-0.43-0.53-0.43c-0.24-0.18-0.43-0.45-0.66-0.61
	c-0.75-0.53-0.84-2.22-2.11-1.65"/>
<path class="st0" d="M289.46,579.68c-0.2,0.37-0.4,0.73-0.59,1.1c0.19,0.21,0.39,0.41,0.62,0.58l0.2,0.13l0.24,0
	c1.27,0.45,2.62-0.05,3.89,0.36c1.87,0.01,3.09-1.23,4.43-2.26c0.9-0.69,0.88-1.55,0.51-2.43c-0.33-0.8-0.96-1.29-1.92-1.06
	c-0.98,0.23-2.03-0.02-2.98,0.44c-0.16,0.43-0.11,0.94,0.23,1.12c2.01,1.08,0.62,1.36-0.38,1.73c-0.61,0.18-1.2,0.41-1.84,0.47
	c-0.83,0.06-0.8-1.44-1.82-1.03l-0.01-0.03C289.9,579.14,289.42,579.24,289.46,579.68z"/>
<path class="st0" d="M305.96,586.63c-2.21-0.23-2.19-0.22-1.87-2.7c0.07-0.54-0.47-0.56-0.85-0.66c-0.88,0.98-2.69,1.52-1.86,3.36"
	/>
<path class="st0" d="M293.81,580.14c1.4-0.23,2.03-1.39,2.99-2.49c-1.4,0.43-2.38,0.11-2.95-1.12c-1.59,0.23-2.74,1.21-3.81,2.3
	c0.17,0.21,0.53,0.47,0.49,0.63c-0.31,1.39,0.56,1.34,1.47,1.26C292.45,580.09,292.76,578.96,293.81,580.14z"/>
<path class="st0" d="M269.3,569.63c-0.07,0.53,0.28,1.03,0.87,1.03c0.42,0,0.66-0.39,0.73-0.84c0.18-1.2-0.12-2.45,0.44-3.62
	c0.2-0.42-0.01-0.81-0.33-1.09c-0.35-0.32-0.63-0.9-1.23-0.66"/>
<path class="st0" d="M275.13,554.89c-0.13,1.1,0.13,2.04,1.3,2.4c0.78,0.24,1.39-0.25,1.75-0.88c0.63-1.09,0.58-2.11-0.61-2.85
	C276.28,553.14,274.89,552.52,275.13,554.89z"/>
<path class="st0" d="M292.93,562.69c-1.72-1.73-3.05-2.12-4.53-1.75c-0.58,0.14-1.16,0.56-0.98,1.34c0.15,0.66,0.58,1.1,1.31,1.08
	C289.97,563.3,291.03,562.51,292.93,562.69z"/>
<path class="st0" d="M274.49,560.88c-0.43,0.45-0.87,1-0.44,1.56c0.36,0.48,0.94,0.11,1.36-0.13c0.95-0.56,1.97-1.06,2.75-1.8
	c0.7-0.67,0.98-1.6-0.45-1.95c-0.54,0.45-1.33,0-1.84,0.54l0,0C276.84,560.8,274.57,560,274.49,560.88z"/>
<path class="st0" d="M270.42,562.19c2.29-0.76,2.87-2.33,2.11-4.59C270.46,558.54,271.01,560.6,270.42,562.19z"/>
<path class="st0" d="M282.69,571.12c0.04-0.99-0.4-1.74-1.18-2.3c-0.29-0.21-0.6-0.11-0.8,0.12c-0.82,0.94-0.38,1.87,0.07,2.79
	c0.27,0.56,0.56,1.15,1.31,0.92C282.86,572.42,282.59,571.68,282.69,571.12z"/>
<path class="st0" d="M257.97,547.83c0,0.71,0,1.43,0,2.27c-0.8,0.88-2.41-0.3-3.2,0.96c0.08,0.06,0.16,0.13,0.25,0.17
	c1.29,0.46,2.75,1.35,3.85,0C259.93,549.94,258.38,548.95,257.97,547.83z"/>
<path class="st0" d="M274.48,569.39c0.14,0.91,0.43,1.72,1.39,2.09c0.52-0.49,0.54-1.17,0.67-1.8c0.22-1.15,0.75-2.52-1.4-2
	C274.86,568.23,274.45,568.73,274.48,569.39z"/>
<path class="st0" d="M275.14,567.68c1.49-0.05,1.27,1.1,1.4,2c0.64-0.62,0.33-1.64,0.85-2.24c0.46-0.54,0.79-0.89,0.12-1.47
	c-0.6-0.52-1.11-0.3-1.63,0.12C275.38,566.5,275.12,567.02,275.14,567.68z"/>
<path class="st0" d="M275.92,572.59c-1.03,1.46-1.16,2.9,0.09,4.31c0.22,0.21,0.43,0.21,0.64-0.01
	C276.85,575.39,275.82,574.09,275.92,572.59z"/>
<path class="st0" d="M291.36,565.28c-0.21,0-0.42,0.01-0.64,0.01c-0.21,0.41-0.42,0.82-0.63,1.23c0.82-0.21,1.65-0.43,2.47-0.64
	c0.65-0.12,1.38,0.05,1.89-0.54C293.43,565.05,292.4,565.16,291.36,565.28z"/>
<path class="st0" d="M262.74,553.34c0.17-1.61,1.45-1.21,2.43-1.33c-0.3-0.5-0.79-0.48-1.29-0.51
	C262.05,551.36,262.05,551.35,262.74,553.34z"/>
<path class="st0" d="M274.49,560.88c0.4-0.06,0.8-0.1,1.19-0.2c1.47-0.36,0.7-0.99,0.19-1.59
	C274.95,559.34,274.65,560.06,274.49,560.88z"/>
<path class="st0" d="M278.51,572.5c0.97-0.68,0.94-1.35,0.01-2.04C277.21,571.13,277.53,571.81,278.51,572.5z"/>
<path class="st0" d="M270.82,571.95c0.08,0.41,0.19,0.84,0.61,0.98c0.31,0.1,0.59-0.14,0.6-0.49c0.01-0.45-0.26-0.79-0.64-0.95
	C271.09,571.37,270.83,571.57,270.82,571.95z"/>
<path class="st0" d="M293.81,581.85c-1.23-0.85-2.58-0.46-3.89-0.36C291.17,582.13,292.48,582.06,293.81,581.85z"/>
<path class="st0" d="M283.3,573.75c0.08,0.29,0.07,0.76,0.65,0.66c0.31-0.05,0.53-0.29,0.5-0.61c-0.04-0.42-0.29-0.76-0.74-0.76
	C283.4,573.05,283.29,573.37,283.3,573.75z"/>
<path class="st0" d="M283.75,558.42c0.2,0.27,0.46,0.44,0.76,0.2c0.13-0.1,0.27-0.4,0.21-0.5c-0.17-0.29-0.48-0.33-0.79-0.2
	C283.68,558.02,283.63,558.19,283.75,558.42z"/>
<path class="st0" d="M275.86,559.09c0.68,0.04,1.37,0.13,1.84-0.54C277.03,558.54,276.35,558.49,275.86,559.09z"/>
<path class="st0" d="M286.27,580.09c0.54,0.1,1.01,0,1.34-0.47C287.06,579.48,286.63,579.69,286.27,580.09z"/>
<path class="st0" d="M280.95,562.15c0.03,0.07,0.05,0.2,0.1,0.21c0.19,0.05,0.28-0.07,0.23-0.3c-0.01-0.05-0.15-0.13-0.19-0.11
	C281.03,561.98,280.99,562.08,280.95,562.15z"/>
<path class="st0" d="M289.46,579.68c0.31-0.21,0.55-0.47,0.56-0.88c-0.43,0.21-0.86,0.43-1.28,0.64
	C288.98,579.52,289.22,579.6,289.46,579.68z"/>
<path class="st0" d="M286,560.16c-0.03,0.08-0.11,0.17-0.09,0.24c0.06,0.26,0.21,0.29,0.35,0.07c0.04-0.06,0-0.19-0.05-0.25
	C286.18,560.17,286.08,560.18,286,560.16z"/>
<path class="st0" d="M272.83,547.08c0.06,0.41,0.27,0.68,0.67,0.81C273.48,547.45,273.23,547.2,272.83,547.08z"/>
<path class="st0" d="M289.48,581.36c-0.21-0.19-0.41-0.39-0.62-0.58c-0.01,0.18-0.02,0.36-0.02,0.54
	C289.06,581.34,289.27,581.35,289.48,581.36z"/>
<path class="st0" d="M271.51,575.82c0.47-0.21,0.43-0.41,0-0.62C271.51,575.4,271.51,575.61,271.51,575.82z"/>
<path class="st0" d="M282.88,577.16c0.42-0.12,0.61-0.39,0.44-0.65c-0.13-0.19-0.48-0.31-0.74-0.31c-0.3,0-0.56,0.24-0.33,0.56
	C282.39,576.97,282.7,577.06,282.88,577.16z"/>
<path class="st0" d="M293.81,580.14c0.16-0.44,0.66-0.9,0.36-1.34c-0.45-0.66-0.76,0.15-1.15,0.23c-1,0.22-1.18,0.84-1.03,1.7
	C292.6,580.53,293.2,580.34,293.81,580.14z"/>
<path class="st0" d="M321,419.68c2.75-1.44,5.01-2.55,7.71-1.61c0.54,0.19,1.35,0.23,1.15,1.11c-0.13,0.57-0.69,0.75-1.23,0.68
	C326.3,419.58,323.98,421.03,321,419.68"/>
<path class="st0" d="M358.53,444.5c0.18-1.12,1.1-2.11,0.09-3.41c-0.74-0.95,0.08-1.92,1.39-2.12c1.48-0.23,1.26,2.4,2.95,1.66
	c0.12,0.44-0.06,0.81-0.35,1.1c-0.84,0.86-1.71,1.69-2.57,2.53C359.5,444.1,359.09,444.82,358.53,444.5z"/>
<path class="st0" d="M361.46,435.63c1.18-0.54,1.61-1.68,1.93-2.84c1.16,0.45,1.5,1.37,2.09,2.05c0.36,0.41,0.49,0.92,0.13,1.41
	c-0.34,0.47-0.85,0.56-1.38,0.4c-0.68-0.21-1.35-0.59-2.02,0.01c-0.39,0.45-0.7,0.47-0.89-0.16l0,0
	C361.39,436.21,361.43,435.92,361.46,435.63z"/>
<path class="st0" d="M348.57,422.02c0.23,1.31,1.6,1.83,2.03,2.98c0.09,0.24-0.01,0.61-0.14,0.85c-0.15,0.26-0.47,0.37-0.77,0.2
	c-1.3-0.75-1.75-2.42-1.11-4.04L348.57,422.02z"/>
<path class="st0" d="M363.8,422.32c1.51-0.27,2.74-1.23,4.41-1.73C366.83,422.74,366.15,423,363.8,422.32z"/>
<path class="st0" d="M333.22,417.25c0.75,0.18,1.51,0.32,2.24,0.58c0.16,0.06,0.32,0.55,0.25,0.77c-0.06,0.2-0.43,0.44-0.66,0.44
	C334,419.07,333.59,418.2,333.22,417.25z"/>
<path class="st0" d="M338.03,419.7c-0.25-0.46,0.01-0.75,0.35-0.97c0.46-0.31,1.02-0.32,1.33,0.1c0.31,0.42,0.21,0.98-0.37,1.21
	C338.86,420.24,338.38,420.15,338.03,419.7z"/>
<path class="st0" d="M342.86,418.92c0.26-0.09,0.36-0.16,0.45-0.15c0.58,0.06,1.23,0.02,1.56,0.65c0.05,0.1-0.08,0.43-0.19,0.47
	c-0.64,0.23-1.11-0.2-1.6-0.52C343.01,419.33,343,419.21,342.86,418.92z"/>
<path class="st0" d="M348.58,422.02c-0.09-0.05-0.18-0.08-0.25-0.15c-0.45-0.4-1.55,0.05-1.43-1.08c0.01-0.11,0.32-0.32,0.39-0.29
	c0.65,0.3,1.67,0.33,1.28,1.52L348.58,422.02z"/>
<path class="st0" d="M357.54,429.88c-0.17-0.27-0.18-0.69,0.13-1.01c0.22-0.23,0.6-0.2,0.82,0.06c0.31,0.36,0.21,0.78-0.08,1.1
	C358.18,430.27,357.86,430.27,357.54,429.88z"/>
<path class="st0" d="M352.47,426.51c0.01,0.16,0.14,0.53,0.02,0.68c-0.33,0.4-0.69,0.17-0.94-0.16c-0.19-0.26-0.17-0.56,0.09-0.76
	C351.91,426.06,352.18,426.14,352.47,426.51z"/>
<path class="st0" d="M361.33,436.49c0.3,0.05,0.59,0.11,0.89,0.16c0.06,0.46,0.14,1.17-0.38,1.15
	C361.13,437.77,361.11,437.09,361.33,436.49z"/>
<path class="st0" d="M361.97,430.97c0.16,0.04,0.41,0.02,0.48,0.13c0.2,0.28,0.07,0.55-0.25,0.61c-0.13,0.03-0.37-0.14-0.42-0.28
	C361.74,431.31,361.9,431.12,361.97,430.97z"/>
<path class="st0" d="M355.35,428.62c-0.04,0.16-0.02,0.39-0.12,0.46c-0.27,0.19-0.53,0.07-0.59-0.24c-0.03-0.12,0.14-0.36,0.27-0.4
	C355.02,428.4,355.2,428.55,355.35,428.62z"/>
<path class="st0" d="M355.45,432.62c0.16,0.02,0.39-0.02,0.47,0.07c0.22,0.26,0.13,0.53-0.18,0.63c-0.11,0.04-0.36-0.12-0.43-0.24
	C355.26,432.97,355.4,432.77,355.45,432.62z"/>
<path class="st0" d="M332.95,418.93c-0.07,0.22-0.09,0.46-0.19,0.5c-0.35,0.17-0.73,0.19-0.94-0.22c-0.03-0.06,0.18-0.36,0.3-0.38
	C332.39,418.81,332.67,418.89,332.95,418.93z"/>
<path class="st0" d="M364.92,440.82c-0.04,0.16-0.02,0.4-0.12,0.47c-0.28,0.2-0.53,0.07-0.59-0.24c-0.02-0.13,0.14-0.37,0.27-0.42
	C364.58,440.59,364.77,440.75,364.92,440.82z"/>
<path class="st0" d="M326.79,421.82c-0.05,0.16-0.06,0.4-0.17,0.46c-0.29,0.16-0.54,0.03-0.58-0.29c-0.01-0.13,0.17-0.37,0.29-0.4
	C326.46,421.56,326.63,421.74,326.79,421.82z"/>
<path class="st0" d="M329.49,421.26c0.19,0.09,0.5,0.16,0.7,0.35c0.29,0.27,0.08,0.55-0.21,0.59c-0.26,0.04-0.54-0.11-0.81-0.18
	C329.23,421.86,329.3,421.7,329.49,421.26z"/>
<path class="st0" d="M342.98,422.38c-0.02,0.15,0.02,0.38-0.07,0.45c-0.26,0.22-0.53,0.12-0.65-0.18c-0.04-0.1,0.11-0.36,0.22-0.4
	C342.63,422.22,342.81,422.33,342.98,422.38z"/>
<path class="st0" d="M358.53,444.5c0.48-0.2,0.95-0.52,1.51-0.24c-0.27,0.25-0.51,0.56-0.81,0.74
	C358.66,445.36,358.37,445.21,358.53,444.5z"/>
<path class="st0" d="M345.55,421.26c-0.05,0.06-0.12,0.19-0.15,0.18c-0.08-0.02-0.15-0.1-0.23-0.16c0.05-0.06,0.12-0.19,0.15-0.18
	C345.41,421.12,345.48,421.2,345.55,421.26z"/>
<path class="st0" d="M359.95,431.09c-0.05,0.07-0.08,0.19-0.14,0.21c-0.25,0.1-0.36,0-0.26-0.24c0.03-0.06,0.15-0.11,0.24-0.11
	C359.83,430.95,359.89,431.04,359.95,431.09z"/>
<path class="st0" d="M361.46,435.63c-0.05,0.29-0.09,0.58-0.14,0.87C361.2,436.18,361.25,435.89,361.46,435.63z"/>
<path class="st0" d="M424.74,590.83c-0.01-3.04,0.26-6.09-0.58-9.1c-0.43-1.56-1.27-2.73-2.38-3.84c-0.63-0.63-1.22-1.12-2.12-0.83
	c-0.99,0.32-1.55,1.21-1.57,2.09c-0.05,1.93-0.22,4.1,1.08,5.62c1.88,2.19,2.82,4.62,3.11,7.4
	C422.6,590.78,424.55,592.44,424.74,590.83z"/>
<path class="st0" d="M414.47,594.82c0.09-0.52-0.24-1.18-0.61-1.8c-0.68-1.15-2.36-2-3.05-1.57c-0.76,0.46-0.76,2.03,0.01,3.37
	c0.26,0.45,0.53,0.89,0.84,1.3c0.49,0.64,0.99,1.57,1.94,1.15C414.43,596.9,414.33,595.87,414.47,594.82z"/>
<path class="st0" d="M420.1,509.08c-0.05-1.51-1.23-2.54-2.88-2.51c-1.03,0.02-1.96,1.02-1.88,2.03c0.1,1.25,1.45,2.32,2.85,2.27
	C419.66,510.82,420.14,510.38,420.1,509.08z"/>
<path class="st0" d="M437.26,536.13c-0.1,1.24,0.96,2.35,2.29,2.54c0.84,0.12,1.4-0.15,1.45-1.07c0.07-1.21-0.96-2.57-2.04-2.66
	C438.03,534.86,437.43,535.31,437.26,536.13z"/>
<path class="st0" d="M424.74,590.83c-0.37,0.14-0.91,0.52-1.08,0.39c-1.51-1.14-1.27,0.14-1.38,0.94c0.09,1.21,0.91,1.55,1.84,1.17
	C425.3,592.86,425.12,591.82,424.74,590.83z"/>
<path class="st0" d="M427.67,582.94c0.24-3.51,1.08-6.84-2.53-9.33c-0.82,1.82-1.6,3.26-0.05,5.04
	C426.11,579.8,426.45,581.48,427.67,582.94z"/>
<path id="XMLID_1_" class="st0" d="M436.86,514.17c-1.72,14.99-6.39,29.47-13.57,42.6c-7.2,13.14-16.83,24.97-28.47,35
	c1.59-0.05,3.19-0.16,4.83-0.41c0.28-0.17,0.57-0.33,0.84-0.51l0.82-0.55c0.54-0.37,1.08-0.74,1.63-1.12
	c5.09-5.39,9.6-11.19,13.68-17.13c4.09-5.94,7.76-12.02,11.32-18.14c0.65-1.09,1.17-2.25,1.72-3.38c0.54-1.14,1.09-2.28,1.53-3.45
	c0.46-1.17,0.91-2.33,1.34-3.5c0.39-1.18,0.75-2.37,1.11-3.55c0.17-0.59,0.36-1.18,0.52-1.77c0.15-0.6,0.29-1.19,0.44-1.79
	c0.28-1.19,0.59-2.37,0.82-3.55c0.44-2.38,0.9-4.72,1.17-7.07c0.08-0.58,0.16-1.17,0.23-1.75l0.12-0.87l0.08-0.87
	c0.11-1.16,0.22-2.31,0.33-3.45l0.08-0.85l0.05-0.85c0.04-0.57,0.07-1.13,0.11-1.7c0.04-0.56,0.08-1.12,0.12-1.68l0.06-0.84
	l0.03-0.84c0.08-2.22,0.26-4.41,0.31-6.56c0.04-1.08,0.12-2.15,0.19-3.21c0.03-1.06,0.09-2.12,0.16-3.17l0.09-1.65
	c0.03-0.55,0.03-1.1,0.05-1.65c0.03-1.1,0.07-2.2,0.12-3.3c0.05-2.22,0.1-4.41,0.15-6.57c0-1.08,0-2.17,0.02-3.25
	c0.02-1.08,0.05-2.16,0.02-3.22c-0.01-1.06-0.01-2.13,0-3.18c0-0.53,0.02-1.06,0.01-1.58c-0.01-0.52-0.02-1.04-0.03-1.55
	c-0.45-1.3-0.89-2.61-1.35-3.9c-0.5-1.28-1-2.55-1.49-3.82c-3.6-8.48-8.28-16.41-13.74-23.74c-2.7-3.69-5.72-7.12-8.82-10.46
	c-0.79-0.82-1.61-1.61-2.41-2.42c-0.81-0.8-1.6-1.62-2.46-2.37c-1.69-1.52-3.35-3.08-5.14-4.48c-0.88-0.71-1.75-1.45-2.65-2.14
	l-2.73-2.03l-1.37-1.01l-1.41-0.95l-2.82-1.89c-0.95-0.61-1.93-1.18-2.9-1.77c-0.97-0.58-1.92-1.19-2.93-1.71
	c-1.99-1.08-3.96-2.19-6.01-3.13c-4.04-2.03-8.25-3.67-12.48-5.22c-4.28-1.42-8.59-2.75-12.99-3.68c-7.8-0.96-15.75-1.36-23.75-1.11
	c-8,0.29-16.05,1.25-24,2.94c-7.95,1.69-15.8,4.12-23.36,7.28c-7.55,3.17-14.82,7.09-21.65,11.69c6.13-4.7,12.71-8.8,19.62-12.26
	c6.92-3.46,14.2-6.28,21.72-8.39c-8.4,1.96-16.59,4.84-24.38,8.55c-7.79,3.71-15.23,8.26-22.08,13.65
	c-5.89,4.76-11.06,10.23-15.46,16.17c-4.4,5.94-8.03,12.34-10.89,19.02c0.19,0.93,0.32,1.94,0.36,3.04
	c0.03,0.55,0.01,1.12,0.01,1.72c0,0.61-0.03,1.24-0.08,1.89c-0.05,0.66-0.13,1.34-0.23,2.05c-0.12,0.71-0.24,1.45-0.37,2.24
	c-0.14,0.79-0.3,1.61-0.5,2.46c-0.2,0.86-0.45,1.74-0.66,2.69c-1.53,5.83-2.81,11.64-3.46,17.56c-0.65,5.91-0.67,11.93,0.45,17.91
	c0,1.64-1.94,1.34-1.9,4.7c-0.05-1.17-0.02-2.31-0.07-3.43c-0.03-1.12-0.12-2.21-0.12-3.28c-0.04-2.14-0.23-4.21-0.3-6.19
	c-0.06-0.99-0.13-1.97-0.22-2.94c-0.07-0.96-0.12-1.91-0.21-2.84c-0.08-0.94-0.18-1.86-0.28-2.77c-0.07-0.91-0.16-1.81-0.25-2.7
	c-0.08,1.07-0.19,2.13-0.23,3.2c-0.03,1.07-0.07,2.14-0.11,3.22l-0.05,1.61l0.02,1.61c0.02,1.07,0.03,2.14,0.05,3.22
	c0.04,1.07,0.12,2.15,0.18,3.23c0.08,1.08,0.1,2.15,0.24,3.22c0.24,2.15,0.42,4.3,0.79,6.45c0.81,8,1.86,15.32,3.31,22.49
	c1.46,7.16,3.34,14.17,6.11,21.26l0.6,1.06c0.2,0.35,0.43,0.69,0.64,1.04c0.43,0.69,0.86,1.39,1.29,2.08
	c4.31,6.88,10.04,12.99,16.45,18.07c-1.08-1.22-2.1-2.51-3.18-3.78c-0.54-0.63-1.04-1.31-1.55-1.99c-0.51-0.68-1.02-1.36-1.54-2.05
	c4.03,3.54,8.42,8.5,11.98,12.03c-1.99-1.29-3.83-2.77-5.73-4.2c5.21,5.86,10.79,10.98,17.58,15.91c-4.15-2.93-8.24-6.04-12.16-9.12
	c-0.98-0.78-1.94-1.56-2.9-2.32c-0.93-0.8-1.86-1.59-2.76-2.36c-0.46-0.39-0.91-0.77-1.36-1.15c-0.44-0.4-0.87-0.79-1.29-1.18
	c-0.86-0.78-1.7-1.55-2.52-2.3c0.79,0.89,1.58,1.78,2.37,2.66c0.4,0.43,0.78,0.89,1.19,1.3c0.41,0.42,0.83,0.83,1.24,1.25
	c0.83,0.83,1.64,1.66,2.47,2.47c0.86,0.78,1.71,1.56,2.57,2.33l1.28,1.16l1.33,1.1c0.88,0.73,1.76,1.46,2.64,2.18
	c0.91,0.69,1.81,1.37,2.72,2.06c0.9,0.69,1.8,1.38,2.75,2.01c7.41,5.22,15.21,9.77,23.7,13.92c-0.49-0.07-0.98-0.14-1.46-0.2
	c6.45,1.93,13.05,3.14,19.67,3.71c6.63,0.55,13.27,0.45,19.85-0.25c13.16-1.4,26.01-5.15,38.21-10.91c0.74-0.35,1.43-0.69,2.05-1.1
	c0.62-0.41,1.18-0.83,1.7-1.25c1.02-0.86,1.86-1.7,2.48-2.62c1.24-1.83,1.78-3.61,1.86-5.13c0.07-1.51-0.24-2.83-0.78-3.64
	c-0.27-0.41-0.58-0.7-0.92-0.84s-0.67-0.17-1-0.02c-10.89,6.55-23.25,10.52-35.84,11.65c-12.6,1.15-25.39-0.53-37.26-4.71
	c-11.87-4.19-22.77-10.89-31.88-19.45c-9.12-8.56-16.42-18.99-21.51-30.47c1.04,5.71,2.67,11.48,5.01,17.18
	c0.62,1.15,1.2,2.31,1.72,3.49c0.56,1.14,1.09,2.28,1.53,3.46c-0.59-1.16-1.18-2.3-1.73-3.45c-0.51-1.17-1.02-2.33-1.52-3.5
	c-0.44-0.77-0.82-1.59-1.24-2.39c-0.42-0.8-0.85-1.61-1.29-2.42c-0.43-0.81-0.82-1.66-1.24-2.49c-0.41-0.84-0.85-1.67-1.24-2.52
	c-0.37-0.86-0.75-1.73-1.12-2.6c-0.37-0.87-0.75-1.74-1.05-2.64c-0.61-1.8-1.24-3.59-1.6-5.45c0.03-0.39-0.03-0.94-0.19-1.56
	c-0.15-0.63-0.42-1.32-0.69-2.02c-0.57-1.4-1.46-2.74-2.63-3.34c-0.7-5.17-1.87-10.65-2.51-16.25c-0.65-5.58-0.77-11.26,0.29-16.29
	c0.07-0.6,0.71-1.59,1.45-2.7c0.41-6.35,1.42-12.7,3.03-18.95c1.19-4.35,2.67-8.61,4.43-12.73c1.83-4.09,3.92-8.06,6.28-11.85
	c0.6-0.94,1.24-1.85,1.86-2.78c0.32-0.46,0.61-0.93,0.94-1.38l1-1.33l1-1.33c0.33-0.45,0.66-0.89,1.03-1.31
	c0.71-0.85,1.42-1.7,2.13-2.55c0.35-0.43,0.73-0.83,1.11-1.24l1.13-1.22l1.13-1.21c0.38-0.4,0.79-0.77,1.18-1.16
	c0.79-0.77,1.59-1.53,2.38-2.3c0.83-0.72,1.66-1.44,2.49-2.17c13.43-11.37,30.09-18.56,46.99-20.34c-1.03,0.02-2.07,0.03-3.09,0.05
	c-1.03,0.04-2.05,0.12-3.07,0.17c-2.06,0.07-4.06,0.34-6.09,0.5c-1.01,0.09-2,0.26-3,0.38c-0.5,0.06-1,0.13-1.5,0.19
	c-0.5,0.06-1,0.12-1.48,0.21c-0.99,0.16-1.97,0.32-2.94,0.48c-0.49,0.08-0.98,0.14-1.46,0.23c-0.48,0.09-0.96,0.19-1.44,0.28
	c-2.65,0.36-5.85,1.46-9.3,3.19c-0.86,0.44-1.73,0.92-2.63,1.41c-0.22,0.13-0.45,0.25-0.67,0.38c-0.22,0.14-0.44,0.28-0.66,0.42
	c-0.44,0.29-0.89,0.57-1.34,0.86c-0.45,0.3-0.9,0.6-1.36,0.9c-0.46,0.3-0.92,0.61-1.36,0.95c-0.89,0.68-1.79,1.37-2.71,2.07
	c-0.23,0.18-0.46,0.35-0.68,0.53c-0.22,0.19-0.44,0.38-0.66,0.57c-0.44,0.38-0.88,0.77-1.33,1.16c-0.89,0.78-1.8,1.55-2.64,2.41
	c-0.85,0.84-1.72,1.69-2.58,2.54c-0.82,0.89-1.64,1.79-2.46,2.69c-0.84,0.88-1.59,1.84-2.37,2.77c-0.77,0.93-1.56,1.85-2.27,2.82
	c-0.73,0.96-1.45,1.91-2.16,2.85c-0.68,0.97-1.35,1.93-2.01,2.88c-0.63,0.99-1.22,1.85-1.89,2.59c-0.65,0.75-1.36,1.38-2.06,2.04
	c-0.68,0.66-1.37,1.32-2.06,2.06c-0.35,0.37-0.69,0.76-1.02,1.17c-0.32,0.43-0.63,0.89-0.93,1.39c0.11-0.53,0.23-1.06,0.36-1.6
	c0.15-0.52,0.31-1.04,0.49-1.57c0.35-1.05,0.73-2.1,1.16-3.15c0.47-1.02,0.97-2.05,1.5-3.08c0.27-0.51,0.53-1.04,0.84-1.53
	c0.31-0.49,0.62-0.99,0.94-1.49c0.32-0.49,0.65-0.99,0.98-1.49c0.33-0.5,0.67-1,1.04-1.47c0.73-0.95,1.49-1.91,2.26-2.85
	c0.78-0.95,1.64-1.82,2.48-2.73c0.43-0.45,0.85-0.9,1.28-1.35c0.45-0.43,0.91-0.85,1.36-1.28c0.46-0.42,0.92-0.85,1.38-1.27
	c0.46-0.42,0.92-0.86,1.41-1.24c0.97-0.79,1.95-1.59,2.92-2.38c0.98-0.79,2.02-1.5,3.03-2.25l1.52-1.11l1.57-1.04
	c4.13-2.84,8.45-5.27,12.62-7.68c5.61-3.09,12.26-5.62,19.44-7.3c7.18-1.69,14.87-2.52,22.58-2.55c7.72,0.02,15.42,0.85,22.82,2.17
	c7.41,1.29,14.47,3.18,21.17,5.05c5.55,1.52,10.49,4.3,14.54,7.69c1.05,0.8,1.98,1.73,2.91,2.61c0.46,0.45,0.91,0.9,1.36,1.34
	c0.44,0.45,0.85,0.94,1.26,1.4c0.82,0.94,1.63,1.85,2.36,2.8c0.73,0.96,1.42,1.9,2.09,2.83c-3.2-1.31-7.9-5.09-10.42-6.84
	c-11.13-7.97-24.13-13.48-37.75-16.01c-6.81-1.25-13.79-1.79-20.74-1.45c-6.95,0.33-13.88,1.46-20.57,3.39
	c7.15-1.22,14.25-1.87,21.29-1.84c7.04,0.06,14.01,0.77,20.81,2.23c6.79,1.47,13.42,3.64,19.62,6.7c6.2,3.05,12.01,6.89,17.11,11.51
	c-0.84-0.57-1.66-1.14-2.48-1.73c-0.84-0.55-1.68-1.1-2.52-1.65l-1.25-0.84l-1.28-0.78c-0.85-0.53-1.7-1.06-2.55-1.59
	c-0.87-0.49-1.74-0.99-2.6-1.48l-1.3-0.75l-1.33-0.68c-0.89-0.45-1.77-0.91-2.66-1.36c-0.91-0.4-1.81-0.81-2.72-1.21l-1.36-0.6
	l-1.39-0.52c-0.93-0.34-1.85-0.67-2.78-1.01c-0.94-0.29-1.88-0.55-2.83-0.82l-1.42-0.38c-0.47-0.12-0.96-0.2-1.43-0.3
	c-0.96-0.19-1.91-0.36-2.87-0.52c-0.96-0.15-1.93-0.22-2.89-0.31c-1.92-0.2-3.86-0.14-5.77-0.05c1.19,0.64,2.41,1.22,3.64,1.79
	c10.24,2.31,19.87,6.49,28.32,12.11c3.04,0.88,6.06,1.92,8.97,3.22c0.83,0.35,1.67,0.71,2.51,1.08c0.84,0.38,1.63,0.83,2.46,1.27
	c0.41,0.22,0.82,0.45,1.23,0.68c0.41,0.22,0.82,0.46,1.21,0.72c0.79,0.51,1.58,1.03,2.38,1.57c0.81,0.52,1.56,1.11,2.32,1.71
	c0.76,0.6,1.53,1.2,2.28,1.83c0.72,0.66,1.45,1.32,2.18,1.99c0.36,0.34,0.72,0.68,1.09,1.02c0.34,0.36,0.68,0.72,1.03,1.08
	c0.68,0.73,1.37,1.47,2.05,2.21c0.65,0.77,1.29,1.56,1.93,2.35c0.32,0.4,0.64,0.79,0.96,1.19c0.32,0.4,0.6,0.83,0.9,1.24
	c0.59,0.84,1.18,1.68,1.78,2.53c2.23,3.48,4.34,7.12,6.03,11c3.54,7.68,5.78,16.02,7.08,24.42c0.24,2.12,0.59,4.21,0.72,6.33
	l0.14,1.58c0.05,0.53,0.1,1.05,0.11,1.59l0.15,3.17c0.04,0.53,0.03,1.06,0.03,1.58l0.01,1.58l0.02,1.58
	c0.01,0.53-0.03,1.05-0.04,1.58c-0.02,1.05-0.05,2.1-0.07,3.16c-0.06,1.05-0.12,2.1-0.18,3.14c-0.04,0.34-0.05,0.71-0.04,1.1
	c0,0.39,0,0.8,0.03,1.23c0.05,0.87,0.17,1.82,0.32,2.84c0.16,1.02,0.24,2.1,0.38,3.24c0.06,0.57,0.12,1.15,0.18,1.74
	c0.05,0.59,0.06,1.18,0.08,1.78c1.28-5.43,2.24-10.93,2.69-16.51c0.44-5.58,0.38-11.23-0.4-16.84c-0.07,2.29-0.11,4.51-0.49,6.67
	c-0.18,1.08-0.32,2.13-0.6,3.16c-0.27,1.03-0.56,2.04-0.89,3.01c-0.15-5.15-0.02-9.84-0.16-14.6l-0.07-1.79l-0.04-0.9l-0.09-0.89
	c-0.12-1.19-0.25-2.4-0.4-3.62c-0.44-2.41-0.94-4.88-1.89-7.35c2.33,5.22,3.83,10.73,4.62,16.3c-0.02-6.86-1.46-14.06-3.51-21.08
	c0.43,0.78,0.88,1.56,1.22,2.37c0.35,0.81,0.67,1.63,0.97,2.45c0.64,1.63,1.03,3.32,1.41,5c0.73,3.37,1.03,6.79,1.22,10.18
	c0.08,0.84,0.07,1.7,0.1,2.55c0.02,0.85,0.05,1.7,0.09,2.54c0.04,1.7,0.05,3.4,0.17,5.1c0.02,1.71,0.15,3.42,0.31,5.17
	c0.06,0.87,0.15,1.75,0.26,2.64c0.13,0.89,0.26,1.79,0.39,2.69c0.16-3.02,0.31-6.05,0.47-9.04c-0.03,1.54,0.02,3.08-0.11,4.62
	l-0.13,2.31c-0.02,0.38-0.04,0.77-0.07,1.15l-0.12,1.15c-0.01-0.06-0.02-0.13-0.02-0.18c-0.08,1.15-0.14,2.31-0.19,3.46
	c-0.09,1.15-0.19,2.3-0.26,3.45c-0.04,0.57-0.06,1.15-0.12,1.72c-0.06,0.57-0.11,1.14-0.17,1.72c-0.05,0.57-0.1,1.14-0.15,1.71
	c-0.04,0.57-0.09,1.14-0.17,1.71c-0.13,1.14-0.26,2.27-0.39,3.39c-0.12,1.13-0.33,2.23-0.48,3.34c-0.08,0.55-0.16,1.11-0.24,1.66
	c-0.08,0.55-0.2,1.09-0.29,1.63c-0.2,1.09-0.4,2.16-0.59,3.22c2.63-7.73,4.93-15.19,6.41-22.9c1.42-7.7,1.97-15.66,0.86-23.8
	l-0.15-1.01l-0.2-1l-0.4-2c-0.14-0.66-0.27-1.33-0.42-1.99c-0.17-0.65-0.34-1.31-0.52-1.96c0.19,0.66,0.37,1.32,0.56,1.98
	c0.16,0.66,0.29,1.33,0.43,1.99c0.13,0.66,0.26,1.33,0.39,1.99l0.18,0.99l0.13,1l0.5,3.49c0.16,1.17,0.22,2.34,0.33,3.51l0.14,1.76
	c0.04,0.59,0.04,1.18,0.06,1.76c0.03,1.18,0.07,2.35,0.08,3.53c-0.08,2.35-0.08,4.71-0.33,7.06l-0.15,1.76l-0.08,0.88l-0.12,0.88
	l-0.49,3.5c-1.54,9.29-4.45,18.33-8.64,26.67l-0.77,1.57l-0.84,1.53c-0.57,1.02-1.12,2.05-1.71,3.05c-1.24,1.97-2.41,3.98-3.78,5.86
	l-0.99,1.43l-0.5,0.71l-0.53,0.69l-2.12,2.75c-0.71,0.91-1.49,1.77-2.23,2.66l-1.12,1.32c-0.38,0.43-0.79,0.84-1.18,1.27l-2.36,2.51
	l-2.48,2.4c-0.42,0.39-0.81,0.81-1.25,1.18l-1.29,1.13c-0.87,0.75-1.7,1.53-2.59,2.24c-1.79,1.42-3.55,2.88-5.42,4.18l-1.38,1
	l-0.69,0.5l-0.72,0.47l-2.85,1.87c-0.44,0.37-0.91,0.71-1.38,1.05c-0.47,0.34-0.94,0.68-1.41,1.02c1.34,0.15,2.67,0.29,3.93,0.43
	c6.5-4.19,12.58-9.11,18.1-14.65c1.42-1.35,2.69-2.84,4.03-4.27c0.68-0.71,1.29-1.48,1.92-2.23l1.89-2.26l1.79-2.34
	c0.58-0.79,1.22-1.55,1.75-2.37l1.68-2.43c0.27-0.41,0.57-0.81,0.83-1.22l0.78-1.25c4.21-6.66,7.75-13.78,10.47-21.21
	C433.82,529.74,435.75,522.01,436.86,514.17"/>
</svg>
