<?xml version="1.0" encoding="utf-8"?>
<!-- Generator: Adobe Illustrator 23.0.3, SVG Export Plug-In . SVG Version: 6.00 Build 0)  -->
<svg version="1.1" id="Laag_1" xmlns="http://www.w3.org/2000/svg" xmlns:xlink="http://www.w3.org/1999/xlink" x="0px" y="0px"
	 viewBox="0 0 400 755.5" style="enable-background:new 0 0 400 755.5;" xml:space="preserve">
<style type="text/css">
	.st0{fill:#F4F4F4;}
</style>
<path class="st0" d="M412.52,151.76v23.78c0,0-57.35-21.73-107.96-21.73s-82.1,19.22-118.08,19.22
	c-35.99,0-83.22-20.89-122.58-20.89s-80.97,21.73-80.97,21.73v-24.65"/>
<path class="st0" d="M-17.08,149.21V23.06c0,0,41.61-21.73,80.97-21.73s86.59,20.89,122.58,20.89C222.46,22.23,253.95,3,304.55,3
	s107.96,21.73,107.96,21.73v127.02"/>
<path class="st0" d="M412.52,400.52v23.78c0,0-57.35-21.73-107.96-21.73s-82.1,19.22-118.08,19.22
	c-35.99,0-83.22-20.89-122.58-20.89s-80.97,21.73-80.97,21.73v-24.65"/>
<path class="st0" d="M-17.08,397.97V271.83c0,0,41.61-21.73,80.97-21.73s86.59,20.89,122.58,20.89c35.99,0,67.48-19.22,118.08-19.22
	s107.96,21.73,107.96,21.73v127.02"/>
<path class="st0" d="M417.99,649.29v23.78c0,0-57.35-21.73-107.96-21.73s-82.1,19.22-118.08,19.22
	c-35.99,0-83.22-20.89-122.58-20.89s-80.97,21.73-80.97,21.73v-24.65"/>
<path class="st0" d="M-11.6,646.74V520.59c0,0,41.61-21.73,80.97-21.73s86.59,20.89,122.58,20.89c35.99,0,67.48-19.22,118.08-19.22
	s107.96,21.73,107.96,21.73v127.02"/>
</svg>
